<svg width="115" height="36" viewBox="0 0 115 36" fill="none" xmlns="http://www.w3.org/2000/svg">
<path d="M42.68 2.9C43.1716 2.9 43.57 2.50153 43.57 2.00999C43.57 1.51846 43.1716 1.12 42.68 1.12C42.1885 1.12 41.79 1.51846 41.79 2.00999C41.79 2.50153 42.1885 2.9 42.68 2.9Z" fill="black"/>
<path d="M42.23 0.0100098C40.75 0.0100098 39.44 0.95001 38.97 2.35001L27.73 35.47H35.07L45.49 4.55001C46.24 2.32001 44.58 0.0100098 42.23 0.0100098ZM42.68 3.20001C42.03 3.20001 41.49 2.67001 41.49 2.01001C41.49 1.36001 42.02 0.820011 42.68 0.820011C43.33 0.820011 43.87 1.35001 43.87 2.01001C43.87 2.67001 43.34 3.20001 42.68 3.20001Z" fill="black"/>
<path d="M47.1599 0.0100098H43.6999C44.3199 0.27001 44.8499 0.70001 45.2599 1.27001C45.9699 2.26001 46.1599 3.49001 45.7699 4.65001L43.6099 11.05L46.5999 19.92H50.6199C52.6899 19.92 54.3699 21.6 54.3699 23.67C54.3699 25.74 52.6899 27.42 50.6199 27.42H49.1199L51.8299 35.47H59.1699L47.1599 0.0100098Z" fill="black"/>
<path d="M40.7599 0.0100098H39.8999L40.0399 0.42001C40.2599 0.25001 40.4999 0.11001 40.7599 0.0100098Z" fill="black"/>
<path d="M51.3099 24.56C51.8015 24.56 52.1999 24.1616 52.1999 23.67C52.1999 23.1785 51.8015 22.78 51.3099 22.78C50.8184 22.78 50.4199 23.1785 50.4199 23.67C50.4199 24.1616 50.8184 24.56 51.3099 24.56Z" fill="black"/>
<path d="M50.63 20.22H49.18H46.71H46.63H40.53L38.21 27.12H46.63H49.04H49.19H50.64C52.55 27.12 54.09 25.58 54.09 23.67C54.08 21.77 52.53 20.22 50.63 20.22ZM51.31 24.86C50.66 24.86 50.12 24.33 50.12 23.67C50.12 23.02 50.65 22.48 51.31 22.48C51.97 22.48 52.5 23.01 52.5 23.67C52.5 24.32 51.96 24.86 51.31 24.86Z" fill="black"/>
<path d="M67.8499 35.47H68.7099C68.4499 35.36 68.2099 35.22 67.9799 35.06L67.8499 35.47Z" fill="black"/>
<path d="M87.1298 0.0100098H79.7898L71.5598 24.44L73.7198 30.84C74.1098 32 73.9198 33.23 73.2098 34.22C72.7998 34.79 72.2598 35.22 71.6498 35.48H75.1098L87.1298 0.0100098Z" fill="black"/>
<path d="M70.64 34.36C71.1315 34.36 71.53 33.9615 71.53 33.47C71.53 32.9785 71.1315 32.58 70.64 32.58C70.1485 32.58 69.75 32.9785 69.75 33.47C69.75 33.9615 70.1485 34.36 70.64 34.36Z" fill="black"/>
<path d="M73.4399 30.93L63.0199 0H55.6899L66.9199 33.13C67.3899 34.53 68.7099 35.47 70.1799 35.47C72.5299 35.47 74.1899 33.16 73.4399 30.93ZM70.6399 34.65C69.9899 34.65 69.4499 34.12 69.4499 33.46C69.4499 32.81 69.9799 32.27 70.6399 32.27C71.2999 32.27 71.8299 32.8 71.8299 33.46C71.8199 34.12 71.2899 34.65 70.6399 34.65Z" fill="black"/>
<path d="M97.8002 2.9C98.2917 2.9 98.6902 2.50153 98.6902 2.00999C98.6902 1.51846 98.2917 1.12 97.8002 1.12C97.3086 1.12 96.9102 1.51846 96.9102 2.00999C96.9102 2.50153 97.3086 2.9 97.8002 2.9Z" fill="black"/>
<path d="M97.3401 0.0100098C95.8601 0.0100098 94.5501 0.95001 94.0801 2.35001L82.8501 35.48H90.1901L100.61 4.55001C101.36 2.32001 99.7001 0.0100098 97.3401 0.0100098ZM97.8001 3.20001C97.1501 3.20001 96.6101 2.67001 96.6101 2.01001C96.6101 1.36001 97.1401 0.820011 97.8001 0.820011C98.4501 0.820011 98.9901 1.35001 98.9901 2.01001C98.9801 2.67001 98.4501 3.20001 97.8001 3.20001Z" fill="black"/>
<path d="M102.27 0.0100098H98.81C99.43 0.27001 99.96 0.70001 100.37 1.27001C101.08 2.26001 101.27 3.49001 100.88 4.65001L98.72 11.05L101.71 19.92H105.73C107.8 19.92 109.48 21.6 109.48 23.67C109.48 25.74 107.8 27.42 105.73 27.42H104.23L106.94 35.47H114.28L102.27 0.0100098Z" fill="black"/>
<path d="M95.87 0.0100098H95.01L95.15 0.42001C95.37 0.25001 95.62 0.11001 95.87 0.0100098Z" fill="black"/>
<path d="M106.42 24.56C106.912 24.56 107.31 24.1616 107.31 23.67C107.31 23.1785 106.912 22.78 106.42 22.78C105.928 22.78 105.53 23.1785 105.53 23.67C105.53 24.1616 105.928 24.56 106.42 24.56Z" fill="black"/>
<path d="M105.74 20.22H101.82H95.6401L93.3201 27.12H104.15H105.75C107.66 27.12 109.2 25.58 109.2 23.67C109.19 21.77 107.65 20.22 105.74 20.22ZM106.42 24.86C105.77 24.86 105.23 24.33 105.23 23.67C105.23 23.02 105.76 22.48 106.42 22.48C107.07 22.48 107.61 23.01 107.61 23.67C107.61 24.32 107.08 24.86 106.42 24.86Z" fill="black"/>
<path d="M12.1699 35.47H13.0299C12.7699 35.36 12.5299 35.22 12.2999 35.06L12.1699 35.47Z" fill="black"/>
<path d="M31.4599 0.0100098H24.1199L15.8899 24.43L18.0499 30.83C18.4399 31.99 18.2499 33.22 17.5399 34.21C17.1299 34.78 16.5899 35.21 15.9799 35.47H19.4399L31.4599 0.0100098Z" fill="black"/>
<path d="M14.9601 34.36C15.4516 34.36 15.8501 33.9615 15.8501 33.47C15.8501 32.9785 15.4516 32.58 14.9601 32.58C14.4685 32.58 14.0701 32.9785 14.0701 33.47C14.0701 33.9615 14.4685 34.36 14.9601 34.36Z" fill="black"/>
<path d="M17.76 30.93L7.34 0H0L11.23 33.13C11.7 34.53 13.02 35.47 14.49 35.47C16.85 35.47 18.51 33.16 17.76 30.93ZM14.96 34.65C14.31 34.65 13.77 34.12 13.77 33.46C13.77 32.81 14.3 32.27 14.96 32.27C15.61 32.27 16.15 32.8 16.15 33.46C16.14 34.12 15.61 34.65 14.96 34.65Z" fill="black"/>
</svg>
