<svg width="307" height="103" viewBox="0 0 307 103" fill="none" xmlns="http://www.w3.org/2000/svg">
<path d="M67.1746 7.60432C65.3357 6.08345 63.0641 5.26453 60.9006 5.26453C59.1699 5.26453 57.5473 5.73249 56.0329 6.66841C55.6002 6.90239 55.2757 7.13636 55.0594 7.37034C54.3022 7.95529 53.5449 8.77423 52.8959 9.59316L45.3239 20.1223L44.2422 21.5261L45.1076 22.2281C45.2157 22.2281 45.2157 22.3451 45.3239 22.3451L60.3598 35.097L69.0135 23.047C70.0952 21.5261 70.7442 19.7713 71.0688 18.0164C71.0688 17.4315 71.0688 16.8465 71.0688 16.3786C71.0688 13.1029 69.6625 9.82713 67.1746 7.60432ZM63.1722 15.7936C61.8742 15.7936 60.7924 14.6237 60.7924 13.2198C60.7924 11.816 61.8742 10.6461 63.1722 10.6461C64.4703 10.6461 65.552 11.816 65.552 13.2198C65.552 14.6237 64.4703 15.7936 63.1722 15.7936Z" fill="black"/>
<path d="M71.0688 0.117004V11.933C70.4197 10.0612 69.2298 8.3063 67.6073 7.01941C65.6602 5.38155 63.3886 4.44563 60.9006 4.44563C59.1699 4.44563 57.5473 4.91359 56.0329 5.61553C54.6267 6.43446 53.3286 7.60436 52.2469 9.00824L44.2422 20.1223H0.108154V0.117004H71.0688Z" fill="black"/>
<path d="M70.9606 82.9459V102.951H0.108154V91.4862C0.865356 93.358 1.94707 94.9959 3.46148 96.1658C5.40857 97.8036 7.78834 98.6226 10.1681 98.6226C13.6296 98.6226 16.7666 96.9847 18.8219 94.06L26.8266 82.8289H70.9606V82.9459Z" fill="black"/>
<path d="M10.4927 68.4391L2.16343 80.1381C0.757202 82.127 0 84.5838 0 86.9236C0 87.3915 -1.00743e-07 87.7425 0.108172 88.0935C0.432687 90.9012 1.73075 93.709 4.00235 95.5808C4.32687 95.9318 4.75955 96.1658 5.08407 96.3998C5.19224 96.5168 5.30041 96.5167 5.40858 96.6337C5.62493 96.7507 5.94944 96.8677 6.16579 96.9847C6.27396 97.1017 6.38213 97.1017 6.59847 97.1017C7.03116 97.2187 7.35567 97.4527 7.78836 97.4527C8.0047 97.5697 8.32922 97.5697 8.54556 97.6866C9.08642 97.8036 9.62728 97.8036 10.1681 97.8036C10.3845 97.8036 10.4927 97.8036 10.709 97.8036C10.8172 97.8036 10.9253 97.8036 11.1417 97.8036C11.2499 97.8036 11.2499 97.8036 11.358 97.8036C11.5744 97.8036 11.8989 97.6866 12.1152 97.6866H12.2234C12.4397 97.6866 12.7643 97.5697 12.9806 97.4527C13.0888 97.4527 13.0888 97.4527 13.1969 97.3357C13.3051 97.3357 13.4133 97.2187 13.6296 97.2187C13.7378 97.2187 13.9541 97.1017 14.0623 96.9847C14.7113 96.6337 15.4686 96.2828 16.1176 95.8148C16.8748 95.2299 17.632 94.4109 18.281 93.592L25.853 82.9459L26.6102 81.893L10.4927 68.4391ZM7.78836 92.5391C6.4903 92.5391 5.40858 91.3692 5.40858 89.9653C5.40858 88.5614 6.4903 87.3915 7.78836 87.3915C9.08642 87.3915 10.1681 88.5614 10.1681 89.9653C10.1681 91.3692 9.08642 92.5391 7.78836 92.5391Z" fill="black"/>
<path d="M9.41092 89.9653C9.41092 90.9012 8.76189 91.6032 7.78834 91.6032C6.92297 91.6032 6.16577 90.9012 6.16577 89.9653C6.16577 89.0294 6.92297 88.2104 7.78834 88.2104C8.65372 88.3274 9.41092 89.0294 9.41092 89.9653Z" fill="black"/>
<path d="M64.6868 13.2199C64.6868 14.1558 64.0377 14.9747 63.1724 14.9747C62.307 14.9747 61.5498 14.1558 61.5498 13.2199C61.5498 12.284 62.1988 11.465 63.1724 11.465C64.0377 11.465 64.6868 12.284 64.6868 13.2199Z" fill="black"/>
<path d="M29.8553 71.1299L23.365 65.6314L20.4443 61.0688L26.8265 66.5673L29.8553 71.1299Z" fill="black"/>
<path d="M26.2857 75.9265L19.7954 70.428L16.8748 65.8654L23.3651 71.3639L26.2857 75.9265Z" fill="black"/>
<path d="M31.5861 74.4057V74.5227V74.6396C31.5861 74.8736 31.478 74.9906 31.3698 75.1076C31.1535 75.4586 30.7208 75.5756 30.3962 75.5756C30.1799 75.5756 29.8554 75.4586 29.639 75.3416L27.3674 73.4698L23.9059 70.545L21.7425 68.7901L15.5767 63.5256C15.4686 63.5256 15.3604 63.4086 15.2522 63.2916C15.2522 63.2916 15.2522 63.1746 15.144 63.1746V63.0576V62.9406C15.144 62.8237 15.144 62.8237 15.144 62.7067C15.144 62.5897 15.144 62.4727 15.144 62.4727C15.144 62.3557 15.144 62.3557 15.144 62.2387C15.144 62.2387 15.144 62.2387 15.144 62.1217C15.144 62.0047 15.144 62.0047 15.2522 61.8877C15.2522 61.8877 15.2522 61.8877 15.2522 61.7708C15.2522 61.7708 15.2522 61.7708 15.2522 61.6538C15.3604 61.5368 15.4686 61.4198 15.5767 61.3028C15.5767 61.3028 15.5767 61.3028 15.6849 61.3028H15.7931H15.9012C15.9012 61.3028 15.9012 61.3028 16.0094 61.3028H16.1176C16.2258 61.3028 16.2258 61.3028 16.3339 61.3028H16.4421C16.4421 61.3028 16.5503 61.3028 16.5503 61.4198C16.5503 61.4198 16.5503 61.4198 16.6584 61.4198C16.6584 61.4198 16.7666 61.4198 16.7666 61.5368C16.7666 61.5368 16.8748 61.5368 16.8748 61.6538L19.0382 63.5256L22.4997 66.4504L24.6632 68.2052L30.9371 73.5867C31.0453 73.7037 31.2616 73.9377 31.2616 74.0547C31.2616 74.1717 31.3698 74.2887 31.3698 74.2887V74.4057C31.5861 74.2887 31.5861 74.4057 31.5861 74.4057Z" fill="black"/>
<path d="M33.2085 66.3333L26.8264 60.8348L23.7976 56.2722L30.2879 61.7707L33.2085 66.3333Z" fill="black"/>
<path d="M24.014 51.8266C23.9059 51.8266 23.9059 51.8266 24.014 51.8266V51.8266ZM23.5813 51.5926C23.6895 51.7096 23.6895 51.7096 23.5813 51.5926V51.5926ZM23.4732 51.5926C23.365 51.5926 23.2568 51.5926 23.2568 51.5926C23.1487 51.5926 23.0405 51.5926 22.9323 51.5926C22.8241 51.5926 22.8241 51.5926 22.716 51.7096H22.8241C22.9323 51.7096 23.0405 51.7096 23.1486 51.7096C23.2568 51.5926 23.365 51.5926 23.4732 51.5926ZM22.6078 51.7096C22.716 51.7096 22.716 51.7096 22.6078 51.7096V51.7096ZM22.2833 52.0605C22.1751 52.0605 22.1751 52.1775 22.2833 52.0605V52.0605Z" fill="white"/>
<path d="M35.0476 69.6091V69.7261V69.8431C35.0476 70.077 34.9394 70.194 34.8312 70.311C34.6149 70.662 34.1822 70.779 33.8577 70.779C33.6413 70.779 33.3168 70.662 33.1005 70.545L30.8289 68.7902L27.4755 65.9824L25.3121 64.1106L19.0382 58.729C18.93 58.729 18.93 58.612 18.8218 58.495V58.3781C18.7136 58.3781 18.6055 58.2611 18.6055 58.1441C18.6055 58.0271 18.6055 57.9101 18.6055 57.7931V57.6761V57.5591C18.6055 57.5591 18.6055 57.5591 18.6055 57.4421V57.3251C18.6055 57.3251 18.6055 57.3251 18.6055 57.2081C18.6055 57.2081 18.6055 57.2081 18.6055 57.0912C18.6055 57.0912 18.6055 56.9742 18.7136 56.9742C18.8218 56.8572 18.8218 56.8572 18.93 56.7402L19.0382 56.6232C19.1463 56.6232 19.1463 56.5062 19.2545 56.5062C19.3627 56.5062 19.4708 56.5062 19.4708 56.3892C19.4708 56.3892 19.4708 56.3892 19.579 56.3892H19.6872C19.9035 56.3892 20.228 56.5062 20.4444 56.6232L20.5526 56.7402L22.716 58.612L26.0693 61.4198L28.2327 63.1746L34.5067 68.5562C34.723 68.7902 34.8312 68.9072 34.9394 69.0241C34.9394 69.1411 35.0476 69.2581 35.0476 69.2581V69.3751C35.0476 69.4921 35.0476 69.6091 35.0476 69.6091Z" fill="black"/>
<path d="M36.6702 61.5367L30.1799 56.0382L27.2593 51.4756L33.7496 56.9741L36.6702 61.5367Z" fill="black"/>
<path d="M38.509 64.6955C38.509 64.8125 38.509 64.9295 38.509 64.9295V65.0465C38.509 65.2805 38.4008 65.3974 38.2926 65.6314C37.9681 65.9824 37.6436 66.2164 37.3191 66.2164C37.1028 66.2164 36.7782 66.0994 36.5619 65.9824L34.2903 63.9936L30.937 61.0688L28.7735 59.314L22.3914 53.9324C22.3914 53.9324 22.2832 53.8154 22.2832 53.6984C22.2832 53.5814 22.1751 53.5815 22.1751 53.4645C22.1751 53.4645 22.1751 53.3475 22.0669 53.2305V53.1135C22.0669 53.1135 22.0669 53.1135 22.0669 52.9965C22.0669 52.9965 22.0669 52.8795 22.0669 52.7625C22.0669 52.6455 22.0669 52.5285 22.0669 52.5285C22.0669 52.5285 22.0669 52.5285 22.0669 52.4116C22.0669 52.2946 22.0669 52.2946 22.1751 52.1776C22.1751 52.0606 22.2832 52.0606 22.2832 51.9436L22.3914 51.8266C22.3914 51.9436 22.3914 51.8266 22.4996 51.8266H22.6078H22.7159C22.8241 51.8266 22.9323 51.8266 23.0404 51.8266C23.1486 51.8266 23.2568 51.8266 23.2568 51.8266C23.365 51.8266 23.365 51.8266 23.4731 51.9436C23.5813 51.9436 23.5813 52.0606 23.6895 52.0606L23.7976 52.1776L25.9611 54.0494L29.3144 56.9742L31.4778 58.729L37.7518 64.1106L37.86 64.2275C37.86 64.2275 37.86 64.2275 37.86 64.3445C37.86 64.3445 37.86 64.3445 37.86 64.4615C37.86 64.4615 37.86 64.4615 37.86 64.5785C38.509 64.4615 38.509 64.5785 38.509 64.6955Z" fill="black"/>
<path d="M40.1316 56.7402L33.6413 51.2417L30.7207 46.5621L37.211 52.0606L40.1316 56.7402Z" fill="black"/>
<path d="M30.7208 42.1164C30.8289 42.2334 30.8289 42.2334 30.7208 42.1164V42.1164ZM30.0717 41.9995C29.8554 41.9995 29.7472 41.9994 29.5309 42.1164H29.4227C29.4227 42.1164 29.5309 42.1164 29.5309 41.9995H29.639C29.7472 41.9995 29.7472 41.9995 29.8554 41.9995C29.9636 41.9995 30.0717 41.9995 30.0717 41.9995ZM29.0982 42.4674C29.2064 42.4674 29.2064 42.4674 29.0982 42.4674V42.4674ZM28.8818 43.0524C28.8818 42.9354 28.99 42.8184 28.99 42.7014C28.99 42.8184 28.99 42.9354 28.8818 43.0524Z" fill="white"/>
<path d="M41.9707 60.0159V60.1329V60.2499C41.9707 60.4838 41.8625 60.6008 41.7543 60.7178C41.4298 61.1858 41.1053 61.4198 40.7808 61.4198C40.5644 61.4198 40.2399 61.3028 40.0236 61.1858L37.752 59.197L34.3986 56.2722L32.2352 54.5174L25.9613 49.1358C25.7449 49.0188 25.7449 48.9018 25.6367 48.7849C25.6367 48.7849 25.6367 48.6679 25.5286 48.6679V48.5509V48.4339V48.3169C25.5286 48.3169 25.5286 48.3169 25.5286 48.1999V48.0829C25.5286 48.0829 25.5286 48.0829 25.5286 47.9659C25.5286 47.9659 25.5286 47.8489 25.6367 47.8489C25.6367 47.8489 25.6367 47.7319 25.7449 47.7319C25.9613 46.913 26.2858 46.796 26.7185 46.796C26.9348 46.796 27.1511 46.796 27.2593 46.913C27.3675 46.913 27.3675 47.03 27.4757 47.03L27.5838 47.147L29.7473 49.0188L33.1006 51.9436L35.264 53.6984L41.538 59.08C41.6461 59.08 41.7543 59.3139 41.8625 59.4309C41.8625 59.5479 41.9707 59.6649 41.9707 59.6649V59.7819C41.9707 59.8989 41.9707 59.8989 41.9707 60.0159Z" fill="black"/>
<path d="M43.5931 51.9436L37.1028 46.445L34.1821 41.7654L40.6724 47.264L43.5931 51.9436Z" fill="black"/>
<path d="M45.4321 55.2193C45.4321 55.3363 45.4321 55.3363 45.4321 55.3363C45.4321 55.3363 45.4321 55.3363 45.4321 55.4533C45.4321 55.5703 45.4321 55.6872 45.3239 55.8042C45.3239 55.8042 45.3239 55.9212 45.2157 55.9212C45.2157 55.9212 45.2157 56.0382 45.1076 56.0382C44.8912 56.3892 44.5667 56.5062 44.2422 56.5062C44.0258 56.5062 43.7013 56.3892 43.485 56.2722L41.2134 54.4004L37.7519 51.4756L35.6966 49.7208L29.3145 44.3392C29.2063 44.2222 29.2063 44.1052 29.0982 43.9882C29.0982 43.9882 29.0982 43.8713 28.99 43.8713V43.7543C28.99 43.7543 28.99 43.6373 28.99 43.5203C28.99 43.5203 28.99 43.5203 28.99 43.4033C28.99 43.2863 28.99 43.2863 28.99 43.1693V43.0523C28.99 42.9353 29.0982 42.8183 29.0982 42.7014C29.0982 42.7014 29.0982 42.5844 29.2063 42.5844C29.2063 42.5844 29.2063 42.4674 29.3145 42.4674L29.4227 42.3504C29.4227 42.3504 29.5308 42.3504 29.5308 42.2334H29.639C29.7472 42.2334 29.7472 42.2334 29.8554 42.2334C29.9635 42.2334 29.9635 42.2334 30.0717 42.2334C30.1799 42.2334 30.288 42.2334 30.3962 42.2334H30.5044H30.6126H30.7207C30.7207 42.2334 30.8289 42.2334 30.8289 42.3504L33.1005 44.2222L36.562 47.147L38.7254 48.9018L44.9994 54.2834C45.2157 54.4004 45.3239 54.6343 45.4321 54.9853V55.1023C45.4321 55.1023 45.4321 55.1023 45.4321 55.2193Z" fill="black"/>
<path d="M47.0547 47.147L40.5644 41.6485L37.6438 36.9689L44.1341 42.4674L47.0547 47.147Z" fill="black"/>
<path d="M48.8935 50.1887C48.8935 49.9547 48.7854 49.8377 48.7854 49.8377C48.6772 49.7207 48.569 49.4868 48.4608 49.3698L42.0787 43.9882L39.9153 42.2334L36.562 39.3086L34.3985 37.4368C34.2904 37.4368 34.2903 37.4368 34.1822 37.3198C34.1822 37.3198 34.1822 37.3198 34.074 37.3198C33.9658 37.3198 33.9658 37.3198 33.8577 37.2028C33.7495 37.2028 33.7495 37.2028 33.6413 37.2028C33.5331 37.2028 33.5331 37.2028 33.425 37.2028H33.3168H33.2086C33.2086 37.2028 33.2086 37.2028 33.1005 37.2028C33.1005 37.2028 33.1005 37.2028 32.9923 37.2028C32.9923 37.2028 32.8841 37.2028 32.8841 37.3198C32.8841 37.3198 32.7759 37.3198 32.7759 37.4368L32.5596 37.6708C32.5596 37.6708 32.4514 37.7878 32.4514 37.9048C32.4514 37.9048 32.4514 38.0217 32.3433 38.0217C32.3433 38.1387 32.3433 38.1387 32.3433 38.2557C32.3433 38.3727 32.3433 38.4897 32.3433 38.6067V38.7237V38.8407V38.9577C32.3433 38.9577 32.3433 39.0747 32.4514 39.0747C32.5596 39.1916 32.6678 39.3086 32.7759 39.4256L39.0499 44.8072L41.2133 46.562L44.5667 49.4868L46.9464 51.4756C47.1628 51.7096 47.4873 51.7096 47.7036 51.7096C48.0281 51.7096 48.4608 51.5926 48.6772 51.2416C48.7854 51.1246 48.8935 50.8906 48.8935 50.7737V50.6567V50.5397C48.8935 50.3057 48.8935 50.3057 48.8935 50.1887ZM47.5955 51.7096C47.7036 51.7096 47.8118 51.7096 47.92 51.7096C47.92 51.7096 47.8118 51.7096 47.5955 51.7096Z" fill="black"/>
<path d="M50.5162 42.3504L44.0259 36.8518L41.1052 32.1722L47.5955 37.6708L50.5162 42.3504Z" fill="black"/>
<path d="M52.355 45.5091C52.355 45.3921 52.355 45.3921 52.355 45.2751V45.1582C52.355 45.1582 52.355 45.0412 52.2468 45.0412C52.1386 44.8072 52.0305 44.6902 51.9223 44.5732L45.5402 39.1917L43.4849 37.4368L40.0234 34.5121L37.7518 32.6402C37.7518 32.6402 37.7518 32.6402 37.6436 32.6402C37.6436 32.6402 37.5354 32.5232 37.4273 32.5232C37.4273 32.5232 37.3191 32.5232 37.2109 32.4062H37.1028C36.9946 32.4062 36.9946 32.4062 36.8864 32.4062H36.7782C36.7782 32.4062 36.7782 32.4062 36.6701 32.4062H36.5619H36.3456H36.2374H36.1292C36.1292 32.4062 36.021 32.4063 36.021 32.5232L35.9129 32.6402L35.8047 32.7572C35.8047 32.8742 35.6965 32.8742 35.6965 32.9912C35.9129 33.2252 35.8047 33.3422 35.8047 33.4592C35.8047 33.5762 35.8047 33.5762 35.8047 33.6931V33.8101V33.9271C35.8047 33.9271 35.8047 34.0441 35.9129 34.0441C35.9129 34.0441 35.9129 34.1611 36.021 34.1611L36.1292 34.2781C36.1292 34.2781 36.1292 34.2781 36.2374 34.3951L36.3456 34.5121L42.6195 39.8936L44.7829 41.6485L48.2444 44.5732L50.516 46.445C50.7324 46.679 51.0569 46.679 51.2733 46.679C51.5978 46.679 52.0305 46.562 52.2468 46.2111C52.355 46.0941 52.355 45.9771 52.4631 45.8601C52.4631 45.8601 52.4631 45.8601 52.4631 45.7431V45.6261C52.355 45.7431 52.355 45.6261 52.355 45.5091Z" fill="black"/>
<path d="M53.9776 37.5538L47.4873 32.0553L44.5667 27.4927L51.057 32.9912L53.9776 37.5538Z" fill="black"/>
<path d="M55.8166 40.8296C55.8166 40.9465 55.8166 40.9465 55.8166 41.0635V41.1805V41.2975C55.8166 41.2975 55.8166 41.4145 55.7084 41.4145C55.7084 41.5315 55.6003 41.5315 55.6003 41.6485L55.4921 41.7655L55.3839 41.8825C55.2757 41.8825 55.2757 41.9995 55.1676 41.9995C55.1676 41.9995 55.1676 41.9995 55.0594 41.9995H54.9512H54.8431H54.7349H54.5185H54.4104H54.3022H54.194C54.194 41.9995 54.0859 41.9994 54.0859 41.8825H53.9777C53.9777 41.8825 53.9777 41.8825 53.8695 41.8825L51.5979 40.0106L48.1364 37.0859L45.973 35.331L39.699 29.9495C39.5909 29.8325 39.5909 29.7155 39.4827 29.5985C39.4827 29.5985 39.4827 29.4815 39.3745 29.4815C39.3745 29.4815 39.3745 29.4815 39.3745 29.3645V29.2475C39.3745 29.1305 39.3745 29.1305 39.3745 29.0136C39.3745 28.8966 39.3745 28.6626 39.3745 28.5456C39.3745 28.4286 39.4827 28.1946 39.5909 28.0776L39.699 27.9606L39.8072 27.8437C39.8072 27.8437 39.9154 27.8437 39.9154 27.7267C39.9154 27.7267 39.9154 27.7267 40.0235 27.7267C40.0235 27.7267 40.1317 27.7267 40.2399 27.6097H40.3481H40.4562C40.5644 27.6097 40.5644 27.6097 40.6726 27.6097C40.7807 27.6097 40.7807 27.6097 40.8889 27.6097C40.9971 27.6097 40.9971 27.6097 41.1053 27.7267C41.1053 27.7267 41.2134 27.7267 41.2134 27.8437L43.3769 29.7155L46.7302 32.5233L48.7854 34.2781L55.2757 39.7766C55.6003 40.0106 55.8166 40.3616 55.8166 40.8296Z" fill="black"/>
<path d="M28.1246 79.0852C28.1246 79.2022 28.1246 79.3192 28.1246 79.4362V79.5532V79.6702C28.1246 79.7872 28.1246 79.7872 28.0164 79.9042V80.0212C28.0164 80.0212 28.0164 80.1382 27.9082 80.1382C27.9082 80.1382 27.9082 80.2551 27.8001 80.2551L27.4755 80.4891C27.4755 80.4891 27.4755 80.4891 27.3674 80.4891H27.2592H27.151H27.0429C27.0429 80.4891 27.0429 80.4891 26.9347 80.4891H26.8265C26.8265 80.4891 26.7183 80.4891 26.7183 80.3721C26.7183 80.3721 26.7183 80.3721 26.6102 80.3721C26.6102 80.3721 26.6102 80.3721 26.502 80.3721L24.3386 78.5003L12.1152 68.3222C11.5743 67.8542 11.4661 67.0353 11.8988 66.4503C12.1152 66.0994 12.5479 65.9824 12.8724 65.9824C13.0887 65.9824 13.4132 66.0994 13.6296 66.2163L19.2545 71.0129L21.4179 72.7678L27.6919 78.1493C27.8001 78.2663 27.9082 78.3833 27.9082 78.5003C28.0164 78.6173 28.0164 78.7343 28.0164 78.8513V78.9683C28.1246 78.9683 28.1246 79.0852 28.1246 79.0852Z" fill="black"/>
<path d="M58.9535 36.8519C58.7372 37.2028 58.4127 37.3198 57.98 37.3198C57.7636 37.3198 57.4391 37.2028 57.2228 37.0858L51.706 32.2893L49.5426 30.5344L43.1605 25.1529L43.0523 25.0359C43.0523 25.0359 42.9441 25.0359 42.9441 24.9189C42.9441 24.9189 42.9441 24.9189 42.9441 24.8019C42.9441 24.8019 42.9441 24.6849 42.8359 24.6849V24.5679V24.4509V24.3339C42.8359 24.3339 42.8359 24.3339 42.8359 24.2169V24.0999C42.8359 24.0999 42.8359 23.983 42.9441 23.983C42.9441 23.983 42.9441 23.866 43.0523 23.866C43.0523 23.866 43.0523 23.749 43.1605 23.749L43.2686 23.632L43.3768 23.515C43.3768 23.515 43.485 23.515 43.485 23.398H43.5931H43.7013H43.8095H43.9177H44.0258C44.2422 23.398 44.5667 23.515 44.783 23.632L44.8912 23.749L47.0546 25.6208L58.8453 35.565C59.278 35.448 59.3862 36.2669 58.9535 36.8519Z" fill="black"/>
<path d="M63.7131 67.2693C63.4968 67.2693 63.3886 67.2693 63.1722 67.2693C61.3333 67.3863 59.7107 68.2052 58.5209 69.6091C57.2228 71.013 56.3574 73.0018 56.3574 75.2246V80.7231H71.0688V75.2246C70.9606 70.779 67.7155 67.2693 63.7131 67.2693ZM64.4703 74.9906C64.3621 73.2358 63.8213 71.5979 63.2804 70.311C63.0641 69.6091 62.6314 68.6732 62.7396 68.4392C62.7396 68.4392 63.0641 68.3222 63.7131 68.3222C67.2828 68.3222 70.0952 71.3639 70.2034 75.1076H64.4703V74.9906Z" fill="black"/>
<path d="M70.5279 81.1911H56.6819V82.595H70.5279V81.1911Z" fill="black"/>
<path d="M113.364 0.117004C111.309 0.117004 109.362 0.818942 107.739 2.22282C106.333 3.39272 105.251 5.03058 104.602 6.90242L74.5303 102.951H94.2175L101.465 79.5532L101.681 78.7343L107.955 58.729L108.172 57.9101L116.609 30.7684L122.018 13.3369C124.181 6.78543 119.746 0.117004 113.364 0.117004ZM114.662 8.89125C113.148 8.89125 111.849 7.48737 111.849 5.84951C111.849 4.21165 113.148 2.80777 114.662 2.80777C116.176 2.80777 117.474 4.21165 117.474 5.84951C117.366 7.60436 116.176 8.89125 114.662 8.89125Z" fill="black"/>
<path d="M107.523 1.2869L107.198 0.117004H109.47C108.712 0.350984 108.063 0.818943 107.523 1.2869Z" fill="black"/>
<path d="M139.758 68.6731C139.758 69.843 138.892 70.779 137.811 70.779C136.729 70.779 135.864 69.843 135.864 68.6731C135.864 67.5032 136.729 66.5673 137.811 66.5673C138.784 66.5673 139.758 67.5032 139.758 68.6731Z" fill="black"/>
<path d="M116.609 5.96648C116.609 7.13638 115.744 8.0723 114.662 8.0723C113.58 8.0723 112.715 7.13638 112.715 5.96648C112.715 4.79658 113.58 3.86066 114.662 3.86066C115.744 3.74367 116.609 4.79658 116.609 5.96648Z" fill="black"/>
<path d="M158.904 102.951H139.217L131.969 79.5532H135.972C141.489 79.5532 146.032 74.6396 146.032 68.6731C146.032 62.7066 141.489 57.7931 135.972 57.7931H125.155L117.15 32.0553L122.883 13.4539C123.965 10.0611 123.424 6.55144 121.477 3.62669C120.395 1.98883 118.989 0.70194 117.258 0H126.561L158.904 102.951Z" fill="black"/>
<path d="M135.972 58.729H108.929L102.655 78.7343H135.972C138.568 78.7343 140.839 77.5644 142.462 75.8095C144.085 74.0547 145.166 71.4809 145.166 68.7901C145.166 63.1746 141.056 58.729 135.972 58.729ZM137.702 71.7149C136.188 71.7149 134.89 70.311 134.89 68.6732C134.89 67.0353 136.188 65.6314 137.702 65.6314C139.217 65.6314 140.515 67.0353 140.515 68.6732C140.515 70.428 139.325 71.7149 137.702 71.7149Z" fill="black"/>
<path d="M139.758 68.6731C139.758 69.843 138.892 70.779 137.811 70.779C136.729 70.779 135.864 69.843 135.864 68.6731C135.864 67.5032 136.729 66.5673 137.811 66.5673C138.784 66.5673 139.758 67.5032 139.758 68.6731Z" fill="black"/>
<path d="M233.759 0.117004L201.524 102.951H192.221C193.844 102.249 195.358 100.962 196.44 99.3245C198.387 96.3998 198.819 92.8901 197.846 89.4974L192.113 70.896L214.18 0.117004H233.759Z" fill="black"/>
<path d="M184.433 102.951H182.161L182.486 101.781C183.027 102.249 183.676 102.6 184.433 102.951Z" fill="black"/>
<path d="M197.089 89.7314L191.68 72.2998L169.18 0.117004H149.493L179.565 96.1658C180.214 98.0376 181.296 99.6755 182.702 100.845C182.81 100.845 182.81 100.962 182.918 101.079C184.433 102.249 186.272 102.951 188.327 102.951C194.601 102.951 199.144 96.2828 197.089 89.7314ZM189.517 100.143C188.002 100.143 186.704 98.7396 186.704 97.1017C186.704 95.4638 188.002 94.06 189.517 94.06C191.031 94.06 192.329 95.4638 192.329 97.1017C192.329 98.7396 191.139 100.143 189.517 100.143Z" fill="black"/>
<path d="M191.572 97.1017C191.572 98.2716 190.707 99.2075 189.625 99.2075C188.543 99.2075 187.678 98.2716 187.678 97.1017C187.678 95.9318 188.543 94.9958 189.625 94.9958C190.598 94.9958 191.572 95.9318 191.572 97.1017Z" fill="black"/>
<path d="M287.52 68.6731C287.52 69.843 286.655 70.779 285.573 70.779C284.491 70.779 283.626 69.843 283.626 68.6731C283.626 67.5032 284.491 66.5673 285.573 66.5673C286.655 66.5673 287.52 67.5032 287.52 68.6731Z" fill="black"/>
<path d="M257.232 0.117004C256.583 0.467974 255.934 0.818943 255.285 1.2869L254.96 0.117004H257.232Z" fill="black"/>
<path d="M264.371 5.96648C264.371 7.13638 263.506 8.0723 262.424 8.0723C261.343 8.0723 260.477 7.13638 260.477 5.96648C260.477 4.79658 261.343 3.86066 262.424 3.86066C263.506 3.74367 264.371 4.79658 264.371 5.96648Z" fill="black"/>
<path d="M306.667 102.951H286.979L279.732 79.5532H283.734C289.251 79.5532 293.794 74.6396 293.794 68.6731C293.794 62.7066 289.251 57.7931 283.734 57.7931H272.917L264.912 32.0553L270.645 13.4539C271.727 10.0611 271.186 6.55144 269.239 3.62669C268.157 1.98883 266.751 0.70194 265.021 0H274.323L306.667 102.951Z" fill="black"/>
<path d="M287.52 68.6731C287.52 69.843 286.655 70.779 285.573 70.779C284.491 70.779 283.626 69.843 283.626 68.6731C283.626 67.5032 284.491 66.5673 285.573 66.5673C286.655 66.5673 287.52 67.5032 287.52 68.6731Z" fill="black"/>
<path d="M283.734 58.729H256.691L250.417 78.7343H283.734C285.465 78.7343 287.087 78.1493 288.494 77.3304C288.71 77.2134 289.035 76.9794 289.251 76.7455C289.575 76.5115 289.9 76.1605 290.224 75.8095C290.549 75.4586 290.873 75.1076 291.09 74.7566C291.306 74.5227 291.414 74.2887 291.631 73.9377C292.496 72.4168 292.929 70.662 292.929 68.7901C292.929 63.1746 288.818 58.729 283.734 58.729ZM285.573 71.7149C284.059 71.7149 282.761 70.311 282.761 68.6732C282.761 67.0353 284.059 65.6314 285.573 65.6314C287.087 65.6314 288.385 67.0353 288.385 68.6732C288.277 70.428 287.087 71.7149 285.573 71.7149Z" fill="black"/>
<path d="M261.235 0.117004C259.179 0.117004 257.232 0.818942 255.61 2.22282C254.203 3.39272 253.122 5.03058 252.473 6.90242L222.401 102.951H242.088L249.336 79.5532L249.552 78.7343L255.826 58.729L256.042 57.9101L264.48 30.7684L269.888 13.3369C271.944 6.78543 267.508 0.117004 261.235 0.117004ZM262.424 8.89125C260.91 8.89125 259.612 7.48737 259.612 5.84951C259.612 4.21165 260.91 2.80777 262.424 2.80777C263.939 2.80777 265.237 4.21165 265.237 5.84951C265.237 7.60436 263.939 8.89125 262.424 8.89125Z" fill="black"/>
<path d="M264.371 5.96648C264.371 7.13638 263.506 8.0723 262.424 8.0723C261.343 8.0723 260.477 7.13638 260.477 5.96648C260.477 4.79658 261.343 3.86066 262.424 3.86066C263.506 3.74367 264.371 4.79658 264.371 5.96648Z" fill="black"/>
<path d="M264.371 5.96648C264.371 7.13638 263.506 8.0723 262.424 8.0723C261.343 8.0723 260.477 7.13638 260.477 5.96648C260.477 4.79658 261.343 3.86066 262.424 3.86066C263.506 3.74367 264.371 4.79658 264.371 5.96648Z" fill="black"/>
<path d="M287.52 68.6731C287.52 69.843 286.655 70.779 285.573 70.779C284.491 70.779 283.626 69.843 283.626 68.6731C283.626 67.5032 284.491 66.5673 285.573 66.5673C286.655 66.5673 287.52 67.5032 287.52 68.6731Z" fill="black"/>
</svg>
