<svg xmlns="http://www.w3.org/2000/svg" viewBox="0 0 433.13 91"><defs><style>.cls-1{fill:#b527f9;}.cls-2{fill:#ffa7d1;}.cls-3{fill:none;}</style></defs><g id="레이어_2" data-name="레이어 2"><g id="레이어_1-2" data-name="레이어 1"><rect x="228" y="42" width="7.13" height="13"/><rect x="210" y="12" width="7.13" height="13"/><path d="M229,49H210.13V24h6V18H235V43h-6Zm-11.87-7H222V36h6V25h-4.87v6h-6Z"/><rect x="204" y="18" width="7.13" height="13"/><rect x="366" y="24" width="7.13" height="13"/><rect x="372" y="18" width="7.13" height="13"/><path d="M139,43H114.13V12H139Zm-17.87-7H132V19H121.13Z"/><rect x="24" y="54" width="7.13" height="13"/><path d="M61,79H24.13V66h6V60H67V73H61ZM37.13,72H54V67H37.13Z"/><rect x="234" y="36" width="7.13" height="13"/><rect x="138" y="36" width="7.13" height="13"/><path d="M403.13,43h-31V30h6V24H397v6h6.13Zm-18-7H390V31h-4.87Z"/><rect x="60" y="72" width="7.13" height="13"/><path d="M397,79H372.13V60H397Zm-17.87-7H390V67H379.13Z"/><polygon class="cls-1" points="33.63 69.5 33.63 63.5 57.5 63.5 57.5 57.5 27.63 57.5 27.63 63.5 27.5 63.5 21.5 63.5 21.5 69.5 27.5 69.5 27.5 75.5 27.63 75.5 27.63 69.5 33.63 69.5"/><polygon points="31.13 79 24 79 24 73 18 73 18 60 24.13 60 24.13 54 61 54 61 67 37.13 67 37.13 73 31.13 73 31.13 79"/><rect class="cls-1" x="75.5" y="9.5" width="6.13" height="12"/><rect x="72" y="6" width="13.13" height="19"/><polygon class="cls-1" points="75.5 75.5 69.63 75.5 63.63 75.5 63.63 81.5 63.5 81.5 33.63 81.5 27.63 81.5 27.63 87.5 69.63 87.5 69.63 81.5 81.63 81.5 81.63 63.5 75.5 63.5 75.5 75.5"/><polygon points="73.13 91 24.13 91 24.13 78 60.13 78 60.13 72 72 72 72 60 85.13 60 85.13 85 73.13 85 73.13 91"/><rect class="cls-1" x="15.63" y="75.5" width="5.87" height="6"/><rect x="12.13" y="72" width="12.87" height="13"/><polygon class="cls-1" points="93.5 27.5 81.63 27.5 75.5 27.5 75.5 45.5 69.63 45.5 69.63 51.5 81.63 51.5 81.63 33.5 99.5 33.5 99.5 27.5 93.5 27.5"/><polygon points="85.13 55 66.13 55 66.13 42 72 42 72 24 103 24 103 37 85.13 37 85.13 55"/><rect class="cls-1" x="15.5" y="9.5" width="6.13" height="30"/><rect x="12" y="6" width="13.13" height="37"/><polygon class="cls-1" points="57.63 45.5 51.5 45.5 21.63 45.5 15.63 45.5 15.63 51.5 21.5 51.5 57.63 51.5 57.63 45.5"/><rect x="12.13" y="42" width="49" height="13"/><rect class="cls-1" x="117.5" y="57.5" width="6.13" height="18"/><rect x="114" y="54" width="13.13" height="25"/><polygon class="cls-1" points="195.5 27.5 189.5 27.5 177.63 27.5 171.5 27.5 171.5 45.5 165.63 45.5 165.63 51.5 177.63 51.5 177.63 33.5 195.5 33.5 195.5 27.5"/><polygon points="181.13 55 162.13 55 162.13 42 168 42 168 24 199 24 199 37 181.13 37 181.13 55"/><rect class="cls-1" x="171.5" y="9.5" width="6.13" height="12"/><rect x="168" y="6" width="13.13" height="19"/><polygon class="cls-1" points="123.63 81.5 117.63 81.5 117.63 87.5 177.63 87.5 177.63 81.5 171.5 81.5 123.63 81.5"/><rect x="114.13" y="78" width="67" height="13"/><polygon class="cls-1" points="147.63 51.5 147.63 45.5 153.63 45.5 153.63 9.5 147.5 9.5 147.5 39.5 141.63 39.5 141.63 45.5 141.5 45.5 117.63 45.5 111.63 45.5 111.63 51.5 117.5 51.5 147.63 51.5"/><polygon points="151.13 55 108.13 55 108.13 42 138.13 42 138.13 36 144 36 144 6 157.13 6 157.13 49 151.13 49 151.13 55"/><polygon class="cls-1" points="117.63 15.5 135.5 15.5 135.5 9.5 111.5 9.5 111.5 39.5 117.63 39.5 117.63 15.5"/><polygon points="121.13 43 108 43 108 6 139 6 139 19 121.13 19 121.13 43"/><rect class="cls-1" x="201.63" y="75.5" width="59.87" height="6"/><rect x="198.13" y="72" width="66.87" height="13"/><polygon class="cls-1" points="213.5 45.5 213.63 45.5 213.63 27.5 219.63 27.5 219.63 21.5 225.5 21.5 225.5 15.5 213.63 15.5 213.63 21.5 213.5 21.5 207.63 21.5 207.63 27.5 207.5 27.5 207.5 39.5 213.5 39.5 213.5 45.5"/><polygon points="217.13 49 210 49 210 43 204 43 204 24 204.13 24 204.13 18 210.13 18 210.13 12 229 12 229 25 223.13 25 223.13 31 217.13 31 217.13 49"/><polygon class="cls-1" points="237.63 39.5 237.63 45.5 237.5 45.5 231.63 45.5 231.63 51.5 231.5 51.5 219.63 51.5 213.63 51.5 213.63 57.5 237.63 57.5 237.63 51.5 243.63 51.5 243.63 45.5 249.63 45.5 249.63 27.5 243.63 27.5 243.63 21.5 243.5 21.5 243.5 39.5 237.63 39.5"/><polygon points="241.13 61 210.13 61 210.13 48 228.13 48 228.13 42 234.13 42 234.13 36 240 36 240 18 247.13 18 247.13 24 253.13 24 253.13 49 247.13 49 247.13 55 241.13 55 241.13 61"/><polygon class="cls-1" points="273.5 81.5 267.63 81.5 267.63 87.5 279.63 87.5 279.63 9.5 273.5 9.5 273.5 81.5"/><polygon points="283.13 91 264.13 91 264.13 78 270 78 270 6 283.13 6 283.13 91"/><rect class="cls-1" x="237.5" y="15.5" width="0.13" height="6"/><rect x="234" y="12" width="7.13" height="13"/><polygon class="cls-1" points="399.63 81.5 375.63 81.5 363.63 81.5 351.63 81.5 351.63 87.5 423.63 87.5 423.63 81.5 417.5 81.5 411.63 81.5 399.63 81.5"/><rect x="348.13" y="78" width="79" height="13"/><rect class="cls-1" x="351.63" y="57.5" width="5.87" height="6"/><rect x="348.13" y="54" width="12.87" height="13"/><polygon class="cls-1" points="405.5 75.5 411.63 75.5 411.63 63.5 423.63 63.5 423.63 57.5 417.5 57.5 405.5 57.5 405.5 75.5"/><polygon points="415.13 79 402 79 402 54 427.13 54 427.13 67 415.13 67 415.13 79"/><polygon class="cls-1" points="387.5 51.5 393.63 51.5 417.5 51.5 429.63 51.5 429.63 45.5 423.5 45.5 387.5 45.5 387.5 51.5"/><rect x="384" y="42" width="49.13" height="13"/><polygon class="cls-1" points="399.63 33.5 399.63 39.5 423.5 39.5 423.63 39.5 423.63 33.5 417.5 33.5 405.63 33.5 399.63 33.5"/><rect x="396.13" y="30" width="31" height="13"/><polygon class="cls-1" points="375.5 57.5 369.5 57.5 369.5 75.5 375.63 75.5 375.63 63.5 381.63 63.5 393.5 63.5 393.5 57.5 387.5 57.5 375.5 57.5"/><polygon points="379.13 79 366 79 366 54 397 54 397 67 379.13 67 379.13 79"/><polygon class="cls-1" points="375.63 33.5 381.63 33.5 381.63 27.5 387.5 27.5 387.5 21.5 381.63 21.5 375.63 21.5 375.63 27.5 375.5 27.5 369.63 27.5 369.63 33.5 369.5 33.5 351.63 33.5 351.63 39.5 375.63 39.5 375.63 33.5"/><polygon points="379.13 43 348.13 43 348.13 30 366.13 30 366.13 24 372.13 24 372.13 18 391 18 391 31 385.13 31 385.13 37 379.13 37 379.13 43"/><rect class="cls-1" x="345.63" y="45.5" width="29.87" height="6"/><rect x="342.13" y="42" width="36.87" height="13"/><rect class="cls-1" x="399.5" y="21.5" width="0.13" height="6"/><rect x="396" y="18" width="7.13" height="13"/><polygon class="cls-1" points="393.5 15.5 393.5 21.5 393.63 21.5 393.63 9.5 387.5 9.5 387.5 15.5 393.5 15.5"/><polygon points="397.13 25 390 25 390 19 384 19 384 6 397.13 6 397.13 25"/><polygon class="cls-2" points="51.5 45.5 51.5 39.5 21.63 39.5 15.5 39.5 15.5 9.5 15.5 3.5 3.5 3.5 3.5 39.5 9.5 39.5 9.5 45.5 9.63 45.5 15.63 45.5 21.63 45.5 51.5 45.5"/><path d="M55,49H6V43H0V0H19V36H55ZM7,36h5V7H7Z"/><path class="cls-2" d="M63.5,81.5v-6h12v-18h-12v-6h-42v6H9.5v18h12v6h42Zm-36-6v-6h-6v-6h6v-6h30v6h6v6h-6v6h-30Z"/><path d="M67,85H18V79H6V54H18V48H67v6H79V79H67Zm0-13h5V61H67ZM31,72H54V61H31ZM13,72h5V61H13Z"/><polygon class="cls-2" points="75.5 27.5 81.63 27.5 93.5 27.5 93.5 21.5 81.63 21.5 75.5 21.5 75.5 9.5 75.5 3.5 63.5 3.5 63.5 45.5 69.63 45.5 75.5 45.5 75.5 27.5"/><path d="M79,49H60V0H79V18H97V31H79ZM67,42h5V7H67Z"/><path class="cls-2" d="M141.5,45.5v-6h6V3.5h-48v36h6v6h36Zm-30-6V9.5h24v30h-24Z"/><path d="M145,49H102V43H96V0h55V43h-6Zm-6-13h5V7h-5Zm-24,0h17V13H115Zm-12,0h5V7h-5Z"/><polygon class="cls-2" points="171.5 81.5 171.5 75.5 123.63 75.5 117.5 75.5 117.5 57.5 117.5 51.5 111.63 51.5 105.5 51.5 105.5 75.5 111.5 75.5 111.5 81.5 111.63 81.5 117.63 81.5 123.63 81.5 171.5 81.5"/><path d="M175,85H108V79h-6V48h19V72h54ZM109,72h5V55h-5Z"/><polygon class="cls-2" points="171.5 27.5 177.63 27.5 189.5 27.5 189.5 21.5 177.63 21.5 171.5 21.5 171.5 9.5 171.5 3.5 159.5 3.5 159.5 45.5 165.63 45.5 171.5 45.5 171.5 27.5"/><path d="M175,49H156V0h19V18h18V31H175Zm-12-7h5V7h-5Z"/><path class="cls-2" d="M195.5,39.5h6v6h6v6h24v-6h6v-6h6v-18h-6v-6h-6v-6h-24v6h-6v6h-6v18Zm12-12v-6h6v-6h12v6h6v18h-6v6h-12v-6h-6Z"/><path d="M235,55H204V49h-6V43h-6V18h6V12h6V6h31v6h6v6h6V43h-6v6h-6ZM217,42h5V36h6V25h-6V19h-5v6h-6V36h6Zm18-6h5V25h-5Zm-36,0h5V25h-5Z"/><polygon class="cls-2" points="273.5 9.5 273.5 3.5 261.5 3.5 261.5 69.5 195.5 69.5 195.5 75.5 201.63 75.5 261.5 75.5 261.5 81.5 267.63 81.5 273.5 81.5 273.5 9.5"/><path d="M277,85H258V79H192V66h66V0h19Zm-12-7h5V7h-5Z"/><polygon class="cls-2" points="369.5 27.5 369.63 27.5 375.5 27.5 375.5 21.5 375.63 21.5 381.63 21.5 387.5 21.5 387.5 27.5 393.5 27.5 393.5 33.5 393.63 33.5 399.63 33.5 405.63 33.5 417.5 33.5 417.5 27.5 405.63 27.5 399.63 27.5 399.5 27.5 399.5 21.5 393.63 21.5 393.5 21.5 393.5 15.5 387.5 15.5 387.5 9.5 387.5 3.5 375.5 3.5 375.5 15.5 369.5 15.5 369.5 21.5 363.5 21.5 363.5 27.5 345.5 27.5 345.5 33.5 351.63 33.5 369.5 33.5 369.5 27.5"/><path d="M421,37H390V31h-6V25h-5v6h-6v6H342V24h18V18h6V12h6V0h19V12h6v6h6v6h18ZM379,18h5V7h-5Z"/><path class="cls-2" d="M393.63,51.5H387.5v-6h36v-6h-84v6h36v6h-30v6h12v18h-12v6h72v-6h-12v-18h12v-6Zm-.13,12v12h-24v-18h24Z"/><path d="M421,85H342V72h12V61H342V49h-6V36h91V49h-6V61H409V72h12Zm-24-7h5V55h-5Zm-36,0h5V55h-5Zm12-6h17V61H373Zm6-18h5V43h-5Z"/><rect class="cls-3" x="231.5" y="45.5" width="0.13" height="6"/><rect class="cls-3" x="213.5" y="15.5" width="0.13" height="6"/><polygon class="cls-3" points="219.63 27.5 213.63 27.5 213.63 45.5 219.63 45.5 225.5 45.5 225.5 39.5 231.5 39.5 231.5 21.5 225.5 21.5 219.63 21.5 219.63 27.5"/><rect class="cls-3" x="207.5" y="21.5" width="0.13" height="6"/><rect class="cls-3" x="369.5" y="27.5" width="0.13" height="6"/><rect class="cls-3" x="375.5" y="21.5" width="0.13" height="6"/><rect class="cls-3" x="117.63" y="15.5" width="17.87" height="24"/><rect class="cls-3" x="27.5" y="57.5" width="0.13" height="6"/><polygon class="cls-3" points="57.5 75.5 57.5 69.5 63.5 69.5 63.5 63.5 57.5 63.5 33.63 63.5 33.63 69.5 27.63 69.5 27.63 75.5 33.63 75.5 57.5 75.5"/><rect class="cls-3" x="237.5" y="39.5" width="0.13" height="6"/><rect class="cls-3" x="141.5" y="39.5" width="0.13" height="6"/><polygon class="cls-3" points="393.63 33.5 393.5 33.5 393.5 27.5 387.5 27.5 381.63 27.5 381.63 33.5 375.63 33.5 375.63 39.5 399.63 39.5 399.63 33.5 393.63 33.5"/><rect class="cls-3" x="63.5" y="75.5" width="0.13" height="6"/><polygon class="cls-3" points="375.63 63.5 375.63 75.5 393.5 75.5 393.5 63.5 381.63 63.5 375.63 63.5"/><polygon class="cls-1" points="33.63 69.5 33.63 63.5 57.5 63.5 57.5 57.5 27.63 57.5 27.63 63.5 27.5 63.5 21.5 63.5 21.5 69.5 27.5 69.5 27.5 75.5 27.63 75.5 27.63 69.5 33.63 69.5"/><rect class="cls-1" x="75.5" y="9.5" width="6.13" height="12"/><polygon class="cls-1" points="75.5 75.5 69.63 75.5 63.63 75.5 63.63 81.5 63.5 81.5 33.63 81.5 27.63 81.5 27.63 87.5 69.63 87.5 69.63 81.5 81.63 81.5 81.63 63.5 75.5 63.5 75.5 75.5"/><rect class="cls-1" x="15.63" y="75.5" width="5.87" height="6"/><polygon class="cls-1" points="93.5 27.5 81.63 27.5 75.5 27.5 75.5 45.5 69.63 45.5 69.63 51.5 81.63 51.5 81.63 33.5 99.5 33.5 99.5 27.5 93.5 27.5"/><rect class="cls-1" x="15.5" y="9.5" width="6.13" height="30"/><polygon class="cls-1" points="57.63 45.5 51.5 45.5 21.63 45.5 15.63 45.5 15.63 51.5 21.5 51.5 57.63 51.5 57.63 45.5"/><rect class="cls-1" x="117.5" y="57.5" width="6.13" height="18"/><polygon class="cls-1" points="195.5 27.5 189.5 27.5 177.63 27.5 171.5 27.5 171.5 45.5 165.63 45.5 165.63 51.5 177.63 51.5 177.63 33.5 195.5 33.5 195.5 27.5"/><rect class="cls-1" x="171.5" y="9.5" width="6.13" height="12"/><polygon class="cls-1" points="123.63 81.5 117.63 81.5 117.63 87.5 177.63 87.5 177.63 81.5 171.5 81.5 123.63 81.5"/><polygon class="cls-1" points="147.63 51.5 147.63 45.5 153.63 45.5 153.63 9.5 147.5 9.5 147.5 39.5 141.63 39.5 141.63 45.5 141.5 45.5 117.63 45.5 111.63 45.5 111.63 51.5 117.5 51.5 147.63 51.5"/><polygon class="cls-1" points="117.63 15.5 135.5 15.5 135.5 9.5 111.5 9.5 111.5 39.5 117.63 39.5 117.63 15.5"/><rect class="cls-1" x="201.63" y="75.5" width="59.87" height="6"/><polygon class="cls-1" points="213.5 45.5 213.63 45.5 213.63 27.5 219.63 27.5 219.63 21.5 225.5 21.5 225.5 15.5 213.63 15.5 213.63 21.5 213.5 21.5 207.63 21.5 207.63 27.5 207.5 27.5 207.5 39.5 213.5 39.5 213.5 45.5"/><polygon class="cls-1" points="237.63 39.5 237.63 45.5 237.5 45.5 231.63 45.5 231.63 51.5 231.5 51.5 219.63 51.5 213.63 51.5 213.63 57.5 237.63 57.5 237.63 51.5 243.63 51.5 243.63 45.5 249.63 45.5 249.63 27.5 243.63 27.5 243.63 21.5 243.5 21.5 243.5 39.5 237.63 39.5"/><polygon class="cls-1" points="273.5 81.5 267.63 81.5 267.63 87.5 279.63 87.5 279.63 9.5 273.5 9.5 273.5 81.5"/><rect class="cls-1" x="237.5" y="15.5" width="0.13" height="6"/><polygon class="cls-1" points="399.63 81.5 375.63 81.5 363.63 81.5 351.63 81.5 351.63 87.5 423.63 87.5 423.63 81.5 417.5 81.5 411.63 81.5 399.63 81.5"/><rect class="cls-1" x="351.63" y="57.5" width="5.87" height="6"/><polygon class="cls-1" points="405.5 75.5 411.63 75.5 411.63 63.5 423.63 63.5 423.63 57.5 417.5 57.5 405.5 57.5 405.5 75.5"/><polygon class="cls-1" points="387.5 51.5 393.63 51.5 417.5 51.5 429.63 51.5 429.63 45.5 423.5 45.5 387.5 45.5 387.5 51.5"/><polygon class="cls-1" points="399.63 33.5 399.63 39.5 423.5 39.5 423.63 39.5 423.63 33.5 417.5 33.5 405.63 33.5 399.63 33.5"/><polygon class="cls-1" points="375.5 57.5 369.5 57.5 369.5 75.5 375.63 75.5 375.63 63.5 381.63 63.5 393.5 63.5 393.5 57.5 387.5 57.5 375.5 57.5"/><polygon class="cls-1" points="375.63 33.5 381.63 33.5 381.63 27.5 387.5 27.5 387.5 21.5 381.63 21.5 375.63 21.5 375.63 27.5 375.5 27.5 369.63 27.5 369.63 33.5 369.5 33.5 351.63 33.5 351.63 39.5 375.63 39.5 375.63 33.5"/><rect class="cls-1" x="345.63" y="45.5" width="29.87" height="6"/><rect class="cls-1" x="399.5" y="21.5" width="0.13" height="6"/><polygon class="cls-1" points="393.5 15.5 393.5 21.5 393.63 21.5 393.63 9.5 387.5 9.5 387.5 15.5 393.5 15.5"/><polygon class="cls-2" points="51.5 45.5 51.5 39.5 21.63 39.5 15.5 39.5 15.5 9.5 15.5 3.5 3.5 3.5 3.5 39.5 9.5 39.5 9.5 45.5 9.63 45.5 15.63 45.5 21.63 45.5 51.5 45.5"/><path class="cls-2" d="M63.5,81.5v-6h12v-18h-12v-6h-42v6H9.5v18h12v6h42Zm-36-6v-6h-6v-6h6v-6h30v6h6v6h-6v6h-30Z"/><polygon class="cls-2" points="75.5 27.5 81.63 27.5 93.5 27.5 93.5 21.5 81.63 21.5 75.5 21.5 75.5 9.5 75.5 3.5 63.5 3.5 63.5 45.5 69.63 45.5 75.5 45.5 75.5 27.5"/><path class="cls-2" d="M141.5,45.5v-6h6V3.5h-48v36h6v6h36Zm-30-6V9.5h24v30h-24Z"/><polygon class="cls-2" points="171.5 81.5 171.5 75.5 123.63 75.5 117.5 75.5 117.5 57.5 117.5 51.5 111.63 51.5 105.5 51.5 105.5 75.5 111.5 75.5 111.5 81.5 111.63 81.5 117.63 81.5 123.63 81.5 171.5 81.5"/><polygon class="cls-2" points="171.5 27.5 177.63 27.5 189.5 27.5 189.5 21.5 177.63 21.5 171.5 21.5 171.5 9.5 171.5 3.5 159.5 3.5 159.5 45.5 165.63 45.5 171.5 45.5 171.5 27.5"/><path class="cls-2" d="M195.5,39.5h6v6h6v6h24v-6h6v-6h6v-18h-6v-6h-6v-6h-24v6h-6v6h-6v18Zm12-12v-6h6v-6h12v6h6v18h-6v6h-12v-6h-6Z"/><polygon class="cls-2" points="273.5 9.5 273.5 3.5 261.5 3.5 261.5 69.5 195.5 69.5 195.5 75.5 201.63 75.5 261.5 75.5 261.5 81.5 267.63 81.5 273.5 81.5 273.5 9.5"/><polygon class="cls-2" points="369.5 27.5 369.63 27.5 375.5 27.5 375.5 21.5 375.63 21.5 381.63 21.5 387.5 21.5 387.5 27.5 393.5 27.5 393.5 33.5 393.63 33.5 399.63 33.5 405.63 33.5 417.5 33.5 417.5 27.5 405.63 27.5 399.63 27.5 399.5 27.5 399.5 21.5 393.63 21.5 393.5 21.5 393.5 15.5 387.5 15.5 387.5 9.5 387.5 3.5 375.5 3.5 375.5 15.5 369.5 15.5 369.5 21.5 363.5 21.5 363.5 27.5 345.5 27.5 345.5 33.5 351.63 33.5 369.5 33.5 369.5 27.5"/><path class="cls-2" d="M393.63,51.5H387.5v-6h36v-6h-84v6h36v6h-30v6h12v18h-12v6h72v-6h-12v-18h12v-6Zm-.13,12v12h-24v-18h24Z"/></g></g></svg>