<?xml version="1.0" encoding="utf-8"?>
<!-- Generator: Adobe Illustrator 27.9.0, SVG Export Plug-In . SVG Version: 6.00 Build 0)  -->
<svg version="1.1" id="레이어_4" xmlns="http://www.w3.org/2000/svg" xmlns:xlink="http://www.w3.org/1999/xlink" x="0px"
	 y="0px" viewBox="0 0 148.82 74.41" style="enable-background:new 0 0 148.82 74.41;" xml:space="preserve">
<g>
	<g>
		<g>
			<circle cx="60.09" cy="21.47" r="0.89"/>
			<path d="M59.64,19.47c-1.48,0-2.79,0.94-3.26,2.34L45.14,54.93h7.34L62.9,24.01C63.65,21.78,61.99,19.47,59.64,19.47z
				 M60.09,22.66c-0.65,0-1.19-0.53-1.19-1.19c0-0.65,0.53-1.19,1.19-1.19c0.65,0,1.19,0.53,1.19,1.19
				C61.28,22.13,60.75,22.66,60.09,22.66z"/>
		</g>
		<g>
			<path d="M64.57,19.47h-3.46c0.62,0.26,1.15,0.69,1.56,1.26c0.71,0.99,0.9,2.22,0.51,3.38l-2.16,6.4l2.99,8.87h4.02
				c2.07,0,3.75,1.68,3.75,3.75c0,2.07-1.68,3.75-3.75,3.75h-1.5l2.71,8.05h7.34L64.57,19.47z"/>
			<path d="M58.17,19.47h-0.86l0.14,0.41C57.67,19.71,57.91,19.57,58.17,19.47z"/>
			<ellipse cx="68.72" cy="43.13" rx="0.89" ry="0.89"/>
			<path d="M68.04,39.68h-1.45h-2.47h-0.08h-6.1l-2.32,6.9h8.42h2.41h0.15h1.45c1.91,0,3.45-1.54,3.45-3.45l0,0
				C71.49,41.23,69.94,39.68,68.04,39.68z M68.72,44.32c-0.65,0-1.19-0.53-1.19-1.19c0-0.65,0.53-1.19,1.19-1.19
				s1.19,0.53,1.19,1.19C69.91,43.78,69.37,44.32,68.72,44.32z"/>
		</g>
	</g>
	<g>
		<g>
			<path d="M85.26,54.93h0.86c-0.26-0.11-0.5-0.25-0.73-0.41L85.26,54.93z"/>
			<path d="M104.54,19.47h-7.34l-8.23,24.43l2.16,6.4c0.39,1.16,0.2,2.39-0.51,3.38c-0.41,0.57-0.95,1-1.56,1.26h3.46L104.54,19.47z
				"/>
		</g>
		<g>
			<ellipse cx="88.05" cy="52.93" rx="0.89" ry="0.89"/>
			<path d="M90.85,50.39L80.43,19.46H73.1l11.23,33.13c0.47,1.4,1.79,2.34,3.26,2.34l0,0C89.94,54.93,91.6,52.62,90.85,50.39z
				 M88.05,54.11c-0.65,0-1.19-0.53-1.19-1.19c0-0.65,0.53-1.19,1.19-1.19s1.19,0.53,1.19,1.19C89.23,53.58,88.7,54.11,88.05,54.11z
				"/>
		</g>
	</g>
	<g>
		<g>
			<circle cx="115.21" cy="21.47" r="0.89"/>
			<path d="M114.75,19.47c-1.48,0-2.79,0.94-3.26,2.34l-11.23,33.13h7.34l10.42-30.93C118.77,21.78,117.11,19.47,114.75,19.47z
				 M115.21,22.66c-0.65,0-1.19-0.53-1.19-1.19c0-0.65,0.53-1.19,1.19-1.19c0.65,0,1.19,0.53,1.19,1.19
				C116.39,22.13,115.86,22.66,115.21,22.66z"/>
		</g>
		<g>
			<path d="M119.68,19.47h-3.46c0.62,0.26,1.15,0.69,1.56,1.26c0.71,0.99,0.9,2.22,0.51,3.38l-2.16,6.4l2.99,8.87h4.02
				c2.07,0,3.75,1.68,3.75,3.75c0,2.07-1.68,3.75-3.75,3.75h-1.5l2.71,8.05h7.34L119.68,19.47z"/>
			<path d="M113.28,19.47h-0.86l0.14,0.41C112.78,19.71,113.03,19.57,113.28,19.47z"/>
			<ellipse cx="123.83" cy="43.13" rx="0.89" ry="0.89"/>
			<path d="M123.15,39.68h-3.92h-6.18l-2.32,6.9h10.83h1.6c1.91,0,3.45-1.54,3.45-3.45l0,0C126.6,41.23,125.06,39.68,123.15,39.68z
				 M123.83,44.32c-0.65,0-1.19-0.53-1.19-1.19c0-0.65,0.53-1.19,1.19-1.19c0.65,0,1.19,0.53,1.19,1.19
				C125.02,43.78,124.49,44.32,123.83,44.32z"/>
		</g>
	</g>
	<g>
		<g>
			<path d="M29.58,54.93h0.86c-0.26-0.11-0.5-0.25-0.73-0.41L29.58,54.93z"/>
			<path d="M48.87,19.47h-7.34L33.3,43.89l2.16,6.4c0.39,1.16,0.2,2.39-0.51,3.38c-0.41,0.57-0.95,1-1.56,1.26h3.46L48.87,19.47z"/>
		</g>
		<g>
			<ellipse cx="32.37" cy="52.93" rx="0.89" ry="0.89"/>
			<path d="M35.17,50.39L24.75,19.46h-7.34l11.23,33.13c0.47,1.4,1.79,2.34,3.26,2.34l0,0C34.26,54.93,35.92,52.62,35.17,50.39z
				 M32.37,54.11c-0.65,0-1.19-0.53-1.19-1.19c0-0.65,0.53-1.19,1.19-1.19c0.65,0,1.19,0.53,1.19,1.19
				C33.55,53.58,33.02,54.11,32.37,54.11z"/>
		</g>
	</g>
</g>
</svg>
