<?xml version="1.0" encoding="utf-8"?>
<!-- Generator: Adobe Illustrator 27.9.0, SVG Export Plug-In . SVG Version: 6.00 Build 0)  -->
<svg version="1.1" id="레이어_1" xmlns="http://www.w3.org/2000/svg" xmlns:xlink="http://www.w3.org/1999/xlink" x="0px"
	 y="0px" viewBox="0 0 300 300" style="enable-background:new 0 0 300 300;" xml:space="preserve">
<style type="text/css">
	.st0{fill:#F8F8F8;stroke:#F8F8F8;stroke-miterlimit:10;}
	.st1{fill:#F8F8F8;}
</style>
<g>
	<g>
		<path class="st0" d="M150,116c-3.8,0-5,0.6-5.3,0.8c-0.3,1.4,1.8,6.2,3.1,9.5c2.8,6.4,6.1,14.3,6.4,23.2h30.5
			C184.1,130.9,168.8,116,150,116z"/>
		<g>
			<path class="st1" d="M110.9,179.4c-0.9,0-1.6-0.7-1.6-1.6v-27c0-21.1,16.5-38.9,37.5-40.5h0.4c0.9-0.1,1.8-0.1,2.7-0.1
				c12.2,0,23.6,5.4,31.4,14.8c1.7,2,3.1,4.2,4.4,6.5c2.6,4.8,4.2,9.9,4.7,15.2c0.1,1.3,0.2,2.8,0.2,4.2v27c0,0.9-0.7,1.6-1.6,1.6
				L110.9,179.4L110.9,179.4z M183.1,148c-1.5-17.2-15.7-30.4-33.1-30.4c-1.9,0-3,0.2-3.7,0.3c0.4,1.9,2.2,6,2.9,7.8
				c2.6,6.1,5.9,13.7,6.5,22.3C155.7,148,183.1,148,183.1,148z"/>
			<path class="st1" d="M150,111.7c12.2,0,23,5.5,30.2,14.2c1.6,1.9,3,4,4.2,6.2c2.4,4.4,4,9.4,4.5,14.6c0.1,1.3,0.2,2.7,0.2,4v27
				h-78.2v-27c0-20.6,15.9-37.4,36.1-38.9C148,111.8,149,111.7,150,111.7 M154.3,149.5h30.5c-0.7-18.6-16-33.5-34.8-33.5
				c-3.8,0-5,0.6-5.3,0.8c-0.3,1.4,1.7,6.2,3.1,9.5C150.6,132.8,154,140.6,154.3,149.5 M150,108.6c-1,0-1.9,0.1-2.8,0.1h-0.4
				c-10.6,0.8-20.4,5.5-27.7,13.3s-11.3,18-11.3,28.7v27c0,1.7,1.4,3.1,3.1,3.1h78.2c1.7,0,3.1-1.4,3.1-3.1v-27
				c0-1.5-0.1-2.9-0.2-4.3c-0.6-5.6-2.2-10.9-4.9-15.8c-1.3-2.4-2.8-4.6-4.5-6.7C174.5,114.2,162.6,108.6,150,108.6L150,108.6z
				 M148.4,119.2c0.5,0,1,0,1.6,0c16,0,29.2,11.7,31.4,27.2h-24.2c-0.9-8.2-4-15.4-6.5-21.3C150.2,123.9,149,121.2,148.4,119.2
				L148.4,119.2z"/>
		</g>
		<g>
			<path class="st1" d="M154.3,151.1c-0.8,0-1.5-0.7-1.6-1.5c-0.3-8.6-3.6-16.4-6.3-22.7c-2.4-5.6-3.6-8.8-3.2-10.4
				c0.1-0.4,0.3-0.8,0.7-1c0.7-0.5,2.4-1,6.1-1c19.7,0,35.6,15.4,36.3,35c0,0.4-0.1,0.8-0.4,1.2c-0.3,0.3-0.7,0.5-1.1,0.5
				L154.3,151.1L154.3,151.1z"/>
			<path class="st1" d="M150,116c18.8,0,34.1,14.9,34.8,33.5h-30.5c-0.3-8.9-3.7-16.8-6.4-23.2c-1.4-3.2-3.4-8-3.1-9.5
				C145,116.6,146.2,116,150,116 M150,112.9c-3.3,0-5.7,0.4-7,1.3c-0.7,0.5-1.2,1.2-1.3,2c-0.5,2.1,0.7,5.2,3.3,11.4
				c2.6,6.1,5.9,13.8,6.2,22.1c0.1,1.7,1.4,3,3.1,3h30.5c0.8,0,1.7-0.3,2.3-1s0.9-1.4,0.9-2.3c-0.4-9.8-4.5-19-11.6-25.8
				C169.2,116.7,159.9,112.9,150,112.9L150,112.9z"/>
		</g>
		<g>
			<path class="st1" d="M113.1,189.8c-0.9,0-1.6-0.7-1.6-1.6v-6.7c0-0.9,0.7-1.6,1.6-1.6H187c0.9,0,1.6,0.7,1.6,1.6v6.7
				c0,0.9-0.7,1.6-1.6,1.6H113.1z"/>
			<path class="st1" d="M186.9,181.6v6.7H113v-6.7H186.9 M186.9,178.4H113c-1.7,0-3.1,1.4-3.1,3.1v6.7c0,1.7,1.4,3.1,3.1,3.1h73.9
				c1.7,0,3.1-1.4,3.1-3.1v-6.7C190.1,179.8,188.7,178.4,186.9,178.4L186.9,178.4z"/>
		</g>
	</g>
	<g>
		<g>
			<path d="M188.9,146.8c-0.5-5.2-2.1-10.2-4.5-14.6c-1.2-2.2-2.6-4.3-4.2-6.2c-7.2-8.7-18-14.2-30.2-14.2c-1,0-2,0.1-3,0.2
				c-20.2,1.5-36.1,18.4-36.1,38.9v27h78.2v-24.1v-3C189.1,149.5,189,148.1,188.9,146.8z M154.3,149.5c-0.3-8.9-3.7-16.8-6.4-23.2
				c-1.4-3.2-3.4-8-3.1-9.5c0.3-0.2,1.5-0.8,5.3-0.8c18.8,0,34.1,14.9,34.8,33.5H154.3L154.3,149.5z"/>
		</g>
		<rect x="113.1" y="181.6" width="73.9" height="6.7"/>
	</g>
</g>
</svg>
