<?xml version="1.0" encoding="utf-8"?>
<!-- Generator: Adobe Illustrator 27.9.0, SVG Export Plug-In . SVG Version: 6.00 Build 0)  -->
<svg version="1.1" id="레이어_1" xmlns="http://www.w3.org/2000/svg" xmlns:xlink="http://www.w3.org/1999/xlink" x="0px"
	 y="0px" viewBox="0 0 252 252" style="enable-background:new 0 0 252 252;" xml:space="preserve">
<style type="text/css">
	.st0{fill:#3366FF;}
</style>
<path class="st0" d="M114,210.5l24.8-22.9c-15.8-5.8-33.1-12.2-37.3-13.7l1-10.6l2.9-33.2c-13.5-5.9-36.8-16-39.9-17.3
	c0.3-3.1,2.3-27.2,3.3-38.5l-30-14.8l-4.3-2.2l0.4-4.1l2.5-28.5L2.5,6.4l2.2-4.7l39.7,16l2.7,1.1c0,0.8,0.4,20.9,0.5,30.2l33.3,12.3
	l5,1.9c0,2.2,0.4,23.3,0.6,35.3c13.5,4.2,41,12.9,44.7,14c0.1,4.6,0.5,25.4,0.7,39.5l35.5,9l24-22.1l30.8,111L114,210.5z"/>
<g>
	<path d="M166,132.7h-3.7l-0.7-4.7H157l-0.7,4.7h-3.7v-0.1l4.7-24.7h3.9L166,132.7z M161,124.9l-1.8-11.2l-1.8,11.2H161z"/>
	<path d="M180.3,108l-4.7,24.7h-3.7l-4.7-24.7h3.7l2.8,17c0,0.5,0,1.2,0.1,2.1c0-0.5,0-1.2,0.1-2.1l2.8-17H180.3z"/>
	<path d="M192.7,132.7h-10.3V108h10.2v3.2h-6.5v7.2h5.5v3.2h-5.5v7.7h6.6V132.7z"/>
	<path d="M207.8,132.7H204l-4-11.4v-2.2h3.6v-7.8h-4.6v21.6h-3.7v-24.7h9.8c1.5,0,2.2,0.8,2.2,2.3v9c0,1-0.3,1.7-1,2.1
		c-0.3,0.1-1.2,0.2-2.4,0.2L207.8,132.7z"/>
	<path d="M222.6,132.7h-3.7l-0.7-4.7h-4.6l-0.7,4.7h-3.7v-0.1l4.7-24.7h3.9L222.6,132.7z M217.7,124.9l-1.8-11.2l-1.8,11.2H217.7z"
		/>
	<path d="M236.9,130.4c0,1.5-0.8,2.3-2.3,2.3h-7.7c-1.5,0-2.2-0.8-2.2-2.3v-20.2c0-1.5,0.7-2.3,2.2-2.3h7.7c1.5,0,2.3,0.8,2.3,2.3
		v5.3h-3.7v-4.4h-4.8v18.4h4.8v-6.9h-2.8v-3.1h6.5L236.9,130.4L236.9,130.4z"/>
	<path d="M250,132.7h-10.3V108h10.2v3.2h-6.5v7.2h5.5v3.2h-5.5v7.7h6.6V132.7z"/>
</g>
<g>
	<path d="M163.7,204.1c0,1.3-0.3,2.3-1.2,3c-0.8,0.7-1.7,1-3.1,1h-6.7v-21.8h6.7c1.3,0,2.3,0.3,3.1,1.2c0.8,0.7,1.2,1.7,1.2,3V204.1
		z M160.3,203.6v-12.4c0-1.3-0.7-1.8-2-1.8H156v16.1h2.3C159.6,205.4,160.3,204.7,160.3,203.6z"/>
	<path d="M175.2,208.2h-9v-21.8h9v2.9h-5.6v6.3h4.8v2.8h-4.8v6.8h5.8v3H175.2z"/>
	<path d="M188.1,206.2c0,1.4-0.7,2-2,2h-6.8c-1.3,0-2-0.7-2-2v-17.7c0-1.4,0.7-2,2-2h6.8c1.4,0,2,0.7,2,2v5.1h-3.2v-4.3h-4.3v16.1
		h4.3v-4.6h3.2L188.1,206.2L188.1,206.2z"/>
	<path d="M201.8,208.2h-3.3l-3.6-10.1v-2h3.2v-6.9H194v19h-3.2v-21.8h8.6c1.3,0,2,0.7,2,2v7.9c0,0.9-0.3,1.5-0.9,1.7
		c-0.3,0.1-1,0.2-2.1,0.2L201.8,208.2z"/>
	<path d="M212.7,208.2h-9v-21.8h9v2.9H207v6.3h4.8v2.8H207v6.8h5.8V208.2z"/>
	<path d="M226,208.2h-3.2l-0.7-4.1h-4l-0.7,4.1h-3.2l0,0l4.3-21.8h3.5L226,208.2z M221.7,201.3l-1.6-9.8l-1.6,9.8H221.7z"/>
	<path d="M238.5,206.2c0,1.4-0.7,2-2,2h-6.8c-1.3,0-2-0.7-2-2v-17.7c0-1.4,0.7-2,2-2h6.8c1.4,0,2,0.7,2,2v5.1h-3.2v-4.3H231v16.1
		h4.3v-4.6h3.2V206.2z"/>
	<path d="M250,208.2h-9v-21.8h9v2.9h-5.6v6.3h4.8v2.8h-4.8v6.8h5.8v3H250z"/>
</g>
<g>
	<path d="M176.9,180c0,3-1.5,4.6-4.5,4.6h-15c-3,0-4.5-1.5-4.5-4.6v-10.6h7.3v8.7h9.3v-15h-12.4c-3,0-4.4-1.5-4.4-4.5v-19.4
		c0-3.1,1.5-4.6,4.4-4.6h15.3c3,0,4.6,1.5,4.6,4.6V180z M169.5,156.8V141h-9.5v15.8H169.5z"/>
	<path d="M206.4,148.8c0,1.6-0.5,3.3-1.6,5.2L191,178h15.3v6.5h-24.2v-4.6l16.9-29.8V141h-9.1v9.3h-7.3v-11.1c0-3,1.5-4.5,4.6-4.5
		h14.7c3,0,4.6,1.5,4.6,4.5V148.8z"/>
	<path d="M226.4,156.2c0,2.6-1.3,3.9-3.9,3.9H214c-2.6,0-3.9-1.3-3.9-3.9v-17.7c0-2.6,1.3-3.9,3.9-3.9h8.6c2.6,0,3.9,1.3,3.9,3.9
		V156.2z M245.7,135.5l-26.8,49h-4.3v-0.9l26.9-49.1h4.3V135.5z M221.1,155.4v-16.1h-5.7v16.1H221.1z M250,180.7
		c0,2.6-1.3,3.9-3.9,3.9h-8.6c-2.6,0-3.9-1.3-3.9-3.9V163c0-2.6,1.3-3.9,3.9-3.9h8.6c2.6,0,3.9,1.3,3.9,3.9V180.7z M244.7,179.9
		v-16.1H239v16.1H244.7z"/>
</g>
</svg>
