<?xml version="1.0" encoding="utf-8"?>
<!-- Generator: Adobe Illustrator 27.9.0, SVG Export Plug-In . SVG Version: 6.00 Build 0)  -->
<svg version="1.1" id="레이어_1" xmlns="http://www.w3.org/2000/svg" xmlns:xlink="http://www.w3.org/1999/xlink" x="0px"
	 y="0px" viewBox="0 0 300 300" style="enable-background:new 0 0 300 300;" xml:space="preserve">
<style type="text/css">
	.st0{fill:#F8F8F8;}
</style>
<g>
	<g>
		<g>
			<path class="st0" d="M83.2,243.1c-0.9,0-1.6-0.7-1.6-1.6v-183c0-0.9,0.7-1.6,1.6-1.6h18.3c0.9,0,1.6,0.7,1.6,1.6v183.1
				c0,0.9-0.7,1.6-1.6,1.6L83.2,243.1L83.2,243.1z"/>
			<path class="st0" d="M101.5,58.4v183.1H83.2V58.4H101.5 M101.5,55.3H83.2c-1.7,0-3.1,1.4-3.1,3.1v183.1c0,1.7,1.4,3.1,3.1,3.1
				h18.3c1.7,0,3.1-1.4,3.1-3.1V58.4C104.5,56.7,103.2,55.3,101.5,55.3L101.5,55.3z"/>
		</g>
		<g>
			<path class="st0" d="M176.5,126.8c-0.7,0-1.3-0.4-1.5-1.1c-0.2-0.7,0-1.3,0.6-1.8l1.7-1.2c2.1-1.6,3.4-4.1,3.4-6.7
				c0-1.7-0.5-3.4-1.6-4.8c-0.9-1.3-2.2-2.3-3.6-2.8c-0.7-0.3-1.1-1-1-1.8s0.8-1.3,1.5-1.3h37.3c2.8,0,5.1,2.3,5.1,5.1v11.3
				c0,2.8-2.3,5.1-5.1,5.1C213.4,126.8,176.5,126.8,176.5,126.8z"/>
			<path class="st0" d="M213.4,106.9c1.9,0,3.5,1.6,3.5,3.5v11.3c0,1.9-1.6,3.5-3.5,3.5h-36.7l1.7-1.2c2.5-1.8,4.1-4.8,4.1-8
				c0-2.1-0.6-4.1-1.9-5.7c-1.1-1.5-2.6-2.7-4.3-3.4L213.4,106.9 M213.4,103.8h-37.1c-1.5,0-2.8,1.1-3.1,2.6
				c-0.3,1.5,0.5,2.9,1.9,3.5c1.2,0.5,2.2,1.2,2.9,2.3c0.8,1.1,1.3,2.5,1.3,3.9c0,2.1-1,4.2-2.8,5.4l-1.7,1.2
				c-1.1,0.8-1.6,2.2-1.1,3.5s1.6,2.2,3,2.2h36.7c3.7,0,6.6-3,6.6-6.7v-11.3C220,106.8,217,103.8,213.4,103.8L213.4,103.8z"/>
		</g>
		<g>
			<path class="st0" d="M107,230.8c-2.8,0-5.1-2.3-5.1-5.1v-62.5c0-0.8,0.5-1.4,1.3-1.5c0.1,0,0.2,0,0.3,0c0.6,0,1.2,0.4,1.4,1
				c0.3,0.6,0.6,1.2,1,1.7c1.3,1.8,3.2,3,5.4,3.3c0.4,0.1,0.9,0.1,1.3,0.1c1.7,0,3.4-0.5,4.8-1.6l3.4-2.4c0.1-0.1,0.2-0.1,0.3-0.2
				c0.2-0.1,0.5-0.2,0.7-0.2s0.5,0.1,0.7,0.2c0.5,0.3,0.8,0.8,0.8,1.4v60.7c0,2.8-2.3,5.1-5.1,5.1L107,230.8L107,230.8z"/>
			<path class="st0" d="M103.5,163.1c0.3,0.7,0.7,1.4,1.1,2c1.5,2.1,3.8,3.5,6.4,3.9c0.5,0.1,1.1,0.1,1.6,0.1c2.1,0,4-0.6,5.7-1.9
				l3.4-2.4h0.1v60.7c0,1.9-1.6,3.5-3.5,3.5H107c-1.9,0-3.5-1.6-3.5-3.5V163.1 M103.5,160c-0.2,0-0.4,0-0.6,0.1
				c-1.5,0.3-2.5,1.6-2.5,3.1v62.5c0,3.7,3,6.6,6.6,6.6h11.3c3.7,0,6.6-3,6.6-6.6V165c0-1.2-0.6-2.2-1.6-2.8c-0.5-0.2-1-0.4-1.5-0.4
				s-1,0.1-1.4,0.3c-0.2,0.1-0.3,0.2-0.5,0.3l-3.4,2.4c-1.1,0.8-2.5,1.3-3.9,1.3c-0.4,0-0.7,0-1.1-0.1c-1.8-0.3-3.3-1.2-4.4-2.7
				c-0.3-0.4-0.6-0.9-0.8-1.4C106,160.8,104.7,160,103.5,160L103.5,160z"/>
		</g>
		<g>
			<path class="st0" d="M112.7,170.1c-3.4,0-6.7-1.7-8.7-4.4c-1.7-2.3-2.3-5.1-1.9-7.9c0.5-2.8,2-5.3,4.3-6.9l10.2-7.4
				c0.3-0.2,0.6-0.3,0.9-0.3c0.1,0,0.2,0,0.2,0c0.4,0.1,0.8,0.3,1,0.6l10.7,14.7c0.5,0.7,0.4,1.7-0.4,2.2l-10.2,7.4
				C117,169.3,114.8,170.1,112.7,170.1L112.7,170.1z"/>
			<path class="st0" d="M117.5,144.6l10.6,14.8l-10.2,7.4c-1.6,1.2-3.5,1.7-5.3,1.7c-2.8,0-5.6-1.3-7.4-3.8c-2.9-4.1-2-9.8,2.1-12.7
				L117.5,144.6 M117.5,141.5c-0.7,0-1.3,0.2-1.8,0.6l-10.2,7.4c-2.6,1.9-4.4,4.7-4.9,8s0.2,6.5,2.2,9.1c2.3,3.2,6,5.1,9.9,5.1
				c2.6,0,5.1-0.8,7.1-2.3L130,162c1.4-1,1.7-3,0.7-4.4L120,142.8c-0.5-0.7-1.2-1.1-2-1.3C117.7,141.5,117.7,141.5,117.5,141.5
				L117.5,141.5z"/>
		</g>
		<g>
			<path class="st0" d="M168,132.2c-0.1,0-0.2,0-0.2,0c-0.4-0.1-0.8-0.3-1-0.6l-10.7-14.8c-0.5-0.7-0.4-1.7,0.4-2.2l9.9-7.2
				c1.8-1.3,4-2,6.2-2c3.4,0,6.7,1.7,8.7,4.4c3.4,4.8,2.4,11.5-2.4,14.9l-9.9,7.2C168.6,132.1,168.4,132.2,168,132.2z"/>
			<path class="st0" d="M172.5,106.9c2.8,0,5.6,1.3,7.4,3.8c2.9,4.1,2,9.8-2.1,12.7l-9.9,7.2l-10.6-14.7l9.9-7.2
				C168.9,107.5,170.6,106.9,172.5,106.9 M172.5,103.8c-2.6,0-5.1,0.8-7.1,2.3l-9.9,7.2c-1.4,1-1.7,3-0.7,4.4l10.7,14.8
				c0.5,0.7,1.2,1.1,2.1,1.3c0.2,0,0.3,0,0.5,0c0.7,0,1.3-0.2,1.9-0.6l9.9-7.2c2.6-1.9,4.4-4.7,4.9-8c0.5-3.2-0.2-6.5-2.2-9.1
				C180.1,105.8,176.5,103.8,172.5,103.8L172.5,103.8z"/>
		</g>
		<g>
			<path class="st0" d="M165.8,133.6c-0.9,0-1.7-0.4-2.2-1.1l-9.3-13c-0.9-1.2-0.6-2.9,0.6-3.7c0.5-0.3,1-0.5,1.6-0.5
				c0.9,0,1.7,0.4,2.2,1.1l9.3,13c0.9,1.2,0.6,2.9-0.6,3.7C166.9,133.4,166.2,133.6,165.8,133.6L165.8,133.6z"/>
			<path class="st0" d="M156.5,116.8c0.3,0,0.7,0.2,0.9,0.5l9.3,13c0.4,0.5,0.2,1.2-0.2,1.5c-0.2,0.1-0.4,0.2-0.6,0.2
				c-0.3,0-0.7-0.2-0.9-0.5l-9.3-13c-0.4-0.5-0.2-1.2,0.2-1.5C156,116.9,156.1,116.8,156.5,116.8 M156.5,113.8
				c-0.9,0-1.7,0.3-2.5,0.8c-0.9,0.7-1.5,1.6-1.7,2.8c-0.2,1.1,0.1,2.2,0.7,3.2l9.3,13c0.8,1.1,2.1,1.8,3.4,1.8
				c0.9,0,1.7-0.3,2.5-0.8c0.9-0.7,1.5-1.6,1.7-2.8c0.2-1.1-0.1-2.2-0.7-3.2l-9.3-13C159,114.3,157.8,113.8,156.5,113.8L156.5,113.8
				z"/>
		</g>
		<g>
			<path class="st0" d="M162,132.6c-0.5,0-1-0.2-1.3-0.7l-4.3-6c-0.1-0.1-0.2-0.3-0.2-0.4l-1.4-4.4c-0.2-0.7,0.1-1.5,0.8-1.9
				c0.2-0.1,0.5-0.2,0.7-0.2c0.5,0,1,0.2,1.3,0.7l4.3,6c0.1,0.1,0.2,0.3,0.2,0.4l1.4,4.4c0.2,0.7-0.1,1.5-0.8,1.9
				C162.4,132.6,162.1,132.6,162,132.6z"/>
			<path class="st0" d="M156.1,120.8l4.3,6l1.4,4.4l-4.3-6L156.1,120.8 M156.1,117.6c-0.5,0-1,0.1-1.4,0.3c-1.4,0.7-2,2.3-1.6,3.8
				l1.4,4.4c0.1,0.3,0.2,0.6,0.4,0.8l4.3,6c0.6,0.8,1.6,1.3,2.6,1.3c0.5,0,1-0.1,1.4-0.3c1.4-0.7,2-2.3,1.6-3.8l-1.4-4.4
				c-0.1-0.3-0.2-0.6-0.4-0.8l-4.3-6C158.1,118,157.1,117.6,156.1,117.6L156.1,117.6z"/>
		</g>
		<g>
			<path class="st0" d="M161.6,136.5c-0.9,0-1.7-0.4-2.2-1.1l-9.3-13c-0.4-0.6-0.6-1.3-0.5-2s0.5-1.3,1.1-1.7c0.5-0.3,1-0.5,1.6-0.5
				c0.9,0,1.7,0.4,2.2,1.1l9.3,13c0.4,0.6,0.6,1.3,0.5,2s-0.5,1.3-1.1,1.7C162.8,136.3,162.2,136.5,161.6,136.5L161.6,136.5z"/>
			<path class="st0" d="M152.4,119.8c0.3,0,0.7,0.2,0.9,0.5l9.3,13c0.4,0.5,0.2,1.2-0.2,1.5c-0.2,0.1-0.4,0.2-0.6,0.2
				c-0.3,0-0.7-0.2-0.9-0.5l-9.3-13c-0.4-0.5-0.2-1.2,0.2-1.5C151.9,119.8,152,119.8,152.4,119.8 M152.4,116.6
				c-0.9,0-1.7,0.3-2.5,0.8c-0.9,0.7-1.5,1.6-1.7,2.8c-0.2,1.1,0.1,2.2,0.7,3.2l9.3,13c0.8,1.1,2.1,1.8,3.4,1.8
				c0.9,0,1.7-0.3,2.5-0.8c0.9-0.7,1.5-1.6,1.7-2.8c0.2-1.1-0.1-2.2-0.7-3.2l-9.3-13C155,117.2,153.6,116.6,152.4,116.6L152.4,116.6
				z"/>
		</g>
		<g>
			<path class="st0" d="M157.8,135.5c-0.5,0-1-0.2-1.3-0.7l-4.3-6c-0.1-0.1-0.2-0.3-0.2-0.4l-1.4-4.4c-0.2-0.7,0.1-1.5,0.8-1.9
				c0.2-0.1,0.5-0.2,0.7-0.2c0.5,0,1,0.2,1.3,0.7l4.3,6c0.1,0.1,0.2,0.3,0.2,0.4l1.4,4.4c0.2,0.7-0.1,1.5-0.8,1.9
				C158.2,135.5,158,135.5,157.8,135.5z"/>
			<path class="st0" d="M152,123.6l4.3,6l1.4,4.4l-4.3-6L152,123.6 M152,120.5c-0.5,0-1,0.1-1.4,0.3c-1.4,0.7-2,2.3-1.6,3.8l1.4,4.4
				c0.1,0.3,0.2,0.6,0.4,0.8l4.3,6c0.6,0.8,1.6,1.3,2.6,1.3c0.5,0,1-0.1,1.4-0.3c1.4-0.7,2-2.3,1.6-3.8l-1.4-4.4
				c-0.1-0.3-0.2-0.6-0.4-0.8l-4.3-6C154,120.9,153,120.5,152,120.5L152,120.5z"/>
		</g>
		<g>
			<path class="st0" d="M157.5,139.5c-0.9,0-1.7-0.4-2.2-1.1l-9.3-13c-0.9-1.2-0.6-2.9,0.6-3.7c0.5-0.3,1-0.5,1.6-0.5
				c0.9,0,1.7,0.4,2.2,1.1l9.3,13c0.9,1.2,0.6,2.9-0.6,3.7C158.6,139.3,158.1,139.5,157.5,139.5L157.5,139.5z"/>
			<path class="st0" d="M148.2,122.8c0.3,0,0.7,0.2,0.9,0.5l9.3,13c0.4,0.5,0.2,1.2-0.2,1.5c-0.2,0.1-0.4,0.2-0.6,0.2
				c-0.3,0-0.7-0.2-0.9-0.5l-9.4-13c-0.4-0.5-0.2-1.2,0.2-1.5C147.8,122.8,148,122.8,148.2,122.8 M148.2,119.6
				c-0.9,0-1.7,0.3-2.5,0.8c-1.9,1.4-2.3,4-1,5.9l9.3,13c0.8,1.1,2.1,1.8,3.4,1.8c0.9,0,1.7-0.3,2.5-0.8c0.9-0.7,1.5-1.6,1.7-2.8
				c0.2-1.1-0.1-2.2-0.7-3.2l-9.3-13C150.9,120.2,149.5,119.6,148.2,119.6L148.2,119.6z"/>
		</g>
		<g>
			<path class="st0" d="M153.8,138.5c-0.5,0-1-0.2-1.3-0.7l-4.3-6c-0.1-0.1-0.2-0.3-0.2-0.4l-1.5-4.4c-0.2-0.7,0.1-1.5,0.8-1.9
				c0.2-0.1,0.5-0.2,0.7-0.2c0.5,0,1,0.2,1.3,0.7l4.3,6c0.1,0.1,0.2,0.3,0.2,0.4l1.5,4.4c0.2,0.7-0.1,1.5-0.8,1.9
				C154.2,138.5,154,138.5,153.8,138.5z"/>
			<path class="st0" d="M148,126.5l4.3,6l1.5,4.4l-4.3-6L148,126.5 M148,123.4c-0.5,0-1,0.1-1.4,0.3c-1.4,0.7-2,2.3-1.6,3.8l1.5,4.4
				c0.1,0.3,0.2,0.6,0.4,0.8l4.3,6c0.6,0.8,1.6,1.3,2.6,1.3c0.5,0,1-0.1,1.4-0.3c1.4-0.7,2-2.3,1.6-3.8l-1.5-4.4
				c-0.1-0.3-0.2-0.6-0.4-0.8l-4.3-6C150,123.9,149,123.4,148,123.4L148,123.4z"/>
		</g>
		<g>
			<path class="st0" d="M153.5,142.4c-0.9,0-1.7-0.4-2.2-1.1l-9.3-13c-0.9-1.2-0.6-2.9,0.6-3.7c0.4-0.3,1-0.5,1.6-0.5
				c0.9,0,1.7,0.4,2.2,1.1l9.3,13c0.4,0.6,0.6,1.3,0.5,2s-0.5,1.3-1.1,1.7C154.5,142.2,154,142.4,153.5,142.4L153.5,142.4z"/>
			<path class="st0" d="M144.1,125.6c0.3,0,0.7,0.2,0.9,0.5l9.3,13c0.4,0.5,0.2,1.2-0.2,1.5c-0.2,0.1-0.4,0.2-0.6,0.2
				c-0.3,0-0.7-0.2-0.9-0.5l-9.3-13c-0.4-0.5-0.2-1.2,0.2-1.5l0,0C143.8,125.8,144,125.6,144.1,125.6 M144.1,122.5
				c-0.9,0-1.7,0.3-2.5,0.8c-1.9,1.4-2.3,4-1,5.9l9.3,13c0.8,1.1,2.1,1.8,3.4,1.8c0.9,0,1.7-0.3,2.5-0.8c0.9-0.7,1.5-1.6,1.7-2.8
				c0.2-1.1-0.1-2.2-0.7-3.2l-9.3-13C146.9,123.2,145.5,122.5,144.1,122.5L144.1,122.5z"/>
		</g>
		<g>
			<path class="st0" d="M149.6,141.5c-0.5,0-1-0.2-1.3-0.7l-4.3-6c-0.1-0.1-0.2-0.3-0.2-0.4l-1.4-4.4c-0.2-0.7,0.1-1.5,0.8-1.9
				c0.2-0.1,0.5-0.2,0.7-0.2c0.5,0,1,0.2,1.3,0.7l4.3,6c0.1,0.1,0.2,0.3,0.2,0.4l1.4,4.4c0.2,0.7-0.1,1.5-0.8,1.9
				C150.1,141.4,149.9,141.5,149.6,141.5z"/>
			<path class="st0" d="M144,129.5l4.3,6l1.4,4.4l-4.3-6L144,129.5 M144,126.4c-0.5,0-1,0.1-1.4,0.3c-1.4,0.7-2,2.3-1.6,3.8l1.4,4.4
				c0.1,0.3,0.2,0.6,0.4,0.8l4.3,6c0.6,0.8,1.6,1.3,2.6,1.3c0.5,0,1-0.1,1.4-0.3c1.4-0.7,2-2.3,1.6-3.8l-1.4-4.4
				c-0.1-0.3-0.2-0.6-0.4-0.8l-4.3-6C145.9,126.8,144.9,126.4,144,126.4L144,126.4z"/>
		</g>
		<g>
			<path class="st0" d="M149.5,145.3c-0.9,0-1.7-0.4-2.2-1.1l-9.3-13c-0.9-1.2-0.6-2.9,0.6-3.7c0.5-0.3,1-0.5,1.6-0.5
				c0.9,0,1.7,0.4,2.2,1.1l9.3,13c0.9,1.2,0.6,2.9-0.6,3.7C150.5,145.2,150,145.3,149.5,145.3L149.5,145.3z"/>
			<path class="st0" d="M140,128.6c0.3,0,0.7,0.2,0.9,0.5l9.3,13c0.4,0.5,0.2,1.2-0.2,1.5c-0.2,0.1-0.4,0.2-0.6,0.2
				c-0.3,0-0.7-0.2-0.9-0.5l-9.3-13c-0.4-0.5-0.2-1.2,0.2-1.5C139.6,128.6,139.9,128.6,140,128.6 M140,125.5c-0.9,0-1.7,0.3-2.5,0.8
				c-0.9,0.7-1.5,1.6-1.7,2.8c-0.2,1.1,0.1,2.2,0.7,3.2l9.3,13c0.8,1.1,2.1,1.8,3.4,1.8c0.9,0,1.7-0.3,2.5-0.8
				c0.9-0.7,1.5-1.6,1.7-2.8c0.2-1.1-0.1-2.2-0.7-3.2l-9.3-13C142.8,126.1,141.5,125.5,140,125.5L140,125.5z"/>
		</g>
		<g>
			<path class="st0" d="M145.5,144.4c-0.5,0-1-0.2-1.3-0.7l-4.3-6c-0.1-0.1-0.2-0.3-0.2-0.4l-1.5-4.4c-0.2-0.7,0.1-1.5,0.8-1.9
				c0.2-0.1,0.5-0.2,0.7-0.2c0.5,0,1,0.2,1.3,0.7l4.3,6c0.1,0.1,0.2,0.3,0.2,0.4l1.5,4.4c0.2,0.7-0.1,1.5-0.8,1.9
				C146,144.4,145.9,144.4,145.5,144.4z"/>
			<path class="st0" d="M139.9,132.5l4.3,6l1.5,4.4l-4.3-6L139.9,132.5 M139.9,129.3c-0.5,0-1,0.1-1.4,0.3c-1.4,0.7-2,2.3-1.6,3.8
				l1.5,4.4c0.1,0.3,0.2,0.6,0.4,0.8l4.3,6c0.6,0.8,1.6,1.3,2.6,1.3c0.5,0,1-0.1,1.4-0.3c1.4-0.7,2-2.3,1.6-3.8l-1.5-4.4
				c-0.1-0.3-0.2-0.6-0.4-0.8l-4.3-6C141.8,129.8,140.8,129.3,139.9,129.3L139.9,129.3z"/>
		</g>
		<g>
			<path class="st0" d="M145.4,148.3c-0.9,0-1.7-0.4-2.2-1.1l-9.3-13c-0.9-1.2-0.6-2.9,0.6-3.7c0.5-0.3,1-0.5,1.6-0.5
				c0.9,0,1.7,0.4,2.2,1.1l9.3,13c0.4,0.6,0.6,1.3,0.5,2s-0.5,1.3-1.1,1.7C146.5,148.1,145.9,148.3,145.4,148.3L145.4,148.3z"/>
			<path class="st0" d="M136,131.5c0.3,0,0.7,0.2,0.9,0.5l9.3,13c0.4,0.5,0.2,1.2-0.2,1.5c-0.2,0.1-0.4,0.2-0.6,0.2
				c-0.3,0-0.7-0.2-0.9-0.5l-9.3-13c-0.4-0.5-0.2-1.2,0.2-1.5C135.5,131.6,135.8,131.5,136,131.5 M136,128.4c-0.9,0-1.7,0.3-2.5,0.8
				c-1.9,1.4-2.3,4-1,5.9l9.3,13c0.8,1.1,2.1,1.8,3.4,1.8c0.9,0,1.7-0.3,2.5-0.8c1.9-1.4,2.3-4,1-5.9l-9.3-13
				C138.6,129.1,137.4,128.4,136,128.4L136,128.4z"/>
		</g>
		<g>
			<path class="st0" d="M141.5,147.4c-0.5,0-1-0.2-1.3-0.7l-4.3-6c-0.1-0.1-0.2-0.3-0.2-0.4l-1.5-4.4c-0.2-0.7,0.1-1.5,0.8-1.9
				c0.2-0.1,0.5-0.2,0.7-0.2c0.5,0,1,0.2,1.3,0.7l4.3,6c0.1,0.1,0.2,0.3,0.2,0.4l1.5,4.4c0.2,0.7-0.1,1.5-0.8,1.9
				C142,147.3,141.8,147.4,141.5,147.4z"/>
			<path class="st0" d="M135.8,135.4l4.3,6l1.5,4.4l-4.3-6L135.8,135.4 M135.8,132.3c-0.5,0-1,0.1-1.4,0.3c-1.4,0.7-2,2.3-1.6,3.8
				l1.5,4.4c0.1,0.3,0.2,0.6,0.4,0.8l4.3,6c0.6,0.8,1.6,1.3,2.6,1.3c0.5,0,1-0.1,1.4-0.3c1.4-0.7,2-2.3,1.6-3.8l-1.5-4.4
				c-0.1-0.3-0.2-0.6-0.4-0.8l-4.3-6C137.6,132.8,136.8,132.3,135.8,132.3L135.8,132.3z"/>
		</g>
		<g>
			<path class="st0" d="M141.2,151.3c-0.9,0-1.7-0.4-2.2-1.1l-9.3-13c-0.4-0.6-0.6-1.3-0.5-2s0.5-1.3,1.1-1.7c0.5-0.3,1-0.5,1.6-0.5
				c0.9,0,1.7,0.4,2.2,1.1l9.3,13c0.4,0.6,0.6,1.3,0.5,2s-0.5,1.3-1.1,1.7C142.4,151.1,141.8,151.3,141.2,151.3L141.2,151.3z"/>
			<path class="st0" d="M132,134.5c0.3,0,0.7,0.2,0.9,0.5l9.3,13c0.4,0.5,0.2,1.2-0.2,1.5c-0.2,0.1-0.4,0.2-0.6,0.2
				c-0.3,0-0.7-0.2-0.9-0.5l-9.3-13c-0.4-0.5-0.2-1.2,0.2-1.5C131.5,134.6,131.6,134.5,132,134.5 M132,131.4c-0.9,0-1.7,0.3-2.5,0.8
				c-0.9,0.7-1.5,1.6-1.7,2.8c-0.2,1.1,0.1,2.2,0.7,3.2l9.3,13c0.8,1.1,2.1,1.8,3.4,1.8c0.9,0,1.7-0.3,2.5-0.8
				c0.9-0.7,1.5-1.6,1.7-2.8c0.2-1.1-0.1-2.2-0.7-3.2l-9.3-13C134.5,132,133.2,131.4,132,131.4L132,131.4z"/>
		</g>
		<g>
			<path class="st0" d="M137.5,150.3c-0.5,0-1-0.2-1.3-0.7l-4.3-6c-0.1-0.1-0.2-0.3-0.2-0.4l-1.5-4.4c-0.2-0.7,0.1-1.5,0.8-1.9
				c0.2-0.1,0.5-0.2,0.7-0.2c0.5,0,1,0.2,1.3,0.7l4.3,6c0.1,0.1,0.2,0.3,0.2,0.4l1.5,4.4c0.2,0.7-0.1,1.5-0.8,1.9
				C137.9,150.3,137.6,150.3,137.5,150.3z"/>
			<path class="st0" d="M131.6,138.4l4.3,6l1.5,4.4l-4.3-6L131.6,138.4 M131.6,135.2c-0.5,0-1,0.1-1.4,0.3c-1.4,0.7-2,2.3-1.6,3.8
				l1.5,4.4c0.1,0.3,0.2,0.6,0.4,0.8l4.3,6c0.6,0.8,1.6,1.3,2.6,1.3c0.5,0,1-0.1,1.4-0.3c1.4-0.7,2-2.3,1.6-3.8l-1.5-4.4
				c-0.1-0.3-0.2-0.6-0.4-0.8l-4.3-6C133.5,135.8,132.6,135.2,131.6,135.2L131.6,135.2z"/>
		</g>
		<g>
			<path class="st0" d="M137.1,154.2c-0.9,0-1.7-0.4-2.2-1.1l-9.3-13c-0.9-1.2-0.6-2.9,0.6-3.7c0.5-0.3,1-0.5,1.6-0.5
				c0.9,0,1.7,0.4,2.2,1.1l9.3,13c0.9,1.2,0.6,2.9-0.6,3.7C138.2,154.1,137.8,154.2,137.1,154.2L137.1,154.2z"/>
			<path class="st0" d="M127.8,137.4c0.3,0,0.7,0.2,0.9,0.5l9.3,13c0.4,0.5,0.2,1.2-0.2,1.5c-0.2,0.1-0.4,0.2-0.6,0.2
				c-0.3,0-0.7-0.2-0.9-0.5l-9.3-13c-0.4-0.5-0.2-1.2,0.2-1.5C127.3,137.5,127.5,137.4,127.8,137.4 M127.8,134.3
				c-0.9,0-1.7,0.3-2.5,0.8c-0.9,0.7-1.5,1.6-1.7,2.8c-0.2,1.1,0.1,2.2,0.7,3.2l9.3,13c0.8,1.1,2.1,1.8,3.4,1.8
				c0.9,0,1.7-0.3,2.5-0.8c0.9-0.7,1.5-1.6,1.7-2.8c0.2-1.1-0.1-2.2-0.7-3.2l-9.3-13C130.5,135,129.1,134.3,127.8,134.3L127.8,134.3
				z"/>
		</g>
		<g>
			<path class="st0" d="M133.2,153.3c-0.5,0-1-0.2-1.3-0.7l-4.3-6c-0.1-0.1-0.2-0.3-0.2-0.4l-1.4-4.4c-0.2-0.7,0.1-1.5,0.8-1.9
				c0.2-0.1,0.5-0.2,0.7-0.2c0.5,0,1,0.2,1.3,0.7l4.3,6c0.1,0.1,0.2,0.3,0.2,0.4l1.4,4.4c0.2,0.7-0.1,1.5-0.8,1.9
				C133.8,153.2,133.5,153.3,133.2,153.3z"/>
			<path class="st0" d="M127.5,141.3l4.3,6l1.4,4.4l-4.3-6L127.5,141.3 M127.5,138.2c-0.5,0-1,0.1-1.4,0.3c-1.4,0.7-2,2.3-1.6,3.8
				l1.4,4.4c0.1,0.3,0.2,0.6,0.4,0.8l4.3,6c0.6,0.8,1.6,1.3,2.6,1.3c0.5,0,1-0.1,1.4-0.3c1.4-0.7,2-2.3,1.6-3.8l-1.4-4.4
				c-0.1-0.3-0.2-0.6-0.4-0.8l-4.3-6C129.5,138.6,128.5,138.2,127.5,138.2L127.5,138.2z"/>
		</g>
		<g>
			<path class="st0" d="M133,157.2c-0.9,0-1.7-0.4-2.2-1.1l-9.3-13c-0.9-1.2-0.6-2.9,0.6-3.7c0.5-0.3,1-0.5,1.6-0.5
				c0.9,0,1.7,0.4,2.2,1.1l9.3,13c0.9,1.2,0.6,2.9-0.6,3.7C134.1,157,133.6,157.2,133,157.2L133,157.2z"/>
			<path class="st0" d="M123.7,140.4c0.3,0,0.7,0.2,0.9,0.5l9.3,13c0.4,0.5,0.2,1.2-0.2,1.5c-0.2,0.1-0.4,0.2-0.6,0.2
				c-0.3,0-0.7-0.2-0.9-0.5l-9.3-13c-0.4-0.5-0.2-1.2,0.2-1.5C123.2,140.5,123.5,140.4,123.7,140.4 M123.7,137.3
				c-0.9,0-1.7,0.3-2.5,0.8c-0.9,0.7-1.5,1.6-1.7,2.8c-0.2,1.1,0.1,2.2,0.7,3.2l9.3,13c0.8,1.1,2.1,1.8,3.4,1.8
				c0.9,0,1.7-0.3,2.5-0.8c0.9-0.7,1.5-1.6,1.7-2.8c0.2-1.1-0.1-2.2-0.7-3.2l-9.3-13C126.3,137.9,125.2,137.3,123.7,137.3
				L123.7,137.3z"/>
		</g>
		<g>
			<path class="st0" d="M129.2,156.2c-0.5,0-1-0.2-1.3-0.7l-4.3-6c-0.1-0.1-0.2-0.3-0.2-0.4l-1.4-4.4c-0.2-0.7,0.1-1.5,0.8-1.9
				c0.2-0.1,0.5-0.2,0.7-0.2c0.5,0,1,0.2,1.3,0.7l4.3,6c0.1,0.1,0.2,0.3,0.2,0.4l1.4,4.4c0.2,0.7-0.1,1.5-0.8,1.9
				C129.6,156.1,129.5,156.2,129.2,156.2z"/>
			<path class="st0" d="M123.5,144.3l4.3,6l1.4,4.4l-4.3-6L123.5,144.3 M123.5,141.1c-0.5,0-1,0.1-1.4,0.3c-1.4,0.7-2,2.3-1.6,3.8
				l1.4,4.4c0.1,0.3,0.2,0.6,0.4,0.8l4.3,6c0.6,0.8,1.6,1.3,2.6,1.3c0.5,0,1-0.1,1.4-0.3c1.4-0.7,2-2.3,1.6-3.8l-1.4-4.4
				c-0.1-0.3-0.2-0.6-0.4-0.8l-4.3-6C125.5,141.6,124.5,141.1,123.5,141.1L123.5,141.1z"/>
		</g>
		<g>
			<path class="st0" d="M129,160.1c-0.9,0-1.7-0.4-2.2-1.1l-9.3-13c-0.9-1.2-0.6-2.9,0.6-3.7c0.5-0.3,1-0.5,1.6-0.5
				c0.9,0,1.7,0.4,2.2,1.1l9.3,13c0.4,0.6,0.6,1.3,0.5,2s-0.5,1.3-1.1,1.7C130,159.9,129.5,160.1,129,160.1L129,160.1z"/>
			<path class="st0" d="M119.7,143.3c0.3,0,0.7,0.2,0.9,0.5l9.3,13c0.4,0.5,0.2,1.2-0.2,1.5c-0.2,0.1-0.4,0.2-0.6,0.2
				c-0.3,0-0.7-0.2-0.9-0.5l-9.3-13c-0.4-0.5-0.2-1.2,0.2-1.5C119.2,143.4,119.5,143.3,119.7,143.3 M119.7,140.2
				c-0.9,0-1.7,0.3-2.5,0.8c-0.9,0.7-1.5,1.6-1.7,2.8c-0.2,1.1,0.1,2.2,0.7,3.2l9.3,13c0.8,1.1,2.1,1.8,3.4,1.8
				c0.9,0,1.7-0.3,2.5-0.8c0.9-0.7,1.5-1.6,1.7-2.8c0.2-1.1-0.1-2.2-0.7-3.2l-9.3-13C122.2,140.8,121,140.2,119.7,140.2L119.7,140.2
				z"/>
		</g>
		<g>
			<path class="st0" d="M181.6,102.1c-0.9,0-1.6-0.7-1.6-1.6V88.4c0-10,7.8-18.3,17.7-19.1h0.2c0.4,0,0.8,0,1.2,0
				c5.7,0,11.1,2.5,14.8,7c0.8,0.9,1.5,2,2.1,3c1.2,2.2,2,4.7,2.2,7.2c0.1,0.7,0.1,1.3,0.1,2v12.2c0,0.9-0.7,1.6-1.6,1.6h-35.1
				V102.1z"/>
			<path class="st0" d="M199.2,70.8c5.5,0,10.4,2.5,13.6,6.4c0.7,0.9,1.4,1.8,1.9,2.8c1.1,2,1.8,4.2,2,6.6c0.1,0.6,0.1,1.2,0.1,1.8
				v12.2h-35.2V88.4c0-9.3,7.2-16.8,16.2-17.5C198.4,70.8,198.8,70.8,199.2,70.8 M199.2,67.6c-0.5,0-0.9,0-1.3,0.1h-0.2
				c-10.8,0.8-19.2,9.9-19.2,20.7v12.2c0,1.7,1.4,3.1,3.1,3.1h35.2c1.7,0,3.1-1.4,3.1-3.1V88.4c0-0.7,0-1.3-0.1-2.1
				c-0.3-2.8-1.1-5.4-2.4-7.8c-0.6-1.2-1.4-2.3-2.2-3.3C211.2,70.4,205.5,67.6,199.2,67.6L199.2,67.6z"/>
		</g>
		<g>
			<path class="st0" d="M182.6,106.8c-0.9,0-1.6-0.7-1.6-1.6v-3c0-0.9,0.7-1.6,1.6-1.6h33.3c0.9,0,1.6,0.7,1.6,1.6v3
				c0,0.9-0.7,1.6-1.6,1.6H182.6z"/>
			<path class="st0" d="M215.9,102.2v3h-33.3v-3L215.9,102.2 M215.9,99.1h-33.3c-1.7,0-3.1,1.4-3.1,3.1v3c0,1.7,1.4,3.1,3.1,3.1
				h33.3c1.7,0,3.1-1.4,3.1-3.1v-3C219.1,100.5,217.6,99.1,215.9,99.1L215.9,99.1z"/>
		</g>
	</g>
	<g>
		<g>
			<g>
				<path class="st0" d="M201.1,89.3c-0.8,0-1.5-0.7-1.6-1.5c-0.1-3.7-1.6-7.1-2.8-9.9c-1.2-2.9-1.7-4.3-1.5-5.2
					c0.1-0.4,0.3-0.8,0.7-1c0.6-0.4,1.7-0.6,3.2-0.6c9.3,0,16.9,7.3,17.2,16.6c0,0.4-0.1,0.8-0.4,1.2s-0.7,0.5-1.1,0.5L201.1,89.3
					L201.1,89.3z"/>
				<path class="st0" d="M199.2,72.7c8.4,0,15.4,6.7,15.7,15.1h-13.7c-0.1-4-1.7-7.6-2.9-10.5c-0.6-1.4-1.5-3.6-1.4-4.3
					C197,73,197.6,72.7,199.2,72.7 M199.2,69.5c-1.9,0-3.2,0.3-4.1,0.9c-0.7,0.5-1.2,1.2-1.4,2c-0.3,1.5,0.3,3.1,1.6,6.2
					c1.2,2.8,2.5,5.9,2.6,9.3c0.1,1.7,1.4,3,3.1,3h13.7c0.9,0,1.7-0.3,2.3-1c0.6-0.7,0.9-1.4,0.9-2.3
					C217.6,77.5,209.5,69.5,199.2,69.5L199.2,69.5z"/>
			</g>
			<path d="M176.1,111.4c-1.5-0.4-3.1,0.4-3.5,1.9s0.4,3.1,1.9,3.5s3.1-0.4,3.5-1.9S177.6,111.8,176.1,111.4z M177.4,114.8
				c-0.3,1.1-1.5,1.8-2.6,1.4c-0.1,0-0.2-0.1-0.3-0.1l0,0c-0.1,0-0.2-0.1-0.2-0.1c-0.1-0.1-0.2-0.2-0.3-0.2s-0.1-0.1-0.1-0.1
				c-0.1,0-0.1-0.1-0.1-0.1c-0.1-0.1-0.1-0.2-0.2-0.3c0-0.1-0.1-0.2-0.1-0.2l0,0c0-0.1,0-0.1-0.1-0.2l0,0c0-0.1,0-0.1-0.1-0.2
				c0-0.1,0-0.2,0-0.3c0-0.2,0-0.4,0.1-0.6c0.3-1.1,1.5-1.8,2.6-1.4c0.1,0,0.2,0.1,0.3,0.1c0,0,0.1,0,0.1,0.1c0.1,0,0.1,0.1,0.1,0.1
				c0.1,0,0.1,0.1,0.2,0.1c0.1,0.1,0.1,0.1,0.2,0.2c0,0,0,0,0.1,0.1s0.1,0.1,0.2,0.2c0.1,0.2,0.2,0.3,0.3,0.5l0,0
				c0,0.1,0,0.1,0.1,0.2l0,0c0,0.1,0,0.1,0.1,0.2c0,0.1,0,0.2,0,0.3C177.5,114.3,177.5,114.5,177.4,114.8z"/>
			<path class="st0" d="M110.7,158.6c-1.5-0.4-3.1,0.4-3.5,1.9c-0.3,1,0,2.1,0.7,2.8c0.3,0.3,0.8,0.6,1.2,0.8c0.9,0.3,1.9,0,2.6-0.6
				l0,0l0,0c0.4-0.3,0.7-0.8,0.9-1.3C113.2,160.6,112.2,159,110.7,158.6z M112,161.9c-0.3,1.1-1.5,1.8-2.6,1.4
				c-1.1-0.4-1.8-1.5-1.4-2.6c0.3-1.1,1.5-1.8,2.6-1.4C111.7,159.6,112.3,160.8,112,161.9z"/>
			<g>
				<rect x="83.2" y="58.4" width="18.3" height="183.1"/>
			</g>
			<g>
				<path d="M213.4,106.9h-37.1c1.7,0.7,3.2,1.8,4.3,3.4c1.2,1.7,1.9,3.7,1.9,5.7c0,3.2-1.5,6.1-4.1,8l-1.7,1.2h36.7
					c1.9,0,3.5-1.6,3.5-3.5v-11.3C216.9,108.5,215.2,106.9,213.4,106.9z"/>
			</g>
			<g>
				<path d="M118.3,167.3c-2.1,1.5-4.7,2.1-7.3,1.7c-2.6-0.4-4.9-1.8-6.4-3.9c-0.5-0.6-0.8-1.3-1.1-2v62.5c0,1.9,1.6,3.5,3.5,3.5
					h11.3c1.9,0,3.5-1.6,3.5-3.5v-60.7h-0.1L118.3,167.3z"/>
			</g>
			<g>
				<path d="M107.2,152c-4.1,2.9-5,8.6-2.1,12.7c2.9,4.1,8.6,5,12.7,2.1l10.2-7.4l-10.6-14.8L107.2,152z M112.7,162.1
					c-0.2,0.5-0.5,1-0.9,1.3l0,0l0,0c-0.7,0.6-1.7,0.8-2.6,0.6c-0.5-0.1-0.9-0.4-1.2-0.8c-0.7-0.7-1-1.8-0.7-2.8
					c0.4-1.5,2-2.4,3.5-1.9C112.2,159,113.2,160.6,112.7,162.1z"/>
			</g>
			<g>
				<path d="M110.5,159.3c-1.1-0.3-2.3,0.3-2.6,1.4c-0.3,1.1,0.3,2.3,1.4,2.6c1.1,0.3,2.3-0.3,2.6-1.4
					C112.3,160.8,111.7,159.6,110.5,159.3z"/>
			</g>
			<g>
				<path d="M180,110.8c-2.9-4.1-8.6-5-12.7-2.1l-9.9,7.2l10.7,14.8l9.9-7.2C182,120.5,182.9,114.8,180,110.8z M174.5,116.9
					c-1.5-0.4-2.4-2-1.9-3.5c0.4-1.5,2-2.4,3.5-1.9c1.5,0.4,2.4,2,1.9,3.5S176,117.3,174.5,116.9z"/>
			</g>
			<g>
				<path d="M177.4,113.6L177.4,113.6c0-0.1,0-0.2-0.1-0.2l0,0c-0.1-0.2-0.2-0.3-0.3-0.5c-0.1-0.1-0.1-0.1-0.2-0.2c0,0,0,0-0.1-0.1
					s-0.1-0.1-0.2-0.2c-0.1,0-0.1-0.1-0.2-0.1l-0.1-0.1c0,0-0.1,0-0.1-0.1c-0.1,0-0.2-0.1-0.3-0.1c-1.1-0.3-2.3,0.3-2.6,1.4
					c-0.1,0.2-0.1,0.4-0.1,0.6c0,0.1,0,0.2,0,0.3c0,0.1,0,0.1,0.1,0.2l0,0c0,0.1,0,0.1,0.1,0.2l0,0c0,0.1,0.1,0.2,0.1,0.2
					c0.1,0.1,0.1,0.2,0.2,0.3l0.1,0.1c0,0.1,0.1,0.1,0.1,0.1c0.1,0.1,0.2,0.2,0.3,0.2c0.1,0.1,0.2,0.1,0.2,0.1l0,0
					c0.1,0.1,0.2,0.1,0.3,0.1c1.1,0.3,2.3-0.3,2.6-1.4c0.1-0.2,0.1-0.4,0.1-0.6c0-0.1,0-0.2,0-0.3
					C177.5,113.8,177.4,113.6,177.4,113.6z"/>
			</g>
			<g>
				<path d="M157.2,117.2c-0.4-0.5-1-0.6-1.5-0.2s-0.6,1-0.2,1.5l9.3,13c0.4,0.5,1,0.6,1.5,0.2c0.5-0.4,0.6-1,0.2-1.5L157.2,117.2z"
					/>
			</g>
			<g>
				<polygon points="160.5,126.8 156.1,120.8 157.5,125.1 162,131.1 				"/>
			</g>
			<g>
				<path d="M153.2,120.2c-0.4-0.5-1-0.6-1.5-0.2s-0.6,1-0.2,1.5l9.3,13c0.4,0.5,1,0.6,1.5,0.2c0.5-0.4,0.6-1,0.2-1.5L153.2,120.2z"
					/>
			</g>
			<g>
				<polygon points="156.4,129.6 152,123.6 153.5,128 157.8,134 				"/>
			</g>
			<g>
				<path d="M149.1,123.1c-0.4-0.5-1-0.6-1.5-0.2s-0.6,1-0.2,1.5l9.3,13c0.4,0.5,1,0.6,1.5,0.2c0.5-0.4,0.6-1,0.2-1.5L149.1,123.1z"
					/>
			</g>
			<g>
				<polygon points="152.2,132.5 148,126.5 149.5,131 153.8,137 				"/>
			</g>
			<g>
				<path d="M145,126.1c-0.4-0.5-1-0.6-1.5-0.2l0,0c-0.5,0.4-0.6,1-0.2,1.5l9.3,13c0.4,0.5,1,0.6,1.5,0.2c0.5-0.4,0.6-1,0.2-1.5
					L145,126.1z"/>
			</g>
			<g>
				<polygon points="148.1,135.5 144,129.5 145.4,133.9 149.6,139.9 				"/>
			</g>
			<g>
				<path d="M141,129c-0.4-0.5-1-0.6-1.5-0.2c-0.5,0.4-0.6,1-0.2,1.5l9.3,13c0.4,0.5,1,0.6,1.5,0.2c0.5-0.4,0.6-1,0.2-1.5L141,129z"
					/>
			</g>
			<g>
				<polygon points="144.1,138.4 139.9,132.5 141.2,136.9 145.5,142.9 				"/>
			</g>
			<g>
				<path d="M136.9,132c-0.4-0.5-1-0.6-1.5-0.2c-0.5,0.4-0.6,1-0.2,1.5l9.3,13c0.4,0.5,1,0.6,1.5,0.2c0.5-0.4,0.6-1,0.2-1.5
					L136.9,132z"/>
			</g>
			<g>
				<polygon points="140,141.4 135.8,135.4 137.1,139.8 141.5,145.8 				"/>
			</g>
			<g>
				<path d="M132.8,135c-0.4-0.5-1-0.6-1.5-0.2c-0.5,0.4-0.6,1-0.2,1.5l9.3,13c0.4,0.5,1,0.6,1.5,0.2c0.5-0.4,0.6-1,0.2-1.5
					L132.8,135z"/>
			</g>
			<g>
				<polygon points="136,144.3 131.6,138.4 133.1,142.8 137.5,148.8 				"/>
			</g>
			<g>
				<path d="M128.8,137.9c-0.4-0.5-1-0.6-1.5-0.2c-0.5,0.4-0.6,1-0.2,1.5l9.3,13c0.4,0.5,1,0.6,1.5,0.2c0.5-0.4,0.6-1,0.2-1.5
					L128.8,137.9z"/>
			</g>
			<g>
				<polygon points="131.9,147.3 127.5,141.3 129,145.8 133.2,151.8 				"/>
			</g>
			<g>
				<path d="M124.7,140.9c-0.4-0.5-1-0.6-1.5-0.2c-0.5,0.4-0.6,1-0.2,1.5l9.3,13c0.4,0.5,1,0.6,1.5,0.2c0.5-0.4,0.6-1,0.2-1.5
					L124.7,140.9z"/>
			</g>
			<g>
				<polygon points="127.7,150.2 123.5,144.3 125,148.6 129.2,154.6 				"/>
			</g>
			<g>
				<path d="M120.5,143.8c-0.4-0.5-1-0.6-1.5-0.2c-0.5,0.4-0.6,1-0.2,1.5l9.3,13c0.4,0.5,1,0.6,1.5,0.2c0.5-0.4,0.6-1,0.2-1.5
					L120.5,143.8z"/>
			</g>
			<g>
				<path d="M216.8,86.6c-0.2-2.4-1-4.6-2-6.6c-0.5-1-1.2-1.9-1.9-2.8c-3.2-3.9-8.1-6.4-13.6-6.4c-0.5,0-0.9,0-1.4,0.1
					c-9.1,0.7-16.2,8.3-16.2,17.5v12.2h35.2V88.4C216.9,87.7,216.9,87.2,216.8,86.6z M201.1,87.8c-0.1-4-1.7-7.6-2.9-10.5
					c-0.6-1.4-1.5-3.6-1.4-4.3c0.1-0.1,0.7-0.4,2.4-0.4c8.4,0,15.4,6.7,15.7,15.1C215,87.8,201.1,87.8,201.1,87.8z"/>
			</g>
			<g>
				<rect x="182.6" y="102.2" width="33.3" height="3"/>
			</g>
		</g>
	</g>
</g>
</svg>
