<?xml version="1.0" encoding="utf-8"?>
<!-- Generator: Adobe Illustrator 27.9.0, SVG Export Plug-In . SVG Version: 6.00 Build 0)  -->
<svg version="1.1" id="레이어_1" xmlns="http://www.w3.org/2000/svg" xmlns:xlink="http://www.w3.org/1999/xlink" x="0px"
	 y="0px" viewBox="0 0 300 300" style="enable-background:new 0 0 300 300;" xml:space="preserve">
<style type="text/css">
	.st0{fill:#F8F8F8;}
	.st1{fill:#040000;}
	.st2{fill:#FFFFFF;}
</style>
<g>
	<g id="CAMERA_00000162321188965656408320000006755256218606881944_">
		<g>
			<path class="st0" d="M68.5,96c-0.9,0-1.6-0.7-1.6-1.6V68.6c0-4.1,3.3-7.4,7.3-7.4h118.7c4,0,7.3,3.3,7.3,7.4v6.1
				c0,0.7-0.5,1.4-1.2,1.5c-1.3,0.3-2.5,1.1-3.2,2.2c-0.3,0.5-0.8,0.7-1.3,0.7h-6.9c-0.6,0-1.2,0.3-1.6,0.8
				c-0.3,0.4-0.7,0.6-1.2,0.6h-0.2c-0.4,0-0.7,0.2-0.9,0.3c-0.3,0.2-0.6,0.3-1,0.3s-0.8,0.1-1.1,0.2l-0.6,0.3
				c-0.5,0.2-0.9,0.6-1.2,1.1s-0.8,0.8-1.4,0.8h-27.3c-3.5,0-6.4,2.9-6.4,6.4v4.4c0,0.9-0.7,1.6-1.6,1.6L68.5,96L68.5,96z"/>
			<path class="st0" d="M193,62.8c3.2,0,5.8,2.6,5.8,5.8v6.1c-1.7,0.4-3.2,1.4-4.2,2.9h-6.9c-1.1,0-2.1,0.5-2.8,1.3h-0.2
				c-0.7,0-1.3,0.2-1.9,0.7h-0.1c-0.6,0-1.2,0.2-1.7,0.4l-0.5,0.2c-0.8,0.4-1.5,1-1.9,1.8h-27.5c-4.4,0-8,3.6-8,8v4.4H68.5V68.6
				c0-3.2,2.6-5.8,5.8-5.8L193,62.8 M193,59.7H74.3c-4.9,0-8.9,4-8.9,8.9v25.8c0,1.7,1.4,3.1,3.1,3.1h74.6c1.7,0,3.1-1.4,3.1-3.1V90
				c0-2.7,2.2-4.8,4.8-4.8h27.5c1.1,0,2.2-0.6,2.7-1.6c0.1-0.2,0.3-0.4,0.5-0.5l0.4-0.2c0.1,0,0.1,0,0.2-0.1c0.1,0,0.2-0.1,0.3-0.1
				h0.1c0.7,0,1.3-0.2,1.9-0.6l0,0h0.2c0.9,0,1.8-0.4,2.4-1.2c0,0,0.2-0.2,0.4-0.2h6.9c1.1,0,2.1-0.5,2.6-1.4
				c0.5-0.8,1.3-1.3,2.2-1.5c1.4-0.3,2.5-1.6,2.5-3.1v-6.1C201.9,63.7,197.9,59.7,193,59.7L193,59.7z"/>
		</g>
		<g>
			<path class="st0" d="M173.7,113.4c-0.8,0-1.5-0.7-1.6-1.5c0-1-0.2-1.9-0.3-2.9c-0.1-0.5,0-0.9,0.3-1.3s0.7-0.6,1.2-0.6h22.6
				c0.7,0,1.3,0.4,1.5,1s0,1.3-0.5,1.7l-3.8,3.1c-0.3,0.2-0.6,0.3-1,0.3L173.7,113.4L173.7,113.4z"/>
			<path class="st0" d="M195.9,108.7l-3.8,3.1h-18.3c0-1-0.2-2.1-0.4-3.1H195.9 M195.9,105.6h-22.6c-0.9,0-1.8,0.4-2.4,1.1
				c-0.6,0.7-0.8,1.7-0.7,2.6c0.2,0.9,0.3,1.7,0.3,2.6c0.1,1.7,1.5,3,3.1,3h18.3c0.7,0,1.4-0.2,2-0.7l3.8-3.1c1-0.8,1.4-2.2,1-3.5
				C198.4,106.4,197.2,105.6,195.9,105.6L195.9,105.6z M195.9,111.9L195.9,111.9L195.9,111.9L195.9,111.9z"/>
		</g>
		<g>
			<path class="st0" d="M68.5,178.7c-0.9,0-1.6-0.7-1.6-1.6v-4.3c0-0.9,0.7-1.6,1.6-1.6h87.1c8.9,0,16.1-7,16.5-15.9
				c0-0.8,0.7-1.5,1.6-1.5h18.6c0.4,0,0.7,0.1,1,0.3l6.5,5.2c0.4,0.3,0.6,0.8,0.6,1.2V177c0,0.9-0.7,1.6-1.6,1.6L68.5,178.7
				L68.5,178.7z"/>
			<path class="st0" d="M192.3,155.3l6.5,5.2V177H68.5v-4.3h87.1c9.7,0,17.7-7.8,18-17.4H192.3 M192.3,152.2h-18.6
				c-1.7,0-3.1,1.3-3.1,3c-0.3,8.1-6.8,14.4-14.9,14.4H68.6c-1.7,0-3.1,1.4-3.1,3.1v4.3c0,1.7,1.4,3.1,3.1,3.1h130.2
				c1.7,0,3.1-1.4,3.1-3.1v-16.5c0-1-0.4-1.8-1.2-2.5l-6.5-5.2C193.7,152.5,193,152.2,192.3,152.2L192.3,152.2z"/>
		</g>
		<g>
			<path class="st0" d="M74.3,227.2c-4,0-7.3-3.3-7.3-7.4v-28.6c0-0.9,0.7-1.6,1.6-1.6h130.2c0.9,0,1.6,0.7,1.6,1.6v28.6
				c0,4.1-3.3,7.4-7.3,7.4H74.3z"/>
			<path class="st0" d="M198.8,191.2v28.6c0,3.2-2.6,5.8-5.8,5.8H74.3c-3.2,0-5.8-2.6-5.8-5.8v-28.6H198.8 M198.8,188.1H68.5
				c-1.7,0-3.1,1.4-3.1,3.1v28.6c0,4.9,4,8.9,8.9,8.9H193c4.9,0,8.9-4,8.9-8.9v-28.6C201.9,189.5,200.5,188.1,198.8,188.1
				L198.8,188.1z"/>
		</g>
		<g>
			<g>
				<g>
					<path class="st0" d="M63.6,172.5c-9.8,0-17.7-8-17.7-17.7v-42.3c0-9.8,8-17.7,17.7-17.7h79.8v-4.7c0-4.2,3.4-7.7,7.7-7.7h27
						c0.9,0,1.6,0.7,1.6,1.6c0,1,0.5,1.8,1.4,2.2l0.5,0.2c0,0,0.1,0,0.1,0.1c0.1,0,0.1,0,0.2,0.1c0.1,0,0.2,0.1,0.3,0.1s0.3,0,0.5,0
						c0.4,0,0.8,0.1,1.1,0.3c0.2,0.2,0.5,0.3,0.9,0.3h0.2c0.5,0,0.9,0.2,1.2,0.6c0.3,0.3,0.7,0.6,1.1,0.7c0.2,0,0.3,0.1,0.5,0.1h6.9
						c0.5,0,1,0.3,1.3,0.7c0.7,1.1,1.9,1.9,3.2,2.2c0.4,0.1,0.7,0.1,1.2,0.1h2.1c0.9,0,1.6,0.7,1.6,1.6v7.5c0,0.8-0.1,1.5-0.3,2.2
						c2.5-1.8,5.6-2.8,8.8-2.8h1c1.8-2.2,4.6-3.4,7.5-3.4h18.1c5.4,0,9.9,4.4,9.9,9.9v53.8c0,5.5-4.4,9.9-9.9,9.9h-18.2
						c-3,0-5.7-1.3-7.6-3.6h-0.9c-3.4,0-6.7-1.1-9.3-3.2l-10.7-8.6h-19c-0.2,9.6-8.1,17.4-17.7,17.4L63.6,172.5L63.6,172.5z
						 M86.4,141.8c-3.9,0-7.1,3.2-7.1,7.1s3.2,7.1,7.1,7.1h43c3.9,0,7.1-3.2,7.1-7.1s-3.2-7.1-7.1-7.1H86.4z M192.1,112.1l4.6-3.7
						c-0.2,0-0.3,0-0.5,0h-23.3c0.3,1.2,0.4,2.4,0.5,3.7H192.1z"/>
					<path class="st0" d="M178.1,83.9c0,1.6,0.9,3,2.3,3.6l0.5,0.2c0.1,0,0.2,0.1,0.2,0.1c0.2,0.1,0.4,0.2,0.6,0.2
						c0.3,0.1,0.6,0.1,0.9,0.1h0.1c0.5,0.4,1.2,0.7,1.9,0.7h0.2c0.5,0.6,1.2,1.1,2,1.2c0.3,0.1,0.5,0.1,0.8,0.1h6.9
						c1,1.5,2.4,2.5,4.2,2.9c0.5,0.1,1,0.2,1.5,0.2h2.1v7.5c0,2.5-1.5,4.6-3.6,5.6c-0.8,0.3-1.6,0.5-2.5,0.5h-25.4
						c0.7,1.7,1,3.6,1,5.6v1.2h20.8l6.1-4.8l5.3-4.2c2.3-1.8,5.2-2.8,8.3-2.8h1.8c1.5-2.1,3.9-3.4,6.7-3.4h18.3
						c4.6,0,8.3,3.7,8.3,8.3v53.8c0,4.6-3.7,8.3-8.3,8.3h-18.3c-2.8,0-5.3-1.4-6.8-3.6h-1.7c-3.1,0-6.1-1-8.3-2.8l-5.3-4.2l-5.8-4.7
						h-21.1v1.2c0,8.9-7.2,16.2-16.2,16.2h-92c-8.9,0-16.2-7.2-16.2-16.2v-42.3c0-8.9,7.2-16.2,16.2-16.2h81.3v-6.3
						c0-3.4,2.7-6.1,6.1-6.1L178.1,83.9 M86.4,157.6h43c4.8,0,8.7-3.9,8.7-8.7s-3.9-8.7-8.7-8.7h-43c-4.8,0-8.7,3.9-8.7,8.7
						C77.8,153.7,81.7,157.6,86.4,157.6 M178.1,80.8h-27c-5.1,0-9.2,4.1-9.2,9.2v3.2H63.7c-10.6,0-19.3,8.7-19.3,19.3v42.3
						c0,10.6,8.7,19.3,19.3,19.3h92c10,0,18.3-7.7,19.2-17.4h17l5,4l5.3,4.2c2.8,2.3,6.5,3.5,10.3,3.5h0.2c2.1,2.3,5.1,3.6,8.3,3.6
						h18.3c6.3,0,11.4-5.1,11.4-11.5v-53.8c0-6.3-5.1-11.5-11.4-11.5H221c-3.1,0-6,1.2-8.1,3.4h-0.3c-2.4,0-4.8,0.5-6.9,1.5v-6.9
						c0-1.7-1.4-3.1-3.1-3.1h-2.1c-0.3,0-0.5,0-0.7-0.1h-0.1c-0.9-0.2-1.7-0.8-2.2-1.5c-0.6-0.9-1.6-1.4-2.6-1.4H188l0,0l0,0h-0.1
						c-0.1,0-0.2-0.1-0.2-0.1c-0.6-0.7-1.5-1.2-2.5-1.2H185c-0.5-0.4-1.2-0.7-1.9-0.7H183c-0.1,0-0.1,0-0.1,0
						c-0.1,0-0.1-0.1-0.2-0.1h-0.1l-0.5-0.2c-0.3-0.1-0.5-0.4-0.5-0.8C181.2,82.2,179.8,80.8,178.1,80.8L178.1,80.8z M174.8,110
						h17.5l-0.7,0.5h-16.7C174.8,110.4,174.8,110.2,174.8,110L174.8,110z M86.4,154.4c-3,0-5.5-2.5-5.5-5.5s2.5-5.5,5.5-5.5h43
						c3,0,5.5,2.5,5.5,5.5s-2.5,5.5-5.5,5.5H86.4L86.4,154.4z"/>
				</g>
			</g>
			<g>
				<g>
					<g>
						<path class="st0" d="M86.4,157.3c-4.6,0-8.4-3.8-8.4-8.4s3.8-8.4,8.4-8.4h43c4.6,0,8.4,3.8,8.4,8.4s-3.8,8.4-8.4,8.4H86.4z"/>
						<path class="st0" d="M129.4,142.1c3.8,0,6.8,3,6.8,6.8s-3,6.8-6.8,6.8h-43c-3.8,0-6.8-3-6.8-6.8s3-6.8,6.8-6.8H129.4
							 M129.4,139h-43c-5.5,0-9.9,4.5-9.9,9.9s4.5,9.9,9.9,9.9h43c5.5,0,9.9-4.5,9.9-9.9S134.9,139,129.4,139L129.4,139z"/>
					</g>
				</g>
			</g>
			<g>
				<g>
					<path class="st0" d="M200.2,92.9c-0.3,0-0.5,0-0.8-0.1c-0.2,0-0.4,0-0.6-0.1c-0.2,0-0.4-0.1-0.6-0.1c-0.3-0.1-0.6-0.2-0.8-0.3
						c-0.5-0.2-1-0.5-1.5-1l-0.1-0.1c-0.2-0.2-0.3-0.3-0.4-0.5c-0.2-0.2-0.3-0.4-0.5-0.6c0-0.1-0.1-0.1-0.1-0.2h-7.1
						c-0.2,0-0.3,0-0.5,0c-0.1,0-0.2,0-0.3-0.1c-0.1,0-0.2,0-0.3-0.1h-0.1c-0.1,0-0.2,0-0.2-0.1c-0.5-0.2-0.9-0.6-1.2-1h-0.4
						c-0.3,0-0.6,0-1-0.2c-0.2-0.1-0.5-0.2-0.7-0.4c0,0-0.1,0-0.1-0.1h-0.2c-0.5,0-1.1-0.1-1.6-0.4l-0.5-0.2
						c-0.2-0.1-0.5-0.2-0.7-0.4c-0.1,0-0.1-0.1-0.2-0.2c-0.1,0-0.1-0.1-0.2-0.2c-0.2-0.2-0.4-0.4-0.5-0.6c0,0,0,0,0-0.1
						c-0.4-0.6-0.5-1.2-0.5-2c0-1.5,0.8-2.8,2.2-3.4l0.5-0.2c0.5-0.2,1-0.4,1.6-0.4h0.2c0.5-0.4,1.1-0.7,1.8-0.7h0.4
						c0.6-0.8,1.6-1.3,2.7-1.3h7.1c0.1-0.1,0.1-0.2,0.2-0.3l0.1-0.2c0.2-0.2,0.4-0.5,0.6-0.7l0.1-0.1c0.2-0.2,0.4-0.4,0.6-0.5
						c0.2-0.1,0.3-0.2,0.5-0.3s0.3-0.2,0.5-0.3c0.3-0.2,0.6-0.3,0.9-0.4c0.6-0.2,1.3-0.3,2-0.3h47.6c3.6,0,6.5,2.9,6.5,6.5v5.1
						c0,3.6-2.9,6.5-6.5,6.5L200.2,92.9L200.2,92.9z"/>
					<path class="st0" d="M247.9,76.4c2.7,0,4.9,2.2,4.9,4.9v5.1c0,2.7-2.2,4.9-4.9,4.9h-47.6c-0.2,0-0.4,0-0.6-0.1
						c-0.2,0-0.3,0-0.4-0.1c-0.2,0-0.3,0-0.5-0.1s-0.5-0.2-0.7-0.3c-0.4-0.2-0.8-0.5-1.2-0.8c-0.2-0.2-0.3-0.3-0.4-0.5
						c-0.1-0.1-0.2-0.2-0.3-0.4c-0.1-0.1-0.2-0.2-0.2-0.3c-0.1-0.2-0.2-0.4-0.3-0.7h-8c-0.1,0-0.3,0-0.4,0c-0.1,0-0.1,0-0.2-0.1
						c0,0-0.1,0-0.2-0.1c-0.3-0.1-0.5-0.4-0.7-0.6c-0.1-0.2-0.2-0.3-0.3-0.5h-1.3c-0.2,0-0.3,0-0.4-0.1c-0.1,0-0.2-0.1-0.3-0.1l0,0
						c-0.1-0.1-0.2-0.3-0.3-0.4h-1c-0.3,0-0.6-0.1-0.9-0.2l-0.5-0.2c-0.2-0.1-0.3-0.2-0.4-0.3c-0.1,0-0.1,0-0.1-0.1l-0.1-0.1
						c-0.1-0.1-0.2-0.2-0.3-0.3l0,0c-0.2-0.3-0.3-0.7-0.3-1.2c0-0.8,0.4-1.5,1.2-1.9l0.5-0.3c0.3-0.1,0.6-0.2,0.9-0.2h1
						c0.2-0.4,0.6-0.7,1-0.7h1.3c0.2-0.8,0.9-1.3,1.7-1.3h8c0.1-0.2,0.2-0.5,0.3-0.7s0.2-0.3,0.3-0.5c0.2-0.2,0.4-0.4,0.6-0.7
						c0.1-0.1,0.3-0.2,0.4-0.3c0.1-0.1,0.2-0.2,0.3-0.2c0.2-0.1,0.3-0.2,0.5-0.3s0.4-0.2,0.7-0.3c0.5-0.2,1-0.2,1.5-0.2L247.9,76.4
						 M247.9,73.3h-47.6c-0.8,0-1.7,0.1-2.5,0.4c-0.3,0.1-0.7,0.2-1.2,0.5c-0.2,0.1-0.4,0.2-0.6,0.3c-0.2,0.1-0.5,0.3-0.7,0.5
						s-0.5,0.4-0.7,0.6c0,0,0,0.1-0.1,0.1l-0.1,0.1c-0.2,0.2-0.4,0.4-0.6,0.6h-6.3c-1.3,0-2.5,0.5-3.4,1.4c-0.7,0-1.4,0.3-2,0.7
						c-0.7,0-1.3,0.2-1.9,0.5l-0.5,0.2c-1.9,0.9-3.1,2.7-3.1,4.8c0,1,0.3,1.9,0.8,2.8c0,0,0,0.1,0.1,0.1l0,0
						c0.2,0.2,0.4,0.6,0.8,0.9c0.1,0.1,0.2,0.1,0.2,0.2c0.1,0.1,0.2,0.1,0.3,0.2c0.4,0.3,0.7,0.5,0.9,0.6c0,0,0.1,0,0.1,0.1l0.5,0.2
						c0.6,0.3,1.3,0.5,1.9,0.5c0.2,0.2,0.5,0.3,0.7,0.4c0.4,0.2,0.8,0.3,1.2,0.3c0.4,0.4,0.8,0.7,1.3,0.9c0.1,0.1,0.3,0.1,0.4,0.2
						c0.1,0,0.2,0.1,0.3,0.1c0.2,0.1,0.4,0.1,0.6,0.1c0.2,0,0.4,0.1,0.8,0.1h6.2c0.1,0.1,0.2,0.2,0.3,0.3c0.1,0.2,0.3,0.3,0.5,0.5
						c0.1,0.1,0.1,0.1,0.2,0.2c0.7,0.5,1.2,0.9,1.8,1.2c0.3,0.1,0.6,0.3,1,0.4h0.1c0.2,0.1,0.4,0.1,0.7,0.2c0.3,0.1,0.5,0.1,0.8,0.1
						c0.2,0,0.5,0.1,0.9,0.1h47.6c4.4,0,8-3.6,8-8.1v-5.1C255.9,76.9,252.3,73.3,247.9,73.3L247.9,73.3z"/>
				</g>
				<g>
					<path class="st0" d="M196,90.5c-0.5,0-0.9-0.2-1.2-0.7l-0.5-0.7c-0.3-0.5-0.3-1.1-0.1-1.6s0.8-0.8,1.4-0.8
						c0.6,0,1.2,0.3,1.5,0.9l0.1,0.2c0,0.1,0.1,0.2,0.1,0.2c0.4,0.7,0.3,1.7-0.4,2.2C196.6,90.4,196.3,90.5,196,90.5z M181.2,89.4
						c-0.4,0-0.7-0.1-0.8-0.2l-0.6-0.3c-0.8-0.4-1.1-1.3-0.7-2.1c0.3-0.6,0.8-0.9,1.4-0.9c0.2,0,0.4,0,0.7,0.1l0.5,0.2
						c0.1,0,0.1,0,0.2,0.1c0-0.2,0-0.4,0.1-0.6c0.2-0.6,0.8-1.1,1.5-1.1h0.2c0.5,0,1,0.3,1.3,0.7c0,0,0,0.1,0.1,0.1
						c0.2-0.1,0.5-0.2,0.8-0.2h0.2c0.7,0,1.3,0.5,1.5,1.1c0,0,0,0,0,0.1c0.5,0.7,0.4,1.6-0.3,2.1c-0.3,0.2-0.7,0.4-1,0.4
						c-0.5,0-0.9-0.2-1.2-0.6l-0.4-0.4c-0.2,0.1-0.5,0.2-0.8,0.2s-0.7-0.1-1-0.3l-0.2-0.2c0,0.1,0,0.2,0,0.2
						C182.6,88.8,182,89.4,181.2,89.4z"/>
					<path class="st0" d="M183.6,86.3c0.1,0.1,0.2,0.3,0.3,0.4l-0.5-0.4H183.6 M186,87c0.1,0.2,0.1,0.4,0.3,0.5l-0.5-0.5H186
						 M180.4,87.5l0.5,0.2c0.1,0,0.2,0.1,0.2,0.1c-0.1,0-0.2,0-0.2-0.1L180.4,87.5 M195.7,88.3c0.1,0.2,0.2,0.4,0.3,0.6L195.7,88.3
						L195.7,88.3 M196,88.9L196,88.9L196,88.9 M183.6,83.2h-0.2c-1,0-1.9,0.5-2.5,1.2c-0.2,0-0.3,0-0.4,0c-1.2,0-2.3,0.7-2.8,1.8
						c-0.7,1.5-0.1,3.4,1.5,4.2l0.5,0.2c0,0,0.1,0,0.2,0.1c0.3,0.1,0.8,0.3,1.4,0.3c1,0,1.9-0.5,2.5-1.2c0.1,0,0.2,0,0.3,0
						s0.2,0,0.2,0c0.6,0.5,1.3,0.8,2.1,0.8c0.7,0,1.4-0.2,2-0.7c1.2-1,1.5-2.7,0.7-4c-0.5-1.2-1.6-2.1-2.9-2.1H186
						c-0.1,0-0.2,0-0.2,0C185,83.4,184.3,83.2,183.6,83.2L183.6,83.2z M195.7,85.2L195.7,85.2c-1.2,0-2.3,0.6-2.8,1.6
						S192.4,89,193,90l0.3,0.5c0,0.1,0.1,0.1,0.1,0.2C194,91.6,195,92,196,92c0.6,0,1.2-0.2,1.7-0.5c1.4-1,1.8-2.9,0.9-4.3v-0.1
						l-0.1-0.2C198,85.9,196.9,85.2,195.7,85.2L195.7,85.2z"/>
				</g>
			</g>
		</g>
		<g>
			<g>
				<path class="st0" d="M49.1,190.9c-1.8,0-3.3-1.5-3.3-3.2v-7.1c0-1.8,1.5-3.3,3.3-3.3h169c1.8,0,3.3,1.5,3.3,3.3v7.1
					c0,1.8-1.5,3.2-3.3,3.2H49.1z"/>
				<path class="st0" d="M218.1,179c0.9,0,1.7,0.8,1.7,1.7v7.1c0,0.9-0.8,1.7-1.7,1.7h-169c-1,0-1.7-0.8-1.7-1.7v-7.1
					c0-0.9,0.8-1.7,1.7-1.7H218.1 M218.1,175.8h-169c-2.7,0-4.8,2.2-4.8,4.8v7.1c0,2.7,2.2,4.8,4.8,4.8h169c2.7,0,4.8-2.2,4.8-4.8
					v-7.1C222.9,178,220.8,175.8,218.1,175.8L218.1,175.8z"/>
			</g>
		</g>
		<g>
			<g>
				<path class="st0" d="M80.3,238.7c-1.5,0-2.6-1.2-2.6-2.8v-5.1c0-1.5,1.2-2.8,2.6-2.8h106.6c1.5,0,2.6,1.2,2.6,2.8v5.1
					c0,1.5-1.2,2.8-2.6,2.8H80.3z"/>
				<path class="st0" d="M186.9,229.7c0.6,0,1.1,0.5,1.1,1.2v5.1c0,0.7-0.5,1.2-1.1,1.2H80.3c-0.6,0-1.1-0.5-1.1-1.2v-5.1
					c0-0.7,0.5-1.2,1.1-1.2H186.9 M186.9,226.6H80.3c-2.3,0-4.2,2-4.2,4.3v5.1c0,2.4,1.9,4.3,4.2,4.3h106.6c2.3,0,4.2-1.9,4.2-4.3
					v-5.1C191.1,228.5,189.3,226.6,186.9,226.6L186.9,226.6z"/>
			</g>
		</g>
	</g>
	<g id="CAMERA_00000052098150624077243960000017369248920866396551_">
		<path class="st1" d="M198.8,68.6v6.1c-1.7,0.4-3.2,1.4-4.2,2.9h-6.9c-1.1,0-2.1,0.5-2.8,1.3h-0.2c-0.7,0-1.3,0.2-1.9,0.7h-0.1
			c-0.6,0-1.2,0.2-1.7,0.4l-0.5,0.2c-0.8,0.4-1.5,1-1.9,1.8h-27.5c-4.4,0-8,3.6-8,8v4.4H68.5V68.6c0-3.2,2.6-5.8,5.8-5.8H193
			C196.2,62.8,198.8,65.4,198.8,68.6z"/>
		<path class="st1" d="M195.9,108.7l-3.8,3.1h-18.3c0-1-0.2-2.1-0.4-3.1H195.9z"/>
		<path class="st1" d="M192.3,155.3l6.5,5.2V177H68.5v-4.3h87.1c9.7,0,17.7-7.8,18-17.4H192.3z"/>
		<path class="st1" d="M198.8,191.2v28.6c0,3.2-2.6,5.8-5.8,5.8H74.3c-3.2,0-5.8-2.6-5.8-5.8v-28.6H198.8z"/>
		<g>
			<g>
				<path class="st1" d="M239.1,98.4h-18.3c-2.8,0-5.2,1.3-6.7,3.4h-1.8c-3.1,0-6.1,1-8.3,2.8l-5.3,4.2l-6.1,4.8h-20.8v-1.2
					c0-2-0.3-3.8-1-5.6h25.4c0.9,0,1.7-0.2,2.5-0.5c2.1-1,3.6-3.1,3.6-5.6v-7.5h-2.1c-0.5,0-1,0-1.5-0.2c-1.7-0.4-3.2-1.4-4.2-2.9
					h-6.9c-0.3,0-0.5,0-0.8-0.1c-0.8-0.2-1.5-0.6-2-1.2h-0.2c-0.7,0-1.3-0.2-1.9-0.7h-0.1c-0.3,0-0.6,0-0.9-0.1
					c-0.2,0-0.4-0.1-0.6-0.2c-0.1,0-0.2,0-0.2-0.1l-0.5-0.2c-1.4-0.7-2.3-2-2.3-3.6h-27c-3.4,0-6.1,2.7-6.1,6.1v6.3H63.7
					c-8.9,0-16.2,7.2-16.2,16.2v42.3c0,8.9,7.2,16.2,16.2,16.2h92c8.9,0,16.2-7.2,16.2-16.2v-1.3H193l5.8,4.7l5.3,4.2
					c2.3,1.8,5.2,2.8,8.3,2.8h1.7c1.5,2.2,4,3.6,6.8,3.6h18.2c4.6,0,8.3-3.7,8.3-8.3v-53.8C247.4,102.1,243.7,98.4,239.1,98.4z
					 M129.4,157.6h-43c-4.8,0-8.7-3.9-8.7-8.7s3.9-8.7,8.7-8.7h43c4.8,0,8.7,3.9,8.7,8.7S134.2,157.6,129.4,157.6z"/>
			</g>
			<g>
				<g>
					<path class="st1" d="M136.2,148.9c0,3.8-3,6.8-6.8,6.8h-43c-3.8,0-6.8-3-6.8-6.8s3-6.8,6.8-6.8h43
						C133.2,142.1,136.2,145.2,136.2,148.9z"/>
				</g>
			</g>
			<g>
				<path class="st1" d="M252.7,81.3v5.1c0,2.7-2.2,4.9-4.9,4.9h-47.6c-0.2,0-0.4,0-0.6-0.1c-0.2,0-0.3,0-0.4-0.1
					c-0.2,0-0.3,0-0.5-0.1s-0.5-0.2-0.7-0.3c-0.4-0.2-0.8-0.5-1.2-0.8c-0.2-0.2-0.3-0.3-0.4-0.5c-0.1-0.1-0.2-0.2-0.3-0.4
					c-0.1-0.1-0.2-0.2-0.2-0.3c-0.1-0.2-0.2-0.4-0.3-0.7h-8c-0.1,0-0.3,0-0.4,0c-0.1,0-0.1,0-0.2-0.1c0,0-0.1,0-0.2-0.1
					c-0.3-0.1-0.5-0.4-0.7-0.6c-0.1-0.2-0.2-0.3-0.3-0.5h-1.3c-0.2,0-0.3,0-0.4-0.1c-0.1,0-0.2-0.1-0.3-0.1l0,0
					c-0.1-0.1-0.2-0.3-0.3-0.4h-1c-0.3,0-0.6-0.1-0.9-0.2l-0.5-0.2c-0.2-0.1-0.3-0.2-0.4-0.3c-0.1,0-0.1,0-0.1-0.1l-0.1-0.1
					c-0.1-0.1-0.2-0.2-0.3-0.3l0,0c-0.2-0.3-0.3-0.7-0.3-1.2c0-0.8,0.4-1.5,1.2-1.9l0.5-0.3c0.3-0.1,0.6-0.2,0.9-0.2h1
					c0.2-0.4,0.6-0.7,1-0.7h1.3c0.2-0.8,0.9-1.3,1.7-1.3h8c0.1-0.2,0.2-0.5,0.3-0.7s0.2-0.3,0.3-0.5c0.2-0.2,0.4-0.4,0.6-0.7
					c0.1-0.1,0.3-0.2,0.4-0.3c0.1-0.1,0.2-0.2,0.3-0.2c0.2-0.1,0.3-0.2,0.5-0.3s0.4-0.2,0.7-0.3c0.5-0.2,1-0.2,1.5-0.2h47.6
					C250.6,76.4,252.7,78.6,252.7,81.3z"/>
				<path class="st2" d="M195.7,88.3L195.7,88.3L196,89C195.9,88.7,195.8,88.5,195.7,88.3z M186,87h-0.2l0.5,0.5
					C186.1,87.3,186,87.1,186,87z M183.6,86.3h-0.2l0.5,0.4C183.8,86.5,183.7,86.4,183.6,86.3z M180.9,87.7l-0.5-0.2L180.9,87.7
					c0.1,0,0.2,0.1,0.2,0.1S181,87.8,180.9,87.7z"/>
			</g>
		</g>
		<g>
			<path class="st1" d="M219.8,180.6v7.1c0,0.9-0.8,1.7-1.7,1.7h-169c-1,0-1.7-0.8-1.7-1.7v-7.1c0-0.9,0.8-1.7,1.7-1.7h169
				C219,179,219.8,179.7,219.8,180.6z"/>
		</g>
		<g>
			<path class="st1" d="M188,230.9v5.1c0,0.7-0.5,1.2-1.1,1.2H80.3c-0.6,0-1.1-0.5-1.1-1.2v-5.1c0-0.7,0.5-1.2,1.1-1.2h106.6
				C187.5,229.7,188,230.3,188,230.9z"/>
		</g>
	</g>
	<g>
		<path class="st0" d="M98.8,121.3h-1l-3.7-23.8c11.1-6.8,26.7-11.4,38.4-11.4c24.6,0,39.5,13.8,39.5,32.9
			c0,14.2-5.4,23.2-19.9,33.1c-8,5.7-8.8,8.8-8.8,14.4l-0.2,4.3h-27.2v-5.5c0-10.6,3.8-18.5,15.8-27.7c8.7-6.8,10.7-10.7,10.7-16.3
			c0-6.2-4.3-10.7-13.2-10.7C119.9,110.4,107.3,114.9,98.8,121.3z M113.9,197.9c0-9.2,6.9-16.1,16.6-16.1c9.5,0,16.5,6.9,16.5,16.1
			c0,8.7-6.8,16.1-16.5,16.1C120.6,214,113.9,206.5,113.9,197.9z"/>
	</g>
</g>
</svg>
