<?xml version="1.0" encoding="utf-8"?>
<!-- Generator: Adobe Illustrator 27.9.0, SVG Export Plug-In . SVG Version: 6.00 Build 0)  -->
<svg version="1.1" id="레이어_1" xmlns="http://www.w3.org/2000/svg" xmlns:xlink="http://www.w3.org/1999/xlink" x="0px"
	 y="0px" viewBox="0 0 300 300" style="enable-background:new 0 0 300 300;" xml:space="preserve">
<style type="text/css">
	.st0{fill:#F8F8F8;}
</style>
<g>
	<g>
		<g>
			<path class="st0" d="M53.9,243.2c-0.9,0-1.6-0.7-1.6-1.6v-183c0-0.9,0.7-1.6,1.6-1.6h18.3c0.9,0,1.6,0.7,1.6,1.6v183.1
				c0,0.9-0.7,1.6-1.6,1.6L53.9,243.2L53.9,243.2z"/>
			<path class="st0" d="M72.2,58.6v183.1H53.9V58.6H72.2 M72.2,55.3H53.9c-1.7,0-3.1,1.4-3.1,3.1v183.1c0,1.7,1.4,3.1,3.1,3.1h18.3
				c1.7,0,3.1-1.4,3.1-3.1v-183C75.3,56.8,73.9,55.3,72.2,55.3L72.2,55.3z"/>
		</g>
		<g>
			<path class="st0" d="M74.3,156.6c-0.1,0-0.2,0-0.3,0c-0.7-0.1-1.3-0.8-1.3-1.5V92.4c0-2.8,2.3-5.1,5.1-5.1h11.3
				c2.8,0,5.1,2.3,5.1,5.1v60.7c0,0.6-0.3,1.1-0.8,1.4c-0.2,0.1-0.5,0.2-0.7,0.2s-0.5-0.1-0.7-0.2c-0.1,0-0.2-0.1-0.3-0.1l-3.4-2.5
				c-1.4-1-3.1-1.6-4.8-1.6c-0.4,0-0.9,0-1.3,0.1c-2.2,0.4-4.1,1.5-5.4,3.3c-0.4,0.5-0.7,1.1-1,1.7
				C75.5,156.2,74.9,156.6,74.3,156.6z"/>
			<path class="st0" d="M89.1,88.9c1.9,0,3.5,1.6,3.5,3.5v60.7h-0.1l-3.4-2.5c-1.7-1.2-3.7-1.9-5.7-1.9c-0.5,0-1.1,0-1.6,0.1
				c-2.6,0.4-4.9,1.8-6.4,4c-0.5,0.6-0.8,1.3-1.1,2V92.4c0-1.9,1.6-3.5,3.5-3.5H89.1 M89.1,85.8H77.8c-3.7,0-6.6,3-6.6,6.6v62.5
				c0,1.5,1.1,2.8,2.5,3.1c0.2,0,0.4,0.1,0.6,0.1c1.2,0,2.4-0.7,2.9-1.9c0.2-0.5,0.5-1,0.8-1.4c1.1-1.5,2.6-2.4,4.4-2.7
				c0.4-0.1,0.7-0.1,1.1-0.1c1.4,0,2.8,0.4,3.9,1.3l3.4,2.4c0.1,0.1,0.3,0.2,0.5,0.3c0.4,0.2,0.9,0.4,1.4,0.4s1-0.1,1.5-0.4
				c1-0.5,1.7-1.6,1.7-2.8V92.4C95.7,88.8,92.7,85.8,89.1,85.8L89.1,85.8z"/>
		</g>
		<g>
			<path class="st0" d="M88.2,174.9c-0.3,0-0.6-0.1-0.9-0.3l-10.2-7.4c-2.3-1.7-3.8-4.1-4.3-7c-0.5-2.8,0.2-5.6,1.9-8
				c2-2.8,5.2-4.4,8.7-4.4c2.2,0,4.4,0.7,6.2,2l10.2,7.4c0.7,0.5,0.9,1.5,0.4,2.2l-10.7,14.8c-0.2,0.3-0.6,0.6-1,0.6
				C88.4,174.9,88.3,174.9,88.2,174.9z M80.7,155.4c-0.1,0-0.2,0-0.4,0c-0.2,0.1-0.4,0.2-0.6,0.3c-0.3,0.3-0.4,0.8-0.3,1.2
				c0.2,0.5,0.7,0.9,1.2,0.9c0.1,0,0.2,0,0.4,0c0.7-0.2,1.1-0.9,0.9-1.6c-0.1-0.2-0.2-0.4-0.4-0.6l0,0
				C81.3,155.6,81,155.4,80.7,155.4z"/>
			<path class="st0" d="M83.4,149.6c1.9,0,3.7,0.6,5.3,1.7l10.2,7.4l-10.7,14.8L78,166.1c-4.1-2.9-5-8.6-2.1-12.7
				C77.8,150.8,80.6,149.6,83.4,149.6 M80.7,159.6c0.3,0,0.5,0,0.8-0.1c1.5-0.4,2.4-2,1.9-3.5c-0.2-0.5-0.5-1-0.9-1.4l0,0l0,0
				c-0.5-0.4-1.2-0.7-1.8-0.7c-0.3,0-0.5,0-0.8,0.1c-0.5,0.1-0.9,0.4-1.2,0.8c-0.7,0.7-1,1.8-0.7,2.8
				C78.3,158.7,79.5,159.6,80.7,159.6 M83.4,146.4c-3.9,0-7.6,1.9-9.9,5.1c-3.9,5.5-2.7,13.1,2.8,17.1l10.2,7.4
				c0.5,0.4,1.2,0.6,1.8,0.6c0.2,0,0.3,0,0.5,0c0.8-0.1,1.6-0.6,2-1.3l10.6-14.8c1-1.4,0.7-3.4-0.7-4.4l-10.2-7.4
				C88.5,147.2,86,146.4,83.4,146.4L83.4,146.4z"/>
		</g>
		<g>
			<path class="st0" d="M80.7,160.4c-1.6,0-3.1-1.1-3.5-2.7c-0.6-2,0.6-4,2.5-4.6c0.3-0.1,0.7-0.1,1-0.1c1.6,0,3.1,1.1,3.5,2.7
				c0.3,1,0.2,1.9-0.3,2.8s-1.3,1.5-2.2,1.8C81.4,160.3,81,160.4,80.7,160.4z"/>
			<path class="st0" d="M80.7,154.7c0.9,0,1.8,0.6,2,1.5c0.3,1.1-0.3,2.3-1.4,2.6c-0.2,0.1-0.4,0.1-0.6,0.1c-0.9,0-1.8-0.6-2-1.5
				c-0.3-1.1,0.3-2.3,1.4-2.6C80.3,154.7,80.5,154.7,80.7,154.7 M80.7,151.4L80.7,151.4c-0.5,0-1,0.1-1.5,0.2
				c-1.4,0.4-2.5,1.3-3.1,2.5c-0.7,1.2-0.8,2.6-0.4,4c0.6,2.2,2.7,3.8,5.1,3.8c0.5,0,1-0.1,1.5-0.2c1.4-0.4,2.5-1.3,3.1-2.5
				c0.7-1.2,0.8-2.6,0.4-4C85.1,153.1,83,151.4,80.7,151.4L80.7,151.4z"/>
		</g>
		<g>
			<path class="st0" d="M143.3,212.7c-2.2,0-4.4-0.7-6.2-2l-9.9-7.2c-0.7-0.5-0.9-1.5-0.4-2.2l10.6-14.8c0.2-0.3,0.6-0.6,1-0.6
				c0.1,0,0.2,0,0.2,0c0.3,0,0.6,0.1,0.9,0.3l9.9,7.2c2.3,1.7,3.8,4.1,4.3,6.9s-0.2,5.6-1.9,8C149.9,211.1,146.7,212.7,143.3,212.7
				L143.3,212.7z M146.1,202.7c-0.1,0-0.2,0-0.4,0c-0.3,0.1-0.6,0.3-0.8,0.6c-0.2,0.3-0.2,0.6-0.1,1c0.2,0.5,0.7,0.9,1.2,0.9
				c0.1,0,0.2,0,0.4,0c0.3-0.1,0.6-0.3,0.8-0.6s0.2-0.6,0.1-1C147.1,203.1,146.6,202.7,146.1,202.7z"/>
			<path class="st0" d="M138.8,187.4l9.9,7.2c4.1,2.9,5,8.6,2.1,12.7c-1.8,2.5-4.6,3.8-7.4,3.8c-1.8,0-3.7-0.6-5.3-1.7l-9.9-7.2
				L138.8,187.4 M146.1,206.7c0.3,0,0.5,0,0.8-0.1c1.5-0.4,2.4-2,1.9-3.5c-0.4-1.2-1.5-2-2.7-2c-0.3,0-0.5,0-0.8,0.1
				c-1.5,0.4-2.4,2-1.9,3.5C143.7,205.9,144.8,206.7,146.1,206.7 M138.8,184.2c-0.2,0-0.3,0-0.5,0c-0.8,0.1-1.6,0.6-2.1,1.3
				l-10.6,14.8c-1,1.4-0.7,3.4,0.7,4.4l9.9,7.2c2.1,1.5,4.6,2.3,7.2,2.3c3.9,0,7.6-1.9,9.9-5.1c4-5.5,2.7-13.1-2.8-17.1l-9.9-7.2
				C140.1,184.4,139.4,184.2,138.8,184.2L138.8,184.2z"/>
		</g>
		<g>
			<path class="st0" d="M146.1,207.7c-1.6,0-3.1-1.1-3.5-2.7c-0.1-0.4-0.1-0.7-0.1-1c0-1.6,1.1-3.1,2.6-3.5c0.3-0.1,0.7-0.1,1-0.1
				c1.6,0,3.1,1.1,3.5,2.7c0.1,0.5,0.2,1,0.1,1.6c0,0.2-0.1,0.4-0.1,0.6c0,0,0,0,0,0.1c-0.1,0.2-0.1,0.4-0.2,0.5
				c-0.1,0.1-0.2,0.3-0.3,0.5c-0.1,0.1-0.2,0.2-0.3,0.4c-0.2,0.2-0.3,0.3-0.5,0.4l0,0c-0.2,0.1-0.3,0.2-0.5,0.3l0,0l0,0
				c-0.2,0.1-0.3,0.1-0.5,0.2C146.8,207.6,146.4,207.7,146.1,207.7z"/>
			<path class="st0" d="M146.1,201.7c0.9,0,1.8,0.6,2,1.5c0.1,0.3,0.1,0.6,0.1,0.9c0,0.1,0,0.2-0.1,0.3c0,0,0,0,0,0.1
				s-0.1,0.2-0.1,0.3c-0.1,0.1-0.1,0.2-0.2,0.3c-0.1,0.1-0.1,0.2-0.2,0.3c-0.1,0.1-0.2,0.1-0.2,0.2l0,0c-0.1,0.1-0.2,0.1-0.3,0.1
				l0,0c-0.1,0-0.2,0.1-0.3,0.1c-0.2,0.1-0.4,0.1-0.6,0.1c-0.9,0-1.8-0.6-2-1.5c-0.1-0.2-0.1-0.4-0.1-0.6c0-0.9,0.6-1.8,1.5-2
				C145.7,201.8,145.9,201.7,146.1,201.7 M146.1,198.7L146.1,198.7c-0.5,0-1,0.1-1.5,0.2c-2.3,0.7-3.8,2.7-3.8,5
				c0,0.5,0.1,1,0.2,1.4l0,0c0.6,2.2,2.7,3.8,5,3.8c0.5,0,1-0.1,1.5-0.2h0.1c0.2,0,0.4-0.1,0.7-0.3c0.3-0.1,0.5-0.3,0.7-0.4l0,0
				c0.2-0.2,0.5-0.4,0.7-0.6l0.1-0.1c0.1-0.1,0.3-0.3,0.4-0.5c0.2-0.2,0.3-0.5,0.4-0.7s0.2-0.4,0.3-0.6v-0.1
				c0.1-0.3,0.2-0.6,0.2-0.9c0.1-0.7,0-1.5-0.2-2.2C150.5,200.2,148.4,198.7,146.1,198.7L146.1,198.7z"/>
		</g>
		<g>
			<path class="st0" d="M127.2,202.8c-0.6,0-1.1-0.2-1.6-0.5c-1.2-0.9-1.5-2.5-0.6-3.7l9.3-13c0.5-0.7,1.3-1.1,2.2-1.1
				c0.6,0,1.1,0.2,1.6,0.5c0.6,0.4,1,1,1.1,1.7s-0.1,1.4-0.5,2l-9.3,13C128.8,202.4,128,202.8,127.2,202.8z"/>
			<path class="st0" d="M136.5,186.1c0.2,0,0.4,0.1,0.6,0.2c0.5,0.4,0.6,1,0.2,1.5l-9.3,13c-0.2,0.3-0.6,0.5-0.9,0.5
				c-0.2,0-0.4-0.1-0.6-0.2c-0.5-0.4-0.6-1-0.2-1.5l9.3-13C135.8,186.2,136.1,186.1,136.5,186.1 M136.5,182.9L136.5,182.9
				c-1.4,0-2.6,0.7-3.4,1.8l-9.3,13c-0.7,0.9-0.9,2-0.7,3.2s0.8,2.1,1.7,2.8c0.7,0.5,1.6,0.8,2.5,0.8c1.4,0,2.6-0.7,3.4-1.8l9.3-13
				c0.7-0.9,0.9-2,0.7-3.2s-0.8-2.1-1.7-2.8C138.2,183.2,137.4,182.9,136.5,182.9L136.5,182.9z"/>
		</g>
		<g>
			<path class="st0" d="M126.9,198.9c-0.2,0-0.5-0.1-0.7-0.2c-0.7-0.4-1-1.1-0.8-1.9l1.4-4.4c0.1-0.1,0.1-0.3,0.2-0.4l4.3-6
				c0.3-0.4,0.8-0.6,1.3-0.6c0.2,0,0.5,0,0.7,0.2c0.7,0.4,1,1.1,0.8,1.9l-1.4,4.4c-0.1,0.1-0.1,0.3-0.2,0.4l-4.3,6
				C127.9,198.7,127.4,198.9,126.9,198.9z"/>
			<path class="st0" d="M132.7,186.9l-1.4,4.4l-4.3,6l1.4-4.4L132.7,186.9 M132.7,183.8c-1,0-1.9,0.5-2.6,1.3l-4.3,6
				c-0.2,0.3-0.3,0.5-0.4,0.9l-1.4,4.4c-0.5,1.5,0.2,3.1,1.6,3.8c0.4,0.2,0.9,0.3,1.4,0.3c1,0,1.9-0.5,2.6-1.3l4.3-6
				c0.2-0.3,0.3-0.5,0.4-0.9l1.4-4.4c0.5-1.5-0.2-3.1-1.6-3.8C133.6,183.9,133.1,183.8,132.7,183.8L132.7,183.8z M132.7,190.2
				L132.7,190.2L132.7,190.2L132.7,190.2z"/>
		</g>
		<g>
			<path class="st0" d="M123.1,199.8c-0.6,0-1.1-0.2-1.6-0.5c-0.6-0.4-1-1-1.1-1.7s0.1-1.4,0.5-2l9.3-13c0.5-0.7,1.3-1.1,2.2-1.1
				c0.6,0,1.1,0.2,1.6,0.5c0.6,0.4,1,1,1.1,1.7s-0.1,1.4-0.5,2l-9.3,13C124.8,199.4,123.9,199.8,123.1,199.8z"/>
			<path class="st0" d="M132.4,183.2c0.2,0,0.4,0.1,0.6,0.2c0.5,0.4,0.6,1,0.2,1.5l-9.3,13c-0.2,0.3-0.6,0.5-0.9,0.5
				c-0.2,0-0.4-0.1-0.6-0.2c-0.5-0.4-0.6-1-0.2-1.5l9.3-13C131.7,183.2,132.1,183.2,132.4,183.2 M132.4,179.9L132.4,179.9
				c-1.4,0-2.6,0.7-3.4,1.8l-9.3,13c-0.7,0.9-0.9,2-0.7,3.2s0.8,2.1,1.7,2.8c0.7,0.5,1.6,0.8,2.5,0.8c1.4,0,2.6-0.7,3.4-1.8l9.3-13
				c0.7-0.9,0.9-2,0.7-3.2s-0.8-2.1-1.7-2.8C134.1,180.2,133.3,179.9,132.4,179.9L132.4,179.9z"/>
		</g>
		<g>
			<path class="st0" d="M122.8,196.1c-0.2,0-0.5,0-0.7-0.2c-0.7-0.4-1-1.1-0.8-1.9l1.4-4.4c0.1-0.1,0.1-0.3,0.2-0.4l4.3-6
				c0.3-0.4,0.8-0.6,1.3-0.6c0.2,0,0.5,0,0.7,0.2c0.7,0.4,1,1.1,0.8,1.9l-1.4,4.4c-0.1,0.1-0.1,0.3-0.2,0.4l-4.3,6
				C123.8,195.7,123.3,196.1,122.8,196.1z"/>
			<path class="st0" d="M128.6,184.1l-1.4,4.4l-4.3,6l1.4-4.4L128.6,184.1 M128.6,180.9c-1,0-1.9,0.5-2.6,1.3l-4.3,6
				c-0.2,0.3-0.3,0.5-0.4,0.9l-1.4,4.4c-0.5,1.5,0.2,3.1,1.6,3.8c0.4,0.2,0.9,0.3,1.4,0.3c1,0,1.9-0.5,2.6-1.3l4.3-6
				c0.2-0.3,0.3-0.5,0.4-0.9l1.4-4.4c0.5-1.5-0.2-3.1-1.6-3.8C129.5,181.1,129,180.9,128.6,180.9L128.6,180.9z M128.6,187.2
				L128.6,187.2L128.6,187.2L128.6,187.2z"/>
		</g>
		<g>
			<path class="st0" d="M119,196.9c-0.6,0-1.1-0.2-1.6-0.5c-1.2-0.9-1.5-2.5-0.6-3.7l9.3-13c0.5-0.7,1.3-1.1,2.2-1.1
				c0.6,0,1.1,0.2,1.6,0.5c0.6,0.4,1,1,1.1,1.7s-0.1,1.4-0.5,2l-9.3,13C120.7,196.6,119.9,196.9,119,196.9z"/>
			<path class="st0" d="M128.3,180.2c0.2,0,0.4,0.1,0.6,0.2c0.5,0.4,0.6,1,0.2,1.5l-9.3,13c-0.2,0.3-0.6,0.5-0.9,0.5
				c-0.2,0-0.4-0.1-0.6-0.2c-0.5-0.4-0.6-1-0.2-1.5l9.3-13C127.7,180.3,128,180.2,128.3,180.2 M128.3,177.1L128.3,177.1
				c-1.4,0-2.6,0.7-3.4,1.8l-9.3,13c-1.4,1.9-0.9,4.5,1,5.9c0.7,0.5,1.6,0.8,2.5,0.8c1.4,0,2.6-0.7,3.4-1.8l9.3-13
				c1.4-1.9,0.9-4.5-1-5.9C130.1,177.3,129.2,177.1,128.3,177.1L128.3,177.1z"/>
		</g>
		<g>
			<path class="st0" d="M118.7,193.1c-0.2,0-0.5-0.1-0.7-0.2c-0.7-0.4-1-1.1-0.8-1.9l1.5-4.4c0.1-0.1,0.1-0.3,0.2-0.4l4.3-6
				c0.3-0.4,0.8-0.6,1.3-0.6c0.2,0,0.5,0,0.7,0.2c0.7,0.4,1,1.1,0.8,1.9l-1.5,4.4c-0.1,0.1-0.1,0.3-0.2,0.4l-4.3,6
				C119.7,192.8,119.2,193.1,118.7,193.1z"/>
			<path class="st0" d="M124.5,181.1l-1.5,4.4l-4.3,6l1.5-4.4L124.5,181.1 M124.5,177.9c-1,0-1.9,0.5-2.6,1.3l-4.3,6
				c-0.2,0.3-0.3,0.5-0.4,0.9l-1.5,4.4c-0.5,1.5,0.2,3.1,1.6,3.8c0.4,0.2,0.9,0.3,1.4,0.3c1,0,1.9-0.5,2.6-1.3l4.3-6
				c0.2-0.3,0.3-0.5,0.4-0.9l1.5-4.4c0.5-1.5-0.2-3.1-1.6-3.8C125.5,178.1,125,177.9,124.5,177.9L124.5,177.9z M124.5,184.2
				L124.5,184.2L124.5,184.2L124.5,184.2z"/>
		</g>
		<g>
			<path class="st0" d="M114.9,193.9c-0.6,0-1.1-0.2-1.6-0.5c-0.6-0.4-1-1-1.1-1.7s0.1-1.4,0.5-2l9.3-13c0.5-0.7,1.3-1.1,2.2-1.1
				c0.6,0,1.1,0.2,1.6,0.5c1.2,0.9,1.5,2.5,0.6,3.7l-9.3,13C116.6,193.6,115.8,193.9,114.9,193.9z"/>
			<path class="st0" d="M124.3,177.2c0.2,0,0.4,0.1,0.6,0.2c0.5,0.4,0.6,1,0.2,1.5l-9.3,13c-0.2,0.3-0.6,0.5-0.9,0.5
				c-0.2,0-0.4-0.1-0.6-0.2c-0.5-0.4-0.6-1-0.2-1.5l9.3-13C123.6,177.3,123.9,177.2,124.3,177.2 M124.3,174.1L124.3,174.1
				c-1.4,0-2.6,0.7-3.4,1.8l-9.3,13c-0.7,0.9-0.9,2-0.7,3.2s0.8,2.1,1.7,2.8c0.7,0.5,1.6,0.8,2.5,0.8c1.4,0,2.6-0.7,3.4-1.8l9.3-13
				c0.7-0.9,0.9-2,0.7-3.2s-0.8-2.1-1.7-2.8C126,174.3,125.1,174.1,124.3,174.1L124.3,174.1z"/>
		</g>
		<g>
			<path class="st0" d="M114.7,190.2c-0.2,0-0.5-0.1-0.7-0.2c-0.7-0.4-1-1.1-0.8-1.9l1.4-4.4c0.1-0.1,0.1-0.3,0.2-0.4l4.3-6
				c0.3-0.4,0.8-0.6,1.3-0.6c0.2,0,0.5,0.1,0.7,0.2c0.7,0.4,1,1.1,0.8,1.9l-1.4,4.4c-0.1,0.1-0.1,0.3-0.2,0.4l-4.3,6
				C115.6,189.8,115.1,190.2,114.7,190.2z"/>
			<path class="st0" d="M120.4,178.2l-1.4,4.4l-4.3,6l1.4-4.4L120.4,178.2 M120.4,175.1c-1,0-1.9,0.5-2.6,1.3l-4.3,6
				c-0.2,0.3-0.3,0.5-0.4,0.9l-1.4,4.4c-0.5,1.5,0.2,3.1,1.6,3.8c0.4,0.2,0.9,0.3,1.4,0.3c1,0,1.9-0.5,2.6-1.3l4.3-6
				c0.2-0.3,0.3-0.5,0.4-0.9l1.4-4.4c0.5-1.5-0.2-3.1-1.6-3.8C121.4,175.2,120.9,175.1,120.4,175.1L120.4,175.1z M120.4,181.2
				L120.4,181.2L120.4,181.2L120.4,181.2z"/>
		</g>
		<g>
			<path class="st0" d="M110.8,191.1c-0.6,0-1.1-0.2-1.6-0.5c-1.2-0.9-1.5-2.5-0.6-3.7l9.3-13c0.5-0.7,1.3-1.1,2.2-1.1
				c0.6,0,1.1,0.2,1.6,0.5c1.2,0.9,1.5,2.5,0.6,3.7l-9.3,13C112.5,190.7,111.7,191.1,110.8,191.1z"/>
			<path class="st0" d="M120.2,174.2c0.2,0,0.4,0.1,0.6,0.2c0.5,0.4,0.6,1,0.2,1.5l-9.3,13c-0.2,0.3-0.6,0.5-0.9,0.5
				c-0.2,0-0.4-0.1-0.6-0.2c-0.5-0.4-0.6-1-0.2-1.5l9.3-13C119.5,174.4,119.8,174.2,120.2,174.2 M120.2,171.2L120.2,171.2
				c-1.4,0-2.6,0.7-3.4,1.8l-9.3,13c-0.7,0.9-0.9,2-0.7,3.2s0.8,2.1,1.7,2.8c0.7,0.5,1.6,0.8,2.5,0.8c1.4,0,2.6-0.7,3.4-1.8l9.3-13
				c0.7-0.9,0.9-2,0.7-3.2s-0.8-2.1-1.7-2.8C121.9,171.4,121.1,171.2,120.2,171.2L120.2,171.2z"/>
		</g>
		<g>
			<path class="st0" d="M110.6,187.2c-0.2,0-0.5,0-0.7-0.2c-0.7-0.4-1-1.1-0.8-1.9l1.5-4.4c0.1-0.1,0.1-0.3,0.2-0.4l4.3-6
				c0.3-0.4,0.8-0.6,1.3-0.6c0.2,0,0.5,0,0.7,0.2c0.7,0.4,1,1.1,0.8,1.9l-1.5,4.4c-0.1,0.1-0.1,0.3-0.2,0.4l-4.3,6
				C111.5,186.9,111.1,187.2,110.6,187.2z"/>
			<path class="st0" d="M116.3,175.2l-1.5,4.4l-4.3,6l1.5-4.4L116.3,175.2 M116.3,172.1c-1,0-1.9,0.5-2.6,1.3l-4.3,6
				c-0.2,0.3-0.3,0.5-0.4,0.9l-1.5,4.4c-0.5,1.5,0.2,3.1,1.6,3.8c0.4,0.2,0.9,0.3,1.4,0.3c1,0,1.9-0.5,2.6-1.3l4.3-6
				c0.2-0.3,0.3-0.5,0.4-0.9l1.5-4.4c0.5-1.5-0.2-3.1-1.6-3.8C117.3,172.2,116.8,172.1,116.3,172.1L116.3,172.1z M116.3,178.3
				L116.3,178.3L116.3,178.3L116.3,178.3z"/>
		</g>
		<g>
			<path class="st0" d="M106.8,188.1c-0.6,0-1.1-0.2-1.6-0.5c-1.2-0.9-1.5-2.5-0.6-3.7l9.3-13c0.5-0.7,1.3-1.1,2.2-1.1
				c0.6,0,1.1,0.2,1.6,0.5c0.6,0.4,1,1,1.1,1.7s-0.1,1.4-0.5,2l-9.3,13C108.4,187.7,107.6,188.1,106.8,188.1z"/>
			<path class="st0" d="M116.1,171.3c0.2,0,0.4,0.1,0.6,0.2c0.5,0.4,0.6,1,0.2,1.5l-9.3,13c-0.2,0.3-0.6,0.5-0.9,0.5
				c-0.2,0-0.4-0.1-0.6-0.2c-0.5-0.4-0.6-1-0.2-1.5l9.3-13C115.4,171.4,115.7,171.3,116.1,171.3 M116.1,168.2L116.1,168.2
				c-1.4,0-2.6,0.7-3.4,1.8l-9.3,13c-1.4,1.9-0.9,4.5,1,5.9c0.7,0.5,1.6,0.8,2.5,0.8c1.4,0,2.6-0.7,3.4-1.8l9.3-13
				c1.4-1.9,0.9-4.5-1-5.9C117.8,168.4,117,168.2,116.1,168.2L116.1,168.2z"/>
		</g>
		<g>
			<path class="st0" d="M106.5,184.2c-0.2,0-0.5,0-0.7-0.2c-0.7-0.4-1-1.1-0.8-1.9l1.5-4.4c0.1-0.1,0.1-0.3,0.2-0.4l4.3-6
				c0.3-0.4,0.8-0.6,1.3-0.6c0.2,0,0.5,0,0.7,0.2c0.7,0.4,1,1.1,0.8,1.9l-1.5,4.4c-0.1,0.1-0.1,0.3-0.2,0.4l-4.3,6
				C107.5,183.9,107,184.2,106.5,184.2z"/>
			<path class="st0" d="M112.3,172.2l-1.5,4.4l-4.3,6l1.5-4.4L112.3,172.2 M112.3,169.1c-1,0-1.9,0.5-2.6,1.3l-4.3,6
				c-0.2,0.3-0.3,0.5-0.4,0.9l-1.5,4.4c-0.5,1.5,0.2,3.1,1.6,3.8c0.4,0.2,0.9,0.3,1.4,0.3c1,0,1.9-0.5,2.6-1.3l4.3-6
				c0.2-0.3,0.3-0.5,0.4-0.9l1.5-4.4c0.5-1.5-0.2-3.1-1.6-3.8C113.2,169.2,112.7,169.1,112.3,169.1L112.3,169.1z M112.3,175.3
				L112.3,175.3L112.3,175.3L112.3,175.3z"/>
		</g>
		<g>
			<path class="st0" d="M102.7,185.2c-0.6,0-1.1-0.2-1.6-0.5c-1.2-0.9-1.5-2.5-0.6-3.7l9.3-13c0.5-0.7,1.3-1.1,2.2-1.1
				c0.6,0,1.1,0.2,1.6,0.5c0.6,0.4,1,1,1.1,1.7s-0.1,1.4-0.5,2l-9.3,13C104.3,184.7,103.5,185.2,102.7,185.2z"/>
			<path class="st0" d="M112,168.3c0.2,0,0.4,0.1,0.6,0.2c0.5,0.4,0.6,1,0.2,1.5l-9.3,13c-0.2,0.3-0.6,0.5-0.9,0.5
				c-0.2,0-0.4-0.1-0.6-0.2c-0.5-0.4-0.6-1-0.2-1.5l9.3-13C111.3,168.6,111.7,168.3,112,168.3 M112,165.2L112,165.2
				c-1.4,0-2.6,0.7-3.4,1.8l-9.3,13c-0.7,0.9-0.9,2-0.7,3.2s0.8,2.1,1.7,2.8c0.7,0.5,1.6,0.8,2.5,0.8c1.4,0,2.6-0.7,3.4-1.8l9.3-13
				c0.7-0.9,0.9-2,0.7-3.2s-0.8-2.1-1.7-2.8C113.7,165.4,112.9,165.2,112,165.2L112,165.2z"/>
		</g>
		<g>
			<path class="st0" d="M102.4,181.2c-0.2,0-0.5,0-0.7-0.2c-0.7-0.4-1-1.1-0.8-1.9l1.5-4.4c0.1-0.1,0.1-0.3,0.2-0.4l4.3-6
				c0.3-0.4,0.8-0.6,1.3-0.6c0.2,0,0.5,0,0.7,0.2c0.7,0.4,1,1.1,0.8,1.9l-1.5,4.4c-0.1,0.1-0.1,0.3-0.2,0.4l-4.3,6
				C103.4,181.1,102.9,181.2,102.4,181.2z"/>
			<path class="st0" d="M108.2,169.2l-1.5,4.4l-4.3,6l1.5-4.4L108.2,169.2 M108.2,166.2c-1,0-1.9,0.5-2.6,1.3l-4.3,6
				c-0.2,0.3-0.3,0.5-0.4,0.9l-1.5,4.4c-0.5,1.5,0.2,3.1,1.6,3.8c0.4,0.2,0.9,0.3,1.4,0.3c1,0,1.9-0.5,2.6-1.3l4.3-6
				c0.2-0.3,0.3-0.5,0.4-0.9l1.5-4.4c0.5-1.5-0.2-3.1-1.6-3.8C109.1,166.2,108.6,166.2,108.2,166.2L108.2,166.2z M108.2,172.4
				L108.2,172.4L108.2,172.4L108.2,172.4z"/>
		</g>
		<g>
			<path class="st0" d="M98.6,182.2c-0.6,0-1.1-0.2-1.6-0.5c-1.2-0.9-1.5-2.5-0.6-3.7l9.3-13c0.5-0.7,1.3-1.1,2.2-1.1
				c0.6,0,1.1,0.2,1.6,0.5c0.6,0.4,1,1,1.1,1.7s-0.1,1.4-0.5,2l-9.3,13C100.3,181.7,99.4,182.2,98.6,182.2z"/>
			<path class="st0" d="M107.9,165.4c0.2,0,0.4,0.1,0.6,0.2c0.5,0.4,0.6,1,0.2,1.5l-9.3,13c-0.2,0.3-0.6,0.5-0.9,0.5
				c-0.2,0-0.4-0.1-0.6-0.2c-0.5-0.4-0.6-1-0.2-1.5l9.3-13C107.2,165.6,107.6,165.4,107.9,165.4 M107.9,162.2L107.9,162.2
				c-1.4,0-2.6,0.7-3.4,1.8l-9.3,13c-1.4,1.9-0.9,4.5,1,5.9c0.7,0.5,1.6,0.8,2.5,0.8c1.4,0,2.6-0.7,3.4-1.8l9.3-13
				c0.7-0.9,0.9-2,0.7-3.2s-0.8-2.1-1.7-2.8C109.7,162.6,108.8,162.2,107.9,162.2L107.9,162.2z"/>
		</g>
		<g>
			<path class="st0" d="M98.3,178.3c-0.2,0-0.5,0-0.7-0.2c-0.7-0.4-1-1.1-0.8-1.9l1.4-4.4c0.1-0.1,0.1-0.3,0.2-0.4l4.3-6
				c0.3-0.4,0.8-0.6,1.3-0.6c0.2,0,0.5,0,0.7,0.2c0.7,0.4,1,1.1,0.8,1.9l-1.4,4.4c-0.1,0.1-0.1,0.3-0.2,0.4l-4.3,6
				C99.3,178.1,98.8,178.3,98.3,178.3z"/>
			<path class="st0" d="M104.1,166.3l-1.4,4.4l-4.3,6l1.4-4.4L104.1,166.3 M104.1,163.2c-1,0-1.9,0.5-2.6,1.3l-4.3,6
				c-0.2,0.3-0.3,0.5-0.4,0.9l-1.4,4.4c-0.5,1.5,0.2,3.1,1.6,3.8c0.4,0.2,0.9,0.3,1.4,0.3c1,0,1.9-0.5,2.6-1.3l4.3-6
				c0.2-0.3,0.3-0.5,0.4-0.9l1.4-4.4c0.5-1.5-0.2-3.1-1.6-3.8C105,163.3,104.5,163.2,104.1,163.2L104.1,163.2z M104.1,169.4
				L104.1,169.4L104.1,169.4L104.1,169.4z"/>
		</g>
		<g>
			<path class="st0" d="M94.5,179.2c-0.6,0-1.1-0.2-1.6-0.5c-1.2-0.9-1.5-2.5-0.6-3.7l9.3-13c0.5-0.7,1.3-1.1,2.2-1.1
				c0.6,0,1.1,0.2,1.6,0.5c1.2,0.9,1.5,2.5,0.6,3.7l-9.3,13C96.2,178.8,95.4,179.2,94.5,179.2z"/>
			<path class="st0" d="M103.8,162.4c0.2,0,0.4,0.1,0.6,0.2c0.5,0.4,0.6,1,0.2,1.5l-9.3,13c-0.2,0.3-0.6,0.5-0.9,0.5
				c-0.2,0-0.4-0.1-0.6-0.2c-0.5-0.4-0.6-1-0.2-1.5l9.3-13C103.1,162.6,103.5,162.4,103.8,162.4 M103.8,159.3L103.8,159.3
				c-1.4,0-2.6,0.7-3.4,1.8l-9.3,13c-1.4,1.9-0.9,4.5,1,5.9c0.7,0.5,1.6,0.8,2.5,0.8c1.4,0,2.6-0.7,3.4-1.8l9.3-13
				c0.7-0.9,0.9-2,0.7-3.2s-0.8-2.1-1.7-2.8C105.6,159.6,104.7,159.3,103.8,159.3L103.8,159.3z"/>
		</g>
		<g>
			<path class="st0" d="M94.2,175.3c-0.2,0-0.5,0-0.7-0.2c-0.7-0.4-1-1.1-0.8-1.9l1.4-4.4c0.1-0.1,0.1-0.3,0.2-0.4l4.3-6
				c0.3-0.4,0.8-0.6,1.3-0.6c0.2,0,0.5,0,0.7,0.2c0.7,0.4,1,1.1,0.8,1.9l-1.4,4.4c-0.1,0.1-0.1,0.3-0.2,0.4l-4.3,6
				C95.2,175.2,94.7,175.3,94.2,175.3z"/>
			<path class="st0" d="M100,163.4l-1.4,4.4l-4.3,6l1.4-4.4L100,163.4 M100,160.3c-1,0-1.9,0.5-2.6,1.3l-4.3,6
				c-0.2,0.3-0.3,0.5-0.4,0.9l-1.4,4.4c-0.5,1.5,0.2,3.1,1.6,3.8c0.4,0.2,0.9,0.3,1.4,0.3c1,0,1.9-0.5,2.6-1.3l4.3-6
				c0.2-0.3,0.3-0.5,0.4-0.9l1.4-4.4c0.5-1.5-0.2-3.1-1.6-3.8C100.9,160.4,100.5,160.3,100,160.3L100,160.3z M100,166.6L100,166.6
				L100,166.6L100,166.6z"/>
		</g>
		<g>
			<path class="st0" d="M90.4,176.2c-0.6,0-1.1-0.2-1.6-0.5c-0.6-0.4-1-1-1.1-1.7s0.1-1.4,0.5-2l9.3-13c0.5-0.7,1.3-1.1,2.2-1.1
				c0.6,0,1.1,0.2,1.6,0.5c0.6,0.4,1,1,1.1,1.7s-0.1,1.4-0.5,2l-9.3,13C92.1,175.8,91.3,176.2,90.4,176.2z"/>
			<path class="st0" d="M99.7,159.6c0.2,0,0.4,0.1,0.6,0.2c0.5,0.4,0.6,1,0.2,1.5l-9.3,13c-0.2,0.3-0.6,0.5-0.9,0.5
				c-0.2,0-0.4-0.1-0.6-0.2c-0.5-0.4-0.6-1-0.2-1.5l9.3-13C99.1,159.7,99.4,159.6,99.7,159.6 M99.7,156.3L99.7,156.3
				c-1.4,0-2.6,0.7-3.4,1.8l-9.3,13c-0.7,0.9-0.9,2-0.7,3.2s0.8,2.1,1.7,2.8c0.7,0.5,1.6,0.8,2.5,0.8c1.4,0,2.6-0.7,3.4-1.8l9.3-13
				c1.4-1.9,0.9-4.5-1-5.9C101.5,156.7,100.6,156.3,99.7,156.3L99.7,156.3z"/>
		</g>
		<g>
			<path class="st0" d="M146.9,212.7c-0.8,0-1.4-0.5-1.5-1.3s0.3-1.5,1-1.8c1.4-0.6,2.7-1.5,3.6-2.8c1-1.4,1.5-3.1,1.5-4.8
				c0-2.6-1.3-5.1-3.4-6.7l-1.7-1.2c-0.6-0.4-0.8-1.1-0.6-1.8c0.2-0.6,0.8-1.1,1.5-1.1h63.3c2.8,0,5.1,2.3,5.1,5.1v11.3
				c0,2.8-2.3,5.1-5.1,5.1L146.9,212.7L146.9,212.7z"/>
			<path class="st0" d="M210.7,192.8c1.9,0,3.5,1.6,3.5,3.5v11.3c0,1.9-1.6,3.5-3.5,3.5h-63.8c1.7-0.7,3.2-1.8,4.3-3.4
				c1.2-1.7,1.9-3.7,1.9-5.7c0-3.1-1.5-6.1-4.1-8l-1.7-1.2L210.7,192.8 M210.7,189.7h-63.3c-1.4,0-2.6,0.9-3,2.2s0,2.7,1.1,3.5
				l1.7,1.2c1.7,1.3,2.8,3.3,2.8,5.4c0,1.4-0.4,2.8-1.3,3.9c-0.8,1-1.8,1.8-2.9,2.3c-1.4,0.5-2.2,2-1.9,3.5s1.6,2.5,3.1,2.5h63.7
				c3.7,0,6.6-3,6.6-6.6v-11.3C217.3,192.7,214.3,189.7,210.7,189.7L210.7,189.7z"/>
		</g>
		<g>
			<path class="st0" d="M144.7,113.2c-0.9,0-1.6-0.7-1.6-1.6V97.3c0-2.6,2.1-4.8,4.8-4.8h65.4c2.6,0,4.7,2.1,4.7,4.8v3.4
				c0,0.7-0.5,1.4-1.2,1.5c-0.5,0.1-1,0.5-1.3,0.9c-0.3,0.5-0.8,0.7-1.3,0.7h-3.8c-0.1,0-0.2,0.1-0.3,0.2c-0.3,0.4-0.7,0.6-1.2,0.6
				h-0.1c-0.3,0.2-0.7,0.4-1,0.4c-0.1,0-0.2,0-0.3,0l-0.4,0.2c-0.1,0.1-0.2,0.2-0.3,0.3c-0.3,0.5-0.8,0.8-1.4,0.8h-15.1
				c-1.5,0-2.8,1.3-2.8,2.8v2.4c0,0.9-0.7,1.6-1.6,1.6L144.7,113.2L144.7,113.2z"/>
			<path class="st0" d="M213.2,94.2c1.8,0,3.2,1.4,3.2,3.2v3.4c-1,0.2-1.8,0.8-2.3,1.6h-3.8c-0.6,0-1.2,0.3-1.5,0.7h-0.1
				c-0.4,0-0.7,0.1-1,0.4l0,0c-0.3,0-0.7,0.1-1,0.2l-0.3,0.1c-0.5,0.2-0.8,0.6-1,1h-15.1c-2.4,0-4.4,2-4.4,4.4v2.4h-41.1V97.4
				c0-1.8,1.4-3.2,3.2-3.2H213.2 M213.2,91.1h-65.4c-3.5,0-6.3,2.8-6.3,6.3v14.2c0,1.7,1.4,3.1,3.1,3.1h41.1c1.7,0,3.1-1.4,3.1-3.1
				v-2.4c0-0.7,0.6-1.2,1.2-1.2h15.1c1,0,2-0.5,2.6-1.3c0.4,0,0.9-0.2,1.2-0.4c0.6-0.1,1.2-0.3,1.7-0.7h3.3c1.1,0,2.1-0.5,2.6-1.4
				c0.1-0.1,0.2-0.2,0.3-0.2c1.4-0.3,2.5-1.6,2.5-3.1v-3.4C219.5,93.8,216.7,91.1,213.2,91.1L213.2,91.1z"/>
		</g>
		<g>
			<path class="st0" d="M202.6,122.7c-0.8,0-1.5-0.7-1.6-1.5c0-0.5-0.1-1-0.2-1.5s0-0.9,0.3-1.3s0.7-0.6,1.2-0.6h12.4
				c0.7,0,1.3,0.4,1.5,1s0,1.3-0.5,1.7l-2.1,1.7c-0.3,0.2-0.6,0.3-1,0.3L202.6,122.7L202.6,122.7z"/>
			<path class="st0" d="M214.8,119.4l-2.1,1.7h-10.1c0-0.6-0.1-1.1-0.2-1.7H214.8 M214.8,116.3h-12.4c-0.9,0-1.8,0.4-2.4,1.1
				s-0.8,1.7-0.7,2.6c0.1,0.4,0.1,0.8,0.1,1.2c0.1,1.7,1.5,3,3.1,3h10.1c0.7,0,1.4-0.2,2-0.7l2.1-1.7c1-0.8,1.4-2.2,1-3.5
				C217.3,117.2,216.1,116.3,214.8,116.3L214.8,116.3z M214.8,122.6L214.8,122.6L214.8,122.6L214.8,122.6z"/>
		</g>
		<g>
			<path class="st0" d="M144.7,158.7c-0.9,0-1.6-0.7-1.6-1.6v-2.4c0-0.9,0.7-1.6,1.6-1.6h48c4.5,0,8.2-3.5,8.4-8.1
				c0-0.8,0.7-1.5,1.6-1.5h10.2c0.4,0,0.7,0.1,1,0.3l3.6,2.9c0.4,0.3,0.6,0.8,0.6,1.2v9.1c0,0.9-0.7,1.6-1.6,1.6L144.7,158.7
				L144.7,158.7z"/>
			<path class="st0" d="M212.8,145.2l3.6,2.9v9.1h-71.7v-2.4h48c5.4,0,9.7-4.3,9.9-9.6H212.8 M212.8,142.1h-10.2
				c-1.7,0-3.1,1.3-3.1,3c-0.1,3.6-3.2,6.6-6.8,6.6h-48c-1.7,0-3.1,1.4-3.1,3.1v2.4c0,1.7,1.4,3.1,3.1,3.1h71.7
				c1.7,0,3.1-1.4,3.1-3.1v-9.1c0-1-0.4-1.9-1.2-2.5l-3.6-2.9C214.2,142.2,213.5,142.1,212.8,142.1L212.8,142.1z"/>
		</g>
		<g>
			<path class="st0" d="M147.8,185.4c-2.6,0-4.8-2.1-4.8-4.8v-15.8c0-0.9,0.7-1.6,1.6-1.6h71.7c0.9,0,1.6,0.7,1.6,1.6v15.8
				c0,2.6-2.1,4.8-4.7,4.8H147.8z"/>
			<path class="st0" d="M216.4,164.9v15.8c0,1.8-1.4,3.2-3.2,3.2h-65.4c-1.8,0-3.2-1.4-3.2-3.2v-15.8H216.4 M216.4,161.7h-71.7
				c-1.7,0-3.1,1.4-3.1,3.1v15.8c0,3.5,2.8,6.3,6.3,6.3h65.4c3.5,0,6.3-2.8,6.3-6.3v-15.8C219.5,163.2,218.1,161.7,216.4,161.7
				L216.4,161.7z"/>
		</g>
		<g>
			<path class="st0" d="M142,155.2c-5.8,0-10.5-4.7-10.5-10.5v-23.3c0-5.8,4.7-10.5,10.5-10.5h43.2v-1.9c0-2.7,2.2-4.9,4.9-4.9H205
				c0.4,0,0.8,0.2,1.1,0.5c0.3,0.3,0.5,0.7,0.5,1.1c0,0.3,0.1,0.5,0.4,0.6c0,0,0.4,0.2,0.5,0.2c0,0,0,0,0.1,0c0.4,0,0.8,0.1,1,0.4
				h0.2c0.5,0,0.9,0.2,1.2,0.6c0.1,0.1,0.1,0.1,0.2,0.1h0.1h3.8c0.5,0,1,0.3,1.3,0.7c0.3,0.5,0.8,0.8,1.3,0.9c0.2,0,0.3,0.1,0.5,0.1
				h1.2c0.9,0,1.6,0.7,1.6,1.6v4c1.2-0.6,2.6-0.9,4-0.9h0.3c1.1-1.2,2.7-1.9,4.4-1.9h10.1c3.4,0,6.1,2.8,6.1,6.2V148
				c0,3.4-2.8,6.2-6.1,6.2h-10.1c-1.7,0-3.4-0.7-4.5-2h-0.3c-2,0-4-0.7-5.6-1.9l-5.7-4.6h-9.5c-0.5,5.4-5,9.6-10.4,9.6L142,155.2
				L142,155.2z M154.5,138.4c-1.8,0-3.2,1.4-3.2,3.2s1.4,3.2,3.2,3.2h23.7c1.8,0,3.2-1.4,3.2-3.2s-1.4-3.2-3.2-3.2H154.5z
				 M212.5,120.7l0.8-0.6h-10.2c0,0.2,0,0.4,0.1,0.6H212.5z"/>
			<path class="st0" d="M205,105.7c0,0.9,0.5,1.6,1.3,2l0.3,0.1h0.1c0.1,0,0.2,0.1,0.3,0.1c0.2,0,0.3,0,0.5,0l0,0
				c0.3,0.2,0.6,0.4,1,0.4h0.1c0.3,0.3,0.7,0.6,1.1,0.7c0.1,0,0.3,0,0.5,0h3.8c0.5,0.8,1.3,1.4,2.3,1.6c0.3,0.1,0.5,0.1,0.8,0.1h1.2
				v4.1c0,1.4-0.8,2.5-2,3.1c-0.4,0.2-0.9,0.3-1.4,0.3h-14c0.4,1,0.5,2,0.5,3.1v0.7h11.5l3.4-2.7l2.9-2.3c1.2-1,2.9-1.5,4.6-1.5h1
				c0.8-1.1,2.2-1.9,3.7-1.9h10.1c2.5,0,4.6,2.1,4.6,4.6v29.6c0,2.5-2,4.6-4.6,4.6h-10c-1.6,0-2.9-0.8-3.8-2h-0.9
				c-1.7,0-3.3-0.6-4.6-1.5l-2.9-2.3l-3.2-2.6h-11.6v0.7c0,4.9-4,8.9-8.9,8.9H142c-4.9,0-8.9-4-8.9-8.9v-23.3c0-4.9,4-8.9,8.9-8.9
				h44.8v-3.5c0-1.9,1.5-3.4,3.4-3.4L205,105.7 M154.5,146.3h23.7c2.6,0,4.8-2.1,4.8-4.8c0-2.6-2.1-4.8-4.8-4.8h-23.7
				c-2.6,0-4.8,2.1-4.8,4.8S151.9,146.3,154.5,146.3 M205,102.7h-14.9c-3.6,0-6.5,2.9-6.5,6.5v0.3h-41.7c-6.6,0-12,5.4-12,12v23.3
				c0,6.6,5.4,12,12,12h50.7c5.8,0,10.6-4.1,11.8-9.6h7.6l2.4,1.9l2.9,2.3c1.7,1.4,3.8,2.1,6.1,2.2c1.4,1.3,3.2,2,5.1,2h10.1
				c4.2,0,7.7-3.5,7.7-7.7v-29.6c0-4.3-3.5-7.7-7.7-7.7h-10c-1.9,0-3.7,0.7-5,1.9c-0.7,0-1.4,0.1-2,0.3v-1.9c0-1.7-1.4-3.1-3.1-3.1
				h-1.2l0,0c0,0,0,0-0.1,0c0,0,0,0-0.1,0s-0.2-0.1-0.3-0.2c-0.6-0.9-1.6-1.4-2.6-1.4h-3.3c-0.5-0.4-1.1-0.7-1.7-0.7
				c-0.3-0.2-0.6-0.3-1-0.3C207.8,103.7,206.5,102.7,205,102.7L205,102.7z M154.5,143.2c-0.9,0-1.6-0.7-1.6-1.6s0.7-1.6,1.6-1.6
				h23.7c0.9,0,1.6,0.7,1.6,1.6s-0.7,1.6-1.6,1.6H154.5L154.5,143.2z"/>
		</g>
		<g>
			<path class="st0" d="M154.5,146.9c-2.9,0-5.3-2.4-5.3-5.3s2.4-5.3,5.3-5.3h23.7c2.9,0,5.3,2.4,5.3,5.3s-2.4,5.3-5.3,5.3H154.5z"
				/>
			<path class="st0" d="M178.2,137.8c2.1,0,3.7,1.7,3.7,3.7c0,2.1-1.7,3.7-3.7,3.7h-23.7c-2.1,0-3.7-1.7-3.7-3.7
				c0-2.1,1.7-3.7,3.7-3.7H178.2 M178.2,134.7h-23.7c-3.8,0-6.9,3.1-6.9,6.9s3.1,6.9,6.9,6.9h23.7c3.8,0,6.9-3.1,6.9-6.9
				C185.1,137.8,182,134.7,178.2,134.7L178.2,134.7z"/>
		</g>
		<g>
			<path class="st0" d="M217.2,111.4c-0.2,0-0.3,0-0.5,0s-0.3,0-0.5-0.1c-0.1,0-0.3-0.1-0.5-0.1c0,0-0.1,0-0.2-0.1l-0.2-0.1
				c-0.3-0.2-0.7-0.4-1-0.6c0,0-0.1,0-0.1-0.1c-0.1-0.1-0.2-0.2-0.3-0.3c-0.1-0.1-0.1-0.1-0.2-0.2h-3.5c-0.2,0-0.4,0-0.5-0.1
				c0,0-0.2,0-0.2-0.1c-0.1,0-0.2-0.1-0.3-0.1c-0.2-0.1-0.5-0.3-0.7-0.5c-0.2,0-0.5,0-0.8-0.2c-0.1,0-0.2-0.1-0.3-0.2
				c-0.4,0-0.8-0.1-1.1-0.3l-0.2-0.1c-0.1-0.1-0.4-0.2-0.5-0.4l-0.1-0.1c-0.2-0.2-0.4-0.4-0.5-0.6c-0.3-0.4-0.4-0.9-0.4-1.5
				c0-1.1,0.6-2,1.6-2.5l0.3-0.1c0.3-0.2,0.7-0.2,1-0.3c0.3-0.2,0.7-0.4,1.1-0.4c0.5-0.5,1.1-0.7,1.8-0.7h3.5
				c0.1-0.2,0.3-0.3,0.4-0.5l0,0c0.1-0.1,0.2-0.3,0.4-0.4c0.1-0.1,0.3-0.2,0.4-0.3c0.1,0,0.1-0.1,0.2-0.1c0.2-0.1,0.4-0.2,0.6-0.2
				c0.4-0.1,0.9-0.2,1.3-0.2h26.2c2.4,0,4.3,1.9,4.3,4.3v2.8c0,2.4-1.9,4.3-4.3,4.3L217.2,111.4L217.2,111.4z"/>
			<path class="st0" d="M243.4,101.7c1.5,0,2.7,1.2,2.7,2.7v2.8c0,1.5-1.2,2.7-2.7,2.7h-26.2c-0.1,0-0.2,0-0.3,0c-0.1,0-0.1,0-0.2,0
				s-0.2,0-0.2-0.1c-0.1,0-0.2-0.1-0.4-0.1c-0.2-0.1-0.5-0.3-0.6-0.4s-0.1-0.1-0.2-0.2s-0.1-0.1-0.2-0.2c0-0.1-0.1-0.1-0.1-0.2
				l-0.2-0.4h-4.4c-0.1,0-0.1,0-0.2,0h-0.1H210c-0.1-0.1-0.3-0.2-0.4-0.4l-0.2-0.3h-0.6c-0.1,0-0.2,0-0.2-0.1c-0.1,0-0.1,0-0.1-0.1
				l0,0l-0.3-0.2h-0.4c-0.2,0-0.3,0-0.5-0.1l-0.3-0.1c-0.1,0-0.2-0.1-0.2-0.1s0,0-0.1,0c0,0,0,0-0.1,0c-0.1-0.1-0.1-0.1-0.1-0.2l0,0
				c-0.1-0.2-0.2-0.4-0.2-0.6c0-0.4,0.2-0.9,0.7-1.1l0.3-0.1c0.1-0.1,0.3-0.1,0.5-0.1h0.5c0.1-0.2,0.3-0.4,0.6-0.4h0.7
				c0.1-0.4,0.5-0.7,1-0.7h4.4c0.1-0.1,0.1-0.2,0.2-0.4c0-0.1,0.1-0.2,0.2-0.2c0.1-0.1,0.2-0.2,0.3-0.4c0.1-0.1,0.1-0.1,0.2-0.2
				l0.1-0.1c0.1,0,0.2-0.1,0.3-0.1c0.1-0.1,0.2-0.1,0.4-0.2c0.2-0.1,0.5-0.1,0.8-0.1L243.4,101.7 M243.4,98.6h-26.2
				c-0.6,0-1.2,0.1-1.8,0.3c-0.2,0.1-0.5,0.2-0.8,0.4c-0.1,0-0.2,0.1-0.3,0.1l0,0c-0.2,0.1-0.5,0.3-0.7,0.5
				c-0.2,0.1-0.4,0.3-0.5,0.5h-2.8c-0.9,0-1.8,0.3-2.5,0.8c-0.3,0.1-0.6,0.2-1,0.3c-0.4,0.1-0.8,0.2-1.2,0.4l-0.2,0.1c0,0,0,0-0.1,0
				c-1.5,0.7-2.5,2.2-2.5,3.9c0,0.8,0.2,1.6,0.6,2.3c0.2,0.4,0.5,0.7,0.9,1l0,0l0.1,0.1c0.3,0.2,0.6,0.4,0.8,0.5c0,0,0,0,0.1,0
				l0.2,0.1c0.4,0.2,0.8,0.4,1.3,0.4c0.1,0,0.1,0.1,0.2,0.1c0.2,0.1,0.4,0.2,0.7,0.2c0.2,0.2,0.5,0.3,0.7,0.4s0.4,0.1,0.6,0.2
				c0.1,0,0.1,0,0.2,0c0,0,0.1,0,0.2,0s0.4,0.1,0.8,0.1h2.8c0,0,0,0,0.1,0.1s0.1,0.1,0.2,0.2c0.4,0.3,0.8,0.6,1.3,0.9
				c0.1,0,0.2,0.1,0.3,0.1h0.1c0.1,0,0.2,0.1,0.3,0.1c0.2,0.1,0.4,0.1,0.6,0.2c0.2,0,0.4,0.1,0.6,0.1s0.4,0,0.6,0h26.2
				c3.2,0,5.8-2.6,5.8-5.9v-2.6C249.3,101.2,246.7,98.6,243.4,98.6L243.4,98.6z"/>
		</g>
		<g>
			<path class="st0" d="M134,165.4c-1.4,0-2.5-1.1-2.5-2.5v-3.9c0-1.4,1.1-2.5,2.5-2.5h93.1c1.4,0,2.5,1.1,2.5,2.5v3.9
				c0,1.4-1.1,2.5-2.5,2.5H134z"/>
			<path class="st0" d="M227.1,158.2c0.5,0,0.9,0.4,0.9,0.9v3.9c0,0.5-0.4,0.9-0.9,0.9H134c-0.5,0-0.9-0.4-0.9-0.9v-3.9
				c0-0.5,0.4-0.9,0.9-0.9H227.1 M227.1,155.1H134c-2.2,0-4.1,1.8-4.1,4.1v3.9c0,2.2,1.8,4,4.1,4h93.1c2.2,0,4.1-1.8,4.1-4v-3.9
				C231.1,156.8,229.3,155.1,227.1,155.1L227.1,155.1z"/>
		</g>
		<g>
			<path class="st0" d="M151.2,191.7c-1.2,0-2.1-1-2.1-2.2v-2.8c0-1.2,1-2.2,2.1-2.2h58.7c1.2,0,2.1,1,2.1,2.2v2.8
				c0,1.2-1,2.2-2.1,2.2H151.2z"/>
			<path class="st0" d="M209.9,186.1c0.3,0,0.6,0.3,0.6,0.7v2.8c0,0.4-0.3,0.7-0.6,0.7h-58.7c-0.3,0-0.6-0.3-0.6-0.7v-2.8
				c0-0.4,0.3-0.7,0.6-0.7H209.9 M209.9,182.9h-58.7c-2.1,0-3.7,1.7-3.7,3.8v2.8c0,2.1,1.7,3.8,3.7,3.8h58.7c2,0,3.7-1.7,3.7-3.8
				v-2.8C213.6,184.7,211.9,182.9,209.9,182.9L209.9,182.9z"/>
		</g>
	</g>
	<g>
		<rect x="53.7" y="58.6" width="18.3" height="183.1"/>
		<g>
			<path d="M74.1,92.4v62.5c0.3-0.7,0.7-1.4,1.1-2c1.5-2.1,3.8-3.5,6.4-4c2.6-0.4,5.2,0.2,7.3,1.7l3.4,2.5h0.1V92.4
				c0-1.9-1.6-3.5-3.5-3.5H77.6C75.7,88.9,74.1,90.6,74.1,92.4z"/>
			<g>
				<g id="상단_연결부_00000162309985579076770580000006472122609812019383_">
					<path d="M88,173.4l10.6-14.8l-10.2-7.4c-4.1-2.9-9.8-2-12.7,2c-2.9,4.1-2,9.8,2.1,12.7L88,173.4z M77.8,157.6
						c-0.3-1,0-2.1,0.7-2.8c0.3-0.4,0.8-0.6,1.2-0.8c0.9-0.3,1.9,0,2.6,0.6l0,0l0,0c0.4,0.4,0.7,0.8,0.9,1.4
						c0.4,1.5-0.4,3.1-1.9,3.5C79.8,159.9,78.2,159.1,77.8,157.6z"/>
					<g>
						<circle cx="80.5" cy="156.7" r="2.1"/>
					</g>
				</g>
				<g id="하단_연결부_00000008134939279020286870000014937517300879230365_">
					<g>
						<path d="M148.4,194.7l-9.9-7.2l-10.6,14.7l9.9,7.2c4.1,2.9,9.8,2,12.7-2.1C153.4,203.2,152.5,197.6,148.4,194.7z M146.7,206.7
							c-1.5,0.4-3.1-0.4-3.5-1.9s0.4-3.1,1.9-3.5s3.1,0.4,3.5,1.9C149,204.7,148.2,206.2,146.7,206.7z"/>
					</g>
					<g>
						<path d="M148,204.2c0,0.1,0,0.2-0.1,0.3c0,0,0,0,0,0.1s-0.1,0.2-0.1,0.3c-0.1,0.1-0.1,0.2-0.2,0.3c-0.1,0.1-0.1,0.2-0.2,0.3
							c-0.1,0.1-0.2,0.1-0.2,0.2l0,0c-0.1,0.1-0.2,0.1-0.3,0.1l0,0c-0.1,0-0.2,0.1-0.3,0.1c-1.1,0.3-2.3-0.3-2.6-1.4
							c-0.1-0.2-0.1-0.4-0.1-0.6c0-0.9,0.6-1.8,1.5-2c1.1-0.3,2.3,0.3,2.6,1.4C148,203.7,148,203.9,148,204.2z"/>
					</g>
				</g>
				<g id="스프링_00000152262242114025450990000005873517582149976742_">
					<g>
						<path d="M125.9,200.7l0.9,0.6c0.2,0.2,0.6,0.1,0.8-0.1l10-13.9c0.2-0.2,0.1-0.6-0.1-0.8l-0.9-0.6c-0.2-0.2-0.6-0.1-0.8,0.1
							l-10,13.9C125.6,200.2,125.6,200.6,125.9,200.7z"/>
					</g>
					<g>
						<polygon points="131,191.3 126.7,197.3 128.1,192.9 132.4,186.9 						"/>
					</g>
					<path d="M121.8,197.7l0.9,0.6c0.2,0.2,0.6,0.1,0.8-0.1l10-13.9c0.2-0.2,0.1-0.6-0.1-0.8l-0.9-0.6c-0.2-0.2-0.6-0.1-0.8,0.1
						l-10,13.9C121.5,197.2,121.5,197.7,121.8,197.7z"/>
					<polygon points="126.9,188.4 122.6,194.4 124,190.1 128.3,184.1 					"/>
					<g>
						<path d="M117.7,194.8l0.9,0.6c0.2,0.2,0.6,0.1,0.8-0.1l10-13.9c0.2-0.2,0.1-0.6-0.1-0.8l-0.9-0.6c-0.2-0.2-0.6-0.1-0.8,0.1
							l-10,13.9C117.4,194.3,117.5,194.7,117.7,194.8z"/>
					</g>
					<polygon points="122.8,185.6 118.5,191.4 120,187.1 124.3,181.1 					"/>
					<g>
						<path d="M113.6,191.8l0.9,0.6c0.2,0.2,0.6,0.1,0.8-0.1l10-13.9c0.2-0.2,0.1-0.6-0.1-0.8l-0.9-0.6c-0.2-0.2-0.6-0.1-0.8,0.1
							l-10,13.9C113.3,191.3,113.4,191.7,113.6,191.8z"/>
					</g>
					<polygon points="118.7,182.6 114.5,188.6 115.9,184.2 120.2,178.2 					"/>
					<g>
						<path d="M109.5,188.9l0.9,0.6c0.2,0.2,0.6,0.1,0.8-0.1l10-13.9c0.2-0.2,0.1-0.6-0.1-0.8l-0.9-0.6c-0.2-0.2-0.6-0.1-0.8,0.1
							l-10,13.9C109.2,188.4,109.3,188.7,109.5,188.9z"/>
					</g>
					<polygon points="116.1,175.2 114.7,179.7 110.4,185.6 111.8,181.2 					"/>
					<g>
						<path d="M105.5,185.9l0.9,0.6c0.2,0.2,0.6,0.1,0.8-0.1l10-13.9c0.2-0.2,0.1-0.6-0.1-0.8l-0.9-0.6c-0.2-0.2-0.6-0.1-0.8,0.1
							l-10,13.9C105.1,185.4,105.2,185.8,105.5,185.9z"/>
					</g>
					<polygon points="110.6,176.7 106.3,182.7 107.7,178.2 112,172.2 					"/>
					<g>
						<path d="M101.4,183.1l0.9,0.6c0.2,0.2,0.6,0.1,0.8-0.1l10-13.9c0.2-0.2,0.1-0.6-0.1-0.8l-0.9-0.6c-0.2-0.2-0.6-0.1-0.8,0.1
							l-10,13.9C101.1,182.4,101.1,182.8,101.4,183.1z"/>
					</g>
					<polygon points="106.5,173.7 102.2,179.7 103.7,175.2 107.9,169.2 					"/>
					<g>
						<path d="M97.3,180.1l0.9,0.6c0.2,0.2,0.6,0.1,0.8-0.1l10-13.9c0.2-0.2,0.1-0.6-0.1-0.8l-0.9-0.6c-0.2-0.2-0.6-0.1-0.8,0.1
							l-10,13.9C97,179.6,97,179.8,97.3,180.1z"/>
					</g>
					<polygon points="102.4,170.7 98.1,176.7 99.6,172.3 103.8,166.3 					"/>
					<g>
						<path d="M93.2,177.2l0.9,0.6c0.2,0.2,0.6,0.1,0.8-0.1l10-13.9c0.2-0.2,0.1-0.6-0.1-0.8l-0.9-0.6c-0.2-0.2-0.6-0.1-0.8,0.1
							l-10,13.9C92.9,176.6,93,176.9,93.2,177.2z"/>
					</g>
					<g>
						<polygon points="98.3,167.8 94,173.7 95.5,169.4 99.8,163.4 						"/>
					</g>
					<g>
						<path d="M89.1,174.2l0.9,0.6c0.2,0.2,0.6,0.1,0.8-0.1l10-13.9c0.2-0.2,0.1-0.6-0.1-0.8l-0.9-0.6c-0.2-0.2-0.6-0.1-0.8,0.1
							l-10,13.9C88.8,173.7,88.9,174.1,89.1,174.2z"/>
					</g>
				</g>
			</g>
			<path d="M214,207.7v-11.3c0-1.9-1.6-3.5-3.5-3.5h-63.3l1.7,1.2c2.5,1.8,4.1,4.8,4.1,8c0,2.1-0.6,4.1-1.9,5.7
				c-1.1,1.5-2.6,2.7-4.3,3.4h63.7C212.4,211.2,214,209.6,214,207.7z"/>
		</g>
		<g id="CAMERA_00000025419263073043047010000002319167120005600140_">
			<path d="M216.2,97.3v3.4c-1,0.2-1.8,0.8-2.3,1.6h-3.8c-0.6,0-1.2,0.3-1.5,0.7h-0.1c-0.4,0-0.7,0.1-1,0.4l0,0
				c-0.3,0-0.7,0.1-1,0.2l-0.3,0.1c-0.5,0.2-0.8,0.6-1,1h-15.3c-2.4,0-4.4,2-4.4,4.4v2.4h-41.1V97.3c0-1.8,1.4-3.2,3.2-3.2H213
				C214.8,94.2,216.2,95.6,216.2,97.3z"/>
			<path d="M214.5,108.2L214.5,108.2l0.2,0.4C214.6,108.4,214.6,108.3,214.5,108.2z"/>
			<path d="M209.1,107.4H209l0.2,0.3C209.2,107.7,209.2,107.6,209.1,107.4z"/>
			<path d="M207.7,107.2l0.3,0.2c-0.1-0.1-0.1-0.1-0.1-0.2H207.7z"/>
			<path d="M214.6,119.4l-2.1,1.7h-10.1c0-0.6-0.1-1.1-0.2-1.7H214.6z"/>
			<path d="M212.6,145.2l3.6,2.9v9.1h-71.7v-2.4h48c5.4,0,9.7-4.3,9.9-9.6H212.6L212.6,145.2z"/>
			<path d="M216.2,164.9v15.8c0,1.8-1.4,3.2-3.2,3.2h-65.4c-1.8,0-3.2-1.4-3.2-3.2v-15.8H216.2z"/>
			<g>
				<g>
					<path d="M238.4,113.7h-10.1c-1.5,0-2.9,0.7-3.7,1.9h-1c-1.7,0-3.3,0.5-4.6,1.5l-2.9,2.3l-3.4,2.7h-11.5v-0.7
						c0-1.1-0.2-2.1-0.5-3.1h14c0.5,0,1-0.1,1.4-0.3c1.2-0.5,2-1.7,2-3.1v-4.1h-1.2c-0.3,0-0.6,0-0.8-0.1c-1-0.2-1.8-0.8-2.3-1.6
						H210c-0.1,0-0.3,0-0.5,0c-0.4-0.1-0.8-0.3-1.1-0.7h-0.1c-0.4,0-0.7-0.1-1-0.4l0,0c-0.2,0-0.3,0-0.5,0c-0.1,0-0.2-0.1-0.3-0.1
						h-0.1l-0.3-0.1c-0.8-0.4-1.3-1.1-1.3-2h-14.9c-1.9,0-3.4,1.5-3.4,3.4v3.5h-44.8c-4.9,0-8.9,4-8.9,8.9v23.3c0,4.9,4,8.9,8.9,8.9
						h50.7c4.9,0,8.9-4,8.9-8.9v-0.7h11.6l3.2,2.6l2.9,2.3c1.2,1,2.9,1.5,4.6,1.5h0.9c0.8,1.2,2.2,2,3.8,2h10.1
						c2.5,0,4.6-2.1,4.6-4.6v-29.6C243,115.8,241,113.7,238.4,113.7z M178,146.3h-23.7c-2.6,0-4.8-2.1-4.8-4.8
						c0-2.6,2.1-4.8,4.8-4.8H178c2.6,0,4.8,2.1,4.8,4.8S180.6,146.3,178,146.3z"/>
				</g>
				<g>
					<g>
						<path d="M181.8,141.6c0,2.1-1.7,3.7-3.7,3.7h-23.7c-2.1,0-3.7-1.7-3.7-3.7c0-2.1,1.7-3.7,3.7-3.7h23.7
							C180.1,137.8,181.8,139.6,181.8,141.6z"/>
					</g>
				</g>
				<g>
					<path d="M205.9,105.7c0,0.2,0.1,0.4,0.2,0.6l0,0c0,0.1,0.1,0.1,0.1,0.2c0,0,0,0,0.1,0c0,0,0,0,0.1,0c0.1,0.1,0.1,0.1,0.2,0.1
						l0.3,0.1c0.1,0.1,0.3,0.1,0.5,0.1h0.5c0,0.1,0.1,0.1,0.1,0.2l0,0l0.1,0.1c0.1,0,0.2,0.1,0.2,0.1h0.7c0,0.1,0.1,0.2,0.1,0.3
						c0.1,0.1,0.2,0.3,0.4,0.4h0.1h0.1c0.1,0,0.1,0,0.2,0h4.4c0.1,0.1,0.1,0.2,0.2,0.4c0,0.1,0.1,0.1,0.1,0.1c0,0.1,0.1,0.1,0.2,0.2
						s0.1,0.2,0.2,0.2c0.2,0.2,0.4,0.3,0.6,0.4c0.1,0,0.2,0.1,0.4,0.1c0.1,0,0.1,0,0.2,0.1c0.1,0,0.1,0,0.2,0s0.2,0,0.3,0h26.2
						c1.5,0,2.7-1.2,2.7-2.7V104c0-1.5-1.2-2.7-2.7-2.7h-26.2c-0.3,0-0.6,0-0.8,0.1c-0.1,0-0.2,0.1-0.4,0.1c-0.1,0-0.2,0.1-0.3,0.1
						c-0.1,0-0.1,0.1-0.1,0.1c-0.1,0.1-0.2,0.1-0.2,0.2c-0.1,0.1-0.2,0.2-0.3,0.4c-0.1,0.1-0.1,0.2-0.2,0.2
						c-0.1,0.1-0.1,0.2-0.2,0.4h-4.4c-0.5,0-0.8,0.3-1,0.7h-0.7c-0.2,0-0.5,0.1-0.6,0.4H207c-0.2,0-0.3,0-0.5,0.1l-0.3,0.1
						C206.1,104.9,205.9,105.3,205.9,105.7z"/>
					<path d="M214.5,108.2l0.2,0.4C214.6,108.4,214.6,108.3,214.5,108.2L214.5,108.2z M209,107.4l0.2,0.3
						C209.2,107.7,209.2,107.6,209,107.4L209,107.4z M207.7,107.2l0.3,0.2c-0.1-0.1-0.1-0.1-0.1-0.2H207.7z M206.1,107.7l0.3,0.1
						h0.1c0,0-0.1,0-0.1-0.1H206.1z"/>
				</g>
			</g>
			<g>
				<path d="M227.8,159.1v3.9c0,0.5-0.4,0.9-0.9,0.9h-93.1c-0.5,0-0.9-0.4-0.9-0.9v-3.9c0-0.5,0.4-0.9,0.9-0.9h93.1
					C227.4,158.2,227.8,158.6,227.8,159.1z"/>
			</g>
			<g>
				<path d="M210.3,186.7v2.8c0,0.4-0.3,0.7-0.6,0.7H151c-0.3,0-0.6-0.3-0.6-0.7v-2.8c0-0.4,0.3-0.7,0.6-0.7h58.7
					C210,186.1,210.3,186.4,210.3,186.7z"/>
			</g>
		</g>
	</g>
</g>
</svg>
