<svg width="500" height="500" viewBox="0 0 500 500" fill="none" xmlns="http://www.w3.org/2000/svg">
<path d="M316.27 383.135C301.786 377.778 222.421 348.413 210.119 344.048L211.706 326.389L217.659 257.143L231.548 277.778C222.818 274.008 156.945 245.437 150.199 242.46C150.794 236.111 155.754 177.381 156.548 169.643L165.08 183.135L105.953 153.968L98.8097 150.397L99.4049 143.651L103.968 91.4683L108.532 99.008L45.8335 65.8731L49.4049 58.135L115.278 84.7223L119.841 86.508C119.841 88.0953 120.834 141.27 120.834 144.445L114.286 134.325L175.992 157.143L184.326 160.318C184.326 165.278 185.516 225.397 185.516 232.341L174.207 215.476C183.73 218.452 251.984 239.881 259.524 242.262C259.722 252.976 260.913 316.072 261.111 328.175L243.651 303.572L333.73 326.389C333.929 326.389 316.27 383.135 316.27 383.135Z" fill="#3366FF"/>
<path d="M410.714 470.436L359.524 286.111L230.952 404.762L410.714 470.436Z" fill="#3366FF"/>
<path d="M312.897 384.921C312.897 390.079 310.317 392.659 305.159 392.659H279.762C274.603 392.659 272.024 390.079 272.024 384.921V366.865H284.524V381.746H300.397V356.151H279.365C274.405 356.151 271.825 353.571 271.825 348.413V315.476C271.825 310.317 274.405 307.738 279.365 307.738H305.357C310.516 307.738 313.095 310.317 313.095 315.476V384.921H312.897ZM300.397 345.436V318.651H284.127V345.436H300.397Z" fill="black"/>
<path d="M364.285 384.921C364.285 390.079 361.706 392.659 356.547 392.659H330.555C325.595 392.659 323.016 390.079 323.016 384.921V365.278H335.516V381.746H351.785V360.516L336.309 349.802V347.222L351.785 336.706V318.849H335.516V334.325H323.016V315.476C323.016 310.317 325.595 307.738 330.754 307.738H356.547C361.706 307.738 364.285 310.317 364.285 315.476V335.516C364.285 338.889 362.897 341.468 360.119 343.254L352.182 348.413L360.119 353.373C362.897 355.159 364.285 357.54 364.285 361.111V384.921Z" fill="black"/>
<path d="M399.206 344.246C399.206 348.611 397.023 350.794 392.658 350.794H377.976C373.611 350.794 371.428 348.611 371.428 344.246V314.286C371.428 309.921 373.611 307.738 377.976 307.738H392.658C397.023 307.738 399.206 309.921 399.206 314.286V344.246ZM431.944 309.325L386.309 392.659H378.968V391.071L424.603 307.738H431.944V309.325ZM390.079 342.857V315.476H380.357V342.857H390.079ZM439.285 386.111C439.285 390.476 437.103 392.659 432.738 392.659H418.055C413.69 392.659 411.508 390.476 411.508 386.111V356.151C411.508 351.786 413.69 349.603 418.055 349.603H432.738C437.103 349.603 439.285 351.786 439.285 356.151V386.111ZM430.158 384.722V357.341H420.635V384.722H430.158Z" fill="black"/>
<path d="M294.841 304.564H288.492L287.301 296.429H279.365L278.174 304.564H271.825V304.365L279.96 261.905H286.706L294.841 304.564ZM286.309 291.071L283.135 271.825L279.96 291.071H286.309Z" fill="black"/>
<path d="M319.444 262.103L311.309 304.564H304.96L296.825 262.103H303.174L307.936 291.27C307.936 292.064 307.936 293.254 308.135 294.841C308.135 294.048 308.135 292.857 308.333 291.27L313.095 262.103H319.444Z" fill="black"/>
<path d="M340.674 304.564H323.016V262.103H340.476V267.659H329.365V279.96H338.889V285.516H329.365V298.81H340.674V304.564Z" fill="black"/>
<path d="M366.667 304.563H360.119L353.174 284.921V281.151H359.325V267.659H351.389V304.762H345.04V262.302H361.905C364.484 262.302 365.674 263.69 365.674 266.27V281.746C365.674 283.532 365.079 284.722 363.889 285.317C363.294 285.516 361.905 285.714 359.722 285.714L366.667 304.563Z" fill="black"/>
<path d="M392.063 304.564H385.714L384.524 296.429H376.587L375.397 304.564H369.047V304.365L377.182 261.905H383.928L392.063 304.564ZM383.73 291.071L380.555 271.825L377.381 291.071H383.73Z" fill="black"/>
<path d="M416.667 300.595C416.667 303.175 415.278 304.564 412.698 304.564H399.405C396.825 304.564 395.635 303.175 395.635 300.595V265.873C395.635 263.294 396.825 261.905 399.405 261.905H412.698C415.278 261.905 416.667 263.294 416.667 265.873V275H410.317V267.46H401.984V299.008H410.317V287.103H405.555V281.746H416.667V300.595Z" fill="black"/>
<path d="M439.286 304.564H421.627V262.103H439.087V267.659H427.976V279.96H437.5V285.516H427.976V298.81H439.286V304.564Z" fill="black"/>
<path d="M290.476 426.191C290.476 428.373 289.881 430.159 288.492 431.349C287.103 432.54 285.516 433.135 283.135 433.135H271.627V395.635H283.135C285.317 395.635 287.103 396.23 288.492 397.619C289.881 398.81 290.476 400.595 290.476 402.778V426.191ZM284.722 425.397V403.968C284.722 401.786 283.532 400.794 281.349 400.794H277.183V428.572H281.151C283.532 428.572 284.722 427.381 284.722 425.397Z" fill="black"/>
<path d="M310.317 433.333H294.841V395.833H310.317V400.794H300.595V411.707H308.929V416.468H300.595V428.175H310.516V433.333H310.317Z" fill="black"/>
<path d="M332.54 429.96C332.54 432.341 331.349 433.333 329.167 433.333H317.46C315.278 433.333 314.087 432.143 314.087 429.96V399.405C314.087 397.024 315.278 396.032 317.46 396.032H329.167C331.548 396.032 332.54 397.222 332.54 399.405V408.135H326.984V400.794H319.643V428.571H326.984V420.635H332.54V429.96Z" fill="black"/>
<path d="M356.151 433.333H350.397L344.246 415.873V412.5H349.801V400.595H342.659V433.333H337.103V395.833H351.984C354.167 395.833 355.357 397.024 355.357 399.207V412.897C355.357 414.484 354.762 415.476 353.77 415.873C353.174 416.072 351.984 416.27 350.198 416.27L356.151 433.333Z" fill="black"/>
<path d="M375 433.333H359.524V395.833H375V400.794H365.079V411.707H373.413V416.468H365.079V428.175H375V433.333Z" fill="black"/>
<path d="M397.817 433.333H392.262L391.071 426.191H384.127L382.936 433.333H377.381L384.722 395.833H390.675L397.817 433.333ZM390.476 421.429L387.698 404.564L384.921 421.429H390.476Z" fill="black"/>
<path d="M419.445 429.96C419.445 432.341 418.254 433.333 416.072 433.333H404.365C402.183 433.333 400.992 432.143 400.992 429.96V399.405C400.992 397.024 402.183 396.032 404.365 396.032H416.072C418.452 396.032 419.445 397.222 419.445 399.405V408.135H413.889V400.794H406.548V428.571H413.889V420.635H419.445V429.96Z" fill="black"/>
<path d="M439.286 433.333H423.81V395.833H439.286V400.794H429.564V411.707H437.897V416.468H429.564V428.175H439.484V433.333H439.286Z" fill="black"/>
</svg>
