<?xml version="1.0" encoding="utf-8"?>
<!-- Generator: Adobe Illustrator 27.9.0, SVG Export Plug-In . SVG Version: 6.00 Build 0)  -->
<svg version="1.1" id="레이어_1" xmlns="http://www.w3.org/2000/svg" xmlns:xlink="http://www.w3.org/1999/xlink" x="0px"
	 y="0px" viewBox="0 0 300 300" style="enable-background:new 0 0 300 300;" xml:space="preserve">
<style type="text/css">
	.st0{fill:#F8F8F8;}
	.st1{fill:#040000;}
	.st2{fill:#FFFFFF;}
</style>
<g>
	<g id="CAMERA_00000183213454005156337040000003720927187478378406_">
		<g>
			<path class="st0" d="M78,102.4c-0.9,0-1.6-0.7-1.6-1.6V78.1c0-3.7,3-6.7,6.7-6.7h104.7c3.7,0,6.7,3,6.7,6.7v5.4
				c0,0.7-0.5,1.4-1.2,1.5c-1.1,0.2-2.1,0.9-2.7,1.9c-0.3,0.5-0.8,0.7-1.3,0.7h-6.1c-0.5,0-1,0.2-1.3,0.6s-0.7,0.6-1.2,0.6h-0.2
				c-0.3,0-0.5,0.1-0.7,0.2c-0.3,0.2-0.6,0.3-1,0.3s-0.6,0.1-0.9,0.2l-0.5,0.2c-0.4,0.2-0.7,0.5-1,0.9c-0.3,0.5-0.8,0.8-1.4,0.8
				h-24.3c-3,0-5.5,2.5-5.5,5.5v3.9c0,0.9-0.7,1.6-1.6,1.6L78,102.4L78,102.4z"/>
			<path class="st0" d="M187.8,73c2.8,0,5.1,2.3,5.1,5.1v5.4c-1.5,0.3-2.8,1.2-3.7,2.5h-6.1c-1,0-1.9,0.5-2.5,1.2h-0.2
				c-0.6,0-1.2,0.2-1.7,0.6h-0.1c-0.5,0-1,0.1-1.5,0.4l-0.4,0.2c-0.7,0.4-1.3,0.9-1.7,1.6h-24.3c-3.9,0-7,3.2-7,7v3.9H78V78.1
				c0-2.8,2.3-5.1,5.1-5.1H187.8 M187.8,69.9H83.1c-4.5,0-8.2,3.7-8.2,8.2v22.8c0,1.7,1.4,3.1,3.1,3.1h65.8c1.7,0,3.1-1.4,3.1-3.1
				V97c0-2.1,1.7-3.9,3.9-3.9h24.3c1.1,0,2.2-0.6,2.7-1.6c0.1-0.1,0.2-0.2,0.3-0.3l0.4-0.2c0.1,0,0.1,0,0.2-0.1c0,0,0,0,0.1,0h0.1
				c0.7,0,1.3-0.2,1.8-0.6h0.1c0.9,0,1.8-0.4,2.4-1.1l0,0h6.1c1.1,0,2.1-0.5,2.6-1.4c0.4-0.6,1-1,1.7-1.2c1.4-0.3,2.5-1.6,2.5-3.1
				v-5.4C196.1,73.6,192.4,69.9,187.8,69.9L187.8,69.9z"/>
		</g>
		<g>
			<path class="st0" d="M170.8,117.9c-0.8,0-1.5-0.7-1.6-1.5c0-0.9-0.1-1.7-0.3-2.5c-0.1-0.5,0-0.9,0.3-1.3s0.7-0.6,1.2-0.6h19.9
				c0.7,0,1.3,0.4,1.5,1s0,1.3-0.5,1.7l-3.4,2.7c-0.3,0.2-0.6,0.3-1,0.3L170.8,117.9L170.8,117.9z"/>
			<path class="st0" d="M190.4,113.5l-3.4,2.7h-16.2c0-0.9-0.2-1.8-0.3-2.7H190.4 M190.4,110.4h-19.9c-0.9,0-1.8,0.4-2.4,1.1
				s-0.8,1.7-0.7,2.6c0.2,0.8,0.2,1.5,0.3,2.3c0.1,1.7,1.5,3,3.1,3H187c0.7,0,1.4-0.2,2-0.7l3.4-2.7c1-0.8,1.4-2.2,1-3.5
				C192.9,111.2,191.7,110.4,190.4,110.4L190.4,110.4z M190.4,116.6L190.4,116.6L190.4,116.6L190.4,116.6z"/>
		</g>
		<g>
			<path class="st0" d="M78,175.4c-0.9,0-1.6-0.7-1.6-1.6V170c0-0.9,0.7-1.6,1.6-1.6h76.9c7.8,0,14.1-6.1,14.3-13.9
				c0-0.8,0.7-1.5,1.6-1.5h16.4c0.4,0,0.7,0.1,1,0.3l5.7,4.6c0.4,0.3,0.6,0.8,0.6,1.2v14.6c0,0.9-0.7,1.6-1.6,1.6L78,175.4L78,175.4
				z"/>
			<path class="st0" d="M187.2,154.6l5.7,4.6v14.6H78v-3.8h76.9c8.6,0,15.6-6.9,15.9-15.4L187.2,154.6 M187.2,151.5h-16.4
				c-1.7,0-3.1,1.3-3.1,3c-0.2,6.9-5.9,12.3-12.8,12.3H78c-1.7,0-3.1,1.4-3.1,3.1v3.8c0,1.7,1.4,3.1,3.1,3.1h114.9
				c1.7,0,3.1-1.4,3.1-3.1v-14.6c0-1-0.4-1.9-1.2-2.5l-5.7-4.6C188.6,151.8,187.9,151.5,187.2,151.5L187.2,151.5z"/>
		</g>
		<g>
			<path class="st0" d="M83.1,218.2c-3.7,0-6.7-3-6.7-6.7v-25.2c0-0.9,0.7-1.6,1.6-1.6h114.9c0.9,0,1.6,0.7,1.6,1.6v25.2
				c0,3.7-3,6.7-6.7,6.7H83.1L83.1,218.2z"/>
			<path class="st0" d="M192.9,186.4v25.2c0,2.8-2.3,5.1-5.1,5.1H83.1c-2.8,0-5.1-2.3-5.1-5.1v-25.2H192.9 M192.9,183.2H78
				c-1.7,0-3.1,1.4-3.1,3.1v25.2c0,4.5,3.7,8.2,8.2,8.2h104.7c4.5,0,8.2-3.7,8.2-8.2v-25.2C196.1,184.6,194.7,183.2,192.9,183.2
				L192.9,183.2z"/>
		</g>
		<g>
			<g>
				<g>
					<path class="st0" d="M73.7,169.9c-8.7,0-15.8-7.1-15.8-15.8v-37.3c0-8.7,7.1-15.8,15.8-15.8h70.2v-4c0-3.8,3.1-6.9,6.9-6.9
						h23.9c0.9,0,1.6,0.7,1.6,1.6c0,0.8,0.4,1.5,1.1,1.8l0.4,0.2h0.1c0,0,0.1,0,0.2,0.1c0.1,0,0.2,0.1,0.2,0.1c0.1,0,0.2,0,0.4,0
						c0.4,0,0.8,0.1,1.1,0.4c0.2,0.1,0.4,0.2,0.7,0.2h0.2c0.5,0,0.9,0.2,1.2,0.6c0.2,0.3,0.5,0.5,0.9,0.5c0.2,0,0.3,0,0.4,0h6.1
						c0.5,0,1,0.3,1.3,0.7c0.6,1,1.6,1.6,2.7,1.9c0.3,0.1,0.6,0.1,1,0.1h1.9c0.9,0,1.6,0.7,1.6,1.6v6.6c0,0.5-0.1,1-0.2,1.5
						c2.1-1.4,4.8-2.2,7.5-2.2h0.8c1.7-1.9,4.1-3,6.7-3h16.1c4.9,0,8.9,4,8.9,8.9v47.4c0,4.9-4,8.9-8.9,8.9h-16.1
						c-2.6,0-5.1-1.2-6.8-3.2H205c-3.1,0-6-1-8.3-2.8l-9.4-7.5h-16.5c-0.2,8.5-7.2,15.4-15.8,15.4H73.7L73.7,169.9z M93.8,142.9
						c-3.3,0-6.1,2.7-6.1,6.1s2.7,6.1,6.1,6.1h37.9c3.3,0,6.1-2.7,6.1-6.1s-2.7-6.1-6.1-6.1H93.8z M187,116.4l3.6-2.9h-20.2
						c0.2,0.9,0.3,1.9,0.3,2.9H187z"/>
					<path class="st0" d="M174.7,91.6c0,1.4,0.8,2.6,2.1,3.2l0.4,0.2c0.1,0,0.1,0.1,0.2,0.1c0.2,0.1,0.3,0.1,0.5,0.2
						c0.3,0.1,0.5,0.1,0.8,0.1h0.1c0.5,0.4,1,0.6,1.7,0.6h0.2c0.4,0.5,1,0.9,1.8,1.1c0.2,0.1,0.5,0.1,0.7,0.1h6.1
						c0.8,1.3,2.2,2.2,3.7,2.5c0.4,0.1,0.9,0.1,1.3,0.1h1.9v6.6c0,2.2-1.3,4.1-3.2,4.9c-0.7,0.3-1.4,0.5-2.2,0.5h-22.5
						c0.6,1.5,0.9,3.2,0.9,4.9v1.1h18.4l5.4-4.3l4.7-3.8c2-1.6,4.6-2.5,7.3-2.5h1.6c1.3-1.8,3.5-3,5.9-3h16.1c4.1,0,7.3,3.3,7.3,7.4
						v47.4c0,4.1-3.3,7.4-7.3,7.4h-16.1c-2.5,0-4.7-1.2-6-3.2H205c-2.7,0-5.3-0.9-7.3-2.5l-4.7-3.6l-5.2-4.1h-18.6v1.1
						c0,7.9-6.4,14.3-14.3,14.3H73.7c-7.9,0-14.3-6.4-14.3-14.3v-37.3c0-7.9,6.4-14.3,14.3-14.3h71.8v-5.5c0-3,2.4-5.4,5.4-5.4
						L174.7,91.6 M93.8,156.6h37.9c4.2,0,7.6-3.4,7.6-7.6s-3.4-7.6-7.6-7.6H93.8c-4.2,0-7.6,3.4-7.6,7.6S89.6,156.6,93.8,156.6
						 M174.7,88.5h-23.9c-4.7,0-8.5,3.8-8.5,8.5v2.4H73.7c-9.6,0-17.4,7.8-17.4,17.4v37.3c0,9.6,7.8,17.4,17.4,17.4h81.2
						c8.9,0,16.3-6.7,17.3-15.4h14.5l4.3,3.4l4.7,3.8c2.6,2,5.9,3.2,9.3,3.2l0,0c2,2,4.6,3.2,7.5,3.2h16.1c5.8,0,10.5-4.7,10.5-10.5
						v-47.4c0-5.8-4.7-10.5-10.5-10.5h-16.1c-2.8,0-5.4,1.1-7.3,3H205c-2,0-4,0.4-5.7,1.1V100c0-1.7-1.4-3.1-3.1-3.1h-1.9
						c-0.2,0-0.4,0-0.5,0h-0.1c-0.7-0.1-1.3-0.6-1.7-1.2c-0.6-0.9-1.6-1.4-2.6-1.4h-6.1c0,0,0,0-0.1,0c-0.6-0.7-1.5-1.2-2.4-1.2
						h-0.1c-0.5-0.4-1.2-0.6-1.8-0.6h-0.1l0,0c0,0-0.1,0-0.1-0.1h-0.1l-0.4-0.2c-0.1,0-0.2-0.1-0.2-0.4c0-0.8-0.3-1.6-0.9-2.2
						C176.3,88.9,175.5,88.5,174.7,88.5L174.7,88.5z M93.8,153.5c-2.5,0-4.5-2-4.5-4.5s2-4.5,4.5-4.5h37.9c2.5,0,4.5,2,4.5,4.5
						s-2,4.5-4.5,4.5H93.8L93.8,153.5z"/>
				</g>
			</g>
			<g>
				<g>
					<g>
						<path class="st0" d="M93.8,156.5c-4.2,0-7.6-3.4-7.6-7.6s3.4-7.6,7.6-7.6h37.9c4.2,0,7.6,3.4,7.6,7.6s-3.4,7.6-7.6,7.6H93.8z"
							/>
						<path class="st0" d="M131.8,143c3.3,0,6,2.7,6,6s-2.7,6-6,6H93.9c-3.3,0-6-2.7-6-6s2.7-6,6-6H131.8 M131.8,139.9H93.9
							c-5,0-9.1,4.1-9.1,9.1s4.1,9.1,9.1,9.1h37.9c5,0,9.1-4.1,9.1-9.1S136.8,139.9,131.8,139.9L131.8,139.9z"/>
					</g>
				</g>
			</g>
			<g>
				<g>
					<path class="st0" d="M194.2,99.8c-0.2,0-0.5,0-0.7-0.1c-0.2,0-0.4,0-0.6-0.1c-0.2,0-0.3-0.1-0.5-0.1c-0.3-0.1-0.5-0.2-0.8-0.3
						c-0.5-0.2-0.9-0.5-1.4-0.9l-0.1-0.1c-0.2-0.1-0.3-0.3-0.4-0.4c-0.2-0.2-0.3-0.4-0.5-0.6c0,0,0-0.1-0.1-0.1h-6.2
						c-0.2,0-0.3,0-0.5,0c-0.1,0-0.2,0-0.3-0.1c-0.1,0-0.2,0-0.2-0.1l0,0c-0.1,0-0.1,0-0.2-0.1c-0.4-0.2-0.8-0.5-1.1-0.9h-0.3
						c-0.2,0-0.6,0-0.9-0.2c-0.2-0.1-0.5-0.2-0.7-0.4l0,0h-0.1c-0.5,0-1-0.1-1.5-0.4l-0.4-0.2c-0.2-0.1-0.4-0.2-0.7-0.4
						c-0.1-0.1-0.2-0.1-0.3-0.2l0,0c-0.2-0.2-0.4-0.4-0.5-0.6c0,0,0,0,0-0.1c-0.3-0.5-0.5-1.2-0.5-1.8c0-1.4,0.8-2.6,2-3.1l0.5-0.2
						c0.4-0.2,0.9-0.3,1.5-0.3h0.1c0.4-0.4,1-0.6,1.6-0.6h0.2c0.6-0.7,1.5-1.2,2.5-1.2h6.1c0-0.1,0.1-0.1,0.1-0.2
						c0,0,0.1-0.1,0.1-0.2c0.2-0.2,0.3-0.4,0.5-0.6L190,85c0.2-0.2,0.3-0.3,0.5-0.5c0.1-0.1,0.3-0.2,0.5-0.3
						c0.2-0.1,0.3-0.2,0.5-0.3c0.3-0.2,0.6-0.3,0.8-0.3c0.6-0.2,1.2-0.3,1.8-0.3h42c3.2,0,5.9,2.6,5.9,5.9v4.5
						c0,3.3-2.6,5.9-5.9,5.9L194.2,99.8L194.2,99.8z"/>
					<path class="st0" d="M236.2,85c2.4,0,4.3,1.9,4.3,4.3v4.5c0,2.4-1.9,4.4-4.3,4.4h-42c-0.2,0-0.4,0-0.5,0s-0.2,0-0.4-0.1
						c-0.2,0-0.3,0-0.4-0.1c-0.2-0.1-0.4-0.2-0.6-0.2c-0.4-0.2-0.7-0.4-1-0.7c-0.1-0.1-0.2-0.3-0.3-0.4s-0.2-0.2-0.3-0.4
						c-0.1-0.1-0.1-0.2-0.2-0.3c-0.1-0.2-0.2-0.4-0.3-0.6h-7.1c-0.1,0-0.2,0-0.3,0s-0.1,0-0.2,0c0,0-0.1,0-0.2,0
						c-0.2-0.1-0.5-0.3-0.6-0.6c-0.1-0.1-0.2-0.3-0.2-0.5h-1.2c-0.1,0-0.3,0-0.4-0.1c-0.1,0-0.2,0-0.2-0.1l0,0
						c-0.1-0.1-0.2-0.2-0.2-0.3h-0.8c-0.3,0-0.5-0.1-0.8-0.2l-0.5-0.2c-0.1-0.1-0.3-0.1-0.4-0.2c0,0-0.1,0-0.1-0.1l-0.1-0.1
						c-0.1-0.1-0.2-0.2-0.2-0.3l0,0c-0.2-0.3-0.3-0.6-0.3-1c0-0.7,0.4-1.4,1.1-1.7l0.5-0.2c0.2-0.1,0.5-0.2,0.8-0.2h0.8
						c0.2-0.4,0.5-0.6,0.9-0.6h1.2c0.2-0.7,0.8-1.2,1.5-1.2h7.1c0.1-0.2,0.2-0.4,0.3-0.6c0-0.1,0.2-0.3,0.2-0.4
						c0.2-0.2,0.3-0.4,0.5-0.6c0.1-0.1,0.2-0.2,0.4-0.3c0.1-0.1,0.2-0.1,0.2-0.2c0.1-0.1,0.3-0.2,0.4-0.2c0.2-0.1,0.4-0.2,0.6-0.2
						c0.4-0.1,0.8-0.2,1.3-0.2L236.2,85 M236.2,81.9h-42c-0.8,0-1.6,0.1-2.3,0.4c-0.3,0.1-0.7,0.2-1.1,0.5c-0.2,0.1-0.4,0.2-0.5,0.3
						c-0.2,0.1-0.5,0.3-0.7,0.5s-0.4,0.4-0.6,0.5c0,0,0,0.1-0.1,0.1l-0.1,0.1c-0.1,0.1-0.2,0.3-0.4,0.5h-5.3c-1.2,0-2.3,0.5-3.1,1.2
						c-0.6,0.1-1.2,0.3-1.7,0.6c-0.6,0-1.2,0.2-1.7,0.5l-0.4,0.2c-1.8,0.8-2.9,2.6-2.9,4.5c0,0.9,0.2,1.8,0.7,2.6v0.1l0,0
						c0.2,0.2,0.4,0.6,0.7,0.9c0.1,0.1,0.1,0.1,0.2,0.2c0.1,0.1,0.2,0.1,0.3,0.2c0.3,0.3,0.7,0.4,0.8,0.5c0,0,0.1,0,0.1,0.1l0.4,0.2
						c0.5,0.3,1.1,0.4,1.7,0.5c0.2,0.1,0.4,0.2,0.7,0.3c0.3,0.1,0.7,0.2,1.1,0.3c0.3,0.3,0.7,0.6,1.1,0.8c0.1,0.1,0.3,0.1,0.4,0.2
						c0.1,0,0.2,0.1,0.3,0.1c0.2,0.1,0.4,0.1,0.6,0.1c0.1,0,0.4,0.1,0.7,0.1h5.3c0,0.1,0.1,0.1,0.2,0.2c0.1,0.1,0.3,0.3,0.5,0.5
						c0.1,0.1,0.1,0.1,0.2,0.2c0.6,0.5,1.1,0.8,1.7,1.1c0.2,0.1,0.5,0.2,0.9,0.4h0.1c0.2,0.1,0.4,0.1,0.6,0.1
						c0.2,0.1,0.5,0.1,0.8,0.1c0.2,0,0.5,0.1,0.8,0.1h42c4.1,0,7.5-3.4,7.5-7.5v-4.5C243.7,85.2,240.4,81.9,236.2,81.9L236.2,81.9z"
						/>
				</g>
				<g>
					<path class="st0" d="M190.5,97.6c-0.5,0-0.9-0.2-1.2-0.6l-0.4-0.6c-0.3-0.5-0.3-1.1-0.1-1.6c0.3-0.5,0.8-0.8,1.4-0.8
						c0.6,0,1.2,0.4,1.5,0.9l0.1,0.1c0,0.1,0.1,0.1,0.1,0.2c0.4,0.7,0.3,1.7-0.4,2.2C191.1,97.5,190.8,97.6,190.5,97.6z M177.4,96.6
						c-0.4,0-0.7-0.1-0.8-0.2l-0.5-0.2c-0.8-0.4-1.1-1.3-0.7-2.1c0.3-0.6,0.8-0.9,1.4-0.9c0.2,0,0.4,0,0.7,0.1l0.4,0.2
						c0-0.1,0-0.2,0.1-0.3c0.2-0.6,0.8-1.1,1.5-1.1h0.2c0.5,0,1,0.3,1.3,0.7c0.2-0.1,0.4-0.1,0.6-0.1h0.2c0.7,0,1.3,0.5,1.5,1.1l0,0
						c0.5,0.7,0.3,1.6-0.3,2.1c-0.3,0.2-0.6,0.4-1,0.4c-0.5,0-0.9-0.2-1.2-0.6l-0.2-0.3c-0.2,0.1-0.4,0.1-0.6,0.1
						c-0.3,0-0.6-0.1-0.9-0.3C178.8,96.1,178.2,96.6,177.4,96.6z"/>
					<path class="st0" d="M179.6,93.8c0.1,0.1,0.1,0.2,0.2,0.3l-0.4-0.3H179.6 M181.6,94.4c0,0.2,0.1,0.3,0.2,0.5l-0.4-0.5H181.6
						 M176.8,94.9l0.4,0.2c0.1,0,0.1,0.1,0.2,0.1c-0.1,0-0.1,0-0.2-0.1L176.8,94.9 M190.2,95.5c0.1,0.2,0.2,0.4,0.2,0.5L190.2,95.5
						L190.2,95.5 M190.5,96L190.5,96L190.5,96 M179.6,90.6h-0.2c-0.9,0-1.8,0.4-2.4,1.1c-0.1,0-0.2,0-0.2,0c-1.2,0-2.3,0.7-2.8,1.8
						c-0.7,1.5-0.1,3.4,1.5,4.1l0.4,0.2c0,0,0.1,0,0.2,0.1c0.2,0.1,0.7,0.3,1.4,0.3c0.9,0,1.7-0.4,2.3-1c0,0,0,0,0.1,0
						c0,0,0,0,0.1,0c0.6,0.5,1.3,0.7,2,0.7s1.4-0.2,2-0.7c1.2-1,1.5-2.7,0.7-4c-0.5-1.2-1.6-2-2.9-2h-0.2h-0.1
						C180.8,90.9,180.2,90.6,179.6,90.6L179.6,90.6z M190.2,92.4L190.2,92.4c-1.2,0-2.3,0.6-2.8,1.6s-0.5,2.2,0.1,3.2l0.3,0.5
						c0,0.1,0.1,0.1,0.1,0.2c0.6,0.9,1.6,1.4,2.6,1.4c0.6,0,1.2-0.2,1.7-0.5c1.4-1,1.8-2.8,0.9-4.3v-0.1l-0.1-0.1
						C192.6,93,191.5,92.4,190.2,92.4L190.2,92.4z"/>
				</g>
			</g>
		</g>
		<g>
			<g>
				<path class="st0" d="M60.9,186.2c-1.7,0-3.1-1.4-3.1-3V177c0-1.7,1.4-3.1,3.1-3.1H210c1.7,0,3.1,1.4,3.1,3.1v6.2
					c0,1.7-1.4,3-3.1,3H60.9z"/>
				<path class="st0" d="M210,175.5c0.8,0,1.5,0.7,1.5,1.5v6.2c0,0.8-0.7,1.5-1.5,1.5H60.9c-0.8,0-1.5-0.7-1.5-1.5V177
					c0-0.8,0.7-1.5,1.5-1.5H210 M210,172.4H60.9c-2.5,0-4.6,2.1-4.6,4.6v6.2c0,2.5,2.1,4.6,4.6,4.6H210c2.5,0,4.6-2.1,4.6-4.6V177
					C214.7,174.4,212.6,172.4,210,172.4L210,172.4z"/>
			</g>
		</g>
		<g>
			<g>
				<path class="st0" d="M88.5,228.4c-1.4,0-2.5-1.2-2.5-2.6v-4.5c0-1.5,1.1-2.6,2.5-2.6h94.1c1.4,0,2.5,1.2,2.5,2.6v4.5
					c0,1.4-1.1,2.6-2.5,2.6H88.5z"/>
				<path class="st0" d="M182.5,220.2c0.5,0,0.9,0.5,0.9,1.1v4.5c0,0.6-0.4,1-0.9,1H88.4c-0.5,0-0.9-0.5-0.9-1v-4.5
					c0-0.6,0.4-1.1,0.9-1.1H182.5 M182.5,217.1H88.4c-2.2,0-4.1,1.9-4.1,4.2v4.5c0,2.3,1.8,4.2,4.1,4.2h94.1c2.2,0,4.1-1.9,4.1-4.2
					v-4.5C186.6,219,184.8,217.1,182.5,217.1L182.5,217.1z"/>
			</g>
		</g>
	</g>
	<g id="CAMERA_00000124154301562700585890000006725144221121966470_">
		<path class="st1" d="M192.9,78.1v5.4c-1.5,0.3-2.8,1.2-3.7,2.5h-6.1c-1,0-1.9,0.5-2.5,1.2h-0.2c-0.6,0-1.2,0.2-1.7,0.6h-0.1
			c-0.5,0-1,0.1-1.5,0.4l-0.4,0.2c-0.7,0.4-1.3,0.9-1.7,1.6h-24.3c-3.9,0-7,3.2-7,7v3.9H78V78.1c0-2.8,2.3-5.1,5.1-5.1h104.7
			C190.6,73,192.9,75.4,192.9,78.1z"/>
		<path class="st1" d="M190.4,113.5l-3.4,2.7h-16.2c0-0.9-0.2-1.8-0.3-2.7H190.4z"/>
		<path class="st1" d="M187.2,154.6l5.7,4.6v14.6H78v-3.8h76.9c8.6,0,15.6-6.9,15.9-15.4L187.2,154.6L187.2,154.6z"/>
		<path class="st1" d="M192.9,186.4v25.2c0,2.8-2.3,5.1-5.1,5.1H83.1c-2.8,0-5.1-2.3-5.1-5.1v-25.2H192.9z"/>
		<g>
			<g>
				<path class="st1" d="M228.6,104.4h-16.1c-2.4,0-4.6,1.2-5.9,3H205c-2.7,0-5.3,0.9-7.3,2.5l-4.7,3.8l-5.4,4.3h-18.4v-1.1
					c0-1.7-0.3-3.4-0.9-4.9h22.5c0.8,0,1.5-0.2,2.2-0.5c1.9-0.9,3.2-2.7,3.2-4.9V100h-1.9c-0.5,0-0.9,0-1.3-0.1
					c-1.5-0.3-2.8-1.2-3.7-2.5h-6.1c-0.2,0-0.5,0-0.7-0.1c-0.7-0.1-1.3-0.5-1.8-1.1h-0.2c-0.6,0-1.2-0.2-1.7-0.6h-0.1
					c-0.3,0-0.5,0-0.8-0.1c-0.2,0-0.3-0.1-0.5-0.2c-0.1,0-0.1,0-0.2-0.1l-0.4-0.2c-1.3-0.6-2.1-1.8-2.1-3.2h-23.9
					c-3,0-5.4,2.4-5.4,5.4v5.5H73.7c-7.9,0-14.3,6.4-14.3,14.3v37.1c0,7.9,6.4,14.3,14.3,14.3h81.2c7.9,0,14.3-6.4,14.3-14.3V153
					h18.6l5.2,4.1l4.7,3.8c2,1.6,4.6,2.5,7.3,2.5h1.5c1.3,1.9,3.5,3.2,6,3.2h16.1c4.1,0,7.3-3.3,7.3-7.4v-47.4
					C235.9,107.6,232.6,104.4,228.6,104.4z M131.8,156.6H93.9c-4.2,0-7.6-3.4-7.6-7.6s3.4-7.6,7.6-7.6h37.9c4.2,0,7.6,3.4,7.6,7.6
					C139.4,153.2,136,156.6,131.8,156.6z"/>
			</g>
			<g>
				<g>
					<path class="st1" d="M137.8,149c0,3.3-2.7,6-6,6H93.9c-3.3,0-6-2.7-6-6s2.7-6,6-6h37.9C135.1,143,137.8,145.6,137.8,149z"/>
				</g>
			</g>
			<g>
				<path class="st1" d="M240.6,89.4v4.5c0,2.4-1.9,4.4-4.3,4.4h-42c-0.2,0-0.4,0-0.5,0s-0.2,0-0.4-0.1c-0.2,0-0.3,0-0.4-0.1
					c-0.2-0.1-0.4-0.2-0.6-0.2c-0.4-0.2-0.7-0.4-1-0.7c-0.1-0.1-0.2-0.3-0.3-0.4s-0.2-0.2-0.3-0.4c-0.1-0.1-0.1-0.2-0.2-0.3
					c-0.1-0.2-0.2-0.4-0.3-0.6h-7.1c-0.1,0-0.2,0-0.3,0s-0.1,0-0.2,0c0,0-0.1,0-0.2,0c-0.2-0.1-0.5-0.3-0.6-0.6
					c-0.1-0.1-0.2-0.3-0.2-0.5h-1.2c-0.1,0-0.3,0-0.4-0.1c-0.1,0-0.2,0-0.2-0.1l0,0c-0.1-0.1-0.2-0.2-0.2-0.3h-0.8
					c-0.3,0-0.5-0.1-0.8-0.2l-0.5-0.2c-0.1-0.1-0.3-0.1-0.4-0.2c0,0-0.1,0-0.1-0.1L177,93c-0.1-0.1-0.2-0.2-0.2-0.3l0,0
					c-0.2-0.3-0.3-0.6-0.3-1c0-0.7,0.4-1.4,1.1-1.7l0.5-0.2c0.2-0.1,0.5-0.2,0.8-0.2h0.8c0.2-0.4,0.5-0.6,0.9-0.6h1.2
					c0.2-0.7,0.8-1.2,1.5-1.2h7.1c0.1-0.2,0.2-0.4,0.3-0.6c0-0.1,0.2-0.3,0.2-0.4c0.2-0.2,0.3-0.4,0.5-0.6c0.1-0.1,0.2-0.2,0.4-0.3
					c0.1-0.1,0.2-0.1,0.2-0.2c0.1-0.1,0.3-0.2,0.4-0.2c0.2-0.1,0.4-0.2,0.6-0.2c0.4-0.1,0.8-0.2,1.3-0.2h42
					C238.6,85,240.6,86.9,240.6,89.4z"/>
				<path class="st2" d="M190.2,95.5L190.2,95.5l0.3,0.6C190.4,95.9,190.3,95.8,190.2,95.5z M181.6,94.4h-0.2l0.4,0.5
					C181.8,94.6,181.7,94.5,181.6,94.4z M179.6,93.8h-0.2l0.4,0.3C179.7,93.9,179.6,93.9,179.6,93.8z M177.2,95l-0.4-0.2L177.2,95
					c0.1,0,0.1,0.1,0.2,0.1C177.3,95.1,177.3,95,177.2,95z"/>
			</g>
		</g>
		<g>
			<path class="st1" d="M211.5,177v6.2c0,0.8-0.7,1.5-1.5,1.5H60.9c-0.8,0-1.5-0.7-1.5-1.5V177c0-0.8,0.7-1.5,1.5-1.5H210
				C210.8,175.5,211.5,176.1,211.5,177z"/>
		</g>
		<g>
			<path class="st1" d="M183.5,221.4v4.5c0,0.6-0.4,1-0.9,1H88.5c-0.5,0-0.9-0.5-0.9-1v-4.5c0-0.6,0.4-1.1,0.9-1.1h94.1
				C183,220.2,183.5,220.8,183.5,221.4z"/>
		</g>
	</g>
</g>
</svg>
