<?xml version="1.0" encoding="utf-8"?>
<!-- Generator: Adobe Illustrator 27.9.0, SVG Export Plug-In . SVG Version: 6.00 Build 0)  -->
<svg version="1.1" id="레이어_4" xmlns="http://www.w3.org/2000/svg" xmlns:xlink="http://www.w3.org/1999/xlink" x="0px"
	 y="0px" viewBox="0 0 34.02 17.01" style="enable-background:new 0 0 34.02 17.01;" xml:space="preserve">
<style type="text/css">
	.st0{fill:#FFFFFF;}
</style>
<g>
	<path d="M9.04,4.75c-0.17-0.13-0.38-0.2-0.58-0.2c-0.16,0-0.31,0.04-0.45,0.12C7.97,4.69,7.94,4.71,7.92,4.73
		c-0.07,0.05-0.14,0.12-0.2,0.19l-0.7,0.9l-0.1,0.12L7,6c0.01,0,0.01,0.01,0.02,0.01L8.41,7.1l0.8-1.03
		c0.1-0.13,0.16-0.28,0.19-0.43C9.4,5.59,9.4,5.54,9.4,5.5C9.4,5.22,9.27,4.94,9.04,4.75z M8.67,5.45c-0.12,0-0.22-0.1-0.22-0.22
		c0-0.12,0.1-0.22,0.22-0.22c0.12,0,0.22,0.1,0.22,0.22C8.89,5.35,8.79,5.45,8.67,5.45z"/>
	<path d="M9.4,4.11v1.01C9.34,4.96,9.23,4.81,9.08,4.7C8.9,4.56,8.69,4.48,8.46,4.48c-0.16,0-0.31,0.04-0.45,0.1
		C7.88,4.65,7.76,4.75,7.66,4.87L6.92,5.82H2.84V4.11H9.4z"/>
	<path d="M9.39,11.19v1.71H2.84v-0.98c0.07,0.16,0.17,0.3,0.31,0.4c0.18,0.14,0.4,0.21,0.62,0.21c0.32,0,0.61-0.14,0.8-0.39
		l0.74-0.96H9.39z"/>
	<g>
		<path d="M3.8,9.95l-0.77,1c-0.13,0.17-0.2,0.38-0.2,0.58c0,0.04,0,0.07,0.01,0.1c0.03,0.24,0.15,0.48,0.36,0.64
			c0.03,0.03,0.07,0.05,0.1,0.07c0.01,0.01,0.02,0.01,0.03,0.02c0.02,0.01,0.05,0.02,0.07,0.03c0.01,0.01,0.02,0.01,0.04,0.01
			c0,0,0,0,0,0c0.04,0.01,0.07,0.03,0.11,0.03c0.02,0.01,0.05,0.01,0.07,0.02c0.05,0.01,0.1,0.01,0.15,0.01c0.02,0,0.03,0,0.05,0
			c0.01,0,0.02,0,0.04,0c0.01,0,0.01,0,0.02,0c0.02,0,0.05-0.01,0.07-0.01c0,0,0.01,0,0.01,0c0.02,0,0.05-0.01,0.07-0.02
			c0.01,0,0.01,0,0.02-0.01c0.01,0,0.02-0.01,0.04-0.01c0.01,0,0.03-0.01,0.04-0.02c0,0,0,0,0,0c0.06-0.03,0.13-0.06,0.19-0.1
			c0.07-0.05,0.14-0.12,0.2-0.19l0.7-0.91l0.07-0.09L3.8,9.95z M3.55,12.01c-0.12,0-0.22-0.1-0.22-0.22c0-0.12,0.1-0.22,0.22-0.22
			c0.12,0,0.22,0.1,0.22,0.22C3.77,11.91,3.67,12.01,3.55,12.01z"/>
	</g>
	<g>
		<path d="M3.7,11.79c0,0.08-0.06,0.14-0.15,0.14c-0.08,0-0.15-0.06-0.15-0.14c0-0.08,0.07-0.15,0.15-0.15
			C3.63,11.65,3.7,11.71,3.7,11.79z"/>
	</g>
	<g>
		<path d="M8.81,5.23c0,0.08-0.06,0.15-0.14,0.15c-0.08,0-0.15-0.07-0.15-0.15s0.06-0.15,0.15-0.15C8.75,5.08,8.81,5.15,8.81,5.23z"
			/>
	</g>
	<g id="스프링">
		<g>
			<polygon points="5.59,10.18 4.99,9.71 4.72,9.32 5.31,9.79 5.31,9.79 			"/>
		</g>
		<g>
			<polygon points="5.26,10.59 4.66,10.12 4.39,9.73 4.99,10.2 			"/>
		</g>
		<g>
			<path d="M5.75,10.46c0,0,0,0.01,0,0.01c0,0,0,0.01,0,0.01c0,0,0,0,0,0c0,0.02-0.01,0.03-0.02,0.04
				c-0.02,0.03-0.06,0.04-0.09,0.04c-0.02,0-0.05-0.01-0.07-0.02l-0.21-0.16l-0.32-0.25l-0.2-0.15l0,0L4.27,9.53
				C4.26,9.53,4.25,9.52,4.24,9.51c0,0,0,0,0,0c0,0,0-0.01-0.01-0.01c0,0,0-0.01,0-0.01c0,0,0-0.01,0-0.01c0-0.01,0-0.01,0-0.02
				c0-0.01,0-0.02,0-0.02c0-0.01,0-0.01,0-0.02c0,0,0,0,0-0.01c0-0.01,0-0.01,0.01-0.02c0,0,0,0,0,0c0,0,0,0,0,0c0,0,0,0,0-0.01
				c0,0,0,0,0-0.01c0,0,0,0,0,0c0,0,0,0,0,0c0.01-0.01,0.02-0.02,0.03-0.03c0,0,0,0,0,0c0,0,0,0,0.01,0c0,0,0,0,0,0c0,0,0,0,0,0h0
				c0,0,0,0,0,0s0,0,0,0c0,0,0,0,0,0c0,0,0.01,0,0.01,0l0,0c0,0,0,0,0,0c0,0,0.01,0,0.01,0c0,0,0,0,0,0c0,0,0,0,0.01,0c0,0,0,0,0,0
				h0.01c0.01,0,0.01,0,0.02,0c0,0,0.01,0,0.01,0c0,0,0,0,0,0c0,0,0,0,0,0c0,0,0.01,0,0.01,0.01c0,0,0,0,0,0c0,0,0,0,0.01,0
				c0,0,0.01,0,0.01,0.01c0,0,0.01,0,0.01,0.01l0.2,0.16l0.32,0.25l0.2,0.15l0.58,0.46c0.01,0.01,0.03,0.03,0.03,0.04
				c0,0.01,0.01,0.02,0.01,0.02c0,0,0,0.01,0,0.01C5.75,10.45,5.75,10.46,5.75,10.46z"/>
		</g>
		<g>
			<polygon points="5.9,9.77 5.31,9.3 5.03,8.91 5.63,9.38 			"/>
			<path class="st0" d="M5.05,8.53C5.04,8.53,5.04,8.53,5.05,8.53C5.04,8.53,5.05,8.53,5.05,8.53L5.05,8.53z M5.01,8.51
				C5.01,8.51,5.01,8.51,5.01,8.51C5.01,8.51,5.02,8.52,5.01,8.51C5.02,8.52,5.02,8.52,5.01,8.51z M5,8.51C5,8.51,5,8.51,5,8.51
				c-0.01,0-0.02,0-0.02,0c-0.01,0-0.02,0-0.03,0c-0.01,0-0.01,0-0.02,0.01c0,0,0,0,0,0c0,0,0.01,0,0.01,0c0.01,0,0.02,0,0.03,0
				C4.98,8.51,4.99,8.51,5,8.51C5,8.51,5,8.51,5,8.51z M4.93,8.52L4.93,8.52C4.93,8.52,4.93,8.52,4.93,8.52
				C4.93,8.52,4.93,8.52,4.93,8.52z M4.92,8.52C4.92,8.52,4.92,8.52,4.92,8.52C4.92,8.52,4.92,8.52,4.92,8.52
				C4.93,8.52,4.93,8.52,4.92,8.52C4.92,8.52,4.92,8.52,4.92,8.52z M4.89,8.55C4.88,8.55,4.88,8.56,4.89,8.55
				C4.88,8.56,4.89,8.55,4.89,8.55C4.89,8.55,4.89,8.55,4.89,8.55z"/>
		</g>
		<g>
			<path d="M6.07,10.05c0,0,0,0.01,0,0.01c0,0,0,0.01,0,0.01c0,0,0,0,0,0c0,0.02-0.01,0.03-0.02,0.04
				c-0.02,0.03-0.06,0.04-0.09,0.04c-0.02,0-0.05-0.01-0.07-0.02L5.68,9.98L5.37,9.74l0,0L5.17,9.58L4.59,9.12
				c-0.01,0-0.01-0.01-0.02-0.02c0,0,0,0,0,0l0-0.01C4.56,9.09,4.55,9.08,4.55,9.07c0-0.01,0-0.02,0-0.03c0,0,0-0.01,0-0.01v0
				c0,0,0-0.01,0-0.01c0,0,0,0,0-0.01c0,0,0-0.01,0-0.01c0,0,0,0,0-0.01c0,0,0,0,0,0c0,0,0,0,0,0c0,0,0,0,0-0.01
				c0,0,0-0.01,0.01-0.01c0.01-0.01,0.01-0.01,0.02-0.02c0,0,0.01-0.01,0.01-0.01c0.01,0,0.01-0.01,0.02-0.01
				c0.01,0,0.02,0,0.02-0.01c0,0,0,0,0.01,0h0.01c0.02,0,0.05,0.01,0.07,0.02l0.01,0.01l0.2,0.16l0.31,0.24l0.2,0.15l0.58,0.46
				C6.04,9.98,6.05,9.99,6.06,10c0,0.01,0.01,0.02,0.01,0.02c0,0,0,0.01,0,0.01C6.07,10.04,6.07,10.05,6.07,10.05z"/>
		</g>
		<g>
			<polygon points="6.22,9.36 5.62,8.89 5.35,8.5 5.95,8.97 5.95,8.97 			"/>
		</g>
		<g>
			<path d="M6.39,9.63c0,0.01,0,0.02,0,0.02c0,0,0,0.01,0,0.01c0,0.02-0.01,0.03-0.02,0.05C6.34,9.74,6.31,9.76,6.28,9.76
				c-0.02,0-0.05-0.01-0.07-0.02L6,9.57L5.69,9.32v0l-0.2-0.15l0,0L4.9,8.71C4.9,8.71,4.89,8.7,4.89,8.69
				c0-0.01-0.01-0.01-0.01-0.02c0,0,0-0.01-0.01-0.02c0,0,0-0.01,0-0.01c0,0,0,0,0-0.01v0c0,0,0-0.01,0-0.02c0-0.01,0-0.02,0-0.02
				c0,0,0,0,0-0.01c0,0,0,0,0,0c0-0.01,0-0.01,0.01-0.02c0-0.01,0.01-0.01,0.01-0.02c0,0,0.01-0.01,0.01-0.01
				C4.9,8.54,4.9,8.53,4.91,8.53c0,0,0,0,0,0c0,0,0,0,0,0s0,0,0,0c0,0,0,0,0,0c0,0,0,0,0,0c0,0,0,0,0,0c0,0,0,0,0,0
				c0,0,0.01,0,0.01,0c0,0,0,0,0,0c0,0,0,0,0,0c0,0,0,0,0,0v0c0,0,0,0,0,0c0,0,0,0,0,0c0,0,0,0,0,0c0,0,0.01,0,0.01,0
				c0.01,0,0.02,0,0.03,0c0.01,0,0.02,0,0.02,0c0,0,0,0,0,0c0,0,0,0,0,0c0.01,0,0.01,0,0.02,0.01c0.01,0,0.01,0.01,0.02,0.01
				c0,0,0.01,0.01,0.01,0.01l0.2,0.16l0,0l0.31,0.25l0.2,0.15l0.58,0.46c0,0,0.01,0.01,0.01,0.01c0,0,0,0,0,0l0,0c0,0,0,0,0,0
				c0,0,0,0,0,0.01c0,0,0,0,0,0.01c0,0,0,0,0,0c0,0,0,0,0,0c0,0,0,0,0,0l0,0c0,0,0,0,0,0l0,0c0,0,0,0,0,0v0c0,0,0,0,0,0
				c0,0,0,0,0,0.01c0,0,0,0,0,0C6.39,9.61,6.39,9.62,6.39,9.63z"/>
		</g>
		<g>
			<polygon points="6.54,8.95 5.94,8.48 5.67,8.08 6.27,8.55 			"/>
			<path class="st0" d="M5.67,7.7L5.67,7.7L5.67,7.7C5.67,7.7,5.68,7.71,5.67,7.7C5.68,7.71,5.68,7.71,5.67,7.7
				C5.68,7.71,5.67,7.7,5.67,7.7z M5.64,7.69C5.64,7.69,5.64,7.69,5.64,7.69C5.64,7.69,5.64,7.69,5.64,7.69c0,0,0.01,0,0.01,0
				C5.65,7.69,5.64,7.69,5.64,7.69z M5.61,7.69c-0.02,0-0.03,0-0.05,0.01c0,0-0.01,0-0.01,0c0,0,0,0,0,0c0,0,0,0,0,0
				c0,0,0.01,0,0.01-0.01c0,0,0,0,0,0c0,0,0.01,0,0.01,0c0.01,0,0.01,0,0.02,0C5.6,7.69,5.61,7.69,5.61,7.69c0.01,0,0.02,0,0.03,0
				c0,0,0,0,0,0C5.63,7.69,5.62,7.69,5.61,7.69z M5.55,7.71C5.55,7.71,5.55,7.71,5.55,7.71C5.55,7.71,5.55,7.71,5.55,7.71L5.55,7.71
				C5.55,7.71,5.55,7.71,5.55,7.71C5.55,7.71,5.55,7.71,5.55,7.71C5.55,7.71,5.55,7.71,5.55,7.71z M5.54,7.71
				C5.54,7.71,5.54,7.71,5.54,7.71C5.54,7.71,5.54,7.71,5.54,7.71C5.55,7.71,5.54,7.71,5.54,7.71z M5.52,7.73
				C5.52,7.73,5.52,7.74,5.52,7.73C5.52,7.73,5.53,7.73,5.52,7.73C5.53,7.73,5.53,7.73,5.52,7.73z M5.5,7.78
				c0-0.01,0.01-0.02,0.01-0.03C5.51,7.76,5.51,7.77,5.5,7.78z"/>
		</g>
		<g>
			<path d="M6.71,9.23c0,0,0,0.01,0,0.01c0,0,0,0.01,0,0.01c0,0,0,0,0,0c0,0.02-0.01,0.03-0.02,0.04C6.66,9.33,6.63,9.35,6.6,9.35
				c-0.02,0-0.05-0.01-0.07-0.02L6.32,9.16L6.01,8.91v0l-0.2-0.15l0,0L5.23,8.3C5.21,8.29,5.21,8.28,5.2,8.27c0,0,0-0.01-0.01-0.01
				c0,0,0-0.01,0-0.01c0,0,0-0.01,0-0.01c0,0,0,0,0,0c0,0,0-0.01,0-0.01c0,0,0,0,0-0.01v0c0,0,0,0,0,0v0c0,0,0-0.01,0-0.01v0
				c0,0,0,0,0,0c0,0,0,0,0,0c0,0,0,0,0,0c0,0,0,0,0-0.01c0,0,0,0,0,0c0,0,0,0,0,0l0,0v0c0,0,0,0,0,0c0,0,0,0,0,0c0,0,0,0,0,0v0
				c0,0,0,0,0,0c0,0,0,0,0,0c0,0,0-0.01,0.01-0.01c0,0,0-0.01,0.01-0.01C5.23,8.11,5.26,8.1,5.3,8.1c0.02,0,0.04,0,0.05,0.01
				c0.01,0,0.01,0.01,0.02,0.01l0.01,0.01l0.2,0.16l0.31,0.25l0.2,0.15l0.58,0.46C6.68,9.15,6.69,9.17,6.7,9.18
				c0,0.01,0.01,0.02,0.01,0.02c0,0,0,0.01,0,0.01C6.71,9.22,6.71,9.22,6.71,9.23z"/>
		</g>
		<g>
			<polygon points="6.86,8.54 6.26,8.07 5.99,7.67 6.59,8.14 6.59,8.14 			"/>
		</g>
		<g>
			<path d="M7.03,8.82L7.03,8.82c0,0.01,0,0.01,0,0.01c0,0,0,0,0,0.01c0,0,0,0,0,0c0,0.01,0,0.02-0.01,0.03c0,0,0,0.01-0.01,0.01
				c0,0,0,0.01-0.01,0.01C6.98,8.92,6.95,8.93,6.92,8.93c-0.02,0-0.05-0.01-0.07-0.02L6.64,8.75L6.32,8.5l0,0L6.13,8.35l0,0
				L5.54,7.89C5.53,7.88,5.53,7.87,5.52,7.86c0,0,0,0,0,0c0,0,0-0.01-0.01-0.01c0,0,0-0.01,0-0.01c0,0,0-0.01,0-0.02c0,0,0,0,0-0.01
				c0-0.01,0-0.01,0-0.02c0,0,0,0,0,0c0,0,0-0.01,0-0.01c0-0.01,0.01-0.02,0.01-0.03c0,0,0-0.01,0.01-0.01c0,0,0-0.01,0.01-0.01
				c0,0,0,0,0,0c0,0,0.01-0.01,0.01-0.01c0,0,0,0,0,0c0,0,0,0,0,0c0,0,0,0,0,0h0c0,0,0,0,0,0c0,0,0,0,0,0c0,0,0,0,0,0c0,0,0,0,0,0
				c0,0,0.01,0,0.01-0.01c0,0,0,0,0,0c0,0,0.01,0,0.01,0c0.01,0,0.01,0,0.02,0c0.01,0,0.01,0,0.02,0c0.01,0,0.02,0,0.03,0
				c0,0,0,0,0,0s0,0,0,0c0,0,0,0,0,0c0,0,0.01,0,0.01,0h0c0,0,0.01,0,0.01,0c0,0,0.01,0,0.01,0h0v0c0,0,0.01,0,0.01,0.01
				c0,0,0,0,0,0c0,0,0,0,0,0c0,0,0,0,0,0l0.21,0.16l0.32,0.25l0.2,0.15l0.58,0.46C7.01,8.75,7.02,8.77,7.03,8.8c0,0,0,0.01,0,0.01
				C7.03,8.81,7.03,8.81,7.03,8.82z"/>
		</g>
		<g>
			<polygon points="7.18,8.13 6.58,7.66 6.31,7.26 6.91,7.73 			"/>
		</g>
		<g>
			<path d="M7.27,8.52c-0.01,0-0.02,0-0.03,0C7.25,8.52,7.26,8.52,7.27,8.52z"/>
			<path d="M7.35,8.39C7.35,8.39,7.35,8.39,7.35,8.39c0-0.02-0.01-0.03-0.01-0.03C7.33,8.35,7.32,8.33,7.31,8.32L6.72,7.86
				l-0.2-0.15L6.21,7.46L6.01,7.3l0,0C6,7.3,6,7.3,5.99,7.29c0,0,0,0-0.01,0c-0.01,0-0.01,0-0.02-0.01c-0.01,0-0.01,0-0.02,0
				c-0.01,0-0.01,0-0.02,0H5.93l-0.01,0c0,0-0.01,0-0.01,0c0,0-0.01,0-0.01,0c0,0,0,0-0.01,0c0,0,0,0-0.01,0c0,0-0.01,0-0.01,0.01
				c0,0-0.01,0-0.01,0.01L5.84,7.32c0,0-0.01,0.01-0.01,0.02c0,0,0,0.01-0.01,0.01c0,0,0,0,0,0c0,0.01,0,0.01,0,0.02
				c0,0.01,0,0.02,0,0.03c0,0,0,0.01,0,0.01c0,0,0,0.01,0,0.01c0,0,0,0,0,0c0,0,0,0.01,0,0.01c0,0,0,0.01,0.01,0.01
				c0.01,0.01,0.02,0.02,0.03,0.03l0.58,0.46l0.2,0.15l0,0l0.31,0.25L7.17,8.5c0.02,0.02,0.05,0.02,0.07,0.02
				c0.03,0,0.07-0.01,0.09-0.04c0.01-0.01,0.02-0.03,0.02-0.04c0,0,0,0,0,0c0,0,0-0.01,0-0.01c0,0,0-0.01,0-0.01
				C7.35,8.4,7.35,8.4,7.35,8.39z M7.23,8.52c0.01,0,0.02,0,0.03,0C7.26,8.52,7.25,8.52,7.23,8.52z"/>
		</g>
		<g>
			<polygon points="7.5,7.72 6.9,7.25 6.63,6.85 7.23,7.32 			"/>
		</g>
		<g>
			<path d="M7.67,7.99C7.67,7.99,7.67,7.98,7.67,7.99c0-0.01,0-0.01,0-0.02c0,0,0-0.01,0-0.01c0,0,0-0.01-0.01-0.01
				C7.65,7.93,7.64,7.92,7.63,7.91L7.04,7.45L6.85,7.3L6.53,7.05v0L6.32,6.89c0,0,0,0-0.01,0c0,0-0.01-0.01-0.02-0.01
				c0,0-0.01,0-0.02-0.01c0,0-0.01,0-0.01,0c-0.01,0-0.01,0-0.02,0l-0.01,0c0,0,0,0-0.01,0c0,0,0,0,0,0l-0.01,0h0l-0.02,0l-0.01,0
				l0,0c0,0,0,0,0,0l-0.01,0c0,0-0.01,0-0.01,0.01c0,0-0.01,0.01-0.01,0.01c0,0-0.01,0.01-0.01,0.01c0,0.01-0.01,0.01-0.01,0.02
				C6.15,6.94,6.14,6.95,6.14,6.96c0,0.01,0,0.01,0,0.02c0,0,0,0.01,0,0.01v0c0,0,0,0,0,0v0h0c0,0,0,0,0,0v0c0,0,0,0,0,0
				c0,0,0,0.01,0,0.01v0c0,0,0,0,0,0c0,0,0,0,0,0c0,0,0,0,0,0c0,0,0,0,0,0c0,0,0,0.01,0.01,0.01c0,0,0,0.01,0.01,0.01
				c0,0,0.01,0.01,0.01,0.01c0,0,0,0,0.01,0.01c0,0,0.01,0.01,0.01,0.01l0.58,0.46l0.2,0.15l0.32,0.25l0.21,0.16
				c0.02,0.02,0.05,0.02,0.07,0.02c0.03,0,0.07-0.01,0.09-0.04c0.01-0.01,0.01-0.02,0.02-0.03c0,0,0,0,0-0.01c0,0,0,0,0,0
				c0,0,0,0,0,0v0c0,0,0-0.01,0-0.01c0,0,0,0,0,0C7.67,8.01,7.67,8,7.67,7.99C7.67,7.99,7.67,7.99,7.67,7.99z M7.56,8.11
				c0.01,0,0.02,0,0.03,0C7.58,8.11,7.57,8.11,7.56,8.11z"/>
		</g>
		<g>
			<polygon points="7.82,7.31 7.22,6.84 7.22,6.84 6.95,6.45 7.55,6.92 7.55,6.92 			"/>
		</g>
		<g>
			<path d="M7.99,7.59c0,0.01,0,0.01,0,0.02c0,0,0,0.01,0,0.01c0,0,0,0.01,0,0.01c0,0,0,0.01-0.01,0.01c0,0.01-0.01,0.01-0.01,0.02
				c0,0-0.01,0.01-0.01,0.01c0,0-0.01,0.01-0.01,0.01c-0.01,0-0.01,0.01-0.02,0.01c0,0,0,0-0.01,0c0,0-0.01,0-0.01,0
				c0,0-0.01,0-0.01,0c0,0-0.01,0-0.01,0c0,0,0,0,0,0H7.87c0,0-0.01,0-0.01,0c0,0-0.01,0-0.01,0c0,0-0.01,0-0.01,0
				c0,0-0.01,0-0.01-0.01c0,0-0.01,0-0.01,0c0,0,0,0,0,0c0,0,0,0-0.01,0L7.6,7.52v0L7.28,7.27l-0.2-0.15L6.5,6.66
				C6.49,6.65,6.49,6.64,6.48,6.63v0c0,0,0-0.01-0.01-0.01c0,0,0,0,0-0.01c0,0,0-0.01,0-0.01c0-0.01,0-0.01,0-0.02
				c0-0.01,0-0.03,0-0.04c0-0.01,0.01-0.03,0.02-0.04c0,0,0.01-0.01,0.01-0.01c0,0,0.01-0.01,0.01-0.01c0,0,0,0,0,0
				c0,0,0.01,0,0.01-0.01c0,0,0,0,0,0c0,0,0,0,0,0c0,0,0,0,0.01,0c0,0,0.01,0,0.02-0.01c0,0,0,0,0,0c0,0,0.01,0,0.01,0c0,0,0,0,0,0
				c0,0,0.01,0,0.01,0c0,0,0,0,0,0h0c0,0,0,0,0,0h0c0.01,0,0.01,0,0.02,0c0.01,0,0.01,0,0.02,0c0,0,0,0,0,0c0.01,0,0.01,0,0.02,0.01
				c0,0,0,0,0,0c0,0,0.01,0,0.01,0.01c0,0,0,0,0,0l0,0l0.2,0.16l0.31,0.24l0,0l0.19,0.15l0,0L7.94,7.5
				C7.97,7.52,7.99,7.55,7.99,7.59z"/>
		</g>
		<g>
			<path d="M5.43,10.86c0,0.01,0,0.02,0,0.03c0,0,0,0.01,0,0.01c0,0,0,0.01,0,0.01c0,0.01,0,0.01-0.01,0.02c0,0,0,0.01,0,0.01
				c0,0,0,0.01-0.01,0.01c0,0,0,0,0,0c0,0,0,0.01-0.01,0.01l-0.03,0.02h0c0,0,0,0,0,0c0,0,0,0,0,0l0,0c0,0,0,0-0.01,0c0,0,0,0,0,0
				l-0.01,0c0,0-0.01,0-0.01,0h0c0,0-0.01,0-0.01,0c0,0,0,0-0.01,0l0,0c0,0-0.01,0-0.01,0h0c0,0,0,0,0,0c0,0,0,0,0,0h0
				c0,0-0.01,0-0.01-0.01c0,0,0,0-0.01,0c0,0,0,0-0.01,0c0,0,0,0,0,0c0,0,0,0,0,0l0,0l-0.2-0.16L3.95,9.94
				C3.9,9.9,3.89,9.83,3.93,9.78c0.02-0.03,0.06-0.04,0.09-0.04c0.02,0,0.05,0.01,0.07,0.02l0.52,0.41l0.2,0.15l0.58,0.46
				c0.01,0.01,0.02,0.02,0.02,0.03c0.01,0.01,0.01,0.02,0.01,0.03c0,0,0,0.01,0,0.01c0,0,0,0,0,0C5.43,10.85,5.43,10.86,5.43,10.86z
				"/>
		</g>
		<g>
			<path d="M8.28,7.25C8.26,7.28,8.23,7.29,8.19,7.29c-0.02,0-0.05-0.01-0.07-0.02L7.61,6.86l0,0L7.41,6.71L6.82,6.25
				c0,0-0.01-0.01-0.01-0.01c0,0-0.01,0-0.01-0.01c0,0,0,0,0,0c0,0,0,0,0,0c0,0,0,0,0-0.01c0,0,0,0,0,0c0,0,0-0.01-0.01-0.01
				c0,0,0,0,0,0c0,0,0,0,0,0c0,0,0,0,0,0c0,0,0,0,0,0c0,0,0,0,0,0c0,0,0,0,0,0v0c0,0,0,0,0,0l0,0c0,0,0,0,0,0c0,0,0,0,0,0v0
				c0,0,0,0,0,0c0,0,0,0,0,0c0,0,0,0,0,0c0,0,0,0,0,0c0,0,0,0,0,0c0,0,0,0,0,0v0c0,0,0,0,0,0c0,0,0,0,0,0c0,0,0,0,0,0c0,0,0,0,0,0
				c0,0,0,0,0,0c0,0,0-0.01,0-0.01v0c0,0,0-0.01,0-0.01c0,0,0-0.01,0-0.01v0c0,0,0,0,0-0.01c0,0,0,0,0,0c0,0,0-0.01,0-0.01
				c0,0,0-0.01,0.01-0.01c0,0,0-0.01,0.01-0.01c0,0,0-0.01,0.01-0.01c0,0,0.01-0.01,0.01-0.01c0,0,0.01-0.01,0.01-0.01c0,0,0,0,0,0
				c0,0,0.01,0,0.01-0.01c0,0,0.01,0,0.01,0c0,0,0,0,0,0c0,0,0,0,0,0c0,0,0,0,0,0c0,0,0.01,0,0.01,0c0,0,0.01,0,0.01,0
				c0,0,0.01,0,0.01,0c0,0,0.01,0,0.01,0c0.02,0,0.05,0.01,0.07,0.02l0.01,0.01l0.2,0.16l0,0l1.09,0.85
				C8.31,7.13,8.32,7.2,8.28,7.25z"/>
		</g>
	</g>
	<g>
		<path d="M8.72,9.85c-0.02,0-0.03,0-0.05,0c-0.17,0.01-0.32,0.08-0.43,0.2c-0.12,0.12-0.2,0.29-0.2,0.48V11h1.36v-0.47
			C9.39,10.15,9.09,9.85,8.72,9.85z M8.79,10.51c-0.01-0.15-0.06-0.29-0.11-0.4c-0.02-0.06-0.06-0.14-0.05-0.16
			c0,0,0.03-0.01,0.09-0.01c0.33,0,0.59,0.26,0.6,0.58H8.79z"/>
		<g>
			<rect x="8.07" y="11.04" width="1.28" height="0.12"/>
		</g>
	</g>
	<g>
		<path d="M13.31,4.11c-0.19,0-0.37,0.06-0.52,0.18c-0.13,0.1-0.23,0.24-0.29,0.4L9.72,12.9h1.82l0.67-2l0.02-0.07l0.58-1.71
			l0.02-0.07l0.78-2.32l0.5-1.49C14.31,4.68,13.9,4.11,13.31,4.11z M13.43,4.86c-0.14,0-0.26-0.12-0.26-0.26
			c0-0.14,0.12-0.26,0.26-0.26c0.14,0,0.26,0.12,0.26,0.26C13.68,4.75,13.57,4.86,13.43,4.86z"/>
		<path d="M12.77,4.21l-0.03-0.1h0.21C12.88,4.13,12.82,4.17,12.77,4.21z"/>
		<g>
			<path d="M15.75,9.97c0,0.1-0.08,0.18-0.18,0.18c-0.1,0-0.18-0.08-0.18-0.18c0-0.1,0.08-0.18,0.18-0.18
				C15.66,9.79,15.75,9.87,15.75,9.97z"/>
		</g>
		<g>
			<path d="M13.61,4.61c0,0.1-0.08,0.18-0.18,0.18c-0.1,0-0.18-0.08-0.18-0.18c0-0.1,0.08-0.18,0.18-0.18
				C13.53,4.42,13.61,4.51,13.61,4.61z"/>
			<path d="M17.52,12.9H15.7l-0.67-2h0.37c0.51,0,0.93-0.42,0.93-0.93c0-0.51-0.42-0.93-0.93-0.93h-1l-0.74-2.2l0.53-1.59
				c0.1-0.29,0.05-0.59-0.13-0.84c-0.1-0.14-0.23-0.25-0.39-0.31h0.86L17.52,12.9z"/>
			<path d="M15.4,9.12h-2.5l-0.58,1.71h3.08c0.24,0,0.45-0.1,0.6-0.25c0.15-0.15,0.25-0.37,0.25-0.6C16.25,9.5,15.87,9.12,15.4,9.12
				z M15.56,10.23c-0.14,0-0.26-0.12-0.26-0.26c0-0.14,0.12-0.26,0.26-0.26c0.14,0,0.26,0.12,0.26,0.26
				C15.82,10.12,15.71,10.23,15.56,10.23z"/>
		</g>
		<g>
			<path d="M15.75,9.97c0,0.1-0.08,0.18-0.18,0.18c-0.1,0-0.18-0.08-0.18-0.18c0-0.1,0.08-0.18,0.18-0.18
				C15.66,9.79,15.75,9.87,15.75,9.97z"/>
		</g>
	</g>
	<g>
		<path d="M24.44,4.11l-2.98,8.79h-0.86c0.15-0.06,0.29-0.17,0.39-0.31c0.18-0.25,0.22-0.55,0.13-0.84l-0.53-1.59l2.04-6.05H24.44z"
			/>
		<path d="M19.88,12.9h-0.21l0.03-0.1C19.75,12.84,19.81,12.87,19.88,12.9z"/>
		<g>
			<path d="M21.05,11.77l-0.5-1.49l-2.08-6.17h-1.82l2.78,8.21c0.06,0.16,0.16,0.3,0.29,0.4c0.01,0,0.01,0.01,0.02,0.02
				c0.14,0.1,0.31,0.16,0.5,0.16C20.82,12.9,21.24,12.33,21.05,11.77z M20.35,12.66c-0.14,0-0.26-0.12-0.26-0.26
				c0-0.14,0.12-0.26,0.26-0.26c0.14,0,0.26,0.12,0.26,0.26C20.61,12.54,20.5,12.66,20.35,12.66z"/>
		</g>
		<g>
			<path d="M20.54,12.4c0,0.1-0.08,0.18-0.18,0.18c-0.1,0-0.18-0.08-0.18-0.18c0-0.1,0.08-0.18,0.18-0.18
				C20.45,12.22,20.54,12.3,20.54,12.4z"/>
		</g>
	</g>
	<g>
		<path d="M29.41,9.97c0,0.1-0.08,0.18-0.18,0.18c-0.1,0-0.18-0.08-0.18-0.18c0-0.1,0.08-0.18,0.18-0.18
			C29.33,9.79,29.41,9.87,29.41,9.97z"/>
		<path d="M26.61,4.11c-0.06,0.03-0.12,0.06-0.18,0.1l-0.03-0.1H26.61z"/>
		<path d="M27.27,4.61c0,0.1-0.08,0.18-0.18,0.18c-0.1,0-0.18-0.08-0.18-0.18c0-0.1,0.08-0.18,0.18-0.18
			C27.19,4.42,27.27,4.51,27.27,4.61z"/>
		<path d="M31.18,12.9h-1.82l-0.67-2h0.37c0.51,0,0.93-0.42,0.93-0.93c0-0.51-0.42-0.93-0.93-0.93h-1l-0.74-2.2l0.53-1.59
			c0.1-0.29,0.05-0.59-0.13-0.84c-0.1-0.14-0.23-0.25-0.39-0.31h0.86L31.18,12.9z"/>
		<g>
			<path d="M29.41,9.97c0,0.1-0.08,0.18-0.18,0.18c-0.1,0-0.18-0.08-0.18-0.18c0-0.1,0.08-0.18,0.18-0.18
				C29.33,9.79,29.41,9.87,29.41,9.97z"/>
			<path d="M29.06,9.12h-2.5l-0.58,1.71h3.08c0.16,0,0.31-0.05,0.44-0.12c0.02-0.01,0.05-0.03,0.07-0.05
				c0.03-0.02,0.06-0.05,0.09-0.08c0.03-0.03,0.06-0.06,0.08-0.09c0.02-0.02,0.03-0.04,0.05-0.07c0.08-0.13,0.12-0.28,0.12-0.44
				C29.91,9.5,29.53,9.12,29.06,9.12z M29.23,10.23c-0.14,0-0.26-0.12-0.26-0.26c0-0.14,0.12-0.26,0.26-0.26
				c0.14,0,0.26,0.12,0.26,0.26C29.48,10.12,29.37,10.23,29.23,10.23z"/>
		</g>
		<g>
			<path d="M26.98,4.11c-0.19,0-0.37,0.06-0.52,0.18c-0.13,0.1-0.23,0.24-0.29,0.4l-2.78,8.21h1.82l0.67-2l0.02-0.07l0.58-1.71
				l0.02-0.07l0.78-2.32l0.5-1.49C27.97,4.68,27.56,4.11,26.98,4.11z M27.09,4.86c-0.14,0-0.26-0.12-0.26-0.26
				c0-0.14,0.12-0.26,0.26-0.26c0.14,0,0.26,0.12,0.26,0.26C27.35,4.75,27.23,4.86,27.09,4.86z"/>
			<path d="M27.27,4.61c0,0.1-0.08,0.18-0.18,0.18c-0.1,0-0.18-0.08-0.18-0.18c0-0.1,0.08-0.18,0.18-0.18
				C27.19,4.42,27.27,4.51,27.27,4.61z"/>
		</g>
		<g>
			<path d="M27.27,4.61c0,0.1-0.08,0.18-0.18,0.18c-0.1,0-0.18-0.08-0.18-0.18c0-0.1,0.08-0.18,0.18-0.18
				C27.19,4.42,27.27,4.51,27.27,4.61z"/>
		</g>
		<g>
			<path d="M29.41,9.97c0,0.1-0.08,0.18-0.18,0.18c-0.1,0-0.18-0.08-0.18-0.18c0-0.1,0.08-0.18,0.18-0.18
				C29.33,9.79,29.41,9.87,29.41,9.97z"/>
		</g>
	</g>
</g>
<g>
</g>
<g>
</g>
<g>
</g>
<g>
</g>
<g>
</g>
<g>
</g>
<g>
</g>
<g>
</g>
<g>
</g>
<g>
</g>
<g>
</g>
<g>
</g>
<g>
</g>
<g>
</g>
<g>
</g>
</svg>
