<?xml version="1.0" encoding="utf-8"?>
<!-- Generator: Adobe Illustrator 27.9.0, SVG Export Plug-In . SVG Version: 6.00 Build 0)  -->
<svg version="1.1" id="레이어_1" xmlns="http://www.w3.org/2000/svg" xmlns:xlink="http://www.w3.org/1999/xlink" x="0px"
	 y="0px" viewBox="0 0 300 300" style="enable-background:new 0 0 300 300;" xml:space="preserve">
<style type="text/css">
	.st0{fill:#F8F8F8;}
</style>
<g>
	<g>
		<g id="CAMERA_00000049916456228593902260000011858794067195218052_">
			<g>
				<path class="st0" d="M131.9,165.6c-0.5,0-1-0.3-1.3-0.7c-0.3-0.5-0.3-1-0.1-1.5c0.4-0.8,0.6-1.6,0.6-2.5v-6.8
					c0-0.9,0.7-1.6,1.6-1.6h1.8c2.8,0,5-2.2,5-5c0-2.7-2.2-5-5-5h-1.8c-0.9,0-1.6-0.7-1.6-1.6v-18.6c0-3.3-2.7-6-6-6h-12.2
					c-3.3,0-6,2.7-6,6v18.6c0,0.9-0.7,1.6-1.6,1.6h-3.4c-2.8,0-5,2.2-5,5s2.2,5,5,5h3.4c0.9,0,1.6,0.7,1.6,1.6v6.8
					c0,0.9,0.2,1.8,0.6,2.5c0.2,0.5,0.2,1.1-0.1,1.5s-0.8,0.7-1.3,0.7H84.7c-7.6,0-13.8-6.2-13.8-13.8v-31.9
					c0-7.6,6.2-13.8,13.8-13.8h59.9v-3.2c0-3.4,2.8-6.2,6.2-6.2h20.4c0.9,0,1.6,0.7,1.6,1.6c0,0.6,0.3,1.1,0.8,1.3l0.4,0.2
					c0.2,0.1,0.5,0.2,0.7,0.2c0.3,0,0.7,0.1,1,0.3c0.2,0.1,0.3,0.2,0.5,0.2h0.2c0.5,0,0.9,0.2,1.2,0.6c0.2,0.3,0.6,0.4,0.9,0.4h5.2
					c0.5,0,1,0.3,1.3,0.7c0.6,1,1.7,1.6,2.9,1.6h1.6c0.9,0,1.6,0.7,1.6,1.6v5.7c0,0.3,0,0.6,0,0.8c1.8-1.1,3.9-1.6,6.1-1.6h0.6
					c1.5-1.6,3.6-2.6,5.8-2.6h13.8c4.3,0,7.8,3.5,7.8,7.9v40.6c0,4.3-3.5,7.9-7.8,7.9h-13.8c-2.3,0-4.4-1-5.9-2.7h-0.5
					c-2.7,0-5.3-0.9-7.3-2.5l-8-6.4H168c-0.3,7.3-6.4,13.1-13.8,13.1L131.9,165.6L131.9,165.6z M181.5,119.2l2.5-2h-16.4
					c0.1,0.7,0.2,1.3,0.2,2H181.5z"/>
				<path class="st0" d="M171.2,98.3c0,1.2,0.7,2.2,1.8,2.8l0.4,0.2c0.4,0.2,0.8,0.3,1.3,0.3h0.1c0.4,0.3,0.9,0.5,1.4,0.5h0.2
					c0.5,0.6,1.3,1,2.1,1h5.2c0.9,1.4,2.5,2.3,4.3,2.3h1.6v5.7c0,2.6-2.1,4.6-4.6,4.6h-19.2c0.5,1.3,0.7,2.7,0.7,4.2v0.9h15.8
					l8.6-6.9c1.7-1.4,4-2.1,6.3-2.1h1.3c1.1-1.6,3-2.6,5.1-2.6h13.8c3.5,0,6.3,2.8,6.3,6.3v40.6c0,3.5-2.8,6.3-6.3,6.3h-13.8
					c-2.1,0-4-1.1-5.2-2.7H197c-2.3,0-4.6-0.8-6.3-2.1l-8.4-6.8h-15.9v0.9c0,6.7-5.5,12.2-12.2,12.2h-22.3c0.5-1,0.7-2.1,0.7-3.2
					v-6.8h1.8c3.6,0,6.5-2.9,6.5-6.6c0-3.6-2.9-6.5-6.5-6.5h-1.8v-18.6c0-4.2-3.4-7.6-7.6-7.6h-12.2c-4.2,0-7.6,3.4-7.6,7.6v18.6
					h-3.4c-3.6,0-6.5,2.9-6.5,6.5s2.9,6.6,6.5,6.6h3.4v6.8c0,1.1,0.2,2.2,0.7,3.2H84.5c-6.8,0-12.2-5.5-12.2-12.2v-31.9
					c0-6.8,5.5-12.2,12.2-12.2h61.4v-4.8c0-2.5,2.1-4.6,4.6-4.6L171.2,98.3 M171.2,95.1h-20.4c-4.3,0-7.7,3.5-7.7,7.7v1.6H84.8
					c-8.5,0-15.4,6.9-15.4,15.3v31.9c0,8.5,6.9,15.3,15.4,15.3h21.4c1.1,0,2.1-0.6,2.7-1.5c0.6-0.9,0.6-2.1,0.1-3.1
					c-0.3-0.5-0.4-1.2-0.4-1.8v-6.8c0-1.7-1.4-3.1-3.1-3.1H102c-1.9,0-3.4-1.5-3.4-3.4s1.5-3.4,3.4-3.4h3.4c1.7,0,3.1-1.4,3.1-3.1
					v-18.6c0-2.4,2-4.4,4.4-4.4h12.2c2.5,0,4.4,2,4.4,4.4v18.6c0,1.7,1.4,3.1,3.1,3.1h1.8c1.9,0,3.4,1.5,3.4,3.4s-1.5,3.4-3.4,3.4
					h-1.8c-1.7,0-3.1,1.4-3.1,3.1v6.8c0,0.7-0.1,1.3-0.4,1.9c-0.5,1-0.4,2.1,0.2,3s1.6,1.5,2.7,1.5h22.3c7.7,0,14.1-5.7,15.2-13.1
					h11.9l7.6,6.1c2.2,1.8,5.1,2.8,8.1,2.8c1.7,1.7,4.1,2.7,6.6,2.7h13.8c5.2,0,9.4-4.2,9.4-9.4v-40.6c0-5.2-4.2-9.4-9.4-9.4h-13.8
					c-2.4,0-4.7,0.9-6.5,2.6c-1.5,0-3,0.3-4.4,0.7v-4.1c0-1.7-1.4-3.1-3.1-3.1h-1.6c-0.7,0-1.3-0.3-1.6-0.8
					c-0.6-0.9-1.6-1.5-2.7-1.5h-5c-0.6-0.6-1.4-1-2.2-1c-0.5-0.3-1.1-0.5-1.6-0.5H175l-0.3-0.1C174.2,96.5,172.9,95.1,171.2,95.1
					L171.2,95.1z"/>
			</g>
			<g>
				<g>
					<path class="st0" d="M101.9,154.1c-3.7,0-6.7-3-6.7-6.7s3-6.7,6.7-6.7h3.4c0.9,0,1.6,0.7,1.6,1.6v10.3c0,0.9-0.7,1.6-1.6,1.6
						L101.9,154.1L101.9,154.1z"/>
					<path class="st0" d="M105.2,142.2v10.3h-3.4c-2.8,0-5.1-2.3-5.1-5.1s2.3-5.1,5.1-5.1L105.2,142.2 M105.2,139.1h-3.4
						c-4.5,0-8.2,3.7-8.2,8.3s3.7,8.3,8.2,8.3h3.4c1.7,0,3.1-1.4,3.1-3.1v-10.3C108.5,140.5,107,139.1,105.2,139.1L105.2,139.1z"/>
				</g>
				<g>
					<path class="st0" d="M132.5,154.1c-0.9,0-1.6-0.7-1.6-1.6v-10.3c0-0.9,0.7-1.6,1.6-1.6h1.8c3.7,0,6.7,3,6.7,6.7s-3,6.7-6.7,6.7
						L132.5,154.1L132.5,154.1z"/>
					<path class="st0" d="M134.4,142.2c2.8,0,5.1,2.3,5.1,5.1s-2.3,5.1-5.1,5.1h-1.8v-10.3L134.4,142.2 M134.4,139.1h-1.8
						c-1.7,0-3.1,1.4-3.1,3.1v10.3c0,1.7,1.4,3.1,3.1,3.1h1.8c4.6,0,8.3-3.7,8.3-8.3S138.9,139.1,134.4,139.1L134.4,139.1z"/>
				</g>
			</g>
			<g>
				<path class="st0" d="M187.9,105.5c-1.8,0-3.4-0.9-4.3-2.3h-5.1c-0.9,0-1.7-0.4-2.2-1h-0.1c-0.5,0-1-0.2-1.5-0.5l0,0
					c-0.5,0-1-0.1-1.4-0.3l-0.4-0.2c-1.2-0.5-1.9-1.6-1.9-2.9s0.7-2.4,1.8-2.9l0.4-0.2c0.4-0.2,0.9-0.3,1.4-0.3l0,0
					c0.4-0.3,0.9-0.5,1.5-0.5h0.1c0.5-0.6,1.3-1,2.2-1h5.1c1-1.4,2.6-2.3,4.4-2.3h36c2.9,0,5.3,2.4,5.3,5.3v3.8
					c0,2.9-2.4,5.3-5.3,5.3L187.9,105.5L187.9,105.5z"/>
				<path class="st0" d="M223.8,92.6c2,0,3.7,1.6,3.7,3.7v3.8c0,2.1-1.7,3.7-3.7,3.7h-36c-1.6,0-2.9-1-3.4-2.3h-6.1
					c-0.6,0-1.2-0.4-1.3-1h-1c-0.3,0-0.6-0.2-0.8-0.5h-0.7c-0.2,0-0.5-0.1-0.7-0.2l-0.4-0.2c-1.3-0.6-1.3-2.4,0-2.9l0.4-0.2
					c0.2-0.1,0.5-0.2,0.7-0.2h0.7c0.1-0.3,0.4-0.5,0.8-0.5h1c0.2-0.6,0.7-1,1.3-1h6.1c0.5-1.4,1.9-2.3,3.4-2.3L223.8,92.6
					 M223.8,89.5h-36c-2,0-3.9,0.9-5.1,2.3h-4.4c-1.1,0-2.1,0.4-2.9,1.1c-0.5,0.1-1,0.2-1.4,0.5c-0.5,0.1-1.1,0.2-1.6,0.5L172,94
					c-1.7,0.8-2.8,2.4-2.8,4.3c0,1.9,1.1,3.5,2.8,4.3l0.4,0.2c0.5,0.2,1,0.4,1.6,0.5c0.4,0.2,0.9,0.4,1.4,0.5
					c0.8,0.7,1.8,1.1,2.9,1.1h4.4c1.3,1.4,3.1,2.3,5.1,2.3h36c3.8,0,6.8-3.1,6.8-6.9v-3.8C230.7,92.6,227.5,89.5,223.8,89.5
					L223.8,89.5z"/>
			</g>
		</g>
		<g>
			<path class="st0" d="M101.9,209c-3.4,0-6.2-2.8-6.2-6.2v-28c0-3.4,2.8-6.2,6.2-6.2h34.2c3.4,0,6.2,2.8,6.2,6.2v28
				c0,3.4-2.8,6.2-6.2,6.2H101.9z"/>
			<path class="st0" d="M136,170.2c2.5,0,4.6,2.1,4.6,4.6v28c0,2.5-2.1,4.6-4.6,4.6h-34.2c-2.5,0-4.6-2.1-4.6-4.6v-28
				c0-2.5,2.1-4.6,4.6-4.6H136 M136,167.1h-34.2c-4.3,0-7.7,3.5-7.7,7.7v28c0,4.3,3.5,7.7,7.7,7.7H136c4.3,0,7.7-3.5,7.7-7.7v-28
				C143.8,170.5,140.4,167.1,136,167.1L136,167.1z"/>
		</g>
		<g>
			<g>
				<path class="st0" d="M112.9,168.7c-2.8,0-5.4-1.5-6.8-3.9c-0.7-1.2-1.1-2.6-1.1-4v-38.5c0-4.4,3.5-7.9,7.9-7.9h12.2
					c4.3,0,7.9,3.5,7.9,7.9v38.5c0,1.4-0.4,2.8-1.1,4c-1.4,2.4-4,3.9-6.8,3.9H112.9L112.9,168.7z"/>
				<path class="st0" d="M125,115.9c3.5,0,6.3,2.8,6.3,6.3v38.5c0,1.2-0.3,2.3-0.9,3.2c-1.1,1.9-3.1,3.1-5.4,3.1h-12.2
					c-2.3,0-4.3-1.2-5.4-3.1c-0.6-0.9-0.9-2.1-0.9-3.2v-38.5c0-3.5,2.8-6.3,6.3-6.3L125,115.9 M125,112.8h-12.2
					c-5.2,0-9.5,4.2-9.5,9.5v38.5c0,1.7,0.5,3.4,1.3,4.8c1.7,2.9,4.8,4.6,8.1,4.6h12.2c3.3,0,6.4-1.8,8.1-4.6
					c0.9-1.4,1.3-3.1,1.3-4.8v-38.5C134.5,117,130.2,112.8,125,112.8L125,112.8z"/>
			</g>
		</g>
	</g>
	<g>
		<g id="CAMERA">
			<path d="M217.2,109.2h-13.8c-2.1,0-3.9,1-5.1,2.6h-1.3c-2.3,0-4.6,0.8-6.3,2.1l-8.6,6.9h-15.8v-0.9c0-1.5-0.3-2.9-0.7-4.2h19.2
				c2.5,0,4.6-2.1,4.6-4.6v-5.7h-1.6c-1.8,0-3.4-0.9-4.3-2.3h-5.2c-0.8,0-1.6-0.4-2.1-1h-0.2c-0.5,0-1-0.2-1.4-0.5h-0.1
				c-0.5,0-0.9-0.1-1.3-0.3l-0.4-0.2c-1.1-0.5-1.8-1.6-1.8-2.8h-20.4c-2.5,0-4.6,2.1-4.6,4.6v4.8H84.7c-6.8,0-12.2,5.5-12.2,12.2
				v31.9c0,6.7,5.5,12.2,12.2,12.2h21.4c-0.5-1-0.7-2.1-0.7-3.2V154H102c-3.6,0-6.5-2.9-6.5-6.6c0-3.6,2.9-6.5,6.5-6.5h3.4v-18.6
				c0-4.2,3.4-7.6,7.6-7.6h12.2c4.2,0,7.6,3.4,7.6,7.6v18.6h1.8c3.6,0,6.5,2.9,6.5,6.5s-2.9,6.6-6.5,6.6h-1.8v6.8
				c0,1.1-0.2,2.2-0.7,3.2h22.3c6.8,0,12.2-5.5,12.2-12.2v-0.9h16l8.4,6.8c1.7,1.4,4,2.1,6.3,2.1h1.3c1.1,1.6,3,2.7,5.2,2.7h13.8
				c3.5,0,6.3-2.8,6.3-6.3v-40.6C223.5,112,220.8,109.2,217.2,109.2z"/>
			<g>
				<path d="M105.2,142.2v10.3h-3.4c-2.8,0-5.1-2.3-5.1-5.1s2.3-5.1,5.1-5.1L105.2,142.2L105.2,142.2z"/>
				<path d="M139.5,147.4c0,2.8-2.3,5.1-5.1,5.1h-1.8v-10.3h1.8C137.2,142.2,139.5,144.5,139.5,147.4z"/>
			</g>
			<path d="M227.5,96.4v3.8c0,2.1-1.7,3.7-3.7,3.7h-36c-1.6,0-2.9-1-3.4-2.3h-6.1c-0.6,0-1.2-0.4-1.3-1h-1c-0.3,0-0.6-0.2-0.8-0.5
				h-0.7c-0.2,0-0.5-0.1-0.7-0.2l-0.4-0.2c-1.3-0.6-1.3-2.4,0-2.9l0.4-0.2c0.2-0.1,0.5-0.2,0.7-0.2h0.7c0.1-0.3,0.4-0.5,0.8-0.5h1
				c0.2-0.6,0.7-1,1.3-1h6.1c0.5-1.4,1.9-2.3,3.4-2.3h36C225.9,92.6,227.5,94.3,227.5,96.4z"/>
		</g>
		<g>
			<path d="M136,207.4h-34.2c-2.5,0-4.6-2.1-4.6-4.6v-28c0-2.5,2.1-4.6,4.6-4.6H136c2.5,0,4.6,2.1,4.6,4.6v28
				C140.7,205.4,138.5,207.4,136,207.4z"/>
		</g>
		<g>
			<path d="M131.4,122.2v38.5c0,1.2-0.3,2.3-0.9,3.2c-1.1,1.9-3.1,3.1-5.4,3.1h-12.2c-2.3,0-4.3-1.2-5.4-3.1
				c-0.6-0.9-0.9-2.1-0.9-3.2v-38.5c0-3.5,2.8-6.3,6.3-6.3H125C128.5,115.9,131.4,118.7,131.4,122.2z"/>
		</g>
	</g>
</g>
</svg>
