<?xml version="1.0" encoding="utf-8"?>
<!-- Generator: Adobe Illustrator 27.9.0, SVG Export Plug-In . SVG Version: 6.00 Build 0)  -->
<svg version="1.1" id="레이어_1" xmlns="http://www.w3.org/2000/svg" xmlns:xlink="http://www.w3.org/1999/xlink" x="0px"
	 y="0px" viewBox="0 0 300 300" style="enable-background:new 0 0 300 300;" xml:space="preserve">
<style type="text/css">
	.st0{fill:#F8F8F8;}
</style>
<g>
	<g>
		<g>
			<path class="st0" d="M58.4,85c-0.9,0-1.6-0.7-1.6-1.6V65.1c0-0.9,0.7-1.6,1.6-1.6h183.1c0.9,0,1.6,0.7,1.6,1.6v18.3
				c0,0.9-0.7,1.6-1.6,1.6H58.4z"/>
			<path class="st0" d="M241.4,65v18.3h-183V65H241.4 M241.4,62h-183c-1.7,0-3.1,1.4-3.1,3.1v18.3c0,1.7,1.4,3.1,3.1,3.1h183.1
				c1.7,0,3.1-1.4,3.1-3.1V65C244.5,63.2,243.1,62,241.4,62L241.4,62z"/>
		</g>
		<g>
			<path class="st0" d="M157.3,153c-0.8,0-1.4-0.5-1.5-1.3s0.3-1.5,1-1.8c0.5-0.2,1-0.5,1.4-0.8c1.5-1,2.4-2.6,2.7-4.4
				c0.3-1.8-0.1-3.6-1.2-5l-2.1-2.9c-0.4-0.5-0.4-1.1-0.1-1.6s0.8-0.9,1.4-0.9h51.6c2.5,0,4.5,2,4.5,4.5v9.5c0,2.5-2,4.5-4.5,4.5
				L157.3,153L157.3,153z"/>
			<path class="st0" d="M210.4,135.9c1.6,0,3,1.3,3,3v9.5c0,1.7-1.3,3-3,3h-53.1c0.6-0.2,1.2-0.6,1.8-1c1.8-1.3,3-3.2,3.3-5.4
				c0.4-2.2-0.2-4.4-1.5-6.2l-2.1-2.9L210.4,135.9 M210.4,132.8h-51.6c-1.2,0-2.3,0.7-2.8,1.7s-0.4,2.3,0.3,3.3l2.1,2.9
				c0.8,1.1,1.1,2.5,0.9,3.8c-0.2,1.4-1,2.6-2.1,3.4c-0.3,0.2-0.7,0.4-1.1,0.6c-1.4,0.5-2.2,2-1.9,3.5c0.3,1.5,1.6,2.5,3.1,2.5h53.1
				c3.4,0,6.1-2.7,6.1-6.1v-9.5C216.5,135.5,213.8,132.8,210.4,132.8L210.4,132.8z"/>
		</g>
		<g>
			<path class="st0" d="M61.5,102.2c-2.5,0-4.5-2-4.5-4.5v-9.5c0-2.5,2-4.5,4.5-4.5h52.9c0.8,0,1.4,0.5,1.5,1.3s-0.2,1.5-0.9,1.8
				c-0.5,0.2-1,0.5-1.4,0.8c-1.5,1.1-2.4,2.6-2.7,4.4c-0.3,1.8,0.1,3.6,1.2,5l2.1,2.8c0.1,0.1,0.1,0.2,0.1,0.2c0.2,0.5,0.2,1,0,1.5
				c-0.3,0.5-0.8,0.8-1.4,0.8L61.5,102.2L61.5,102.2z"/>
			<path class="st0" d="M114.4,85.2c-0.6,0.2-1.2,0.6-1.7,1c-1.8,1.3-3,3.2-3.3,5.4c-0.4,2.2,0.2,4.4,1.5,6.2l2.1,2.9c0,0,0,0,0,0.1
				H61.6c-1.6,0-3-1.3-3-3v-9.5c0-1.6,1.3-3,3-3L114.4,85.2 M114.4,82H61.5c-3.4,0-6.1,2.7-6.1,6.1v9.5c0,3.4,2.7,6.1,6.1,6.1h51.4
				c1.2,0,2.2-0.6,2.8-1.7c0.5-0.9,0.5-2,0-2.9c-0.1-0.2-0.2-0.3-0.3-0.5l-2.1-2.9c-0.8-1.1-1.1-2.5-0.9-3.9s1-2.6,2.1-3.4
				c0.3-0.2,0.7-0.4,1.1-0.6c1.4-0.6,2.2-2,1.9-3.5C117.2,83.2,115.9,82,114.4,82L114.4,82z M114.4,88.4L114.4,88.4L114.4,88.4
				L114.4,88.4z"/>
		</g>
		<g>
			<path class="st0" d="M117.5,107.7c-0.5,0-1-0.2-1.3-0.7l-6.2-8.6c-3-4.2-2.1-10,2.1-13c1.6-1.2,3.5-1.8,5.4-1.8
				c3,0,5.8,1.4,7.5,3.8l6.2,8.6c0.2,0.3,0.3,0.8,0.3,1.2c-0.1,0.4-0.3,0.8-0.6,1l-12.5,9C118.2,107.5,117.8,107.7,117.5,107.7z
				 M115.3,91.2c0.1,0.1,0.2,0.2,0.4,0.2c0.1,0,0.1,0,0.2,0c0.4,0,0.7-0.2,0.8-0.6c0.1-0.5-0.1-0.9-0.6-1c-0.1,0-0.2,0-0.2,0
				c-0.2,0-0.4,0.1-0.6,0.2c-0.1,0.1-0.2,0.2-0.2,0.4C115,90.7,115,91,115.3,91.2L115.3,91.2z"/>
			<path class="st0" d="M117.5,85.2c2.4,0,4.8,1.1,6.3,3.2L130,97l-12.5,9l-6.2-8.6c-2.5-3.5-1.7-8.3,1.7-10.8
				C114.4,85.7,116,85.2,117.5,85.2 M115.9,93c1,0,2-0.7,2.3-1.7c0.4-1.3-0.4-2.6-1.6-3c-0.2-0.1-0.4-0.1-0.7-0.1
				c-0.6,0-1.2,0.2-1.7,0.7c-0.3,0.3-0.5,0.6-0.6,1.1c-0.2,0.8,0,1.6,0.5,2.2l0,0l0,0c0.3,0.3,0.7,0.6,1.1,0.7
				C115.4,93,115.7,93,115.9,93 M117.5,82c-2.3,0-4.5,0.7-6.3,2c-4.9,3.5-5.9,10.3-2.4,15.1l6.2,8.6c0.6,0.8,1.6,1.3,2.5,1.3
				c0.6,0,1.3-0.2,1.8-0.6l12.5-9c0.7-0.5,1.1-1.2,1.3-2c0.1-0.8-0.1-1.7-0.6-2.3l-6.2-8.6C124.3,83.8,121,82,117.5,82L117.5,82z"/>
		</g>
		<g>
			<path class="st0" d="M115.9,94c-0.3,0-0.6,0-0.9-0.1c-1.8-0.5-2.8-2.4-2.3-4.2c0.4-1.4,1.8-2.4,3.2-2.4c0.3,0,0.6,0,0.9,0.1
				c1.8,0.5,2.8,2.4,2.3,4.2C118.7,93,117.4,94,115.9,94z"/>
			<path class="st0" d="M115.9,88.9c0.2,0,0.3,0,0.5,0.1c0.9,0.3,1.5,1.3,1.2,2.2c-0.2,0.8-0.9,1.3-1.7,1.3c-0.2,0-0.3,0-0.5-0.1
				c-0.9-0.3-1.5-1.3-1.2-2.2C114.4,89.4,115.1,88.9,115.9,88.9 M115.9,85.8L115.9,85.8c-2.2,0-4.1,1.5-4.7,3.5
				c-0.8,2.6,0.7,5.3,3.4,6.1c0.4,0.1,0.9,0.2,1.4,0.2c2.2,0,4.1-1.5,4.7-3.5c0.8-2.6-0.7-5.3-3.4-6.1
				C116.8,85.8,116.4,85.8,115.9,85.8L115.9,85.8z"/>
		</g>
		<g>
			<path class="st0" d="M154.2,153c-3,0-5.8-1.4-7.5-3.8l-6.1-8.3c-0.2-0.3-0.4-0.8-0.3-1.2c0.1-0.4,0.3-0.8,0.6-1l12.5-9
				c0.3-0.2,0.6-0.3,0.9-0.3c0.5,0,1,0.2,1.3,0.6l6.1,8.3c1.5,2,2,4.5,1.6,6.9s-1.7,4.6-3.7,6C158.1,152.4,156.2,153,154.2,153
				L154.2,153z M155.8,145.2c-0.4,0-0.7,0.2-0.8,0.6c-0.1,0.2,0,0.4,0.1,0.6c0.1,0.2,0.3,0.3,0.5,0.4c0.1,0,0.2,0,0.2,0
				c0.4,0,0.7-0.2,0.8-0.6c0.1-0.2,0-0.4-0.1-0.6c-0.1-0.2-0.3-0.3-0.5-0.4C156,145.2,155.9,145.2,155.8,145.2z"/>
			<path class="st0" d="M154.4,130.8l6.1,8.3c2.5,3.5,1.7,8.3-1.7,10.8c-1.4,1-2.9,1.5-4.5,1.5c-2.4,0-4.8-1.1-6.3-3.2l-6.1-8.3
				L154.4,130.8 M155.8,148.5c1,0,2-0.7,2.3-1.7c0.4-1.3-0.4-2.6-1.6-3c-0.2-0.1-0.5-0.1-0.7-0.1c-1,0-2,0.7-2.3,1.7
				c-0.4,1.3,0.4,2.6,1.6,3C155.4,148.4,155.6,148.5,155.8,148.5 M154.4,127.7c-0.6,0-1.3,0.2-1.8,0.6l-12.5,9
				c-0.7,0.5-1.1,1.2-1.3,2c-0.2,0.8,0.1,1.7,0.6,2.3l6.1,8.3c2,2.8,5.3,4.5,8.8,4.5c2.3,0,4.5-0.7,6.3-2c2.4-1.7,3.9-4.2,4.4-7.1
				s-0.2-5.7-1.9-8.1l-6.1-8.4C156.3,128.2,155.3,127.7,154.4,127.7L154.4,127.7z"/>
		</g>
		<g>
			<path class="st0" d="M155.8,149.4c-0.3,0-0.6,0-0.9-0.1c-1.8-0.5-2.8-2.4-2.3-4.2c0.4-1.4,1.7-2.4,3.2-2.4c0.3,0,0.6,0,0.9,0.1
				c1.8,0.5,2.8,2.4,2.3,4.2C158.6,148.4,157.3,149.4,155.8,149.4z"/>
			<path class="st0" d="M155.8,144.2c0.2,0,0.3,0,0.5,0.1c1,0.3,1.5,1.3,1.2,2.2c-0.2,0.8-1,1.3-1.7,1.3c-0.2,0-0.3,0-0.5-0.1
				c-0.9-0.3-1.5-1.3-1.2-2.2C154.3,144.7,155.1,144.2,155.8,144.2 M155.8,141L155.8,141c-2.2,0-4.1,1.5-4.7,3.5
				c-0.8,2.6,0.7,5.3,3.4,6.1c0.4,0.1,0.9,0.2,1.4,0.2c2.2,0,4.1-1.5,4.7-3.5c0.8-2.6-0.7-5.3-3.4-6.1
				C156.8,141.2,156.3,141,155.8,141L155.8,141z"/>
		</g>
		<g>
			<path class="st0" d="M141.6,140.4c-0.8,0-1.6-0.4-2-1c-0.8-1.1-0.6-2.7,0.6-3.5l11-7.9c0.4-0.3,0.9-0.5,1.5-0.5
				c0.8,0,1.6,0.4,2,1c0.4,0.5,0.5,1.2,0.4,1.9s-0.5,1.2-1,1.6l-11,7.9C142.7,140.2,142.2,140.4,141.6,140.4z"/>
			<path class="st0" d="M152.6,129c0.3,0,0.6,0.1,0.8,0.4c0.3,0.4,0.2,1-0.2,1.3l-11,7.9c-0.2,0.1-0.4,0.2-0.5,0.2
				c-0.3,0-0.6-0.1-0.8-0.4c-0.3-0.4-0.2-1,0.2-1.3l11-7.9C152.3,129.2,152.5,129,152.6,129 M152.6,126c-0.9,0-1.7,0.3-2.4,0.8
				l-11,7.9c-1.8,1.3-2.2,3.8-0.9,5.7c0.8,1.1,2,1.7,3.3,1.7c0.9,0,1.7-0.3,2.4-0.8l11-7.9c0.9-0.6,1.5-1.6,1.6-2.6
				c0.2-1.1-0.1-2.2-0.7-3C155.2,126.5,153.9,126,152.6,126L152.6,126z"/>
		</g>
		<g>
			<path class="st0" d="M141.5,136.2c-0.6,0-1.1-0.3-1.4-0.9c-0.4-0.7-0.1-1.5,0.5-2l5.1-3.6c0.1-0.1,0.3-0.2,0.4-0.2l3.7-1.2
				c0.2,0,0.3-0.1,0.5-0.1c0.6,0,1.1,0.3,1.4,0.9c0.4,0.7,0.1,1.5-0.5,2l-5.1,3.6c-0.1,0.1-0.3,0.2-0.4,0.2l-3.7,1.2
				C141.8,136.2,141.7,136.2,141.5,136.2z"/>
			<path class="st0" d="M150.3,129.8l-5.1,3.6l-3.7,1.2l5.1-3.6L150.3,129.8 M150.3,126.7c-0.3,0-0.7,0-1,0.2l-3.7,1.2
				c-0.3,0.1-0.6,0.2-0.9,0.4l-5.1,3.6c-1.3,0.9-1.7,2.6-1,4c0.6,1.1,1.6,1.7,2.8,1.7c0.3,0,0.7,0,1-0.2l3.7-1.2
				c0.3-0.1,0.6-0.2,0.9-0.4l5.1-3.6c1.3-0.9,1.7-2.6,1-4C152.5,127.2,151.4,126.7,150.3,126.7L150.3,126.7z M150.3,133L150.3,133
				L150.3,133L150.3,133z"/>
		</g>
		<g>
			<path class="st0" d="M139.2,137c-0.8,0-1.6-0.4-2-1c-0.4-0.5-0.5-1.2-0.4-1.9s0.5-1.2,1-1.6l11-7.9c0.4-0.3,0.9-0.5,1.5-0.5
				c0.8,0,1.6,0.4,2,1c0.4,0.5,0.5,1.2,0.4,1.9s-0.5,1.2-1,1.6l-11,7.9C140.2,136.8,139.7,137,139.2,137z"/>
			<path class="st0" d="M150.2,125.5c0.3,0,0.6,0.1,0.8,0.4c0.3,0.4,0.2,1-0.2,1.3l-11,7.9c-0.2,0.1-0.4,0.2-0.5,0.2
				c-0.3,0-0.6-0.1-0.8-0.4c-0.3-0.4-0.2-1,0.2-1.3l11-7.9C149.8,125.7,150,125.5,150.2,125.5 M150.2,122.5c-0.9,0-1.7,0.3-2.4,0.8
				l-11,7.9c-0.9,0.6-1.5,1.6-1.6,2.6c-0.2,1.1,0.1,2.2,0.7,3c0.8,1.1,2,1.7,3.3,1.7c0.9,0,1.7-0.3,2.4-0.8l11-7.9
				c0.9-0.6,1.5-1.6,1.6-2.6c0.2-1.1-0.1-2.2-0.7-3C152.7,123,151.5,122.5,150.2,122.5L150.2,122.5z"/>
		</g>
		<g>
			<path class="st0" d="M139,132.8c-0.6,0-1.1-0.3-1.4-0.9c-0.4-0.7-0.1-1.5,0.5-2l5.1-3.6c0.1-0.1,0.3-0.2,0.4-0.2l3.7-1.2
				c0.2,0,0.3-0.1,0.5-0.1c0.6,0,1.1,0.3,1.4,0.9c0.4,0.7,0.1,1.5-0.5,2l-5.1,3.6c-0.1,0.1-0.3,0.2-0.4,0.2l-3.7,1.2
				C139.4,132.8,139.2,132.8,139,132.8z"/>
			<path class="st0" d="M147.8,126.2l-5.1,3.6L139,131l5.1-3.6L147.8,126.2 M147.8,123.2c-0.3,0-0.7,0-1,0.2l-3.7,1.2
				c-0.3,0.1-0.6,0.2-0.9,0.4l-5.1,3.6c-1.3,0.9-1.7,2.6-1,4c0.6,1.1,1.6,1.7,2.8,1.7c0.3,0,0.7,0,1-0.2l3.7-1.2
				c0.3-0.1,0.6-0.2,0.9-0.4l5.1-3.6c1.3-0.9,1.7-2.6,1-4C150.1,123.9,149,123.2,147.8,123.2L147.8,123.2z M147.8,129.5L147.8,129.5
				L147.8,129.5L147.8,129.5z"/>
		</g>
		<g>
			<path class="st0" d="M136.7,133.5c-0.8,0-1.6-0.4-2-1c-0.4-0.5-0.5-1.2-0.4-1.9s0.5-1.2,1-1.6l11-7.9c0.4-0.3,0.9-0.5,1.5-0.5
				c0.8,0,1.6,0.4,2,1c0.4,0.5,0.5,1.2,0.4,1.9s-0.5,1.2-1,1.6l-11,7.9C137.7,133.4,137.2,133.5,136.7,133.5z"/>
			<path class="st0" d="M147.7,122.2c0.3,0,0.6,0.1,0.8,0.4c0.3,0.4,0.2,1-0.2,1.3l-11,7.9c-0.2,0.1-0.4,0.2-0.5,0.2
				c-0.3,0-0.6-0.1-0.8-0.4c-0.3-0.4-0.2-1,0.2-1.3l11-7.9C147.3,122.2,147.5,122.2,147.7,122.2 M147.7,119c-0.9,0-1.7,0.3-2.4,0.8
				l-11,7.9c-0.9,0.6-1.5,1.6-1.6,2.6c-0.2,1.1,0.1,2.2,0.7,3c0.8,1.1,2,1.7,3.3,1.7c0.9,0,1.7-0.3,2.4-0.8l11-7.9
				c0.9-0.6,1.5-1.6,1.6-2.6c0.2-1.1-0.1-2.2-0.7-3C150.2,119.7,149,119,147.7,119L147.7,119z"/>
		</g>
		<g>
			<path class="st0" d="M136.5,129.2c-0.6,0-1.1-0.3-1.4-0.9c-0.4-0.7-0.1-1.5,0.5-2l5.1-3.6c0.1-0.1,0.3-0.2,0.4-0.2l3.8-1.2
				c0.2,0,0.3-0.1,0.5-0.1c0.6,0,1.1,0.3,1.4,0.9c0.4,0.7,0.1,1.5-0.5,2l-5.1,3.6c-0.1,0.1-0.3,0.2-0.4,0.2l-3.8,1.2
				C136.8,129.2,136.7,129.2,136.5,129.2z"/>
			<path class="st0" d="M145.3,122.9l-5.1,3.6l-3.8,1.2l5.1-3.6L145.3,122.9 M145.3,119.8c-0.3,0-0.7,0-1,0.2l-3.8,1.2
				c-0.3,0.1-0.6,0.2-0.9,0.4l-5.1,3.6c-1.3,0.9-1.7,2.6-1,4c0.6,1.1,1.6,1.7,2.8,1.7c0.3,0,0.7,0,1-0.2l3.8-1.2
				c0.3-0.1,0.6-0.2,0.9-0.4l5.1-3.6c1.3-0.9,1.7-2.6,1-4C147.6,120.4,146.5,119.8,145.3,119.8L145.3,119.8z M145.3,126L145.3,126
				L145.3,126L145.3,126z"/>
		</g>
		<g>
			<path class="st0" d="M134.1,130c-0.8,0-1.6-0.4-2-1c-0.8-1.1-0.5-2.7,0.6-3.5l11-7.9c0.4-0.3,0.9-0.5,1.5-0.5c0.8,0,1.6,0.4,2,1
				c0.8,1.1,0.6,2.7-0.6,3.5l-11,7.9C135.2,129.9,134.7,130,134.1,130z"/>
			<path class="st0" d="M145.2,118.7c0.3,0,0.6,0.1,0.8,0.4c0.3,0.4,0.2,1-0.2,1.3l-11,7.9c-0.2,0.1-0.4,0.2-0.5,0.2
				c-0.3,0-0.6-0.1-0.8-0.4c-0.3-0.4-0.2-1,0.2-1.3l11-7.9C144.8,118.8,145,118.7,145.2,118.7 M145.2,115.5L145.2,115.5
				c-0.9,0-1.7,0.3-2.4,0.8l-11,7.9c-1.8,1.3-2.2,3.8-0.9,5.7c0.8,1.1,2,1.7,3.3,1.7c0.9,0,1.7-0.3,2.4-0.8l11-7.9
				c1.8-1.3,2.2-3.8,0.9-5.7C147.7,116.2,146.5,115.5,145.2,115.5L145.2,115.5z"/>
		</g>
		<g>
			<path class="st0" d="M134,125.9c-0.6,0-1.1-0.3-1.4-0.9c-0.4-0.7-0.1-1.5,0.5-2l5.1-3.6c0.1-0.1,0.3-0.2,0.4-0.2l3.7-1.2
				c0.2,0,0.3-0.1,0.5-0.1c0.6,0,1.1,0.3,1.4,0.9c0.4,0.7,0.1,1.5-0.5,2l-5.1,3.6c-0.1,0.1-0.3,0.2-0.4,0.2l-3.7,1.2
				C134.3,125.8,134.2,125.9,134,125.9z"/>
			<path class="st0" d="M142.8,119.5l-5.1,3.6l-3.7,1.2l5.1-3.6L142.8,119.5 M142.8,116.2c-0.3,0-0.7,0-1,0.2l-3.7,1.2
				c-0.3,0.1-0.6,0.2-0.9,0.4l-5.1,3.6c-1.3,0.9-1.7,2.6-1,4c0.6,1.1,1.6,1.7,2.8,1.7c0.3,0,0.7,0,1-0.2l3.7-1.2
				c0.3-0.1,0.6-0.2,0.9-0.4l5.1-3.6c1.3-0.9,1.7-2.6,1-4C145,117,144,116.2,142.8,116.2L142.8,116.2z M142.8,122.5L142.8,122.5
				L142.8,122.5L142.8,122.5z"/>
		</g>
		<g>
			<path class="st0" d="M131.7,126.5c-0.8,0-1.6-0.4-2-1c-0.8-1.1-0.6-2.7,0.6-3.5l11-7.9c0.4-0.3,0.9-0.5,1.5-0.5
				c0.8,0,1.6,0.4,2,1c0.8,1.1,0.5,2.7-0.6,3.5l-11,7.9C132.7,126.4,132.2,126.5,131.7,126.5z"/>
			<path class="st0" d="M142.7,115.2c0.3,0,0.6,0.1,0.8,0.4c0.3,0.4,0.2,1-0.2,1.3l-11,7.9c-0.2,0.1-0.4,0.2-0.5,0.2
				c-0.3,0-0.6-0.1-0.8-0.4c-0.3-0.4-0.2-1,0.2-1.3l11-7.9C142.3,115.2,142.5,115.2,142.7,115.2 M142.7,112c-0.9,0-1.7,0.3-2.4,0.8
				l-11,7.9c-0.9,0.6-1.5,1.6-1.6,2.6c-0.2,1.1,0.1,2.2,0.7,3c0.8,1.1,2,1.7,3.3,1.7c0.9,0,1.7-0.3,2.4-0.8l11-7.9
				c0.9-0.6,1.5-1.6,1.6-2.6c0.2-1.1-0.1-2.2-0.7-3C145.2,112.8,144,112,142.7,112L142.7,112z"/>
		</g>
		<g>
			<path class="st0" d="M131.5,122.4c-0.6,0-1.1-0.3-1.4-0.9c-0.4-0.7-0.1-1.5,0.5-2l5.1-3.6c0.1-0.1,0.3-0.2,0.4-0.2l3.8-1.2
				c0.2,0,0.3-0.1,0.5-0.1c0.6,0,1.1,0.3,1.4,0.9c0.4,0.7,0.1,1.5-0.5,2l-5.1,3.6c-0.1,0.1-0.3,0.2-0.4,0.2l-3.8,1.2
				C131.8,122.4,131.7,122.4,131.5,122.4z"/>
			<path class="st0" d="M140.3,116l-5.1,3.6l-3.8,1.2l5.1-3.6L140.3,116 M140.3,112.8c-0.3,0-0.7,0-1,0.2l-3.8,1.2
				c-0.3,0.1-0.6,0.2-0.9,0.4l-5.1,3.6c-1.3,0.9-1.7,2.6-1,4c0.6,1.1,1.6,1.7,2.8,1.7c0.3,0,0.7,0,1-0.2l3.8-1.2
				c0.3-0.1,0.6-0.2,0.9-0.4l5.1-3.6c1.3-0.9,1.7-2.6,1-4C142.6,113.5,141.5,112.8,140.3,112.8L140.3,112.8z M140.3,119L140.3,119
				L140.3,119L140.3,119z"/>
		</g>
		<g>
			<path class="st0" d="M129.1,123.2c-0.8,0-1.6-0.4-2-1c-0.4-0.5-0.5-1.2-0.4-1.9s0.5-1.2,1-1.6l11-7.9c0.4-0.3,0.9-0.5,1.5-0.5
				c0.8,0,1.6,0.4,2,1c0.4,0.5,0.5,1.2,0.4,1.9s-0.5,1.2-1,1.6l-11,7.9C130.2,123,129.7,123.2,129.1,123.2z"/>
			<path class="st0" d="M140.2,111.8c0.3,0,0.6,0.1,0.8,0.4c0.3,0.4,0.2,1-0.2,1.3l-11,7.9c-0.2,0.1-0.4,0.2-0.5,0.2
				c-0.3,0-0.6-0.1-0.8-0.4c-0.3-0.4-0.2-1,0.2-1.3l11-7.9C139.8,111.9,140,111.8,140.2,111.8 M140.2,108.7c-0.9,0-1.7,0.3-2.4,0.8
				l-11,7.9c-0.9,0.6-1.5,1.6-1.6,2.6c-0.2,1.1,0.1,2.2,0.7,3c0.8,1.1,2,1.7,3.3,1.7c0.9,0,1.7-0.3,2.4-0.8l11-7.9
				c0.9-0.6,1.5-1.6,1.6-2.6c0.2-1.1-0.1-2.2-0.7-3C142.7,109.2,141.5,108.7,140.2,108.7L140.2,108.7z"/>
		</g>
		<g>
			<path class="st0" d="M129,119c-0.6,0-1.1-0.3-1.4-0.9c-0.4-0.7-0.1-1.5,0.5-2l5.1-3.6c0.1-0.1,0.3-0.2,0.4-0.2l3.8-1.2
				c0.2,0,0.3-0.1,0.5-0.1c0.6,0,1.1,0.3,1.4,0.9c0.4,0.7,0.1,1.5-0.5,2l-5.1,3.6c-0.1,0.1-0.3,0.2-0.4,0.2l-3.8,1.2
				C129.3,118.9,129.2,119,129,119z"/>
			<path class="st0" d="M137.8,112.5l-5.1,3.6l-3.8,1.2l5.1-3.6L137.8,112.5 M137.8,109.4c-0.3,0-0.7,0-1,0.2l-3.8,1.2
				c-0.3,0.1-0.6,0.2-0.9,0.4l-5.1,3.6c-1.3,0.9-1.7,2.6-1,4c0.6,1.1,1.6,1.7,2.8,1.7c0.3,0,0.7,0,1-0.2l3.8-1.2
				c0.3-0.1,0.6-0.2,0.9-0.4l5.1-3.6c1.3-0.9,1.7-2.6,1-4C140.1,110,139,109.4,137.8,109.4L137.8,109.4z M137.8,115.7L137.8,115.7
				L137.8,115.7L137.8,115.7z"/>
		</g>
		<g>
			<path class="st0" d="M126.6,119.7c-0.8,0-1.6-0.4-2-1c-0.4-0.5-0.5-1.2-0.4-1.9s0.5-1.2,1-1.6l11-7.9c0.4-0.3,0.9-0.5,1.5-0.5
				c0.8,0,1.6,0.4,2,1c0.4,0.5,0.5,1.2,0.4,1.9s-0.5,1.2-1,1.6l-11,7.9C127.7,119.5,127.2,119.7,126.6,119.7z"/>
			<path class="st0" d="M137.7,108.2c0.3,0,0.6,0.1,0.8,0.4c0.3,0.4,0.2,1-0.2,1.3l-11,7.9c-0.2,0.1-0.4,0.2-0.5,0.2
				c-0.3,0-0.6-0.1-0.8-0.4c-0.3-0.4-0.2-1,0.2-1.3l11-7.9C137.3,108.4,137.5,108.2,137.7,108.2 M137.7,105.2
				c-0.9,0-1.7,0.3-2.4,0.8l-11,7.9c-0.9,0.6-1.5,1.6-1.6,2.6c-0.2,1.1,0.1,2.2,0.7,3c0.8,1.1,2,1.7,3.3,1.7c0.9,0,1.7-0.3,2.4-0.8
				l11-7.9c0.9-0.6,1.5-1.6,1.6-2.6c0.2-1.1-0.1-2.2-0.7-3C140.2,105.9,139,105.2,137.7,105.2L137.7,105.2z"/>
		</g>
		<g>
			<path class="st0" d="M126.5,115.5c-0.6,0-1.1-0.3-1.4-0.9c-0.4-0.7-0.1-1.5,0.5-2l5.1-3.6c0.1-0.1,0.3-0.2,0.4-0.2l3.8-1.2
				c0.2,0,0.3-0.1,0.5-0.1c0.6,0,1.1,0.3,1.4,0.9c0.4,0.7,0.1,1.5-0.5,2l-5.1,3.6c-0.1,0.1-0.3,0.2-0.4,0.2l-3.8,1.2
				C126.8,115.5,126.7,115.5,126.5,115.5z"/>
			<path class="st0" d="M135.3,109l-5.1,3.6l-3.8,1.2l5.1-3.6L135.3,109 M135.3,105.9c-0.3,0-0.7,0-1,0.2l-3.8,1.2
				c-0.3,0.1-0.6,0.2-0.9,0.4l-5.1,3.6c-1.3,0.9-1.7,2.6-1,4c0.6,1.1,1.6,1.7,2.8,1.7c0.3,0,0.7,0,1-0.2l3.8-1.2
				c0.3-0.1,0.6-0.2,0.9-0.4l5.1-3.6c1.3-0.9,1.7-2.6,1-4C137.6,106.5,136.5,105.9,135.3,105.9L135.3,105.9z M135.3,112.2
				L135.3,112.2L135.3,112.2L135.3,112.2z"/>
		</g>
		<g>
			<path class="st0" d="M124.1,116.2c-0.8,0-1.6-0.4-2-1c-0.4-0.5-0.5-1.2-0.4-1.9s0.5-1.2,1-1.6l11-7.9c0.4-0.3,0.9-0.5,1.5-0.5
				c0.8,0,1.6,0.4,2,1c0.4,0.5,0.5,1.2,0.4,1.9s-0.5,1.2-1,1.6l-11,7.9C125.2,116,124.7,116.2,124.1,116.2z"/>
			<path class="st0" d="M135.2,104.9c0.3,0,0.6,0.1,0.8,0.4c0.3,0.4,0.2,1-0.2,1.3l-11,7.9c-0.2,0.1-0.4,0.2-0.5,0.2
				c-0.3,0-0.6-0.1-0.8-0.4c-0.3-0.4-0.2-1,0.2-1.3l11-7.9C134.8,105,135,104.9,135.2,104.9 M135.2,101.8c-0.9,0-1.7,0.3-2.4,0.8
				l-11,7.9c-0.9,0.6-1.5,1.6-1.6,2.6c-0.2,1.1,0.1,2.2,0.7,3c0.8,1.1,2,1.7,3.3,1.7c0.9,0,1.7-0.3,2.4-0.8l11-7.9
				c0.9-0.6,1.5-1.6,1.6-2.6c0.2-1.1-0.1-2.2-0.7-3C137.7,102.4,136.5,101.8,135.2,101.8L135.2,101.8z"/>
		</g>
		<g>
			<path class="st0" d="M124,112c-0.6,0-1.1-0.3-1.4-0.9c-0.4-0.7-0.1-1.5,0.5-2l5.1-3.6c0.1-0.1,0.3-0.2,0.4-0.2l3.7-1.2
				c0.2,0,0.3-0.1,0.5-0.1c0.6,0,1.1,0.3,1.4,0.9c0.4,0.7,0.1,1.5-0.5,2l-5.1,3.6c-0.1,0.1-0.3,0.2-0.4,0.2l-3.7,1.2
				C124.3,112,124.2,112,124,112z"/>
			<path class="st0" d="M132.8,105.5l-5.1,3.6l-3.7,1.2l5.1-3.6L132.8,105.5 M132.8,102.5c-0.3,0-0.7,0-1,0.2l-3.7,1.2
				c-0.3,0.1-0.6,0.2-0.9,0.4l-5.1,3.6c-1.3,0.9-1.7,2.6-1,4c0.6,1.1,1.6,1.7,2.8,1.7c0.3,0,0.7,0,1-0.2l3.7-1.2
				c0.3-0.1,0.6-0.2,0.9-0.4l5.1-3.6c1.3-0.9,1.7-2.6,1-4C135.1,103,134,102.5,132.8,102.5L132.8,102.5z M132.8,108.7L132.8,108.7
				L132.8,108.7L132.8,108.7z"/>
		</g>
		<g>
			<path class="st0" d="M121.6,112.8c-0.8,0-1.6-0.4-2-1c-0.4-0.5-0.5-1.2-0.4-1.9s0.5-1.2,1-1.6l11-7.9c0.4-0.3,0.9-0.5,1.5-0.5
				c0.8,0,1.6,0.4,2,1c0.4,0.5,0.5,1.2,0.4,1.9s-0.5,1.2-1,1.6l-11,7.9C122.7,112.5,122.2,112.8,121.6,112.8z"/>
			<path class="st0" d="M132.7,101.4c0.3,0,0.6,0.1,0.8,0.4c0.3,0.4,0.2,1-0.2,1.3l-11,7.9c-0.2,0.1-0.4,0.2-0.5,0.2
				c-0.3,0-0.6-0.1-0.8-0.4c-0.3-0.4-0.2-1,0.2-1.3l11-7.9C132.3,101.5,132.5,101.4,132.7,101.4 M132.7,98.2c-0.9,0-1.7,0.3-2.4,0.8
				l-11,7.9c-0.9,0.6-1.5,1.6-1.6,2.6c-0.2,1.1,0.1,2.2,0.7,3c0.8,1.1,2,1.7,3.3,1.7c0.9,0,1.7-0.3,2.4-0.8l11-7.9
				c0.9-0.6,1.5-1.6,1.6-2.6c0.2-1.1-0.1-2.2-0.7-3C135.2,98.9,134,98.2,132.7,98.2L132.7,98.2z"/>
		</g>
		<g>
			<path class="st0" d="M121.5,108.5c-0.6,0-1.1-0.3-1.4-0.9c-0.4-0.7-0.1-1.5,0.5-2l5.1-3.6c0.1-0.1,0.3-0.2,0.4-0.2l3.7-1.2
				c0.2,0,0.3-0.1,0.5-0.1c0.6,0,1.1,0.3,1.4,0.9c0.4,0.7,0.1,1.5-0.5,2l-5.1,3.6c-0.1,0.1-0.3,0.2-0.4,0.2l-3.7,1.2
				C121.9,108.5,121.7,108.5,121.5,108.5z"/>
			<path class="st0" d="M130.3,102.2l-5.1,3.6l-3.7,1.2l5.1-3.6L130.3,102.2 M130.3,99c-0.3,0-0.7,0-1,0.2l-3.7,1.2
				c-0.3,0.1-0.6,0.2-0.9,0.4l-5.1,3.6c-1.3,0.9-1.7,2.6-1,4c0.6,1.1,1.6,1.7,2.8,1.7c0.3,0,0.7,0,1-0.2l3.7-1.2
				c0.3-0.1,0.6-0.2,0.9-0.4l5.1-3.6c1.3-0.9,1.7-2.6,1-4C132.6,99.7,131.5,99,130.3,99L130.3,99z M130.3,105.2L130.3,105.2
				L130.3,105.2L130.3,105.2z"/>
		</g>
		<g>
			<path class="st0" d="M119.2,109.2c-0.8,0-1.6-0.4-2-1c-0.8-1.1-0.5-2.7,0.6-3.5l11-7.9c0.4-0.3,0.9-0.5,1.5-0.5
				c0.8,0,1.6,0.4,2,1c0.4,0.5,0.5,1.2,0.4,1.9s-0.5,1.2-1,1.6l-11,7.9C120.2,109.2,119.7,109.2,119.2,109.2z"/>
			<path class="st0" d="M130.2,98c0.3,0,0.6,0.1,0.8,0.4c0.3,0.4,0.2,1-0.2,1.3l-11,7.9c-0.2,0.1-0.4,0.2-0.5,0.2
				c-0.3,0-0.6-0.1-0.8-0.4c-0.3-0.4-0.2-1,0.2-1.3l11-7.9C129.8,98,130,98,130.2,98 M130.2,94.8L130.2,94.8c-0.9,0-1.7,0.3-2.4,0.8
				l-11,7.9c-1.8,1.3-2.2,3.8-0.9,5.7c0.8,1.1,2,1.7,3.3,1.7c0.9,0,1.7-0.3,2.4-0.8l11-7.9c1.8-1.3,2.2-3.8,0.9-5.7
				C132.7,95.5,131.5,94.8,130.2,94.8L130.2,94.8z"/>
		</g>
		<g>
			<path class="st0" d="M204.5,183.5c-0.8,0-1.5-0.7-1.6-1.5c0-0.4-0.1-0.8-0.1-1.2c-0.1-0.5,0-0.9,0.3-1.3c0.3-0.4,0.7-0.6,1.2-0.6
				h10.5c0.7,0,1.3,0.4,1.5,1s0,1.3-0.5,1.7L214,183c-0.3,0.2-0.6,0.3-1,0.3h-8.5V183.5z"/>
			<path class="st0" d="M214.9,180.5l-1.8,1.4h-8.5c0-0.5-0.1-1-0.2-1.4H214.9 M214.9,177.4h-10.5c-0.9,0-1.8,0.4-2.4,1.1
				s-0.8,1.7-0.7,2.6c0.1,0.3,0.1,0.7,0.1,1c0.1,1.7,1.5,3,3.1,3h8.5c0.7,0,1.4-0.2,2-0.7l1.8-1.4c1-0.8,1.4-2.2,1-3.5
				S216.2,177.4,214.9,177.4L214.9,177.4z M214.9,183.7L214.9,183.7L214.9,183.7L214.9,183.7z"/>
		</g>
		<g>
			<path class="st0" d="M155.5,175.4c-0.9,0-1.6-0.7-1.6-1.6v-12c0-2.3,1.9-4.3,4.3-4.3h55.4c2.4,0,4.3,1.9,4.3,4.3v2.8
				c0,0.7-0.5,1.4-1.2,1.5c-0.4,0.1-0.7,0.3-1,0.7c-0.3,0.5-0.8,0.7-1.3,0.7h-3.2h-0.1c-0.3,0.4-0.7,0.6-1.2,0.6h-0.3
				c-0.3,0.2-0.5,0.3-0.9,0.3c0,0-0.2,0-0.2,0.1l-0.2,0.1c0,0-0.1,0.1-0.2,0.2c-0.3,0.5-0.8,0.8-1.4,0.8h-12.8c-1.2,0-2.1,1-2.1,2.2
				v2.1c0,0.9-0.7,1.6-1.6,1.6L155.5,175.4L155.5,175.4z"/>
			<path class="st0" d="M213.5,159c1.5,0,2.7,1.2,2.7,2.7v2.8c-0.8,0.2-1.5,0.7-1.9,1.3h-3.2c-0.5,0-1,0.2-1.3,0.6h-0.2
				c-0.3,0-0.6,0.1-0.9,0.3l0,0c-0.3,0-0.6,0.1-0.8,0.2l-0.2,0.1c-0.4,0.2-0.7,0.5-0.9,0.8H194c-2,0-3.7,1.7-3.7,3.7v2.1h-34.8v-12
				c0-1.5,1.2-2.7,2.7-2.7L213.5,159 M213.5,156h-55.4c-3.2,0-5.8,2.6-5.8,5.8v12c0,1.7,1.4,3.1,3.1,3.1h34.8c1.7,0,3.1-1.4,3.1-3.1
				v-2.1c0-0.3,0.3-0.6,0.6-0.6h12.8c1,0,1.9-0.4,2.4-1.2c0.3,0,0.6-0.2,0.9-0.3c0.5-0.1,1-0.3,1.5-0.6h2.7c1.1,0,2.1-0.5,2.6-1.4
				c1.4-0.3,2.4-1.6,2.4-3v-2.8C219.4,158.5,216.7,156,213.5,156L213.5,156z"/>
		</g>
		<g>
			<path class="st0" d="M155.5,214c-0.9,0-1.6-0.7-1.6-1.6v-2c0-0.9,0.7-1.6,1.6-1.6h40.6c3.7,0,6.7-2.9,6.9-6.6
				c0-0.8,0.7-1.5,1.6-1.5h8.7c0.4,0,0.7,0.1,1,0.3l3,2.4c0.4,0.3,0.6,0.8,0.6,1.2v7.7c0,0.9-0.7,1.6-1.6,1.6L155.5,214L155.5,214z"
				/>
			<path class="st0" d="M213.2,202.2l3,2.4v7.7h-60.7v-2h40.6c4.5,0,8.2-3.6,8.4-8.1L213.2,202.2 M213.2,199h-8.7
				c-1.7,0-3.1,1.3-3.1,3c-0.1,2.8-2.5,5.1-5.3,5.1h-40.6c-1.7,0-3.1,1.4-3.1,3.1v2c0,1.7,1.4,3.1,3.1,3.1h60.7
				c1.7,0,3.1-1.4,3.1-3.1v-7.7c0-1-0.4-1.8-1.2-2.5l-3-2.4C214.6,199.4,213.9,199,213.2,199L213.2,199z"/>
		</g>
		<g>
			<path class="st0" d="M158.2,236.5c-2.4,0-4.3-1.9-4.3-4.3V219c0-0.9,0.7-1.6,1.6-1.6h60.7c0.9,0,1.6,0.7,1.6,1.6v13.3
				c0,2.3-1.9,4.3-4.3,4.3H158.2L158.2,236.5z"/>
			<path class="st0" d="M216.2,219v13.3c0,1.5-1.2,2.7-2.7,2.7h-55.4c-1.5,0-2.7-1.2-2.7-2.7V219H216.2 M216.2,215.9h-60.7
				c-1.7,0-3.1,1.4-3.1,3.1v13.3c0,3.2,2.6,5.8,5.8,5.8h55.4c3.2,0,5.8-2.6,5.8-5.8V219C219.4,217.2,218,215.9,216.2,215.9
				L216.2,215.9z"/>
		</g>
		<g>
			<path class="st0" d="M153.2,211c-5,0-9.1-4.1-9.1-9.1v-19.7c0-5,4.1-9.1,9.1-9.1h36.4v-1.4c0-2.4,2-4.4,4.4-4.4h12.6
				c0.9,0,1.6,0.7,1.6,1.6c0,0.1,0.1,0.2,0.2,0.3l0.4,0.2c0.3,0,0.7,0.1,1,0.3h0.1c0.5,0,0.9,0.2,1.2,0.6h0.1h3.2
				c0.5,0,1,0.3,1.3,0.7c0.2,0.3,0.6,0.6,1,0.7c0.1,0,0.2,0,0.4,0h1c0.9,0,1.6,0.7,1.6,1.6v3c1-0.4,2-0.6,3.1-0.6h0.1
				c1-1,2.4-1.6,3.8-1.6h8.5c3,0,5.4,2.5,5.4,5.5v25.1c0,3-2.4,5.5-5.4,5.5h-8.6c-1.5,0-2.9-0.6-3.9-1.7l0,0c-1.8,0-3.5-0.6-4.9-1.7
				L213,203h-7.8c-0.5,4.6-4.4,8.1-9,8.1L153.2,211L153.2,211z M163.8,196.8c-1.4,0-2.5,1.1-2.5,2.5s1.1,2.5,2.5,2.5h20.1
				c1.4,0,2.5-1.1,2.5-2.5s-1.1-2.5-2.5-2.5H163.8z M212.8,181.2L212.8,181.2h-7.7l0,0H212.8z"/>
			<path class="st0" d="M206.6,168.9c0,0.7,0.4,1.4,1.1,1.7l0.2,0.1h0.1c0.1,0,0.2,0.1,0.3,0.1c0.1,0,0.3,0,0.4,0l0,0
				c0.2,0.2,0.5,0.3,0.9,0.3h0.1c0.2,0.3,0.6,0.5,0.9,0.6c0.1,0,0.3,0,0.4,0h3.2c0.4,0.7,1.1,1.2,1.9,1.3c0.2,0.1,0.5,0.1,0.7,0.1h1
				v3.5c0,1.2-0.7,2.2-1.7,2.6c-0.4,0.2-0.7,0.2-1.2,0.2H203c0.3,0.8,0.5,1.7,0.5,2.6v0.6h9.7l2.8-2.3l2.5-2
				c1.1-0.8,2.5-1.3,3.9-1.3h0.8c0.7-1,1.8-1.6,3.1-1.6h8.5c2.1,0,3.9,1.7,3.9,3.9v25.1c0,2.2-1.7,3.9-3.9,3.9h-8.2
				c-1.3,0-2.5-0.7-3.2-1.7h-0.8c-1.4,0-2.8-0.5-3.9-1.3l-2.5-2l-2.7-2.2h-9.9v0.6c0,4.2-3.4,7.5-7.5,7.5h-42.9
				c-4.2,0-7.5-3.4-7.5-7.5v-19.7c0-4.2,3.4-7.5,7.5-7.5h37.9v-2.9c0-1.6,1.3-2.8,2.8-2.8L206.6,168.9 M163.8,203.2h20.1
				c2.2,0,4-1.8,4-4s-1.8-4-4-4h-20.1c-2.2,0-4,1.8-4,4S161.6,203.2,163.8,203.2 M206.6,165.8H194c-3.2,0-5.9,2.6-6,5.8h-34.8
				c-5.9,0-10.7,4.8-10.7,10.7V202c0,5.9,4.8,10.7,10.7,10.7h42.9c5,0,9.2-3.5,10.4-8.1h5.9l1.9,1.5l2.5,2c1.5,1.2,3.3,1.9,5.2,2
				c1.2,1.1,2.9,1.7,4.6,1.7h8.5c3.9,0,7-3.2,7-7v-25.1c0-3.9-3.1-7-7-7h-8.5c-1.6,0-3.2,0.6-4.5,1.6c-0.4,0-0.7,0.1-1.1,0.1v-1
				c0-1.7-1.4-3.1-3.1-3.1h-1l0,0c-0.6-0.9-1.5-1.4-2.6-1.4h-2.7c-0.4-0.3-0.9-0.5-1.5-0.6c-0.2-0.1-0.4-0.2-0.6-0.2
				C209.1,166.7,208,165.8,206.6,165.8L206.6,165.8z M163.8,200.2c-0.5,0-0.9-0.4-0.9-0.9s0.4-0.9,0.9-0.9h20.1
				c0.5,0,0.9,0.4,0.9,0.9s-0.4,0.9-0.9,0.9H163.8L163.8,200.2z"/>
		</g>
		<g>
			<path class="st0" d="M163.8,204c-2.6,0-4.7-2.1-4.7-4.7s2.1-4.7,4.7-4.7h20.1c2.6,0,4.7,2.1,4.7,4.7s-2.1,4.7-4.7,4.7H163.8z"/>
			<path class="st0" d="M183.9,196c1.8,0,3.2,1.4,3.2,3.2s-1.4,3.2-3.2,3.2h-20.1c-1.8,0-3.2-1.4-3.2-3.2s1.4-3.2,3.2-3.2H183.9
				 M183.9,193h-20.1c-3.5,0-6.3,2.8-6.3,6.3s2.8,6.3,6.3,6.3h20.1c3.5,0,6.3-2.8,6.3-6.3S187.4,193,183.9,193L183.9,193z"/>
		</g>
		<g>
			<path class="st0" d="M216.9,174c-0.1,0-0.3,0-0.4,0s-0.3,0-0.4-0.1c-0.1,0-0.2,0-0.4-0.1c-0.2-0.1-0.4-0.1-0.5-0.2
				c-0.3-0.1-0.6-0.3-0.9-0.6c0,0-0.1,0-0.1-0.1c-0.1-0.1-0.2-0.2-0.2-0.3l-0.1-0.1H211c-0.2,0-0.3,0-0.5,0c0,0-0.2-0.1-0.3-0.1
				c-0.1,0-0.1-0.1-0.2-0.1c-0.2-0.1-0.5-0.2-0.6-0.4c-0.2,0-0.4-0.1-0.6-0.2c-0.1,0-0.2-0.1-0.3-0.2c-0.3,0-0.6-0.1-0.9-0.3
				l-0.2-0.1c-0.1-0.1-0.3-0.2-0.5-0.3c-0.1-0.1-0.1-0.1-0.2-0.2c-0.1-0.1-0.2-0.2-0.3-0.3v-0.1c-0.3-0.4-0.4-0.9-0.4-1.4
				c0-1,0.6-1.9,1.5-2.3l0.2-0.1c0.3-0.1,0.6-0.2,0.9-0.2c0.3-0.2,0.6-0.3,0.9-0.3c0.4-0.4,1-0.6,1.6-0.6h2.9
				c0.1-0.1,0.2-0.2,0.3-0.3c0.1-0.1,0.2-0.2,0.3-0.3c0.1-0.1,0.2-0.2,0.3-0.2c0.1-0.1,0.2-0.1,0.3-0.2c0.2-0.1,0.4-0.2,0.5-0.2
				c0.4-0.1,0.8-0.2,1.2-0.2h22.2c2.1,0,3.9,1.7,3.9,3.9v2.4c0,2.1-1.7,3.9-3.9,3.9L216.9,174L216.9,174z"/>
			<path class="st0" d="M239.1,165.5c1.3,0,2.3,1,2.3,2.3v2.4c0,1.3-1,2.3-2.3,2.3h-22.2c-0.1,0-0.2,0-0.3,0c-0.1,0-0.1,0-0.2,0
				s-0.1,0-0.2,0s-0.2-0.1-0.3-0.1c-0.2-0.1-0.4-0.2-0.5-0.4c-0.1-0.1-0.1-0.1-0.2-0.2c-0.1-0.1-0.1-0.1-0.1-0.2l-0.1-0.1l-0.2-0.3
				h-3.7c-0.1,0-0.1,0-0.2,0h-0.1h-0.1c-0.1-0.1-0.3-0.2-0.3-0.3l-0.2-0.3h-0.6c-0.1,0-0.1,0-0.2,0c0,0-0.1,0-0.1-0.1l0,0l-0.2-0.2
				h-0.3c-0.1,0-0.3,0-0.4-0.1l-0.3-0.1c-0.1,0-0.1-0.1-0.2-0.1l0,0l0,0c-0.1,0-0.1-0.1-0.1-0.2l0,0c-0.1-0.2-0.1-0.3-0.1-0.5
				c0-0.4,0.2-0.7,0.6-0.9l0.3-0.1c0.1-0.1,0.3-0.1,0.4-0.1h0.4c0.1-0.2,0.3-0.3,0.5-0.3h0.6c0.1-0.4,0.4-0.6,0.8-0.6h3.8
				c0-0.1,0.1-0.2,0.1-0.3s0.1-0.1,0.1-0.2c0.1-0.1,0.2-0.2,0.3-0.3c0.1-0.1,0.1-0.1,0.2-0.2l0.1-0.1c0.1,0,0.1-0.1,0.2-0.1
				c0.1-0.1,0.2-0.1,0.3-0.1c0.2-0.1,0.5-0.1,0.7-0.1L239.1,165.5 M239.1,162.2h-22.2c-0.6,0-1.1,0.1-1.6,0.2l0,0
				c-0.2,0-0.4,0.1-0.7,0.3c-0.1,0.1-0.3,0.2-0.4,0.2c-0.1,0.1-0.3,0.2-0.5,0.3c-0.1,0.1-0.2,0.2-0.4,0.3h-2.2
				c-0.8,0-1.6,0.3-2.3,0.7c-0.2,0.1-0.5,0.2-0.7,0.3c-0.4,0.1-0.8,0.2-1.1,0.4l-0.2,0.1c-1.5,0.6-2.4,2.1-2.4,3.8
				c0,0.8,0.2,1.6,0.6,2.2l0,0l0.1,0.1c0.1,0.2,0.3,0.4,0.5,0.5c0.1,0.1,0.2,0.2,0.3,0.3c0,0,0.1,0,0.1,0.1c0.3,0.2,0.5,0.3,0.7,0.5
				h0.1l0.2,0.1c0.4,0.2,0.7,0.3,1.1,0.4c0,0,0.1,0,0.2,0.1c0.2,0.1,0.4,0.1,0.5,0.2c0.2,0.2,0.5,0.3,0.7,0.4l0,0
				c0.1,0,0.2,0.1,0.3,0.1c0.1,0,0.2,0.1,0.3,0.1c0.1,0,0.1,0,0.2,0s0.4,0.1,0.8,0.1h2.2c0,0,0.1,0,0.1,0.1c0.4,0.3,0.8,0.6,1.2,0.8
				c0.2,0.1,0.5,0.2,0.7,0.3s0.4,0.1,0.5,0.1c0.2,0,0.4,0.1,0.6,0.1c0.1,0,0.3,0,0.6,0h22.2c3,0,5.4-2.4,5.4-5.4v-2.4
				C244.5,164.8,242.1,162.2,239.1,162.2L239.1,162.2z"/>
		</g>
		<g>
			<path class="st0" d="M146.4,219.7c-1.3,0-2.4-1-2.4-2.3v-3.3c0-1.3,1.1-2.4,2.4-2.4h78.8c1.3,0,2.4,1.1,2.4,2.4v3.3
				c0,1.3-1.1,2.3-2.4,2.3H146.4z"/>
			<path class="st0" d="M225.3,213.2c0.4,0,0.8,0.4,0.8,0.8v3.3c0,0.4-0.4,0.8-0.8,0.8h-78.8c-0.4,0-0.8-0.3-0.8-0.8V214
				c0-0.4,0.4-0.8,0.8-0.8H225.3 M225.3,210h-78.8c-2.2,0-3.9,1.8-3.9,3.9v3.3c0,2.2,1.8,3.9,3.9,3.9h78.8c2.2,0,3.9-1.8,3.9-3.9
				V214C229.2,211.9,227.4,210,225.3,210L225.3,210z"/>
		</g>
		<g>
			<path class="st0" d="M161,158.5c-1.1,0-2.1-1-2.1-2.1V154c0-1.2,0.9-2.1,2.1-2.1h49.7c1.1,0,2.1,1,2.1,2.1v2.4
				c0,1.2-0.9,2.1-2.1,2.1H161z"/>
			<path class="st0" d="M210.7,153.5c0.3,0,0.5,0.3,0.5,0.6v2.4c0,0.3-0.2,0.6-0.5,0.6H161c-0.3,0-0.5-0.2-0.5-0.6V154
				c0-0.3,0.2-0.6,0.5-0.6H210.7 M210.7,150.4H161c-2,0-3.6,1.7-3.6,3.7v2.4c0,2,1.6,3.7,3.6,3.7h49.7c2,0,3.6-1.7,3.6-3.7v-2.4
				C214.3,152,212.7,150.4,210.7,150.4L210.7,150.4z"/>
		</g>
	</g>
	<g>
		<rect x="58.4" y="65" width="183.1" height="18.3"/>
		<g>
			<path d="M213.4,138.9v9.5c0,1.7-1.3,3-3,3h-53.1c0.6-0.2,1.2-0.6,1.8-1c1.8-1.3,3-3.2,3.3-5.4c0.4-2.2-0.2-4.4-1.5-6.2l-2.1-2.9
				h51.6C212,135.9,213.4,137.2,213.4,138.9z"/>
			<path id="상단_판_00000173852328850663609680000017064501599732836262_" d="M61.5,85.2h52.9c-0.6,0.2-1.2,0.6-1.7,1
				c-1.8,1.3-3,3.2-3.3,5.4c-0.4,2.2,0.2,4.4,1.5,6.2l2.1,2.9c0,0,0,0,0,0.1H61.6c-1.6,0-3-1.3-3-3v-9.5
				C58.5,86.5,59.8,85.2,61.5,85.2z"/>
			<g>
				<g id="상단_연결부_00000075162435627529129610000002951519181327082923_">
					<path d="M123.8,88.5c-2.5-3.5-7.3-4.2-10.8-1.7s-4.2,7.3-1.7,10.8l6.2,8.6l12.5-9L123.8,88.5z M118.2,91.4
						c-0.4,1.3-1.7,2-3,1.6c-0.5-0.1-0.9-0.4-1.1-0.7l0,0l0,0c-0.5-0.6-0.7-1.4-0.5-2.2c0.1-0.4,0.4-0.8,0.6-1.1
						c0.6-0.6,1.5-0.8,2.4-0.6C117.8,88.7,118.6,90,118.2,91.4z"/>
					<g>
						<circle cx="115.9" cy="90.7" r="1.8"/>
					</g>
				</g>
				<g id="하단_연결부_00000003785929087857196780000016761529228429509564_">
					<g>
						<path d="M141.9,139.9l6.1,8.3c2.5,3.5,7.3,4.2,10.8,1.7s4.2-7.3,1.7-10.8l-6.1-8.3L141.9,139.9z M158.1,146.7
							c-0.4,1.3-1.7,2-3,1.6s-2-1.7-1.6-3s1.7-2,3-1.6C157.8,144,158.5,145.4,158.1,146.7z"/>
					</g>
					<g>
						<circle cx="155.8" cy="146" r="1.8"/>
					</g>
				</g>
				<g id="스프링_00000167364827919340320470000008099588568692326549_">
					<g>
						<path d="M153.1,129l0.5,0.8c0.1,0.2,0.1,0.5-0.1,0.7l-11.8,8.4c-0.2,0.2-0.5,0.1-0.6-0.1l-0.5-0.8c-0.1-0.2-0.1-0.5,0.1-0.7
							l11.8-8.4C152.7,128.8,153,128.9,153.1,129z"/>
					</g>
					<g>
						<polygon points="145.2,133.5 150.3,129.8 146.6,131 141.5,134.7 						"/>
					</g>
					<path d="M150.6,125.7l0.5,0.8c0.1,0.2,0.1,0.5-0.1,0.7l-11.8,8.4c-0.2,0.2-0.5,0.1-0.6-0.1l-0.5-0.8c-0.1-0.2-0.1-0.5,0.1-0.7
						l11.8-8.4C150.2,125.4,150.5,125.4,150.6,125.7z"/>
					<polygon points="142.7,130 147.8,126.2 144.1,127.5 139,131.2 					"/>
					<g>
						<path d="M148.1,122.2l0.5,0.8c0.1,0.2,0.1,0.5-0.1,0.7l-11.8,8.4c-0.2,0.2-0.5,0.1-0.6-0.1l-0.5-0.8c-0.1-0.2-0.1-0.5,0.1-0.7
							l11.8-8.4C147.7,121.9,148,122,148.1,122.2z"/>
					</g>
					<polygon points="140.2,126.5 145.3,122.9 141.6,124 136.5,127.8 					"/>
					<g>
						<path d="M145.6,118.7l0.5,0.8c0.1,0.2,0.1,0.5-0.1,0.7l-11.8,8.4c-0.2,0.2-0.5,0.1-0.6-0.1l-0.5-0.8c-0.1-0.2-0.1-0.5,0.1-0.7
							l11.8-8.4C145.2,118.5,145.5,118.5,145.6,118.7z"/>
					</g>
					<polygon points="137.7,123 142.8,119.5 139.1,120.7 134,124.2 					"/>
					<g>
						<path d="M143.2,115.2l0.5,0.8c0.1,0.2,0.1,0.5-0.1,0.7l-11.8,8.4c-0.2,0.2-0.5,0.1-0.6-0.1l-0.5-0.8c-0.1-0.2-0.1-0.5,0.1-0.7
							l11.8-8.4C142.7,115,143,115,143.2,115.2z"/>
					</g>
					<polygon points="131.5,120.9 135.2,119.5 140.3,116 136.6,117.2 					"/>
					<g>
						<path d="M140.6,111.8l0.5,0.8c0.1,0.2,0.1,0.5-0.1,0.7l-11.8,8.4c-0.2,0.2-0.5,0.1-0.6-0.1l-0.5-0.8c-0.1-0.2-0.1-0.5,0.1-0.7
							l11.8-8.4C140.2,111.5,140.5,111.5,140.6,111.8z"/>
					</g>
					<polygon points="132.7,116.2 137.8,112.5 134.1,113.8 129,117.4 					"/>
					<g>
						<path d="M138.1,108.4l0.5,0.8c0.1,0.2,0.1,0.5-0.1,0.7l-11.8,8.4c-0.2,0.2-0.5,0.1-0.6-0.1l-0.5-0.8c-0.1-0.2-0.1-0.5,0.1-0.7
							l11.8-8.4C137.7,108,138,108.2,138.1,108.4z"/>
					</g>
					<polygon points="130.2,112.7 135.3,109 131.6,110.2 126.5,113.9 					"/>
					<g>
						<path d="M135.6,104.9l0.5,0.8c0.1,0.2,0.1,0.5-0.1,0.7l-11.8,8.4c-0.2,0.2-0.5,0.1-0.6-0.1l-0.5-0.8c-0.1-0.2-0.1-0.5,0.1-0.7
							l11.8-8.4C135.2,104.7,135.5,104.7,135.6,104.9z"/>
					</g>
					<polygon points="127.7,109.2 132.8,105.5 129.1,106.8 124,110.5 					"/>
					<g>
						<path d="M133.1,101.5l0.5,0.8c0.1,0.2,0.1,0.5-0.1,0.7l-11.8,8.4c-0.2,0.2-0.5,0.1-0.6-0.1l-0.5-0.8c-0.1-0.2-0.1-0.5,0.1-0.7
							l11.8-8.4C132.7,101.2,133,101.2,133.1,101.5z"/>
					</g>
					<g>
						<polygon points="125.2,105.8 130.3,102.2 126.6,103.4 121.5,107 						"/>
					</g>
					<g>
						<path d="M130.7,98l0.5,0.8c0.1,0.2,0.1,0.5-0.1,0.7l-11.8,8.4c-0.2,0.2-0.5,0.1-0.6-0.1l-0.5-0.8c-0.1-0.2-0.1-0.5,0.1-0.7
							l11.8-8.4C130.2,97.7,130.5,97.8,130.7,98z"/>
					</g>
				</g>
			</g>
		</g>
		<g id="CAMERA_00000168078424722841965560000004207103172014170255_">
			<path d="M216.2,165.5v6.8c-0.1,0-0.2-0.1-0.3-0.1c-0.2-0.1-0.4-0.2-0.5-0.4c-0.1-0.1-0.1-0.1-0.2-0.2c-0.1-0.1-0.1-0.1-0.1-0.2
				l-0.1-0.1l-0.2-0.3h-3.7c-0.1,0-0.1,0-0.2,0h-0.1h-0.1c-0.1-0.1-0.3-0.2-0.3-0.3l-0.2-0.3h-0.6c-0.1,0-0.1,0-0.2,0
				c0,0-0.1,0-0.1-0.1l0,0l-0.2-0.2h-0.3c-0.1,0-0.3,0-0.4-0.1l-0.3-0.1c-0.1,0-0.1-0.1-0.2-0.1l0,0l0,0c-0.1,0-0.1-0.1-0.1-0.2l0,0
				c-0.1-0.2-0.1-0.3-0.1-0.5c0-0.4,0.2-0.7,0.6-0.9l0.3-0.1c0.1-0.1,0.3-0.1,0.4-0.1h0.4c0.1-0.2,0.3-0.3,0.5-0.3h0.6
				c0.1-0.4,0.4-0.6,0.8-0.6h3.8c0-0.1,0.1-0.2,0.1-0.3s0.1-0.1,0.1-0.2c0.1-0.1,0.2-0.2,0.3-0.3c0.1-0.1,0.1-0.1,0.2-0.2l0.1-0.1
				c0.1,0,0.1-0.1,0.2-0.1C216,165.5,216.1,165.5,216.2,165.5z"/>
			<path d="M214.9,180.5l-1.8,1.4h-8.5c0-0.5-0.1-1-0.2-1.4H214.9z"/>
			<g>
				<path d="M213.5,159h-55.4c-1.5,0-2.7,1.2-2.7,2.7v12h34.8v-2.1c0-2,1.7-3.7,3.7-3.7h12.8c0.2-0.3,0.5-0.6,0.9-0.8l0.2-0.1
					c0.2-0.1,0.5-0.2,0.8-0.2l0,0c0.2-0.2,0.5-0.3,0.9-0.3h0.1c0.3-0.4,0.8-0.6,1.3-0.6h3.2c0.4-0.7,1.1-1.2,1.9-1.3v-2.8
					C216.2,160.2,215,159,213.5,159z"/>
				<path d="M204.5,202.2c-0.2,4.5-3.9,8.1-8.4,8.1h-40.6v2h60.7v-7.7l-3-2.4L204.5,202.2L204.5,202.2z"/>
				<path d="M155.5,232.2c0,1.5,1.2,2.7,2.7,2.7h55.4c1.5,0,2.7-1.2,2.7-2.7V219h-60.7v13.3H155.5z"/>
			</g>
			<g>
				<g>
					<path d="M235.1,175.7h-8.5c-1.3,0-2.4,0.6-3.1,1.6h-0.9c-1.4,0-2.8,0.5-3.9,1.3l-2.5,2l-2.8,2.3h-9.7v-0.6
						c0-0.9-0.2-1.8-0.5-2.6h11.9c0.4,0,0.8-0.1,1.2-0.2c1-0.5,1.7-1.5,1.7-2.6v-3.5h-1c-0.2,0-0.5,0-0.7-0.1
						c-0.8-0.2-1.5-0.7-1.9-1.3h-3.2c-0.1,0-0.3,0-0.4,0c-0.4-0.1-0.7-0.3-0.9-0.6h-0.3c-0.3,0-0.6-0.1-0.9-0.3l0,0
						c-0.1,0-0.3,0-0.4,0s-0.2-0.1-0.3-0.1h-0.1l-0.2-0.1c-0.7-0.3-1.1-1-1.1-1.7H194c-1.6,0-2.8,1.3-2.8,2.8v2.9h-37.9
						c-4.2,0-7.5,3.4-7.5,7.5v19.7c0,4.2,3.4,7.5,7.5,7.5h42.9c4.2,0,7.5-3.4,7.5-7.5v-0.6h9.8l2.7,2.2l2.5,2
						c1.1,0.8,2.5,1.3,3.9,1.3h0.8c0.7,1,1.9,1.7,3.2,1.7h8.5c2.1,0,3.9-1.7,3.9-3.9v-25.1C238.9,177.4,237.2,175.7,235.1,175.7z
						 M183.9,203.2h-20.1c-2.2,0-4-1.8-4-4s1.8-4,4-4h20.1c2.2,0,4,1.8,4,4S186.1,203.2,183.9,203.2z"/>
				</g>
				<g>
					<g>
						<path d="M187.1,199.2c0,1.8-1.4,3.2-3.2,3.2h-20.1c-1.8,0-3.2-1.4-3.2-3.2s1.4-3.2,3.2-3.2h20.1
							C185.6,196,187.1,197.5,187.1,199.2z"/>
					</g>
				</g>
				<g>
					<path d="M241.4,167.8v2.4c0,1.3-1,2.3-2.3,2.3h-22.2c-0.1,0-0.2,0-0.3,0c-0.1,0-0.1,0-0.2,0s-0.1,0-0.2,0s-0.2-0.1-0.3-0.1
						c-0.2-0.1-0.4-0.2-0.5-0.4c-0.1-0.1-0.1-0.1-0.2-0.2c-0.1-0.1-0.1-0.1-0.1-0.2l-0.1-0.1c-0.1-0.1-0.1-0.2-0.1-0.3h-3.8
						c-0.1,0-0.1,0-0.2,0h-0.1h-0.1c-0.1-0.1-0.3-0.2-0.3-0.3c-0.1-0.1-0.1-0.2-0.1-0.3h-0.7c-0.1,0-0.1,0-0.2,0c0,0-0.1,0-0.1-0.1
						l0,0c-0.1-0.1-0.1-0.1-0.1-0.2h-0.4c-0.1,0-0.3,0-0.4-0.1l-0.3-0.1c-0.1,0-0.1-0.1-0.2-0.1l0,0l0,0c-0.1,0-0.1-0.1-0.1-0.2l0,0
						c-0.1-0.2-0.1-0.3-0.1-0.5c0-0.4,0.2-0.7,0.6-0.9l0.3-0.1c0.1-0.1,0.3-0.1,0.4-0.1h0.4c0.1-0.2,0.3-0.3,0.5-0.3h0.6
						c0.1-0.4,0.4-0.6,0.8-0.6h3.8c0-0.1,0.1-0.2,0.1-0.3s0.1-0.1,0.1-0.2c0.1-0.1,0.2-0.2,0.3-0.3c0.1-0.1,0.1-0.1,0.2-0.2l0.1-0.1
						c0.1,0,0.1-0.1,0.2-0.1c0.1-0.1,0.2-0.1,0.3-0.1c0.2-0.1,0.5-0.1,0.7-0.1h22.2C240.4,165.5,241.4,166.5,241.4,167.8z"/>
					<path d="M207.9,170.7l-0.2-0.1L207.9,170.7l0.1,0.1C208,170.8,208,170.8,207.9,170.7z M209.2,170h-0.1l0.2,0.2
						C209.2,170.2,209.2,170,209.2,170z M210.3,170.4L210.3,170.4l0.1,0.3C210.3,170.5,210.3,170.5,210.3,170.4z M214.8,171
						L214.8,171l0.2,0.3C214.9,171.2,214.8,171,214.8,171z"/>
				</g>
			</g>
			<g>
				<path d="M226.1,214v3.3c0,0.4-0.4,0.8-0.8,0.8h-78.8c-0.4,0-0.8-0.3-0.8-0.8V214c0-0.4,0.4-0.8,0.8-0.8h78.8
					C225.7,213.2,226.1,213.5,226.1,214z"/>
			</g>
			<g>
				<path d="M211.2,154v2.4c0,0.3-0.2,0.6-0.5,0.6H161c-0.3,0-0.5-0.2-0.5-0.6V154c0-0.3,0.2-0.6,0.5-0.6h49.7
					C211,153.5,211.2,153.8,211.2,154z"/>
			</g>
		</g>
	</g>
</g>
</svg>
