<?xml version="1.0" encoding="utf-8"?>
<!-- Generator: Adobe Illustrator 27.9.0, SVG Export Plug-In . SVG Version: 6.00 Build 0)  -->
<svg version="1.1" id="레이어_1" xmlns="http://www.w3.org/2000/svg" xmlns:xlink="http://www.w3.org/1999/xlink" x="0px"
	 y="0px" viewBox="0 0 300 300" style="enable-background:new 0 0 300 300;" xml:space="preserve">
<style type="text/css">
	.st0{fill:#F8F8F8;}
</style>
<g>
	<g>
		<g>
			<path class="st0" d="M138.3,113.8c-0.4,0-0.8-0.1-1.2-0.2c-0.8-0.2-1.6-0.7-2.1-1.4l-0.1-0.1c-0.9-1.1-1.3-2.6-0.9-4.1
				c0.2-0.7,0.6-1.4,1.2-1.9c0.8-0.8,1.9-1.2,3.1-1.2c0.4,0,0.8,0.1,1.2,0.2c2.3,0.7,3.7,3.1,3,5.5
				C142,112.5,140.3,113.8,138.3,113.8L138.3,113.8z M138.3,108.8c-0.2,0-0.4,0.1-0.5,0.4c-0.1,0.2,0,0.4,0.1,0.4s0.1,0.2,0.3,0.3
				c0.1,0,0.1,0,0.2,0c0.2,0,0.5-0.1,0.5-0.4c0.1-0.2,0-0.4-0.1-0.4c0-0.1-0.1-0.2-0.3-0.3C138.4,108.8,138.4,108.8,138.3,108.8z"/>
			<path class="st0" d="M138.3,106.5c0.3,0,0.5,0,0.8,0.1c1.5,0.4,2.4,2,1.9,3.5c-0.4,1.2-1.5,2-2.7,2c-0.3,0-0.5,0-0.8-0.1
				c-0.6-0.2-1-0.5-1.4-0.9l0,0c0,0,0,0,0,0c-0.6-0.7-0.8-1.7-0.6-2.6c0.1-0.5,0.4-0.9,0.8-1.2C136.9,106.8,137.6,106.5,138.3,106.5
				 M138.3,111.5c0.9,0,1.8-0.6,2-1.5c0.3-1.1-0.3-2.3-1.4-2.6c-0.2-0.1-0.4-0.1-0.6-0.1c-0.9,0-1.8,0.6-2,1.5
				c-0.3,1.1,0.3,2.3,1.4,2.6C137.9,111.5,138.1,111.5,138.3,111.5 M138.3,103.4c-1.6,0-3,0.6-4.1,1.7c-0.8,0.7-1.3,1.6-1.6,2.6
				c-0.6,1.9-0.1,4,1.1,5.5c0,0,0.1,0.1,0.1,0.1c0.7,0.8,1.7,1.5,2.8,1.8c0.5,0.2,1.1,0.2,1.7,0.2c2.6,0,5-1.8,5.7-4.3
				c0.4-1.5,0.3-3.1-0.5-4.5s-2-2.4-3.6-2.9C139.4,103.5,138.9,103.4,138.3,103.4L138.3,103.4z"/>
		</g>
		<g>
			<path class="st0" d="M211.9,216.9c-1.5,0-2.6-0.2-3.2-0.6c-0.3-0.2-0.6-0.6-0.7-1c-0.2-1,0.3-2.3,1.5-5.2
				c1.2-2.8,2.6-6.2,2.8-9.9c0-0.8,0.7-1.5,1.6-1.5h13.7c0.4,0,0.8,0.2,1.1,0.5c0.3,0.3,0.5,0.7,0.4,1.2
				C228.8,209.6,221.2,216.9,211.9,216.9z"/>
			<path class="st0" d="M227.5,200.2c-0.3,8.4-7.2,15.1-15.7,15.1c-1.7,0-2.3-0.3-2.4-0.4c-0.1-0.6,0.8-2.8,1.4-4.3
				c1.2-2.9,2.8-6.5,2.9-10.5H227.5 M227.5,197.1h-13.7c-1.7,0-3.1,1.3-3.1,3c-0.1,3.4-1.5,6.6-2.6,9.3c-1.3,3.1-1.9,4.7-1.6,6.2
				c0.2,0.8,0.7,1.5,1.4,2c0.9,0.6,2.2,0.9,4.1,0.9c10.2,0,18.4-8,18.8-18.1c0-0.8-0.3-1.7-0.9-2.3
				C229.2,197.4,228.4,197.1,227.5,197.1L227.5,197.1z M227.5,203.3L227.5,203.3L227.5,203.3L227.5,203.3z"/>
		</g>
		<g>
			<path class="st0" d="M185.5,179.1c-0.4,0-0.8-0.1-1.2-0.2c-2.3-0.7-3.7-3.1-3-5.5c0.5-1.9,2.3-3.2,4.2-3.2c0.4,0,0.8,0.1,1.2,0.2
				c2.3,0.7,3.7,3.1,3,5.5C189.2,177.8,187.4,179.1,185.5,179.1z M185.5,174.2c-0.2,0-0.5,0.1-0.5,0.4c-0.1,0.2,0,0.3,0,0.4
				c0,0.1,0.1,0.2,0.3,0.3c0,0,0.1,0,0.2,0c0.2,0,0.5-0.1,0.5-0.4c0.1-0.2,0-0.3,0-0.4s-0.1-0.2-0.3-0.3
				C185.6,174.2,185.5,174.2,185.5,174.2z"/>
			<path class="st0" d="M185.5,171.9c0.3,0,0.5,0,0.8,0.1c1.5,0.4,2.4,2,1.9,3.5c-0.4,1.2-1.5,2-2.7,2c-0.3,0-0.5,0-0.8-0.1
				c-1.5-0.4-2.4-2-1.9-3.5C183.1,172.7,184.2,171.9,185.5,171.9 M185.5,176.9c0.9,0,1.8-0.6,2-1.5c0.3-1.1-0.3-2.3-1.5-2.6
				c-0.2-0.1-0.4-0.1-0.6-0.1c-0.9,0-1.8,0.6-2,1.5c-0.3,1.1,0.3,2.3,1.5,2.6C185.1,176.8,185.3,176.9,185.5,176.9 M185.5,168.7
				c-2.6,0-5,1.8-5.7,4.3c-0.9,3.2,0.9,6.5,4.1,7.4c0.5,0.2,1.1,0.2,1.7,0.2c2.6,0,5-1.8,5.7-4.3c0.5-1.5,0.3-3.2-0.5-4.5
				s-2-2.4-3.6-2.9C186.6,168.8,186,168.7,185.5,168.7L185.5,168.7z"/>
		</g>
		<g>
			<path class="st0" d="M58.5,102.6c-0.9,0-1.6-0.7-1.6-1.6V82.8c0-0.9,0.7-1.6,1.6-1.6h183.1c0.9,0,1.6,0.7,1.6,1.6v18.3
				c0,0.9-0.7,1.6-1.6,1.6H58.5z"/>
			<path class="st0" d="M241.5,82.8v18.3H58.5V82.8H241.5 M241.5,79.6H58.5c-1.7,0-3.1,1.4-3.1,3.1v18.3c0,1.7,1.4,3.1,3.1,3.1
				h183.1c1.7,0,3.1-1.4,3.1-3.1V82.8C244.7,81,243.3,79.6,241.5,79.6L241.5,79.6z"/>
		</g>
		<g>
			<path class="st0" d="M74,122.8c-2.8,0-5.1-2.3-5.1-5.1v-11.3c0-2.8,2.3-5.1,5.1-5.1h62.5c0.8,0,1.4,0.5,1.5,1.3s-0.2,1.5-0.9,1.8
				c-0.6,0.3-1.2,0.6-1.7,1c-1.8,1.3-3,3.2-3.3,5.4s0.2,4.4,1.5,6.2l2.4,3.4c0.1,0.1,0.1,0.2,0.1,0.2c0.2,0.5,0.2,1,0,1.5
				c-0.3,0.5-0.8,0.8-1.4,0.8L74,122.8L74,122.8z"/>
			<path class="st0" d="M136.5,102.9c-0.7,0.3-1.4,0.7-2,1.1c-2.1,1.5-3.5,3.8-3.9,6.4c-0.4,2.6,0.2,5.2,1.7,7.3l2.4,3.4
				c0,0,0,0,0,0.1H74c-1.9,0-3.5-1.6-3.5-3.5v-11.3c0-1.9,1.6-3.5,3.5-3.5L136.5,102.9 M136.5,99.8H74c-3.7,0-6.6,3-6.6,6.6v11.3
				c0,3.7,3,6.6,6.6,6.6h60.7c1.2,0,2.2-0.6,2.8-1.7c0.5-0.9,0.5-2,0-2.9c-0.1-0.2-0.2-0.3-0.3-0.5l-2.4-3.4c-1-1.5-1.5-3.2-1.2-5
				c0.3-1.8,1.2-3.3,2.7-4.4c0.4-0.3,0.9-0.6,1.4-0.8c1.4-0.6,2.2-2,1.9-3.5C139.3,100.9,138,99.8,136.5,99.8L136.5,99.8z
				 M136.5,106.1L136.5,106.1L136.5,106.1L136.5,106.1z"/>
		</g>
		<g>
			<path class="st0" d="M140.2,129.1c-0.5,0-1-0.2-1.3-0.6l-7.4-10.2c-1.7-2.3-2.3-5.1-1.9-8c0.4-2.8,2-5.3,4.3-7c1.8-1.3,4-2,6.2-2
				c3.4,0,6.7,1.7,8.7,4.4l7.4,10.2c0.2,0.3,0.3,0.8,0.3,1.2c-0.1,0.4-0.3,0.8-0.6,1l-14.8,10.7C140.9,129,140.6,129.1,140.2,129.1z
				 M137.4,110.2c0.2,0.2,0.4,0.3,0.6,0.4c0.1,0,0.2,0,0.4,0c0.6,0,1.1-0.4,1.2-0.9c0.2-0.7-0.2-1.4-0.9-1.6c-0.1,0-0.2,0-0.4,0
				c-0.3,0-0.6,0.1-0.9,0.4c-0.2,0.2-0.3,0.3-0.3,0.6C137,109.4,137.1,109.9,137.4,110.2C137.4,110.2,137.4,110.2,137.4,110.2z"/>
			<path class="st0" d="M140.2,102.9c2.8,0,5.6,1.3,7.4,3.8l7.4,10.2l-14.8,10.7l-7.4-10.2c-2.9-4.1-2-9.8,2.1-12.7
				C136.5,103.5,138.4,102.9,140.2,102.9 M138.3,112.2c1.2,0,2.4-0.8,2.7-2c0.4-1.5-0.4-3.1-1.9-3.5c-0.3-0.1-0.5-0.1-0.8-0.1
				c-0.7,0-1.4,0.3-2,0.8c-0.4,0.3-0.6,0.8-0.8,1.2c-0.3,1,0,1.9,0.6,2.6c0,0,0,0,0,0c0,0,0,0,0,0c0.4,0.4,0.8,0.7,1.4,0.9
				C137.8,112.2,138,112.2,138.3,112.2 M140.2,99.8c-2.6,0-5.1,0.8-7.1,2.3c-5.5,4-6.7,11.6-2.8,17.1l7.4,10.2
				c0.6,0.9,1.6,1.3,2.5,1.3c0.6,0,1.3-0.2,1.8-0.6l14.8-10.7c0.7-0.5,1.1-1.2,1.3-2s-0.1-1.7-0.6-2.3l-7.4-10.2
				C147.9,101.7,144.2,99.8,140.2,99.8L140.2,99.8z"/>
		</g>
		<g>
			<path class="st0" d="M138.3,113.1c-0.4,0-0.7,0-1-0.1c-0.9-0.3-1.7-0.9-2.2-1.8c-0.5-0.9-0.6-1.9-0.3-2.8
				c0.5-1.6,1.9-2.7,3.5-2.7c0.4,0,0.7,0,1,0.1c0.9,0.3,1.7,0.9,2.2,1.8c0.5,0.9,0.6,1.9,0.3,2.8C141.4,112,139.9,113.1,138.3,113.1
				z"/>
			<path class="st0" d="M138.3,107.2c0.2,0,0.4,0,0.6,0.1c1.1,0.3,1.8,1.5,1.4,2.6c-0.3,0.9-1.1,1.5-2,1.5c-0.2,0-0.4,0-0.6-0.1
				c-1.1-0.3-1.8-1.5-1.4-2.6C136.5,107.8,137.4,107.2,138.3,107.2 M138.3,104.1L138.3,104.1c-2.3,0-4.4,1.6-5.1,3.8
				c-0.4,1.4-0.2,2.8,0.4,4c0.7,1.2,1.8,2.1,3.1,2.5c0.5,0.1,1,0.2,1.5,0.2c2.3,0,4.4-1.6,5.1-3.8c0.4-1.4,0.2-2.8-0.4-4
				c-0.7-1.2-1.8-2.1-3.1-2.5C139.3,104.2,138.8,104.1,138.3,104.1L138.3,104.1z"/>
		</g>
		<g>
			<path class="st0" d="M183.6,182.6c-3.4,0-6.7-1.7-8.7-4.4l-7.2-9.9c-0.2-0.3-0.4-0.8-0.3-1.2s0.3-0.8,0.6-1l14.8-10.7
				c0.3-0.2,0.6-0.3,0.9-0.3c0.5,0,1,0.2,1.3,0.6l7.2,9.9c1.7,2.3,2.3,5.1,1.9,8c-0.5,2.8-2,5.3-4.3,7
				C188,181.9,185.8,182.6,183.6,182.6L183.6,182.6z M185.5,173.4c-0.6,0-1.1,0.4-1.2,0.9c-0.2,0.7,0.2,1.4,0.9,1.6
				c0.1,0,0.2,0,0.4,0c0.6,0,1.1-0.4,1.2-0.9c0.2-0.7-0.2-1.4-0.9-1.6C185.7,173.5,185.6,173.4,185.5,173.4z"/>
			<path class="st0" d="M183.8,156.8l7.2,9.9c2.9,4.1,2,9.8-2,12.7c-1.6,1.2-3.5,1.7-5.3,1.7c-2.8,0-5.6-1.3-7.4-3.8l-7.2-9.9
				L183.8,156.8 M185.5,177.6c1.2,0,2.4-0.8,2.7-2c0.4-1.5-0.4-3.1-1.9-3.5c-0.3-0.1-0.5-0.1-0.8-0.1c-1.2,0-2.4,0.8-2.7,2
				c-0.4,1.5,0.4,3.1,1.9,3.5C185,177.5,185.2,177.6,185.5,177.6 M183.8,153.6c-0.6,0-1.3,0.2-1.8,0.6l-14.8,10.7
				c-0.7,0.5-1.1,1.2-1.3,2c-0.1,0.8,0.1,1.7,0.6,2.3l7.2,9.9c2.3,3.2,6,5.1,9.9,5.1c2.6,0,5.1-0.8,7.1-2.3c2.6-1.9,4.4-4.7,4.9-8
				c0.5-3.2-0.2-6.5-2.2-9.1l-7.2-9.9C185.7,154.1,184.7,153.6,183.8,153.6L183.8,153.6z"/>
		</g>
		<g>
			<path class="st0" d="M185.5,178.4c-0.4,0-0.7,0-1-0.2c-1-0.3-1.7-0.9-2.2-1.8c-0.5-0.9-0.6-1.9-0.3-2.8c0.5-1.6,1.9-2.7,3.5-2.7
				c0.4,0,0.7,0,1,0.2c1,0.3,1.7,0.9,2.2,1.8c0.5,0.9,0.6,1.9,0.3,2.8C188.6,177.3,187.1,178.4,185.5,178.4z"/>
			<path class="st0" d="M185.5,172.6c0.2,0,0.4,0,0.6,0.1c1.1,0.3,1.8,1.5,1.5,2.6c-0.3,0.9-1.1,1.5-2,1.5c-0.2,0-0.4,0-0.6-0.1
				c-1.1-0.3-1.8-1.5-1.5-2.6C183.7,173.2,184.6,172.6,185.5,172.6 M185.5,169.5L185.5,169.5c-2.3,0-4.4,1.6-5,3.8
				c-0.4,1.3-0.2,2.8,0.4,4s1.8,2.1,3.1,2.5c0.5,0.1,1,0.2,1.5,0.2c2.3,0,4.4-1.6,5-3.8c0.4-1.3,0.2-2.8-0.4-4s-1.8-2.1-3.1-2.5
				C186.5,169.5,186,169.5,185.5,169.5L185.5,169.5z"/>
		</g>
		<g>
			<path class="st0" d="M168.7,167.8c-0.9,0-1.7-0.4-2.2-1.1c-0.9-1.2-0.6-2.9,0.6-3.7l13-9.3c0.5-0.3,1-0.5,1.6-0.5
				c0.9,0,1.7,0.4,2.2,1.1c0.4,0.6,0.6,1.3,0.5,2c-0.1,0.7-0.5,1.3-1.1,1.7l-13,9.3C169.8,167.6,169.3,167.8,168.7,167.8z"/>
			<path class="st0" d="M181.7,154.7c0.3,0,0.7,0.2,0.9,0.5c0.4,0.5,0.2,1.2-0.2,1.5l-13,9.3c-0.2,0.1-0.4,0.2-0.6,0.2
				c-0.3,0-0.7-0.2-0.9-0.5c-0.4-0.5-0.2-1.2,0.2-1.5l13-9.3C181.3,154.8,181.5,154.7,181.7,154.7 M181.7,151.6L181.7,151.6
				c-0.9,0-1.7,0.3-2.5,0.8l-13,9.3c-0.9,0.7-1.5,1.6-1.7,2.8c-0.2,1.1,0.1,2.2,0.7,3.2c0.8,1.1,2.1,1.8,3.4,1.8
				c0.9,0,1.7-0.3,2.5-0.8l13-9.3c0.9-0.7,1.5-1.6,1.7-2.8c0.2-1.1-0.1-2.2-0.7-3.2C184.4,152.2,183.1,151.6,181.7,151.6
				L181.7,151.6z"/>
		</g>
		<g>
			<path class="st0" d="M168.6,162.9c-0.6,0-1.1-0.3-1.4-0.9c-0.4-0.7-0.1-1.5,0.5-2l6-4.3c0.1-0.1,0.3-0.2,0.4-0.2l4.4-1.4
				c0.2,0,0.3-0.1,0.5-0.1c0.6,0,1.1,0.3,1.4,0.9c0.4,0.7,0.1,1.5-0.5,2l-6,4.3c-0.1,0.1-0.3,0.2-0.4,0.2l-4.4,1.4
				C168.9,162.9,168.7,162.9,168.6,162.9z"/>
			<path class="st0" d="M178.9,155.6l-6,4.3l-4.4,1.4l6-4.3L178.9,155.6 M178.9,152.4c-0.3,0-0.7,0-1,0.2l-4.4,1.4
				c-0.3,0.1-0.6,0.2-0.9,0.4l-6,4.3c-1.3,0.9-1.7,2.6-1,4c0.5,1.1,1.6,1.7,2.8,1.7c0.3,0,0.7,0,1-0.2l4.4-1.4
				c0.3-0.1,0.6-0.2,0.9-0.4l6-4.3c1.3-0.9,1.7-2.6,1-4C181.2,153.1,180.1,152.4,178.9,152.4L178.9,152.4z M178.9,158.7L178.9,158.7
				L178.9,158.7L178.9,158.7z"/>
		</g>
		<g>
			<path class="st0" d="M165.8,163.7c-0.9,0-1.7-0.4-2.2-1.1c-0.4-0.6-0.6-1.3-0.5-2c0.1-0.7,0.5-1.3,1.1-1.7l13-9.3
				c0.5-0.3,1-0.5,1.6-0.5c0.9,0,1.7,0.4,2.2,1.1c0.9,1.2,0.6,2.9-0.6,3.7l-13,9.3C166.9,163.6,166.3,163.7,165.8,163.7z"/>
			<path class="st0" d="M178.8,150.6c0.3,0,0.7,0.2,0.9,0.5c0.4,0.5,0.2,1.2-0.2,1.5l-13,9.3c-0.2,0.1-0.4,0.2-0.6,0.2
				c-0.3,0-0.7-0.2-0.9-0.5c-0.4-0.5-0.2-1.2,0.2-1.5l13-9.3C178.3,150.7,178.6,150.6,178.8,150.6 M178.8,147.5L178.8,147.5
				c-0.9,0-1.7,0.3-2.5,0.8l-13,9.3c-0.9,0.7-1.5,1.6-1.7,2.8c-0.2,1.1,0.1,2.2,0.7,3.2c0.8,1.1,2.1,1.8,3.4,1.8
				c0.9,0,1.7-0.3,2.5-0.8l13-9.3c1.9-1.4,2.3-4,1-5.9C181.4,148.2,180.1,147.5,178.8,147.5L178.8,147.5z"/>
		</g>
		<g>
			<path class="st0" d="M165.6,158.8c-0.6,0-1.1-0.3-1.4-0.9c-0.4-0.7-0.1-1.5,0.5-2l6-4.3c0.1-0.1,0.3-0.2,0.4-0.2l4.4-1.5
				c0.2,0,0.3-0.1,0.5-0.1c0.6,0,1.1,0.3,1.4,0.9c0.4,0.7,0.1,1.5-0.5,2l-6,4.3c-0.1,0.1-0.3,0.2-0.4,0.2l-4.4,1.5
				C166,158.8,165.8,158.8,165.6,158.8z"/>
			<path class="st0" d="M176,151.5l-6,4.3l-4.4,1.5l6-4.3L176,151.5 M176,148.3c-0.3,0-0.7,0-1,0.2l-4.4,1.5
				c-0.3,0.1-0.6,0.2-0.9,0.4l-6,4.3c-1.3,0.9-1.7,2.6-1,4c0.5,1.1,1.6,1.7,2.8,1.7c0.3,0,0.7,0,1-0.2l4.4-1.5
				c0.3-0.1,0.6-0.2,0.9-0.4l6-4.3c1.3-0.9,1.7-2.6,1-4C178.3,149,177.2,148.3,176,148.3L176,148.3z M176,154.6L176,154.6L176,154.6
				L176,154.6z"/>
		</g>
		<g>
			<path class="st0" d="M162.8,159.7c-0.9,0-1.7-0.4-2.2-1.1c-0.4-0.6-0.6-1.3-0.5-2c0.1-0.7,0.5-1.3,1.1-1.7l13-9.3
				c0.5-0.3,1-0.5,1.6-0.5c0.9,0,1.7,0.4,2.2,1.1c0.4,0.6,0.6,1.3,0.5,2c-0.1,0.7-0.5,1.3-1.1,1.7l-13,9.3
				C163.9,159.5,163.4,159.7,162.8,159.7z"/>
			<path class="st0" d="M175.8,146.6c0.3,0,0.7,0.2,0.9,0.5c0.4,0.5,0.2,1.2-0.2,1.5l-13,9.3c-0.2,0.1-0.4,0.2-0.6,0.2
				c-0.3,0-0.7-0.2-0.9-0.5c-0.4-0.5-0.2-1.2,0.2-1.5l13-9.3C175.4,146.6,175.6,146.6,175.8,146.6 M175.8,143.4L175.8,143.4
				c-0.9,0-1.7,0.3-2.5,0.8l-13,9.3c-0.9,0.7-1.5,1.6-1.7,2.8c-0.2,1.1,0.1,2.2,0.7,3.2c0.8,1.1,2.1,1.8,3.4,1.8
				c0.9,0,1.7-0.3,2.5-0.8l13-9.3c1.9-1.4,2.3-4,1-5.9C178.5,144.1,177.2,143.4,175.8,143.4L175.8,143.4z"/>
		</g>
		<g>
			<path class="st0" d="M162.6,154.7c-0.6,0-1.1-0.3-1.4-0.9c-0.4-0.7-0.1-1.5,0.5-2l6-4.3c0.1-0.1,0.3-0.2,0.4-0.2l4.4-1.5
				c0.2,0,0.3-0.1,0.5-0.1c0.6,0,1.1,0.3,1.4,0.9c0.4,0.7,0.1,1.5-0.5,2l-6,4.3c-0.1,0.1-0.3,0.2-0.4,0.2l-4.4,1.5
				C163,154.7,162.8,154.7,162.6,154.7z"/>
			<path class="st0" d="M173.1,147.4l-6,4.3l-4.4,1.5l6-4.3L173.1,147.4 M173.1,144.3c-0.3,0-0.7,0-1,0.2l-4.4,1.5
				c-0.3,0.1-0.6,0.2-0.9,0.4l-6,4.3c-1.3,0.9-1.7,2.6-1,4c0.5,1.1,1.6,1.7,2.8,1.7c0.3,0,0.7,0,1-0.2l4.4-1.5
				c0.3-0.1,0.6-0.2,0.9-0.4l6-4.3c1.3-0.9,1.7-2.6,1-4C175.3,144.9,174.2,144.3,173.1,144.3L173.1,144.3z M173.1,150.5L173.1,150.5
				L173.1,150.5L173.1,150.5z"/>
		</g>
		<g>
			<path class="st0" d="M159.9,155.6c-0.9,0-1.7-0.4-2.2-1.1c-0.4-0.6-0.6-1.3-0.5-2c0.1-0.7,0.5-1.3,1.1-1.7l13-9.3
				c0.5-0.3,1-0.5,1.6-0.5c0.9,0,1.7,0.4,2.2,1.1c0.9,1.2,0.6,2.9-0.6,3.7l-13,9.3C161,155.4,160.4,155.6,159.9,155.6z"/>
			<path class="st0" d="M172.9,142.5c0.3,0,0.7,0.2,0.9,0.5c0.4,0.5,0.2,1.2-0.2,1.5l-13,9.3c-0.2,0.1-0.4,0.2-0.6,0.2
				c-0.3,0-0.7-0.2-0.9-0.5c-0.4-0.5-0.2-1.2,0.2-1.5l13-9.3C172.4,142.5,172.6,142.5,172.9,142.5 M172.9,139.3L172.9,139.3
				c-0.9,0-1.7,0.3-2.5,0.8l-13,9.3c-1.9,1.4-2.3,4-1,5.9c0.8,1.1,2.1,1.8,3.4,1.8c0.9,0,1.7-0.3,2.5-0.8l13-9.3
				c0.9-0.7,1.5-1.6,1.7-2.8c0.2-1.1-0.1-2.2-0.7-3.2C175.5,140,174.2,139.3,172.9,139.3L172.9,139.3z"/>
		</g>
		<g>
			<path class="st0" d="M159.7,150.6c-0.6,0-1.1-0.3-1.4-0.9c-0.4-0.7-0.1-1.5,0.5-2l6-4.3c0.1-0.1,0.3-0.2,0.4-0.2l4.4-1.5
				c0.2,0,0.3-0.1,0.5-0.1c0.6,0,1.1,0.3,1.4,0.9c0.4,0.7,0.1,1.5-0.5,2l-6,4.3c-0.1,0.1-0.3,0.2-0.4,0.2l-4.4,1.5
				C160,150.6,159.9,150.6,159.7,150.6z"/>
			<path class="st0" d="M170.1,143.3l-6,4.3l-4.4,1.5l6-4.3L170.1,143.3 M170.1,140.2c-0.3,0-0.7,0-1,0.2l-4.4,1.5
				c-0.3,0.1-0.6,0.2-0.9,0.4l-6,4.3c-1.3,0.9-1.7,2.6-1,4c0.5,1.1,1.6,1.7,2.8,1.7c0.3,0,0.7,0,1-0.2l4.4-1.5
				c0.3-0.1,0.6-0.2,0.9-0.4l6-4.3c1.3-0.9,1.7-2.6,1-4C172.4,140.8,171.2,140.2,170.1,140.2L170.1,140.2z M170.1,146.5L170.1,146.5
				L170.1,146.5L170.1,146.5z"/>
		</g>
		<g>
			<path class="st0" d="M156.9,151.5c-0.9,0-1.7-0.4-2.2-1.1c-0.4-0.6-0.6-1.3-0.5-2c0.1-0.7,0.5-1.3,1.1-1.7l13-9.3
				c0.5-0.3,1-0.5,1.6-0.5c0.9,0,1.7,0.4,2.2,1.1c0.4,0.6,0.6,1.3,0.5,2c-0.1,0.7-0.5,1.3-1.1,1.7l-13,9.3
				C158,151.3,157.5,151.5,156.9,151.5z"/>
			<path class="st0" d="M169.9,138.4c0.3,0,0.7,0.2,0.9,0.5c0.4,0.5,0.2,1.2-0.2,1.5l-13,9.3c-0.2,0.1-0.4,0.2-0.6,0.2
				c-0.3,0-0.7-0.2-0.9-0.5c-0.4-0.5-0.2-1.2,0.2-1.5l13-9.3C169.5,138.5,169.7,138.4,169.9,138.4 M169.9,135.3L169.9,135.3
				c-0.9,0-1.7,0.3-2.5,0.8l-13,9.3c-0.9,0.7-1.5,1.6-1.7,2.8c-0.2,1.1,0.1,2.2,0.7,3.2c0.8,1.1,2.1,1.8,3.4,1.8
				c0.9,0,1.7-0.3,2.5-0.8l13-9.3c0.9-0.7,1.5-1.6,1.7-2.8c0.2-1.1-0.1-2.2-0.7-3.2C172.6,135.9,171.3,135.3,169.9,135.3
				L169.9,135.3z"/>
		</g>
		<g>
			<path class="st0" d="M156.8,146.6c-0.6,0-1.1-0.3-1.4-0.9c-0.4-0.7-0.1-1.5,0.5-2l6-4.3c0.1-0.1,0.3-0.2,0.4-0.2l4.4-1.5
				c0.2,0,0.3-0.1,0.5-0.1c0.6,0,1.1,0.3,1.4,0.9c0.4,0.7,0.1,1.5-0.5,2l-6,4.3c-0.1,0.1-0.3,0.2-0.4,0.2l-4.4,1.5
				C157.1,146.5,156.9,146.6,156.8,146.6z"/>
			<path class="st0" d="M167.2,139.2l-6,4.3l-4.4,1.5l6-4.3L167.2,139.2 M167.2,136.1c-0.3,0-0.7,0-1,0.2l-4.4,1.5
				c-0.3,0.1-0.6,0.2-0.9,0.4l-6,4.3c-1.3,0.9-1.7,2.6-1,4c0.6,1.1,1.6,1.7,2.8,1.7c0.3,0,0.7,0,1-0.2l4.4-1.5
				c0.3-0.1,0.6-0.2,0.9-0.4l6-4.3c1.3-0.9,1.7-2.6,1-4C169.4,136.7,168.3,136.1,167.2,136.1L167.2,136.1z M167.2,142.4L167.2,142.4
				L167.2,142.4L167.2,142.4z"/>
		</g>
		<g>
			<path class="st0" d="M154,147.4c-0.9,0-1.7-0.4-2.2-1.1c-0.4-0.6-0.6-1.3-0.5-2c0.1-0.7,0.5-1.3,1.1-1.7l13-9.3
				c0.5-0.3,1-0.5,1.5-0.5c0.9,0,1.7,0.4,2.2,1.1c0.9,1.2,0.6,2.9-0.6,3.7l-13,9.3C155.1,147.2,154.5,147.4,154,147.4z"/>
			<path class="st0" d="M167,134.3c0.3,0,0.7,0.2,0.9,0.5c0.4,0.5,0.2,1.2-0.2,1.5l-13,9.3c-0.2,0.1-0.4,0.2-0.6,0.2
				c-0.3,0-0.7-0.2-0.9-0.5c-0.4-0.5-0.2-1.2,0.2-1.5l13-9.3C166.5,134.4,166.7,134.3,167,134.3 M167,131.2L167,131.2
				c-0.9,0-1.7,0.3-2.5,0.8l-13,9.3c-0.9,0.7-1.5,1.6-1.7,2.8c-0.2,1.1,0.1,2.2,0.7,3.2c0.8,1.1,2.1,1.8,3.4,1.8
				c0.9,0,1.7-0.3,2.5-0.8l13-9.3c1.9-1.4,2.3-4,1-5.9C169.6,131.8,168.3,131.2,167,131.2L167,131.2z"/>
		</g>
		<g>
			<path class="st0" d="M153.8,142.5c-0.6,0-1.1-0.3-1.4-0.9c-0.4-0.7-0.1-1.5,0.5-2l6-4.3c0.1-0.1,0.3-0.2,0.4-0.2l4.4-1.5
				c0.2,0,0.3-0.1,0.5-0.1c0.6,0,1.1,0.3,1.4,0.9c0.4,0.7,0.1,1.5-0.5,2l-6,4.3c-0.1,0.1-0.3,0.2-0.4,0.2l-4.4,1.5
				C154.1,142.4,153.9,142.5,153.8,142.5z"/>
			<path class="st0" d="M164.2,135.1l-6,4.3l-4.4,1.5l6-4.3L164.2,135.1 M164.2,132c-0.3,0-0.7,0-1,0.2l-4.4,1.5
				c-0.3,0.1-0.6,0.2-0.9,0.4l-6,4.3c-1.3,0.9-1.7,2.6-1,4c0.6,1.1,1.6,1.7,2.8,1.7c0.3,0,0.7,0,1-0.2l4.4-1.5
				c0.3-0.1,0.6-0.2,0.9-0.4l6-4.3c1.3-0.9,1.7-2.6,1-4C166.5,132.7,165.4,132,164.2,132L164.2,132z M164.2,138.3L164.2,138.3
				L164.2,138.3L164.2,138.3z"/>
		</g>
		<g>
			<path class="st0" d="M151,143.3c-0.9,0-1.7-0.4-2.2-1.1c-0.4-0.6-0.6-1.3-0.5-2c0.1-0.7,0.5-1.3,1.1-1.7l13-9.3
				c0.5-0.3,1-0.5,1.6-0.5c0.9,0,1.7,0.4,2.2,1.1c0.4,0.6,0.6,1.3,0.5,2c-0.1,0.7-0.5,1.3-1.1,1.7l-13,9.3
				C152.1,143.1,151.6,143.3,151,143.3z"/>
			<path class="st0" d="M164,130.2c0.3,0,0.7,0.2,0.9,0.5c0.4,0.5,0.2,1.2-0.2,1.5l-13,9.3c-0.2,0.1-0.4,0.2-0.6,0.2
				c-0.3,0-0.7-0.2-0.9-0.5c-0.4-0.5-0.2-1.2,0.2-1.5l13-9.3C163.6,130.3,163.8,130.2,164,130.2 M164,127.1L164,127.1
				c-0.9,0-1.7,0.3-2.5,0.8l-13,9.3c-0.9,0.7-1.5,1.6-1.7,2.8c-0.2,1.1,0.1,2.2,0.7,3.2c0.8,1.1,2.1,1.8,3.4,1.8
				c0.9,0,1.7-0.3,2.5-0.8l13-9.3c1.9-1.4,2.3-4,1-5.9C166.7,127.7,165.4,127.1,164,127.1L164,127.1z"/>
		</g>
		<g>
			<path class="st0" d="M150.8,138.4c-0.6,0-1.1-0.3-1.4-0.9c-0.4-0.7-0.1-1.5,0.5-2l6-4.3c0.1-0.1,0.3-0.2,0.4-0.2l4.4-1.5
				c0.2,0,0.3-0.1,0.5-0.1c0.6,0,1.1,0.3,1.4,0.9c0.4,0.7,0.1,1.5-0.5,2l-6,4.3c-0.1,0.1-0.3,0.2-0.4,0.2l-4.4,1.5
				C151.2,138.4,151,138.4,150.8,138.4z"/>
			<path class="st0" d="M161.2,131.1l-6,4.3l-4.4,1.5l6-4.3L161.2,131.1 M161.2,127.9c-0.3,0-0.7,0-1,0.2l-4.4,1.5
				c-0.3,0.1-0.6,0.2-0.9,0.4l-6,4.3c-1.3,0.9-1.7,2.6-1,4c0.6,1.1,1.6,1.7,2.8,1.7c0.3,0,0.7,0,1-0.2l4.4-1.5
				c0.3-0.1,0.6-0.2,0.9-0.4l6-4.3c1.3-0.9,1.7-2.6,1-4C163.5,128.6,162.4,127.9,161.2,127.9L161.2,127.9z M161.2,134.2L161.2,134.2
				L161.2,134.2L161.2,134.2z"/>
		</g>
		<g>
			<path class="st0" d="M148.1,139.2c-0.9,0-1.7-0.4-2.2-1.1c-0.4-0.6-0.6-1.3-0.5-2c0.1-0.7,0.5-1.3,1.1-1.7l13-9.3
				c0.5-0.3,1-0.5,1.6-0.5c0.9,0,1.7,0.4,2.2,1.1c0.9,1.2,0.6,2.9-0.6,3.7l-13,9.3C149.2,139.1,148.6,139.2,148.1,139.2z"/>
			<path class="st0" d="M161.1,126.1c0.3,0,0.7,0.2,0.9,0.5c0.4,0.5,0.2,1.2-0.2,1.5l-13,9.3c-0.2,0.1-0.4,0.2-0.6,0.2
				c-0.3,0-0.7-0.2-0.9-0.5c-0.4-0.5-0.2-1.2,0.2-1.5l13-9.3C160.6,126.2,160.8,126.1,161.1,126.1 M161.1,123L161.1,123
				c-0.9,0-1.7,0.3-2.5,0.8l-13,9.3c-0.9,0.7-1.5,1.6-1.7,2.8c-0.2,1.1,0.1,2.2,0.7,3.2c0.8,1.1,2.1,1.8,3.4,1.8
				c0.9,0,1.7-0.3,2.5-0.8l13-9.3c1.9-1.4,2.3-4,1-5.9C163.7,123.7,162.4,123,161.1,123L161.1,123z"/>
		</g>
		<g>
			<path class="st0" d="M147.9,134.3c-0.6,0-1.1-0.3-1.4-0.9c-0.4-0.7-0.1-1.5,0.5-2l6-4.3c0.1-0.1,0.3-0.2,0.4-0.2l4.4-1.5
				c0.2,0,0.3-0.1,0.5-0.1c0.6,0,1.1,0.3,1.4,0.9c0.4,0.7,0.1,1.5-0.5,2l-6,4.3c-0.1,0.1-0.3,0.2-0.4,0.2l-4.4,1.5
				C148.2,134.3,148.1,134.3,147.9,134.3z"/>
			<path class="st0" d="M158.3,127l-6,4.3l-4.4,1.5l6-4.3L158.3,127 M158.3,123.8c-0.3,0-0.7,0-1,0.2l-4.4,1.5
				c-0.3,0.1-0.6,0.2-0.9,0.4l-6,4.3c-1.3,0.9-1.7,2.6-1,4c0.6,1.1,1.6,1.7,2.8,1.7c0.3,0,0.7,0,1-0.2l4.4-1.5
				c0.3-0.1,0.6-0.2,0.9-0.4l6-4.3c1.3-0.9,1.7-2.6,1-4C160.5,124.5,159.5,123.8,158.3,123.8L158.3,123.8z M158.3,130.1L158.3,130.1
				L158.3,130.1L158.3,130.1z"/>
		</g>
		<g>
			<path class="st0" d="M145.1,135.2c-0.9,0-1.7-0.4-2.2-1.1c-0.4-0.6-0.6-1.3-0.5-2c0.1-0.7,0.5-1.3,1.1-1.7l13-9.3
				c0.5-0.3,1-0.5,1.6-0.5c0.9,0,1.7,0.4,2.2,1.1c0.9,1.2,0.6,2.9-0.6,3.7l-13,9.3C146.2,135,145.7,135.2,145.1,135.2z"/>
			<path class="st0" d="M158.1,122.1c0.3,0,0.7,0.2,0.9,0.5c0.4,0.5,0.2,1.2-0.2,1.5l-13,9.3c-0.2,0.1-0.4,0.2-0.6,0.2
				c-0.3,0-0.7-0.2-0.9-0.5c-0.4-0.5-0.2-1.2,0.2-1.5l13-9.3C157.7,122.1,157.9,122.1,158.1,122.1 M158.1,118.9L158.1,118.9
				c-0.9,0-1.7,0.3-2.5,0.8l-13,9.3c-0.9,0.7-1.5,1.6-1.7,2.8c-0.2,1.1,0.1,2.2,0.7,3.2c0.8,1.1,2.1,1.8,3.4,1.8
				c0.9,0,1.7-0.3,2.5-0.8l13-9.3c0.9-0.7,1.5-1.6,1.7-2.8c0.2-1.1-0.1-2.2-0.7-3.2C160.8,119.6,159.5,118.9,158.1,118.9
				L158.1,118.9z"/>
		</g>
		<g>
			<path class="st0" d="M145,130.2c-0.6,0-1.1-0.3-1.4-0.9c-0.4-0.7-0.1-1.5,0.5-2l6-4.3c0.1-0.1,0.3-0.2,0.4-0.2l4.4-1.4
				c0.2,0,0.3-0.1,0.5-0.1c0.6,0,1.1,0.3,1.4,0.9c0.4,0.7,0.1,1.5-0.5,2l-6,4.3c-0.1,0.1-0.3,0.2-0.4,0.2l-4.4,1.4
				C145.3,130.2,145.2,130.2,145,130.2z"/>
			<path class="st0" d="M155.4,122.9l-6,4.3l-4.4,1.4l6-4.3L155.4,122.9 M155.4,119.8c-0.3,0-0.7,0-1,0.2l-4.4,1.4
				c-0.3,0.1-0.6,0.2-0.9,0.4l-6,4.3c-1.3,0.9-1.7,2.6-1,4c0.6,1.1,1.6,1.7,2.8,1.7c0.3,0,0.7,0,1-0.2l4.4-1.4
				c0.3-0.1,0.6-0.2,0.9-0.4l6-4.3c1.3-0.9,1.7-2.6,1-4C157.6,120.4,156.5,119.8,155.4,119.8L155.4,119.8z M155.4,126L155.4,126
				L155.4,126L155.4,126z"/>
		</g>
		<g>
			<path class="st0" d="M142.2,131.1c-0.9,0-1.7-0.4-2.2-1.1c-0.9-1.2-0.6-2.9,0.6-3.7l13-9.3c0.5-0.3,1-0.5,1.6-0.5
				c0.9,0,1.7,0.4,2.2,1.1c0.9,1.2,0.6,2.9-0.6,3.7l-13,9.3C143.3,130.9,142.7,131.1,142.2,131.1z"/>
			<path class="st0" d="M155.2,118c0.3,0,0.7,0.2,0.9,0.5c0.4,0.5,0.2,1.2-0.2,1.5l-13,9.3c-0.2,0.1-0.4,0.2-0.6,0.2
				c-0.3,0-0.7-0.2-0.9-0.5c-0.4-0.5-0.2-1.2,0.2-1.5l13-9.3C154.7,118,155,118,155.2,118 M155.2,114.8L155.2,114.8
				c-0.9,0-1.7,0.3-2.5,0.8l-13,9.3c-0.9,0.7-1.5,1.6-1.7,2.8c-0.2,1.1,0.1,2.2,0.7,3.2c0.8,1.1,2.1,1.8,3.4,1.8
				c0.9,0,1.7-0.3,2.5-0.8l13-9.3c0.9-0.7,1.5-1.6,1.7-2.8c0.2-1.1-0.1-2.2-0.7-3.2C157.8,115.5,156.5,114.8,155.2,114.8
				L155.2,114.8z"/>
		</g>
		<g>
			<path class="st0" d="M211.9,218.8c-0.5,0-1,0-1.5-0.1c-9.9-0.8-17.7-9.2-17.7-19.1v-12.2c0-0.9,0.7-1.6,1.6-1.6h35.2
				c0.9,0,1.6,0.7,1.6,1.6v12.2c0,0.7,0,1.3-0.1,2c-0.3,2.5-1,5-2.2,7.2c-0.6,1.1-1.3,2.1-2.1,3.1
				C223,216.2,217.6,218.8,211.9,218.8z M211.4,213.7c0.2,0,0.3,0,0.5,0c7.1,0,12.9-5.1,13.9-12h-10.6c-0.4,3.7-1.8,6.9-2.9,9.5
				C212.1,211.9,211.7,212.9,211.4,213.7z"/>
			<path class="st0" d="M229.5,187.4v10.8v1.3c0,0.6,0,1.2-0.1,1.8c-0.2,2.4-1,4.6-2,6.6c-0.5,1-1.2,1.9-1.9,2.8
				c-3.2,3.9-8.1,6.4-13.6,6.4c-0.5,0-0.9,0-1.4-0.1c-9.1-0.7-16.2-8.3-16.2-17.5v-12.2H229.5 M211.9,215.3
				c8.4,0,15.4-6.7,15.7-15.1h-13.7c-0.1,4-1.7,7.6-2.9,10.5c-0.6,1.5-1.5,3.6-1.4,4.3C209.6,215,210.2,215.3,211.9,215.3
				 M229.5,184.3h-35.2c-1.7,0-3.1,1.4-3.1,3.1v12.2c0,10.8,8.4,19.8,19.1,20.7c0.5,0,1,0.1,1.6,0.1c6.2,0,12-2.8,16-7.5
				c0.9-1,1.6-2.1,2.2-3.3c1.3-2.4,2.1-5,2.4-7.8c0.1-0.7,0.1-1.4,0.1-2.1v-1.3v-10.8C232.6,185.7,231.2,184.3,229.5,184.3
				L229.5,184.3z M216.6,203.3h7.2c-1.4,4.6-5.3,8-10.1,8.7c0,0,0-0.1,0-0.1C214.8,209.5,216,206.6,216.6,203.3L216.6,203.3z"/>
		</g>
		<g>
			<path class="st0" d="M195.2,187.3c-0.9,0-1.6-0.7-1.6-1.6v-3c0-0.9,0.7-1.6,1.6-1.6h33.3c0.9,0,1.6,0.7,1.6,1.6v3
				c0,0.9-0.7,1.6-1.6,1.6H195.2z"/>
			<path class="st0" d="M228.5,182.8v3h-33.3v-3H228.5 M228.5,179.6h-33.3c-1.7,0-3.1,1.4-3.1,3.1v3c0,1.7,1.4,3.1,3.1,3.1h33.3
				c1.7,0,3.1-1.4,3.1-3.1v-3C231.6,181,230.2,179.6,228.5,179.6L228.5,179.6z"/>
		</g>
		<g>
			<path class="st0" d="M187.2,182.6c-0.8,0-1.4-0.5-1.5-1.3s0.3-1.5,1-1.8c0.6-0.2,1.2-0.6,1.7-1c1.8-1.3,3-3.2,3.3-5.4
				s-0.2-4.4-1.5-6.1l-2.5-3.5c-0.4-0.5-0.4-1.1-0.1-1.6c0.3-0.5,0.8-0.9,1.4-0.9h37c2.8,0,5.1,2.3,5.1,5.1v11.3
				c0,2.8-2.3,5.1-5.1,5.1L187.2,182.6L187.2,182.6z"/>
			<path class="st0" d="M226,162.8c1.9,0,3.5,1.6,3.5,3.5v11.3c0,1.9-1.6,3.5-3.5,3.5h-38.7c0.7-0.3,1.4-0.7,2.1-1.1
				c2.1-1.5,3.5-3.8,3.9-6.4c0.4-2.6-0.2-5.2-1.7-7.3l-2.5-3.5L226,162.8 M226,159.6h-37c-1.2,0-2.3,0.7-2.8,1.7s-0.4,2.3,0.3,3.3
				l2.5,3.5c1,1.4,1.5,3.2,1.2,5c-0.3,1.8-1.2,3.3-2.7,4.4c-0.4,0.3-0.9,0.6-1.4,0.8c-1.4,0.5-2.2,2-1.9,3.5s1.6,2.5,3.1,2.5H226
				c3.7,0,6.6-3,6.6-6.7v-11.3C232.6,162.6,229.6,159.6,226,159.6L226,159.6z"/>
		</g>
	</g>
	<g>
		<path id="상단_판_00000090973613823452362580000000047509745385199528_" d="M74,102.9h62.5c-0.7,0.3-1.4,0.7-2,1.1
			c-2.1,1.5-3.5,3.8-3.9,6.4c-0.4,2.6,0.2,5.2,1.7,7.3l2.4,3.4c0,0,0,0,0,0.1H74c-1.9,0-3.5-1.6-3.5-3.5v-11.3
			C70.5,104.5,72.1,102.9,74,102.9z"/>
		<g>
			<g id="상단_연결부_00000103222924247596908270000018375950167728475322_">
				<path d="M147.6,106.7c-2.9-4.1-8.6-5-12.7-2c-4.1,2.9-5,8.6-2.1,12.7l7.4,10.2l14.8-10.7L147.6,106.7z M141,110.2
					c-0.4,1.5-2,2.4-3.5,1.9c-0.6-0.2-1-0.5-1.4-0.9c0,0,0,0,0,0c0,0,0,0,0,0c-0.6-0.7-0.8-1.7-0.6-2.6c0.1-0.5,0.4-0.9,0.8-1.2
					c0.7-0.7,1.8-1,2.8-0.7C140.6,107.1,141.5,108.7,141,110.2z"/>
				<g>
					<circle cx="138.3" cy="109.4" r="2.1"/>
				</g>
			</g>
			<g id="하단_연결부_00000155112722721168908530000007674371253179113625_">
				<g>
					<path d="M169,167.4l7.2,9.9c2.9,4.1,8.6,5,12.7,2c4.1-2.9,5-8.6,2-12.7l-7.2-9.9L169,167.4z M188.2,175.5
						c-0.4,1.5-2,2.4-3.5,1.9s-2.4-2-1.9-3.5s2-2.4,3.5-1.9C187.8,172.4,188.6,174,188.2,175.5z"/>
				</g>
				<g>
					<circle cx="185.5" cy="174.7" r="2.1"/>
				</g>
			</g>
			<g id="스프링_00000055686292934531768810000013348389647669453489_">
				<g>
					<path d="M182.3,154.7l0.6,0.9c0.2,0.2,0.1,0.6-0.1,0.8l-13.9,10c-0.2,0.2-0.6,0.1-0.8-0.1l-0.6-0.9c-0.2-0.2-0.1-0.6,0.1-0.8
						l13.9-10C181.8,154.4,182.1,154.5,182.3,154.7z"/>
				</g>
				<g>
					<polygon points="172.9,159.9 178.9,155.6 174.5,157 168.6,161.3 					"/>
				</g>
				<path d="M179.4,150.6l0.6,0.9c0.2,0.2,0.1,0.6-0.1,0.8l-13.9,10c-0.2,0.2-0.6,0.1-0.8-0.1l-0.6-0.9c-0.2-0.2-0.1-0.6,0.1-0.8
					l13.9-10C178.8,150.3,179.2,150.4,179.4,150.6z"/>
				<polygon points="170,155.8 176,151.5 171.6,152.9 165.6,157.2 				"/>
				<g>
					<path d="M176.4,146.6l0.6,0.9c0.2,0.2,0.1,0.6-0.1,0.8l-13.9,10c-0.2,0.2-0.6,0.1-0.8-0.1l-0.6-0.9c-0.2-0.2-0.1-0.6,0.1-0.8
						l13.9-10C175.9,146.3,176.2,146.3,176.4,146.6z"/>
				</g>
				<polygon points="167.1,151.7 173.1,147.4 168.6,148.9 162.6,153.2 				"/>
				<g>
					<path d="M173.4,142.5l0.6,0.9c0.2,0.2,0.1,0.6-0.1,0.8l-13.9,10c-0.2,0.2-0.6,0.1-0.8-0.1l-0.6-0.9c-0.2-0.2-0.1-0.6,0.1-0.8
						l13.9-10C172.9,142.2,173.3,142.2,173.4,142.5z"/>
				</g>
				<polygon points="164.1,147.6 170.1,143.3 165.7,144.8 159.7,149.1 				"/>
				<g>
					<path d="M170.5,138.4l0.6,0.9c0.2,0.2,0.1,0.6-0.1,0.8l-13.9,10c-0.2,0.2-0.6,0.1-0.8-0.1l-0.6-0.9c-0.2-0.2-0.1-0.6,0.1-0.8
						l13.9-10C170,138.1,170.3,138.2,170.5,138.4z"/>
				</g>
				<polygon points="156.8,145 161.2,143.5 167.2,139.2 162.7,140.7 				"/>
				<g>
					<path d="M167.5,134.3l0.6,0.9c0.2,0.2,0.1,0.6-0.1,0.8l-13.9,10c-0.2,0.2-0.6,0.1-0.8-0.1l-0.6-0.9c-0.2-0.2-0.1-0.6,0.1-0.8
						l13.9-10C167,134,167.4,134.1,167.5,134.3z"/>
				</g>
				<polygon points="158.2,139.4 164.2,135.1 159.8,136.6 153.8,140.9 				"/>
				<g>
					<path d="M164.6,130.2l0.6,0.9c0.2,0.2,0.1,0.6-0.1,0.8l-13.9,10c-0.2,0.2-0.6,0.1-0.8-0.1l-0.6-0.9c-0.2-0.2-0.1-0.6,0.1-0.8
						l13.9-10C164.1,129.9,164.4,130,164.6,130.2z"/>
				</g>
				<polygon points="155.3,135.4 161.2,131.1 156.8,132.5 150.8,136.8 				"/>
				<g>
					<path d="M161.6,126.1l0.6,0.9c0.2,0.2,0.1,0.6-0.1,0.8l-13.9,10c-0.2,0.2-0.6,0.1-0.8-0.1l-0.6-0.9c-0.2-0.2-0.1-0.6,0.1-0.8
						l13.9-10C161.1,125.8,161.5,125.9,161.6,126.1z"/>
				</g>
				<polygon points="152.3,131.3 158.3,127 153.9,128.4 147.9,132.7 				"/>
				<g>
					<path d="M158.7,122.1l0.6,0.9c0.2,0.2,0.1,0.6-0.1,0.8l-13.9,10c-0.2,0.2-0.6,0.1-0.8-0.1l-0.6-0.9c-0.2-0.2-0.1-0.6,0.1-0.8
						l13.9-10C158.2,121.8,158.5,121.8,158.7,122.1z"/>
				</g>
				<g>
					<polygon points="149.4,127.2 155.4,122.9 151,124.3 145,128.6 					"/>
				</g>
				<g>
					<path d="M155.8,118l0.6,0.9c0.2,0.2,0.1,0.6-0.1,0.8l-13.9,10c-0.2,0.2-0.6,0.1-0.8-0.1l-0.6-0.9c-0.2-0.2-0.1-0.6,0.1-0.8
						l13.9-10C155.2,117.7,155.6,117.7,155.8,118z"/>
				</g>
			</g>
		</g>
		<g>
			<g>
				<path d="M229.5,199.6v-1.3v-10.8h-35.2v12.2c0,9.3,7.2,16.8,16.2,17.5c0.5,0,0.9,0.1,1.4,0.1c5.5,0,10.4-2.5,13.6-6.4
					c0.7-0.9,1.4-1.8,1.9-2.8c1.1-2,1.8-4.2,2-6.6C229.5,200.8,229.5,200.2,229.5,199.6z M227.5,200.2c-0.3,8.4-7.2,15.1-15.7,15.1
					c-1.7,0-2.3-0.3-2.4-0.4c-0.1-0.6,0.8-2.8,1.4-4.3c1.2-2.9,2.8-6.5,2.9-10.5H227.5z"/>
			</g>
			<rect x="195.2" y="182.8" width="33.3" height="3"/>
		</g>
		<path d="M229.5,166.3v11.3c0,1.9-1.6,3.5-3.5,3.5h-38.7c0.7-0.3,1.4-0.7,2.1-1.1c2.1-1.5,3.5-3.8,3.9-6.4c0.4-2.6-0.2-5.2-1.7-7.3
			l-2.5-3.5h37C227.9,162.8,229.5,164.3,229.5,166.3z"/>
		<rect x="58.5" y="82.8" width="183.1" height="18.3"/>
	</g>
</g>
</svg>
